# Original procedural schematic geometry; +Y up / bow -Z. Units arbitrary.
# No materials, textures, imported meshes, or hidden dependencies.
o vessel
v 5.400000 17.920000 -64.000000
v 5.373998 17.920000 -63.482469
v 5.296241 17.920000 -62.969923
v 5.167478 17.920000 -62.467297
v 4.988949 17.920000 -61.979431
v 4.762375 17.920000 -61.511025
v 4.489936 17.920000 -61.066589
v 4.174256 17.920000 -60.650403
v 3.818377 17.920000 -60.266476
v 3.425724 17.920000 -59.918505
v 3.000079 17.920000 -59.609840
v 2.545542 17.920000 -59.343456
v 2.066491 17.920000 -59.121916
v 1.567537 17.920000 -58.947355
v 1.053488 17.920000 -58.821454
v 0.529293 17.920000 -58.745425
v 0.000000 17.920000 -58.720000
v -0.529293 17.920000 -58.745425
v -1.053488 17.920000 -58.821454
v -1.567537 17.920000 -58.947355
v -2.066491 17.920000 -59.121916
v -2.545542 17.920000 -59.343456
v -3.000079 17.920000 -59.609840
v -3.425724 17.920000 -59.918505
v -3.818377 17.920000 -60.266476
v -4.174256 17.920000 -60.650403
v -4.489936 17.920000 -61.066589
v -4.762375 17.920000 -61.511025
v -4.988949 17.920000 -61.979431
v -5.167478 17.920000 -62.467297
v -5.296241 17.920000 -62.969923
v -5.373998 17.920000 -63.482469
v -5.400000 17.920000 -64.000000
v -5.373998 17.920000 -64.517531
v -5.296241 17.920000 -65.030077
v -5.167478 17.920000 -65.532703
v -4.988949 17.920000 -66.020569
v -4.762375 17.920000 -66.488975
v -4.489936 17.920000 -66.933411
v -4.174256 17.920000 -67.349597
v -3.818377 17.920000 -67.733524
v -3.425724 17.920000 -68.081495
v -3.000079 17.920000 -68.390160
v -2.545542 17.920000 -68.656544
v -2.066491 17.920000 -68.878084
v -1.567537 17.920000 -69.052645
v -1.053488 17.920000 -69.178546
v -0.529293 17.920000 -69.254575
v -0.000000 17.920000 -69.280000
v 0.529293 17.920000 -69.254575
v 1.053488 17.920000 -69.178546
v 1.567537 17.920000 -69.052645
v 2.066491 17.920000 -68.878084
v 2.545542 17.920000 -68.656544
v 3.000079 17.920000 -68.390160
v 3.425724 17.920000 -68.081495
v 3.818377 17.920000 -67.733524
v 4.174256 17.920000 -67.349597
v 4.489936 17.920000 -66.933411
v 4.762375 17.920000 -66.488975
v 4.988949 17.920000 -66.020569
v 5.167478 17.920000 -65.532703
v 5.296241 17.920000 -65.030077
v 5.373998 17.920000 -64.517531
v 14.400000 17.320000 -64.000000
v 14.330660 17.320000 -62.619919
v 14.123308 17.320000 -61.253128
v 13.779941 17.320000 -59.912792
v 13.303865 17.320000 -58.611817
v 12.699666 17.320000 -57.362734
v 11.973162 17.320000 -56.177571
v 11.131351 17.320000 -55.067743
v 10.182338 17.320000 -54.043937
v 9.135263 17.320000 -53.116013
v 8.000211 17.320000 -52.292908
v 6.788113 17.320000 -51.582549
v 5.510641 17.320000 -50.991776
v 4.180099 17.320000 -50.526280
v 2.809301 17.320000 -50.190543
v 1.411447 17.320000 -49.987799
v 0.000000 17.320000 -49.920000
v -1.411447 17.320000 -49.987799
v -2.809301 17.320000 -50.190543
v -4.180099 17.320000 -50.526280
v -5.510641 17.320000 -50.991776
v -6.788113 17.320000 -51.582549
v -8.000211 17.320000 -52.292908
v -9.135263 17.320000 -53.116013
v -10.182338 17.320000 -54.043937
v -11.131351 17.320000 -55.067743
v -11.973162 17.320000 -56.177571
v -12.699666 17.320000 -57.362734
v -13.303865 17.320000 -58.611817
v -13.779941 17.320000 -59.912792
v -14.123308 17.320000 -61.253128
v -14.330660 17.320000 -62.619919
v -14.400000 17.320000 -64.000000
v -14.330660 17.320000 -65.380081
v -14.123308 17.320000 -66.746872
v -13.779941 17.320000 -68.087208
v -13.303865 17.320000 -69.388183
v -12.699666 17.320000 -70.637266
v -11.973162 17.320000 -71.822429
v -11.131351 17.320000 -72.932257
v -10.182338 17.320000 -73.956063
v -9.135263 17.320000 -74.883987
v -8.000211 17.320000 -75.707092
v -6.788113 17.320000 -76.417451
v -5.510641 17.320000 -77.008224
v -4.180099 17.320000 -77.473720
v -2.809301 17.320000 -77.809457
v -1.411447 17.320000 -78.012201
v -0.000000 17.320000 -78.080000
v 1.411447 17.320000 -78.012201
v 2.809301 17.320000 -77.809457
v 4.180099 17.320000 -77.473720
v 5.510641 17.320000 -77.008224
v 6.788113 17.320000 -76.417451
v 8.000211 17.320000 -75.707092
v 9.135263 17.320000 -74.883987
v 10.182338 17.320000 -73.956063
v 11.131351 17.320000 -72.932257
v 11.973162 17.320000 -71.822429
v 12.699666 17.320000 -70.637266
v 13.303865 17.320000 -69.388183
v 13.779941 17.320000 -68.087208
v 14.123308 17.320000 -66.746872
v 14.330660 17.320000 -65.380081
v 34.200000 15.220000 -64.000000
v 34.035318 15.220000 -60.722307
v 33.542857 15.220000 -57.476180
v 32.727359 15.220000 -54.292880
v 31.596680 15.220000 -51.203066
v 30.161707 15.220000 -48.236493
v 28.436261 15.220000 -45.421731
v 26.436958 15.220000 -42.785889
v 24.183052 15.220000 -40.354349
v 21.696250 15.220000 -38.150530
v 19.000502 15.220000 -36.195656
v 16.121768 15.220000 -34.508553
v 13.087773 15.220000 -33.105468
v 9.927736 15.220000 -31.999915
v 6.672089 15.220000 -31.202540
v 3.352186 15.220000 -30.721023
v 0.000000 15.220000 -30.560000
v -3.352186 15.220000 -30.721023
v -6.672089 15.220000 -31.202540
v -9.927736 15.220000 -31.999915
v -13.087773 15.220000 -33.105468
v -16.121768 15.220000 -34.508553
v -19.000502 15.220000 -36.195656
v -21.696250 15.220000 -38.150530
v -24.183052 15.220000 -40.354349
v -26.436958 15.220000 -42.785889
v -28.436261 15.220000 -45.421731
v -30.161707 15.220000 -48.236493
v -31.596680 15.220000 -51.203066
v -32.727359 15.220000 -54.292880
v -33.542857 15.220000 -57.476180
v -34.035318 15.220000 -60.722307
v -34.200000 15.220000 -64.000000
v -34.035318 15.220000 -67.277693
v -33.542857 15.220000 -70.523820
v -32.727359 15.220000 -73.707120
v -31.596680 15.220000 -76.796934
v -30.161707 15.220000 -79.763507
v -28.436261 15.220000 -82.578269
v -26.436958 15.220000 -85.214111
v -24.183052 15.220000 -87.645651
v -21.696250 15.220000 -89.849470
v -19.000502 15.220000 -91.804344
v -16.121768 15.220000 -93.491447
v -13.087773 15.220000 -94.894532
v -9.927736 15.220000 -96.000085
v -6.672089 15.220000 -96.797460
v -3.352186 15.220000 -97.278977
v -0.000000 15.220000 -97.440000
v 3.352186 15.220000 -97.278977
v 6.672089 15.220000 -96.797460
v 9.927736 15.220000 -96.000085
v 13.087773 15.220000 -94.894532
v 16.121768 15.220000 -93.491447
v 19.000502 15.220000 -91.804344
v 21.696250 15.220000 -89.849470
v 24.183052 15.220000 -87.645651
v 26.436958 15.220000 -85.214111
v 28.436261 15.220000 -82.578269
v 30.161707 15.220000 -79.763507
v 31.596680 15.220000 -76.796934
v 32.727359 15.220000 -73.707120
v 33.542857 15.220000 -70.523820
v 34.035318 15.220000 -67.277693
v 43.200000 14.020000 -64.000000
v 42.991980 14.020000 -59.859756
v 42.369924 14.020000 -55.759385
v 41.339823 14.020000 -51.738375
v 39.911596 14.020000 -47.835452
v 38.098999 14.020000 -44.088202
v 35.919487 14.020000 -40.532713
v 33.394052 14.020000 -37.203228
v 30.547013 14.020000 -34.131810
v 27.405790 14.020000 -31.348038
v 24.000634 14.020000 -28.878724
v 20.364339 14.020000 -26.747646
v 16.531924 14.020000 -24.975329
v 12.540298 14.020000 -23.578840
v 8.427902 14.020000 -22.571630
v 4.234340 14.020000 -21.963397
v 0.000000 14.020000 -21.760000
v -4.234340 14.020000 -21.963397
v -8.427902 14.020000 -22.571630
v -12.540298 14.020000 -23.578840
v -16.531924 14.020000 -24.975329
v -20.364339 14.020000 -26.747646
v -24.000634 14.020000 -28.878724
v -27.405790 14.020000 -31.348038
v -30.547013 14.020000 -34.131810
v -33.394052 14.020000 -37.203228
v -35.919487 14.020000 -40.532713
v -38.098999 14.020000 -44.088202
v -39.911596 14.020000 -47.835452
v -41.339823 14.020000 -51.738375
v -42.369924 14.020000 -55.759385
v -42.991980 14.020000 -59.859756
v -43.200000 14.020000 -64.000000
v -42.991980 14.020000 -68.140244
v -42.369924 14.020000 -72.240615
v -41.339823 14.020000 -76.261625
v -39.911596 14.020000 -80.164548
v -38.098999 14.020000 -83.911798
v -35.919487 14.020000 -87.467287
v -33.394052 14.020000 -90.796772
v -30.547013 14.020000 -93.868190
v -27.405790 14.020000 -96.651962
v -24.000634 14.020000 -99.121276
v -20.364339 14.020000 -101.252354
v -16.531924 14.020000 -103.024671
v -12.540298 14.020000 -104.421160
v -8.427902 14.020000 -105.428370
v -4.234340 14.020000 -106.036603
v -0.000000 14.020000 -106.240000
v 4.234340 14.020000 -106.036603
v 8.427902 14.020000 -105.428370
v 12.540298 14.020000 -104.421160
v 16.531924 14.020000 -103.024671
v 20.364339 14.020000 -101.252354
v 24.000634 14.020000 -99.121276
v 27.405790 14.020000 -96.651962
v 30.547013 14.020000 -93.868190
v 33.394052 14.020000 -90.796772
v 35.919487 14.020000 -87.467287
v 38.098999 14.020000 -83.911798
v 39.911596 14.020000 -80.164548
v 41.339823 14.020000 -76.261625
v 42.369924 14.020000 -72.240615
v 42.991980 14.020000 -68.140244
v 45.000000 13.300000 -64.000000
v 44.783313 13.300000 -59.687246
v 44.135338 13.300000 -55.416026
v 43.062315 13.300000 -51.227474
v 41.574579 13.300000 -47.161929
v 39.686457 13.300000 -43.258544
v 37.416133 13.300000 -39.554910
v 34.785470 13.300000 -36.086695
v 31.819805 13.300000 -32.887302
v 28.547698 13.300000 -29.987540
v 25.000660 13.300000 -27.415337
v 21.212853 13.300000 -25.195464
v 17.220754 13.300000 -23.349301
v 13.062810 13.300000 -21.894625
v 8.779064 13.300000 -20.845448
v 4.410771 13.300000 -20.211872
v 0.000000 13.300000 -20.000000
v -4.410771 13.300000 -20.211872
v -8.779064 13.300000 -20.845448
v -13.062810 13.300000 -21.894625
v -17.220754 13.300000 -23.349301
v -21.212853 13.300000 -25.195464
v -25.000660 13.300000 -27.415337
v -28.547698 13.300000 -29.987540
v -31.819805 13.300000 -32.887302
v -34.785470 13.300000 -36.086695
v -37.416133 13.300000 -39.554910
v -39.686457 13.300000 -43.258544
v -41.574579 13.300000 -47.161929
v -43.062315 13.300000 -51.227474
v -44.135338 13.300000 -55.416026
v -44.783313 13.300000 -59.687246
v -45.000000 13.300000 -64.000000
v -44.783313 13.300000 -68.312754
v -44.135338 13.300000 -72.583974
v -43.062315 13.300000 -76.772526
v -41.574579 13.300000 -80.838071
v -39.686457 13.300000 -84.741456
v -37.416133 13.300000 -88.445090
v -34.785470 13.300000 -91.913305
v -31.819805 13.300000 -95.112698
v -28.547698 13.300000 -98.012460
v -25.000660 13.300000 -100.584663
v -21.212853 13.300000 -102.804536
v -17.220754 13.300000 -104.650699
v -13.062810 13.300000 -106.105375
v -8.779064 13.300000 -107.154552
v -4.410771 13.300000 -107.788128
v -0.000000 13.300000 -108.000000
v 4.410771 13.300000 -107.788128
v 8.779064 13.300000 -107.154552
v 13.062810 13.300000 -106.105375
v 17.220754 13.300000 -104.650699
v 21.212853 13.300000 -102.804536
v 25.000660 13.300000 -100.584663
v 28.547698 13.300000 -98.012460
v 31.819805 13.300000 -95.112698
v 34.785470 13.300000 -91.913305
v 37.416133 13.300000 -88.445090
v 39.686457 13.300000 -84.741456
v 41.574579 13.300000 -80.838071
v 43.062315 13.300000 -76.772526
v 44.135338 13.300000 -72.583974
v 44.783313 13.300000 -68.312754
v 45.000000 12.220000 -64.000000
v 44.783313 12.220000 -59.687246
v 44.135338 12.220000 -55.416026
v 43.062315 12.220000 -51.227474
v 41.574579 12.220000 -47.161929
v 39.686457 12.220000 -43.258544
v 37.416133 12.220000 -39.554910
v 34.785470 12.220000 -36.086695
v 31.819805 12.220000 -32.887302
v 28.547698 12.220000 -29.987540
v 25.000660 12.220000 -27.415337
v 21.212853 12.220000 -25.195464
v 17.220754 12.220000 -23.349301
v 13.062810 12.220000 -21.894625
v 8.779064 12.220000 -20.845448
v 4.410771 12.220000 -20.211872
v 0.000000 12.220000 -20.000000
v -4.410771 12.220000 -20.211872
v -8.779064 12.220000 -20.845448
v -13.062810 12.220000 -21.894625
v -17.220754 12.220000 -23.349301
v -21.212853 12.220000 -25.195464
v -25.000660 12.220000 -27.415337
v -28.547698 12.220000 -29.987540
v -31.819805 12.220000 -32.887302
v -34.785470 12.220000 -36.086695
v -37.416133 12.220000 -39.554910
v -39.686457 12.220000 -43.258544
v -41.574579 12.220000 -47.161929
v -43.062315 12.220000 -51.227474
v -44.135338 12.220000 -55.416026
v -44.783313 12.220000 -59.687246
v -45.000000 12.220000 -64.000000
v -44.783313 12.220000 -68.312754
v -44.135338 12.220000 -72.583974
v -43.062315 12.220000 -76.772526
v -41.574579 12.220000 -80.838071
v -39.686457 12.220000 -84.741456
v -37.416133 12.220000 -88.445090
v -34.785470 12.220000 -91.913305
v -31.819805 12.220000 -95.112698
v -28.547698 12.220000 -98.012460
v -25.000660 12.220000 -100.584663
v -21.212853 12.220000 -102.804536
v -17.220754 12.220000 -104.650699
v -13.062810 12.220000 -106.105375
v -8.779064 12.220000 -107.154552
v -4.410771 12.220000 -107.788128
v -0.000000 12.220000 -108.000000
v 4.410771 12.220000 -107.788128
v 8.779064 12.220000 -107.154552
v 13.062810 12.220000 -106.105375
v 17.220754 12.220000 -104.650699
v 21.212853 12.220000 -102.804536
v 25.000660 12.220000 -100.584663
v 28.547698 12.220000 -98.012460
v 31.819805 12.220000 -95.112698
v 34.785470 12.220000 -91.913305
v 37.416133 12.220000 -88.445090
v 39.686457 12.220000 -84.741456
v 41.574579 12.220000 -80.838071
v 43.062315 12.220000 -76.772526
v 44.135338 12.220000 -72.583974
v 44.783313 12.220000 -68.312754
v 37.350000 10.600000 -64.000000
v 37.170150 10.600000 -60.420414
v 36.632330 10.600000 -56.875301
v 35.741722 10.600000 -53.398804
v 34.506901 10.600000 -50.024401
v 32.939759 10.600000 -46.784591
v 31.055390 10.600000 -43.710575
v 28.871940 10.600000 -40.831957
v 26.410438 10.600000 -38.176460
v 23.694589 10.600000 -35.769658
v 20.750548 10.600000 -33.634730
v 17.606668 10.600000 -31.792235
v 14.293226 10.600000 -30.259919
v 10.842133 10.600000 -29.052539
v 7.286624 10.600000 -28.181722
v 3.660940 10.600000 -27.655854
v 0.000000 10.600000 -27.480000
v -3.660940 10.600000 -27.655854
v -7.286624 10.600000 -28.181722
v -10.842133 10.600000 -29.052539
v -14.293226 10.600000 -30.259919
v -17.606668 10.600000 -31.792235
v -20.750548 10.600000 -33.634730
v -23.694589 10.600000 -35.769658
v -26.410438 10.600000 -38.176460
v -28.871940 10.600000 -40.831957
v -31.055390 10.600000 -43.710575
v -32.939759 10.600000 -46.784591
v -34.506901 10.600000 -50.024401
v -35.741722 10.600000 -53.398804
v -36.632330 10.600000 -56.875301
v -37.170150 10.600000 -60.420414
v -37.350000 10.600000 -64.000000
v -37.170150 10.600000 -67.579586
v -36.632330 10.600000 -71.124699
v -35.741722 10.600000 -74.601196
v -34.506901 10.600000 -77.975599
v -32.939759 10.600000 -81.215409
v -31.055390 10.600000 -84.289425
v -28.871940 10.600000 -87.168043
v -26.410438 10.600000 -89.823540
v -23.694589 10.600000 -92.230342
v -20.750548 10.600000 -94.365270
v -17.606668 10.600000 -96.207765
v -14.293226 10.600000 -97.740081
v -10.842133 10.600000 -98.947461
v -7.286624 10.600000 -99.818278
v -3.660940 10.600000 -100.344146
v -0.000000 10.600000 -100.520000
v 3.660940 10.600000 -100.344146
v 7.286624 10.600000 -99.818278
v 10.842133 10.600000 -98.947461
v 14.293226 10.600000 -97.740081
v 17.606668 10.600000 -96.207765
v 20.750548 10.600000 -94.365270
v 23.694589 10.600000 -92.230342
v 26.410438 10.600000 -89.823540
v 28.871940 10.600000 -87.168043
v 31.055390 10.600000 -84.289425
v 32.939759 10.600000 -81.215409
v 34.506901 10.600000 -77.975599
v 35.741722 10.600000 -74.601196
v 36.632330 10.600000 -71.124699
v 37.170150 10.600000 -67.579586
v 12.600000 9.160000 -64.000000
v 12.539328 9.160000 -62.792429
v 12.357895 9.160000 -61.596487
v 12.057448 9.160000 -60.423693
v 11.640882 9.160000 -59.285340
v 11.112208 9.160000 -58.192392
v 10.476517 9.160000 -57.155375
v 9.739932 9.160000 -56.184275
v 8.909545 9.160000 -55.288444
v 7.993355 9.160000 -54.476511
v 7.000185 9.160000 -53.756294
v 5.939599 9.160000 -53.134730
v 4.821811 9.160000 -52.617804
v 3.657587 9.160000 -52.210495
v 2.458138 9.160000 -51.916725
v 1.235016 9.160000 -51.739324
v 0.000000 9.160000 -51.680000
v -1.235016 9.160000 -51.739324
v -2.458138 9.160000 -51.916725
v -3.657587 9.160000 -52.210495
v -4.821811 9.160000 -52.617804
v -5.939599 9.160000 -53.134730
v -7.000185 9.160000 -53.756294
v -7.993355 9.160000 -54.476511
v -8.909545 9.160000 -55.288444
v -9.739932 9.160000 -56.184275
v -10.476517 9.160000 -57.155375
v -11.112208 9.160000 -58.192392
v -11.640882 9.160000 -59.285340
v -12.057448 9.160000 -60.423693
v -12.357895 9.160000 -61.596487
v -12.539328 9.160000 -62.792429
v -12.600000 9.160000 -64.000000
v -12.539328 9.160000 -65.207571
v -12.357895 9.160000 -66.403513
v -12.057448 9.160000 -67.576307
v -11.640882 9.160000 -68.714660
v -11.112208 9.160000 -69.807608
v -10.476517 9.160000 -70.844625
v -9.739932 9.160000 -71.815725
v -8.909545 9.160000 -72.711556
v -7.993355 9.160000 -73.523489
v -7.000185 9.160000 -74.243706
v -5.939599 9.160000 -74.865270
v -4.821811 9.160000 -75.382196
v -3.657587 9.160000 -75.789505
v -2.458138 9.160000 -76.083275
v -1.235016 9.160000 -76.260676
v -0.000000 9.160000 -76.320000
v 1.235016 9.160000 -76.260676
v 2.458138 9.160000 -76.083275
v 3.657587 9.160000 -75.789505
v 4.821811 9.160000 -75.382196
v 5.939599 9.160000 -74.865270
v 7.000185 9.160000 -74.243706
v 7.993355 9.160000 -73.523489
v 8.909545 9.160000 -72.711556
v 9.739932 9.160000 -71.815725
v 10.476517 9.160000 -70.844625
v 11.112208 9.160000 -69.807608
v 11.640882 9.160000 -68.714660
v 12.057448 9.160000 -67.576307
v 12.357895 9.160000 -66.403513
v 12.539328 9.160000 -65.207571
v 5.400000 9.040000 -64.000000
v 5.373998 9.040000 -63.482469
v 5.296241 9.040000 -62.969923
v 5.167478 9.040000 -62.467297
v 4.988949 9.040000 -61.979431
v 4.762375 9.040000 -61.511025
v 4.489936 9.040000 -61.066589
v 4.174256 9.040000 -60.650403
v 3.818377 9.040000 -60.266476
v 3.425724 9.040000 -59.918505
v 3.000079 9.040000 -59.609840
v 2.545542 9.040000 -59.343456
v 2.066491 9.040000 -59.121916
v 1.567537 9.040000 -58.947355
v 1.053488 9.040000 -58.821454
v 0.529293 9.040000 -58.745425
v 0.000000 9.040000 -58.720000
v -0.529293 9.040000 -58.745425
v -1.053488 9.040000 -58.821454
v -1.567537 9.040000 -58.947355
v -2.066491 9.040000 -59.121916
v -2.545542 9.040000 -59.343456
v -3.000079 9.040000 -59.609840
v -3.425724 9.040000 -59.918505
v -3.818377 9.040000 -60.266476
v -4.174256 9.040000 -60.650403
v -4.489936 9.040000 -61.066589
v -4.762375 9.040000 -61.511025
v -4.988949 9.040000 -61.979431
v -5.167478 9.040000 -62.467297
v -5.296241 9.040000 -62.969923
v -5.373998 9.040000 -63.482469
v -5.400000 9.040000 -64.000000
v -5.373998 9.040000 -64.517531
v -5.296241 9.040000 -65.030077
v -5.167478 9.040000 -65.532703
v -4.988949 9.040000 -66.020569
v -4.762375 9.040000 -66.488975
v -4.489936 9.040000 -66.933411
v -4.174256 9.040000 -67.349597
v -3.818377 9.040000 -67.733524
v -3.425724 9.040000 -68.081495
v -3.000079 9.040000 -68.390160
v -2.545542 9.040000 -68.656544
v -2.066491 9.040000 -68.878084
v -1.567537 9.040000 -69.052645
v -1.053488 9.040000 -69.178546
v -0.529293 9.040000 -69.254575
v -0.000000 9.040000 -69.280000
v 0.529293 9.040000 -69.254575
v 1.053488 9.040000 -69.178546
v 1.567537 9.040000 -69.052645
v 2.066491 9.040000 -68.878084
v 2.545542 9.040000 -68.656544
v 3.000079 9.040000 -68.390160
v 3.425724 9.040000 -68.081495
v 3.818377 9.040000 -67.733524
v 4.174256 9.040000 -67.349597
v 4.489936 9.040000 -66.933411
v 4.762375 9.040000 -66.488975
v 4.988949 9.040000 -66.020569
v 5.167478 9.040000 -65.532703
v 5.296241 9.040000 -65.030077
v 5.373998 9.040000 -64.517531
v 21.150000 16.622091 -64.000000
v 21.048157 16.622091 -61.973006
v 20.743609 16.622091 -59.965532
v 20.239288 16.622091 -57.996913
v 19.540052 16.622091 -56.086107
v 18.652635 16.622091 -54.251515
v 17.585582 16.622091 -52.510808
v 16.349171 16.622091 -50.880747
v 14.955308 16.622091 -49.377032
v 13.417418 16.622091 -48.014144
v 11.750310 16.622091 -46.805208
v 9.970041 16.622091 -45.761868
v 8.093755 16.622091 -44.894171
v 6.139521 16.622091 -44.210474
v 4.126160 16.622091 -43.717360
v 2.073063 16.622091 -43.419580
v 0.000000 16.622091 -43.320000
v -2.073063 16.622091 -43.419580
v -4.126160 16.622091 -43.717360
v -6.139521 16.622091 -44.210474
v -8.093755 16.622091 -44.894171
v -9.970041 16.622091 -45.761868
v -11.750310 16.622091 -46.805208
v -13.417418 16.622091 -48.014144
v -14.955308 16.622091 -49.377032
v -16.349171 16.622091 -50.880747
v -17.585582 16.622091 -52.510808
v -18.652635 16.622091 -54.251515
v -19.540052 16.622091 -56.086107
v -20.239288 16.622091 -57.996913
v -20.743609 16.622091 -59.965532
v -21.048157 16.622091 -61.973006
v -21.150000 16.622091 -64.000000
v -21.048157 16.622091 -66.026994
v -20.743609 16.622091 -68.034468
v -20.239288 16.622091 -70.003087
v -19.540052 16.622091 -71.913893
v -18.652635 16.622091 -73.748485
v -17.585582 16.622091 -75.489192
v -16.349171 16.622091 -77.119253
v -14.955308 16.622091 -78.622968
v -13.417418 16.622091 -79.985856
v -11.750310 16.622091 -81.194792
v -9.970041 16.622091 -82.238132
v -8.093755 16.622091 -83.105829
v -6.139521 16.622091 -83.789526
v -4.126160 16.622091 -84.282640
v -2.073063 16.622091 -84.580420
v -0.000000 16.622091 -84.680000
v 2.073063 16.622091 -84.580420
v 4.126160 16.622091 -84.282640
v 6.139521 16.622091 -83.789526
v 8.093755 16.622091 -83.105829
v 9.970041 16.622091 -82.238132
v 11.750310 16.622091 -81.194792
v 13.417418 16.622091 -79.985856
v 14.955308 16.622091 -78.622968
v 16.349171 16.622091 -77.119253
v 17.585582 16.622091 -75.489192
v 18.652635 16.622091 -73.748485
v 19.540052 16.622091 -71.913893
v 20.239288 16.622091 -70.003087
v 20.743609 16.622091 -68.034468
v 21.048157 16.622091 -66.026994
v 27.000000 16.001636 -64.000000
v 26.869988 16.001636 -61.412347
v 26.481203 16.001636 -58.849615
v 25.837389 16.001636 -56.336485
v 24.944747 16.001636 -53.897157
v 23.811874 16.001636 -51.555126
v 22.449680 16.001636 -49.332946
v 20.871282 16.001636 -47.252017
v 19.091883 16.001636 -45.332381
v 17.128619 16.001636 -43.592524
v 15.000396 16.001636 -42.049202
v 12.727712 16.001636 -40.717279
v 10.332453 16.001636 -39.609580
v 7.837686 16.001636 -38.736775
v 5.267439 16.001636 -38.107269
v 2.646463 16.001636 -37.727123
v 0.000000 16.001636 -37.600000
v -2.646463 16.001636 -37.727123
v -5.267439 16.001636 -38.107269
v -7.837686 16.001636 -38.736775
v -10.332453 16.001636 -39.609580
v -12.727712 16.001636 -40.717279
v -15.000396 16.001636 -42.049202
v -17.128619 16.001636 -43.592524
v -19.091883 16.001636 -45.332381
v -20.871282 16.001636 -47.252017
v -22.449680 16.001636 -49.332946
v -23.811874 16.001636 -51.555126
v -24.944747 16.001636 -53.897157
v -25.837389 16.001636 -56.336485
v -26.481203 16.001636 -58.849615
v -26.869988 16.001636 -61.412347
v -27.000000 16.001636 -64.000000
v -26.869988 16.001636 -66.587653
v -26.481203 16.001636 -69.150385
v -25.837389 16.001636 -71.663515
v -24.944747 16.001636 -74.102843
v -23.811874 16.001636 -76.444874
v -22.449680 16.001636 -78.667054
v -20.871282 16.001636 -80.747983
v -19.091883 16.001636 -82.667619
v -17.128619 16.001636 -84.407476
v -15.000396 16.001636 -85.950798
v -12.727712 16.001636 -87.282721
v -10.332453 16.001636 -88.390420
v -7.837686 16.001636 -89.263225
v -5.267439 16.001636 -89.892731
v -2.646463 16.001636 -90.272877
v -0.000000 16.001636 -90.400000
v 2.646463 16.001636 -90.272877
v 5.267439 16.001636 -89.892731
v 7.837686 16.001636 -89.263225
v 10.332453 16.001636 -88.390420
v 12.727712 16.001636 -87.282721
v 15.000396 16.001636 -85.950798
v 17.128619 16.001636 -84.407476
v 19.091883 16.001636 -82.667619
v 20.871282 16.001636 -80.747983
v 22.449680 16.001636 -78.667054
v 23.811874 16.001636 -76.444874
v 24.944747 16.001636 -74.102843
v 25.837389 16.001636 -71.663515
v 26.481203 16.001636 -69.150385
v 26.869988 16.001636 -66.587653
v 39.600000 14.518000 -64.000000
v 39.409315 14.518000 -60.204776
v 38.839097 14.518000 -56.446103
v 37.894837 14.518000 -52.760177
v 36.585629 14.518000 -49.182497
v 34.924082 14.518000 -45.747518
v 32.926197 14.518000 -42.488321
v 30.611214 14.518000 -39.436292
v 28.001429 14.518000 -36.620825
v 25.121974 14.518000 -34.069035
v 22.000581 14.518000 -31.805497
v 18.667311 14.518000 -29.852009
v 15.154264 14.518000 -28.227385
v 11.495273 14.518000 -26.947270
v 7.725577 14.518000 -26.023994
v 3.881479 14.518000 -25.466447
v 0.000000 14.518000 -25.280000
v -3.881479 14.518000 -25.466447
v -7.725577 14.518000 -26.023994
v -11.495273 14.518000 -26.947270
v -15.154264 14.518000 -28.227385
v -18.667311 14.518000 -29.852009
v -22.000581 14.518000 -31.805497
v -25.121974 14.518000 -34.069035
v -28.001429 14.518000 -36.620825
v -30.611214 14.518000 -39.436292
v -32.926197 14.518000 -42.488321
v -34.924082 14.518000 -45.747518
v -36.585629 14.518000 -49.182497
v -37.894837 14.518000 -52.760177
v -38.839097 14.518000 -56.446103
v -39.409315 14.518000 -60.204776
v -39.600000 14.518000 -64.000000
v -39.409315 14.518000 -67.795224
v -38.839097 14.518000 -71.553897
v -37.894837 14.518000 -75.239823
v -36.585629 14.518000 -78.817503
v -34.924082 14.518000 -82.252482
v -32.926197 14.518000 -85.511679
v -30.611214 14.518000 -88.563708
v -28.001429 14.518000 -91.379175
v -25.121974 14.518000 -93.930965
v -22.000581 14.518000 -96.194503
v -18.667311 14.518000 -98.147991
v -15.154264 14.518000 -99.772615
v -11.495273 14.518000 -101.052730
v -7.725577 14.518000 -101.976006
v -3.881479 14.518000 -102.533553
v -0.000000 14.518000 -102.720000
v 3.881479 14.518000 -102.533553
v 7.725577 14.518000 -101.976006
v 11.495273 14.518000 -101.052730
v 15.154264 14.518000 -99.772615
v 18.667311 14.518000 -98.147991
v 22.000581 14.518000 -96.194503
v 25.121974 14.518000 -93.930965
v 28.001429 14.518000 -91.379175
v 30.611214 14.518000 -88.563708
v 32.926197 14.518000 -85.511679
v 34.924082 14.518000 -82.252482
v 36.585629 14.518000 -78.817503
v 37.894837 14.518000 -75.239823
v 38.839097 14.518000 -71.553897
v 39.409315 14.518000 -67.795224
v 41.711475 14.230000 -64.530229
v 41.711475 14.230000 -63.469771
v 41.563776 14.230000 -60.530091
v 41.457470 14.230000 -59.474739
v 41.015794 14.230000 -56.563369
v 40.804207 14.230000 -55.523287
v 40.072809 14.230000 -52.668267
v 39.757978 14.230000 -51.653471
v 38.743900 14.230000 -48.882295
v 38.328857 14.230000 -47.902559
v 37.041866 14.230000 -45.241915
v 36.530608 14.230000 -44.306674
v 34.983099 14.230000 -41.782185
v 34.380550 14.230000 -40.900447
v 32.587425 14.230000 -38.536426
v 31.899388 14.230000 -37.716681
v 29.877917 14.230000 -35.535894
v 29.111017 14.230000 -34.786037
v 26.880668 14.230000 -32.809488
v 26.042292 14.230000 -32.136740
v 23.624543 14.230000 -30.383463
v 22.722765 14.230000 -29.794304
v 20.140901 14.230000 -28.281183
v 19.184405 14.230000 -27.781287
v 16.463292 14.230000 -26.522896
v 15.461289 14.230000 -26.117076
v 12.627131 14.230000 -25.125533
v 11.589273 14.230000 -24.817698
v 8.669365 14.230000 -24.102553
v 7.605645 14.230000 -23.895668
v -7.605645 14.230000 -23.895668
v -8.669365 14.230000 -24.102553
v -11.589273 14.230000 -24.817698
v -12.627131 14.230000 -25.125533
v -15.461289 14.230000 -26.117076
v -16.463292 14.230000 -26.522896
v -19.184405 14.230000 -27.781287
v -20.140901 14.230000 -28.281183
v -22.722765 14.230000 -29.794304
v -23.624543 14.230000 -30.383463
v -26.042292 14.230000 -32.136740
v -26.880668 14.230000 -32.809488
v -29.111017 14.230000 -34.786037
v -29.877917 14.230000 -35.535894
v -31.899388 14.230000 -37.716681
v -32.587425 14.230000 -38.536426
v -34.380550 14.230000 -40.900447
v -34.983099 14.230000 -41.782185
v -36.530608 14.230000 -44.306674
v -37.041866 14.230000 -45.241915
v -38.328857 14.230000 -47.902559
v -38.743900 14.230000 -48.882295
v -39.757978 14.230000 -51.653471
v -40.072809 14.230000 -52.668267
v -40.804207 14.230000 -55.523287
v -41.015794 14.230000 -56.563369
v -41.457470 14.230000 -59.474739
v -41.563776 14.230000 -60.530091
v -41.711475 14.230000 -63.469771
v -41.711475 14.230000 -64.530229
v -41.563776 14.230000 -67.469909
v -41.457470 14.230000 -68.525261
v -41.015794 14.230000 -71.436631
v -40.804207 14.230000 -72.476713
v -40.072809 14.230000 -75.331733
v -39.757978 14.230000 -76.346529
v -38.743900 14.230000 -79.117705
v -38.328857 14.230000 -80.097441
v -37.041866 14.230000 -82.758085
v -36.530608 14.230000 -83.693326
v -34.983099 14.230000 -86.217815
v -34.380550 14.230000 -87.099553
v -32.587425 14.230000 -89.463574
v -31.899388 14.230000 -90.283319
v -29.877917 14.230000 -92.464106
v -29.111017 14.230000 -93.213963
v -26.880668 14.230000 -95.190512
v -26.042292 14.230000 -95.863260
v -23.624543 14.230000 -97.616537
v -22.722765 14.230000 -98.205696
v -20.140901 14.230000 -99.718817
v -19.184405 14.230000 -100.218713
v -16.463292 14.230000 -101.477104
v -15.461289 14.230000 -101.882924
v -12.627131 14.230000 -102.874467
v -11.589273 14.230000 -103.182302
v -8.669365 14.230000 -103.897447
v -7.605645 14.230000 -104.104332
v 7.605645 14.230000 -104.104332
v 8.669365 14.230000 -103.897447
v 11.589273 14.230000 -103.182302
v 12.627131 14.230000 -102.874467
v 15.461289 14.230000 -101.882924
v 16.463292 14.230000 -101.477104
v 19.184405 14.230000 -100.218713
v 20.140901 14.230000 -99.718817
v 22.722765 14.230000 -98.205696
v 23.624543 14.230000 -97.616537
v 26.042292 14.230000 -95.863260
v 26.880668 14.230000 -95.190512
v 29.111017 14.230000 -93.213963
v 29.877917 14.230000 -92.464106
v 31.899388 14.230000 -90.283319
v 32.587425 14.230000 -89.463574
v 34.380550 14.230000 -87.099553
v 34.983099 14.230000 -86.217815
v 36.530608 14.230000 -83.693326
v 37.041866 14.230000 -82.758085
v 38.328857 14.230000 -80.097441
v 38.743900 14.230000 -79.117705
v 39.757978 14.230000 -76.346529
v 40.072809 14.230000 -75.331733
v 40.804207 14.230000 -72.476713
v 41.015794 14.230000 -71.436631
v 41.457470 14.230000 -68.525261
v 41.563776 14.230000 -67.469909
v 0.693000 20.383000 -60.000000
v 0.669387 20.383000 -59.782592
v 0.600156 20.383000 -59.580000
v 0.490025 20.383000 -59.406030
v 0.346500 20.383000 -59.272539
v 0.179362 20.383000 -59.188622
v 0.000000 20.383000 -59.160000
v -0.179362 20.383000 -59.188622
v -0.346500 20.383000 -59.272539
v -0.490025 20.383000 -59.406030
v -0.600156 20.383000 -59.580000
v -0.669387 20.383000 -59.782592
v -0.693000 20.383000 -60.000000
v -0.669387 20.383000 -60.217408
v -0.600156 20.383000 -60.420000
v -0.490025 20.383000 -60.593970
v -0.346500 20.383000 -60.727461
v -0.179362 20.383000 -60.811378
v -0.000000 20.383000 -60.840000
v 0.179362 20.383000 -60.811378
v 0.346500 20.383000 -60.727461
v 0.490025 20.383000 -60.593970
v 0.600156 20.383000 -60.420000
v 0.669387 20.383000 -60.217408
v 1.848000 20.068000 -60.000000
v 1.785031 20.068000 -59.420245
v 1.600415 20.068000 -58.880000
v 1.306733 20.068000 -58.416081
v 0.924000 20.068000 -58.060103
v 0.478298 20.068000 -57.836326
v 0.000000 20.068000 -57.760000
v -0.478298 20.068000 -57.836326
v -0.924000 20.068000 -58.060103
v -1.306733 20.068000 -58.416081
v -1.600415 20.068000 -58.880000
v -1.785031 20.068000 -59.420245
v -1.848000 20.068000 -60.000000
v -1.785031 20.068000 -60.579755
v -1.600415 20.068000 -61.120000
v -1.306733 20.068000 -61.583919
v -0.924000 20.068000 -61.939897
v -0.478298 20.068000 -62.163674
v -0.000000 20.068000 -62.240000
v 0.478298 20.068000 -62.163674
v 0.924000 20.068000 -61.939897
v 1.306733 20.068000 -61.583919
v 1.600415 20.068000 -61.120000
v 1.785031 20.068000 -60.579755
v 4.389000 18.965500 -60.000000
v 4.239448 18.965500 -58.623083
v 3.800985 18.965500 -57.340000
v 3.103492 18.965500 -56.238192
v 2.194500 18.965500 -55.392745
v 1.135957 18.965500 -54.861275
v 0.000000 18.965500 -54.680000
v -1.135957 18.965500 -54.861275
v -2.194500 18.965500 -55.392745
v -3.103492 18.965500 -56.238192
v -3.800985 18.965500 -57.340000
v -4.239448 18.965500 -58.623083
v -4.389000 18.965500 -60.000000
v -4.239448 18.965500 -61.376917
v -3.800985 18.965500 -62.660000
v -3.103492 18.965500 -63.761808
v -2.194500 18.965500 -64.607255
v -1.135957 18.965500 -65.138725
v -0.000000 18.965500 -65.320000
v 1.135957 18.965500 -65.138725
v 2.194500 18.965500 -64.607255
v 3.103492 18.965500 -63.761808
v 3.800985 18.965500 -62.660000
v 4.239448 18.965500 -61.376917
v 5.544000 18.335500 -60.000000
v 5.355093 18.335500 -58.260736
v 4.801245 18.335500 -56.640000
v 3.920200 18.335500 -55.248242
v 2.772000 18.335500 -54.180309
v 1.434893 18.335500 -53.508978
v 0.000000 18.335500 -53.280000
v -1.434893 18.335500 -53.508978
v -2.772000 18.335500 -54.180309
v -3.920200 18.335500 -55.248242
v -4.801245 18.335500 -56.640000
v -5.355093 18.335500 -58.260736
v -5.544000 18.335500 -60.000000
v -5.355093 18.335500 -61.739264
v -4.801245 18.335500 -63.360000
v -3.920200 18.335500 -64.751758
v -2.772000 18.335500 -65.819691
v -1.434893 18.335500 -66.491022
v -0.000000 18.335500 -66.720000
v 1.434893 18.335500 -66.491022
v 2.772000 18.335500 -65.819691
v 3.920200 18.335500 -64.751758
v 4.801245 18.335500 -63.360000
v 5.355093 18.335500 -61.739264
v 5.775000 17.957500 -60.000000
v 5.578222 17.957500 -58.188267
v 5.001297 17.957500 -56.500000
v 4.083542 17.957500 -55.050253
v 2.887500 17.957500 -53.937822
v 1.494680 17.957500 -53.238519
v 0.000000 17.957500 -53.000000
v -1.494680 17.957500 -53.238519
v -2.887500 17.957500 -53.937822
v -4.083542 17.957500 -55.050253
v -5.001297 17.957500 -56.500000
v -5.578222 17.957500 -58.188267
v -5.775000 17.957500 -60.000000
v -5.578222 17.957500 -61.811733
v -5.001297 17.957500 -63.500000
v -4.083542 17.957500 -64.949747
v -2.887500 17.957500 -66.062178
v -1.494680 17.957500 -66.761481
v -0.000000 17.957500 -67.000000
v 1.494680 17.957500 -66.761481
v 2.887500 17.957500 -66.062178
v 4.083542 17.957500 -64.949747
v 5.001297 17.957500 -63.500000
v 5.578222 17.957500 -61.811733
v 5.775000 17.390500 -60.000000
v 5.578222 17.390500 -58.188267
v 5.001297 17.390500 -56.500000
v 4.083542 17.390500 -55.050253
v 2.887500 17.390500 -53.937822
v 1.494680 17.390500 -53.238519
v 0.000000 17.390500 -53.000000
v -1.494680 17.390500 -53.238519
v -2.887500 17.390500 -53.937822
v -4.083542 17.390500 -55.050253
v -5.001297 17.390500 -56.500000
v -5.578222 17.390500 -58.188267
v -5.775000 17.390500 -60.000000
v -5.578222 17.390500 -61.811733
v -5.001297 17.390500 -63.500000
v -4.083542 17.390500 -64.949747
v -2.887500 17.390500 -66.062178
v -1.494680 17.390500 -66.761481
v -0.000000 17.390500 -67.000000
v 1.494680 17.390500 -66.761481
v 2.887500 17.390500 -66.062178
v 4.083542 17.390500 -64.949747
v 5.001297 17.390500 -63.500000
v 5.578222 17.390500 -61.811733
v 4.793250 16.540000 -60.000000
v 4.629924 16.540000 -58.496261
v 4.151076 16.540000 -57.095000
v 3.389340 16.540000 -55.891710
v 2.396625 16.540000 -54.968392
v 1.240584 16.540000 -54.387971
v 0.000000 16.540000 -54.190000
v -1.240584 16.540000 -54.387971
v -2.396625 16.540000 -54.968392
v -3.389340 16.540000 -55.891710
v -4.151076 16.540000 -57.095000
v -4.629924 16.540000 -58.496261
v -4.793250 16.540000 -60.000000
v -4.629924 16.540000 -61.503739
v -4.151076 16.540000 -62.905000
v -3.389340 16.540000 -64.108290
v -2.396625 16.540000 -65.031608
v -1.240584 16.540000 -65.612029
v -0.000000 16.540000 -65.810000
v 1.240584 16.540000 -65.612029
v 2.396625 16.540000 -65.031608
v 3.389340 16.540000 -64.108290
v 4.151076 16.540000 -62.905000
v 4.629924 16.540000 -61.503739
v 1.617000 15.784000 -60.000000
v 1.561902 15.784000 -59.492715
v 1.400363 15.784000 -59.020000
v 1.143392 15.784000 -58.614071
v 0.808500 15.784000 -58.302590
v 0.418510 15.784000 -58.106785
v 0.000000 15.784000 -58.040000
v -0.418510 15.784000 -58.106785
v -0.808500 15.784000 -58.302590
v -1.143392 15.784000 -58.614071
v -1.400363 15.784000 -59.020000
v -1.561902 15.784000 -59.492715
v -1.617000 15.784000 -60.000000
v -1.561902 15.784000 -60.507285
v -1.400363 15.784000 -60.980000
v -1.143392 15.784000 -61.385929
v -0.808500 15.784000 -61.697410
v -0.418510 15.784000 -61.893215
v -0.000000 15.784000 -61.960000
v 0.418510 15.784000 -61.893215
v 0.808500 15.784000 -61.697410
v 1.143392 15.784000 -61.385929
v 1.400363 15.784000 -60.980000
v 1.561902 15.784000 -60.507285
v 0.693000 15.721000 -60.000000
v 0.669387 15.721000 -59.782592
v 0.600156 15.721000 -59.580000
v 0.490025 15.721000 -59.406030
v 0.346500 15.721000 -59.272539
v 0.179362 15.721000 -59.188622
v 0.000000 15.721000 -59.160000
v -0.179362 15.721000 -59.188622
v -0.346500 15.721000 -59.272539
v -0.490025 15.721000 -59.406030
v -0.600156 15.721000 -59.580000
v -0.669387 15.721000 -59.782592
v -0.693000 15.721000 -60.000000
v -0.669387 15.721000 -60.217408
v -0.600156 15.721000 -60.420000
v -0.490025 15.721000 -60.593970
v -0.346500 15.721000 -60.727461
v -0.179362 15.721000 -60.811378
v -0.000000 15.721000 -60.840000
v 0.179362 15.721000 -60.811378
v 0.346500 15.721000 -60.727461
v 0.490025 15.721000 -60.593970
v 0.600156 15.721000 -60.420000
v 0.669387 15.721000 -60.217408
v 0.420000 21.510000 -60.350000
v 0.405689 21.510000 -60.230426
v 0.363731 21.510000 -60.119000
v 0.296985 21.510000 -60.023317
v 0.210000 21.510000 -59.949896
v 0.108704 21.510000 -59.903742
v 0.000000 21.510000 -59.888000
v -0.108704 21.510000 -59.903742
v -0.210000 21.510000 -59.949896
v -0.296985 21.510000 -60.023317
v -0.363731 21.510000 -60.119000
v -0.405689 21.510000 -60.230426
v -0.420000 21.510000 -60.350000
v -0.405689 21.510000 -60.469574
v -0.363731 21.510000 -60.581000
v -0.296985 21.510000 -60.676683
v -0.210000 21.510000 -60.750104
v -0.108704 21.510000 -60.796258
v -0.000000 21.510000 -60.812000
v 0.108704 21.510000 -60.796258
v 0.210000 21.510000 -60.750104
v 0.296985 21.510000 -60.676683
v 0.363731 21.510000 -60.581000
v 0.405689 21.510000 -60.469574
v 1.120000 21.335000 -60.350000
v 1.081837 21.335000 -60.031135
v 0.969948 21.335000 -59.734000
v 0.791960 21.335000 -59.478844
v 0.560000 21.335000 -59.283057
v 0.289877 21.335000 -59.159979
v 0.000000 21.335000 -59.118000
v -0.289877 21.335000 -59.159979
v -0.560000 21.335000 -59.283057
v -0.791960 21.335000 -59.478844
v -0.969948 21.335000 -59.734000
v -1.081837 21.335000 -60.031135
v -1.120000 21.335000 -60.350000
v -1.081837 21.335000 -60.668865
v -0.969948 21.335000 -60.966000
v -0.791960 21.335000 -61.221156
v -0.560000 21.335000 -61.416943
v -0.289877 21.335000 -61.540021
v -0.000000 21.335000 -61.582000
v 0.289877 21.335000 -61.540021
v 0.560000 21.335000 -61.416943
v 0.791960 21.335000 -61.221156
v 0.969948 21.335000 -60.966000
v 1.081837 21.335000 -60.668865
v 2.660000 20.722500 -60.350000
v 2.569363 20.722500 -59.592695
v 2.303628 20.722500 -58.887000
v 1.880904 20.722500 -58.281006
v 1.330000 20.722500 -57.816010
v 0.688459 20.722500 -57.523701
v 0.000000 20.722500 -57.424000
v -0.688459 20.722500 -57.523701
v -1.330000 20.722500 -57.816010
v -1.880904 20.722500 -58.281006
v -2.303628 20.722500 -58.887000
v -2.569363 20.722500 -59.592695
v -2.660000 20.722500 -60.350000
v -2.569363 20.722500 -61.107305
v -2.303628 20.722500 -61.813000
v -1.880904 20.722500 -62.418994
v -1.330000 20.722500 -62.883990
v -0.688459 20.722500 -63.176299
v -0.000000 20.722500 -63.276000
v 0.688459 20.722500 -63.176299
v 1.330000 20.722500 -62.883990
v 1.880904 20.722500 -62.418994
v 2.303628 20.722500 -61.813000
v 2.569363 20.722500 -61.107305
v 3.360000 20.372500 -60.350000
v 3.245511 20.372500 -59.393405
v 2.909845 20.372500 -58.502000
v 2.375879 20.372500 -57.736533
v 1.680000 20.372500 -57.149170
v 0.869632 20.372500 -56.779938
v 0.000000 20.372500 -56.654000
v -0.869632 20.372500 -56.779938
v -1.680000 20.372500 -57.149170
v -2.375879 20.372500 -57.736533
v -2.909845 20.372500 -58.502000
v -3.245511 20.372500 -59.393405
v -3.360000 20.372500 -60.350000
v -3.245511 20.372500 -61.306595
v -2.909845 20.372500 -62.198000
v -2.375879 20.372500 -62.963467
v -1.680000 20.372500 -63.550830
v -0.869632 20.372500 -63.920062
v -0.000000 20.372500 -64.046000
v 0.869632 20.372500 -63.920062
v 1.680000 20.372500 -63.550830
v 2.375879 20.372500 -62.963467
v 2.909845 20.372500 -62.198000
v 3.245511 20.372500 -61.306595
v 3.500000 20.162500 -60.350000
v 3.380740 20.162500 -59.353547
v 3.031089 20.162500 -58.425000
v 2.474874 20.162500 -57.627639
v 1.750000 20.162500 -57.015802
v 0.905867 20.162500 -56.631186
v 0.000000 20.162500 -56.500000
v -0.905867 20.162500 -56.631186
v -1.750000 20.162500 -57.015802
v -2.474874 20.162500 -57.627639
v -3.031089 20.162500 -58.425000
v -3.380740 20.162500 -59.353547
v -3.500000 20.162500 -60.350000
v -3.380740 20.162500 -61.346453
v -3.031089 20.162500 -62.275000
v -2.474874 20.162500 -63.072361
v -1.750000 20.162500 -63.684198
v -0.905867 20.162500 -64.068814
v -0.000000 20.162500 -64.200000
v 0.905867 20.162500 -64.068814
v 1.750000 20.162500 -63.684198
v 2.474874 20.162500 -63.072361
v 3.031089 20.162500 -62.275000
v 3.380740 20.162500 -61.346453
v 3.500000 19.847500 -60.350000
v 3.380740 19.847500 -59.353547
v 3.031089 19.847500 -58.425000
v 2.474874 19.847500 -57.627639
v 1.750000 19.847500 -57.015802
v 0.905867 19.847500 -56.631186
v 0.000000 19.847500 -56.500000
v -0.905867 19.847500 -56.631186
v -1.750000 19.847500 -57.015802
v -2.474874 19.847500 -57.627639
v -3.031089 19.847500 -58.425000
v -3.380740 19.847500 -59.353547
v -3.500000 19.847500 -60.350000
v -3.380740 19.847500 -61.346453
v -3.031089 19.847500 -62.275000
v -2.474874 19.847500 -63.072361
v -1.750000 19.847500 -63.684198
v -0.905867 19.847500 -64.068814
v -0.000000 19.847500 -64.200000
v 0.905867 19.847500 -64.068814
v 1.750000 19.847500 -63.684198
v 2.474874 19.847500 -63.072361
v 3.031089 19.847500 -62.275000
v 3.380740 19.847500 -61.346453
v 2.905000 19.375000 -60.350000
v 2.806015 19.375000 -59.522944
v 2.515804 19.375000 -58.752250
v 2.054145 19.375000 -58.090440
v 1.452500 19.375000 -57.582616
v 0.751869 19.375000 -57.263384
v 0.000000 19.375000 -57.154500
v -0.751869 19.375000 -57.263384
v -1.452500 19.375000 -57.582616
v -2.054145 19.375000 -58.090440
v -2.515804 19.375000 -58.752250
v -2.806015 19.375000 -59.522944
v -2.905000 19.375000 -60.350000
v -2.806015 19.375000 -61.177056
v -2.515804 19.375000 -61.947750
v -2.054145 19.375000 -62.609560
v -1.452500 19.375000 -63.117384
v -0.751869 19.375000 -63.436616
v -0.000000 19.375000 -63.545500
v 0.751869 19.375000 -63.436616
v 1.452500 19.375000 -63.117384
v 2.054145 19.375000 -62.609560
v 2.515804 19.375000 -61.947750
v 2.806015 19.375000 -61.177056
v 0.980000 18.955000 -60.350000
v 0.946607 18.955000 -60.070993
v 0.848705 18.955000 -59.811000
v 0.692965 18.955000 -59.587739
v 0.490000 18.955000 -59.416425
v 0.253643 18.955000 -59.308732
v 0.000000 18.955000 -59.272000
v -0.253643 18.955000 -59.308732
v -0.490000 18.955000 -59.416425
v -0.692965 18.955000 -59.587739
v -0.848705 18.955000 -59.811000
v -0.946607 18.955000 -60.070993
v -0.980000 18.955000 -60.350000
v -0.946607 18.955000 -60.629007
v -0.848705 18.955000 -60.889000
v -0.692965 18.955000 -61.112261
v -0.490000 18.955000 -61.283575
v -0.253643 18.955000 -61.391268
v -0.000000 18.955000 -61.428000
v 0.253643 18.955000 -61.391268
v 0.490000 18.955000 -61.283575
v 0.692965 18.955000 -61.112261
v 0.848705 18.955000 -60.889000
v 0.946607 18.955000 -60.629007
v 0.420000 18.920000 -60.350000
v 0.405689 18.920000 -60.230426
v 0.363731 18.920000 -60.119000
v 0.296985 18.920000 -60.023317
v 0.210000 18.920000 -59.949896
v 0.108704 18.920000 -59.903742
v 0.000000 18.920000 -59.888000
v -0.108704 18.920000 -59.903742
v -0.210000 18.920000 -59.949896
v -0.296985 18.920000 -60.023317
v -0.363731 18.920000 -60.119000
v -0.405689 18.920000 -60.230426
v -0.420000 18.920000 -60.350000
v -0.405689 18.920000 -60.469574
v -0.363731 18.920000 -60.581000
v -0.296985 18.920000 -60.676683
v -0.210000 18.920000 -60.750104
v -0.108704 18.920000 -60.796258
v -0.000000 18.920000 -60.812000
v 0.108704 18.920000 -60.796258
v 0.210000 18.920000 -60.750104
v 0.296985 18.920000 -60.676683
v 0.363731 18.920000 -60.581000
v 0.405689 18.920000 -60.469574
v 4.500000 9.000000 -52.000000
v -4.500000 9.000000 -52.000000
v -4.500000 9.000000 -12.000000
v 4.500000 9.000000 -12.000000
v 4.500000 -7.000000 -19.000000
v -4.500000 -7.000000 -19.000000
v -4.500000 -7.000000 21.000000
v 4.500000 -7.000000 21.000000
v 11.000000 -10.000000 -28.000000
v 10.461622 -7.527864 -28.000000
v 8.899187 -5.297718 -28.000000
v 6.465638 -3.527864 -28.000000
v 3.399187 -2.391548 -28.000000
v 0.000000 -2.000000 -28.000000
v -3.399187 -2.391548 -28.000000
v -6.465638 -3.527864 -28.000000
v -8.899187 -5.297718 -28.000000
v -10.461622 -7.527864 -28.000000
v -11.000000 -10.000000 -28.000000
v -10.461622 -12.472136 -28.000000
v -8.899187 -14.702282 -28.000000
v -6.465638 -16.472136 -28.000000
v -3.399187 -17.608452 -28.000000
v -0.000000 -18.000000 -28.000000
v 3.399187 -17.608452 -28.000000
v 6.465638 -16.472136 -28.000000
v 8.899187 -14.702282 -28.000000
v 10.461622 -12.472136 -28.000000
v 15.000000 -12.000000 -12.000000
v 14.265848 -8.600813 -12.000000
v 12.135255 -5.534362 -12.000000
v 8.816779 -3.100813 -12.000000
v 4.635255 -1.538378 -12.000000
v 0.000000 -1.000000 -12.000000
v -4.635255 -1.538378 -12.000000
v -8.816779 -3.100813 -12.000000
v -12.135255 -5.534362 -12.000000
v -14.265848 -8.600813 -12.000000
v -15.000000 -12.000000 -12.000000
v -14.265848 -15.399187 -12.000000
v -12.135255 -18.465638 -12.000000
v -8.816779 -20.899187 -12.000000
v -4.635255 -22.461622 -12.000000
v -0.000000 -23.000000 -12.000000
v 4.635255 -22.461622 -12.000000
v 8.816779 -20.899187 -12.000000
v 12.135255 -18.465638 -12.000000
v 14.265848 -15.399187 -12.000000
v 17.000000 -13.000000 24.000000
v 16.167961 -9.600813 24.000000
v 13.753289 -6.534362 24.000000
v 9.992349 -4.100813 24.000000
v 5.253289 -2.538378 24.000000
v 0.000000 -2.000000 24.000000
v -5.253289 -2.538378 24.000000
v -9.992349 -4.100813 24.000000
v -13.753289 -6.534362 24.000000
v -16.167961 -9.600813 24.000000
v -17.000000 -13.000000 24.000000
v -16.167961 -16.399187 24.000000
v -13.753289 -19.465638 24.000000
v -9.992349 -21.899187 24.000000
v -5.253289 -23.461622 24.000000
v -0.000000 -24.000000 24.000000
v 5.253289 -23.461622 24.000000
v 9.992349 -21.899187 24.000000
v 13.753289 -19.465638 24.000000
v 16.167961 -16.399187 24.000000
v 10.000000 -10.000000 63.000000
v 9.510565 -7.836881 63.000000
v 8.090170 -5.885503 63.000000
v 5.877853 -4.336881 63.000000
v 3.090170 -3.342604 63.000000
v 0.000000 -3.000000 63.000000
v -3.090170 -3.342604 63.000000
v -5.877853 -4.336881 63.000000
v -8.090170 -5.885503 63.000000
v -9.510565 -7.836881 63.000000
v -10.000000 -10.000000 63.000000
v -9.510565 -12.163119 63.000000
v -8.090170 -14.114497 63.000000
v -5.877853 -15.663119 63.000000
v -3.090170 -16.657396 63.000000
v -0.000000 -17.000000 63.000000
v 3.090170 -16.657396 63.000000
v 5.877853 -15.663119 63.000000
v 8.090170 -14.114497 63.000000
v 9.510565 -12.163119 63.000000
v 3.000000 -8.000000 85.000000
v 2.853170 -7.072949 85.000000
v 2.427051 -6.236644 85.000000
v 1.763356 -5.572949 85.000000
v 0.927051 -5.146830 85.000000
v 0.000000 -5.000000 85.000000
v -0.927051 -5.146830 85.000000
v -1.763356 -5.572949 85.000000
v -2.427051 -6.236644 85.000000
v -2.853170 -7.072949 85.000000
v -3.000000 -8.000000 85.000000
v -2.853170 -8.927051 85.000000
v -2.427051 -9.763356 85.000000
v -1.763356 -10.427051 85.000000
v -0.927051 -10.853170 85.000000
v -0.000000 -11.000000 85.000000
v 0.927051 -10.853170 85.000000
v 1.763356 -10.427051 85.000000
v 2.427051 -9.763356 85.000000
v 2.853170 -8.927051 85.000000
v 5.000000 18.000000 -46.000000
v 4.330127 19.500000 -46.000000
v 2.500000 20.598076 -46.000000
v 0.000000 21.000000 -46.000000
v -2.500000 20.598076 -46.000000
v -4.330127 19.500000 -46.000000
v -5.000000 18.000000 -46.000000
v -4.330127 16.500000 -46.000000
v -2.500000 15.401924 -46.000000
v -0.000000 15.000000 -46.000000
v 2.500000 15.401924 -46.000000
v 4.330127 16.500000 -46.000000
v 9.000000 17.000000 -33.000000
v 7.794229 19.000000 -33.000000
v 4.500000 20.464102 -33.000000
v 0.000000 21.000000 -33.000000
v -4.500000 20.464102 -33.000000
v -7.794229 19.000000 -33.000000
v -9.000000 17.000000 -33.000000
v -7.794229 15.000000 -33.000000
v -4.500000 13.535898 -33.000000
v -0.000000 13.000000 -33.000000
v 4.500000 13.535898 -33.000000
v 7.794229 15.000000 -33.000000
v 9.000000 11.000000 -8.000000
v 7.794229 13.000000 -8.000000
v 4.500000 14.464102 -8.000000
v 0.000000 15.000000 -8.000000
v -4.500000 14.464102 -8.000000
v -7.794229 13.000000 -8.000000
v -9.000000 11.000000 -8.000000
v -7.794229 9.000000 -8.000000
v -4.500000 7.535898 -8.000000
v -0.000000 7.000000 -8.000000
v 4.500000 7.535898 -8.000000
v 7.794229 9.000000 -8.000000
v 8.000000 2.000000 25.000000
v 6.928203 4.000000 25.000000
v 4.000000 5.464102 25.000000
v 0.000000 6.000000 25.000000
v -4.000000 5.464102 25.000000
v -6.928203 4.000000 25.000000
v -8.000000 2.000000 25.000000
v -6.928203 0.000000 25.000000
v -4.000000 -1.464102 25.000000
v -0.000000 -2.000000 25.000000
v 4.000000 -1.464102 25.000000
v 6.928203 -0.000000 25.000000
v 4.000000 -1.000000 59.000000
v 3.464102 0.500000 59.000000
v 2.000000 1.598076 59.000000
v 0.000000 2.000000 59.000000
v -2.000000 1.598076 59.000000
v -3.464102 0.500000 59.000000
v -4.000000 -1.000000 59.000000
v -3.464102 -2.500000 59.000000
v -2.000000 -3.598076 59.000000
v -0.000000 -4.000000 59.000000
v 2.000000 -3.598076 59.000000
v 3.464102 -2.500000 59.000000
v -11.176343 -7.617472 18.500000
v -8.823657 -4.382528 18.500000
v -8.823657 -4.382528 35.500000
v -11.176343 -7.617472 35.500000
v -44.176343 16.382528 27.500000
v -41.823657 19.617472 27.500000
v -41.823657 19.617472 44.500000
v -44.176343 16.382528 44.500000
v -41.022000 20.000000 -6.000000
v -41.172566 20.492016 -6.000000
v -41.601343 20.909127 -6.000000
v -42.243052 21.187832 -6.000000
v -43.000000 21.285700 -6.000000
v -43.756948 21.187832 -6.000000
v -44.398657 20.909127 -6.000000
v -44.827434 20.492016 -6.000000
v -44.978000 20.000000 -6.000000
v -44.827434 19.507984 -6.000000
v -44.398657 19.090873 -6.000000
v -43.756948 18.812168 -6.000000
v -43.000000 18.714300 -6.000000
v -42.243052 18.812168 -6.000000
v -41.601343 19.090873 -6.000000
v -41.172566 19.507984 -6.000000
v -39.320000 20.000000 -1.450000
v -39.600123 20.915379 -1.450000
v -40.397847 21.691399 -1.450000
v -41.591725 22.209920 -1.450000
v -43.000000 22.392000 -1.450000
v -44.408275 22.209920 -1.450000
v -45.602153 21.691399 -1.450000
v -46.399877 20.915379 -1.450000
v -46.680000 20.000000 -1.450000
v -46.399877 19.084621 -1.450000
v -45.602153 18.308601 -1.450000
v -44.408275 17.790080 -1.450000
v -43.000000 17.608000 -1.450000
v -41.591725 17.790080 -1.450000
v -40.397847 18.308601 -1.450000
v -39.600123 19.084621 -1.450000
v -38.400000 20.000000 9.600000
v -38.750154 21.144223 9.600000
v -39.747309 22.114249 9.600000
v -41.239656 22.762400 9.600000
v -43.000000 22.990000 9.600000
v -44.760344 22.762400 9.600000
v -46.252691 22.114249 9.600000
v -47.249846 21.144223 9.600000
v -47.600000 20.000000 9.600000
v -47.249846 18.855777 9.600000
v -46.252691 17.885751 9.600000
v -44.760344 17.237600 9.600000
v -43.000000 17.010000 9.600000
v -41.239656 17.237600 9.600000
v -39.747309 17.885751 9.600000
v -38.750154 18.855777 9.600000
v -38.400000 20.000000 87.600000
v -38.750154 21.144223 87.600000
v -39.747309 22.114249 87.600000
v -41.239656 22.762400 87.600000
v -43.000000 22.990000 87.600000
v -44.760344 22.762400 87.600000
v -46.252691 22.114249 87.600000
v -47.249846 21.144223 87.600000
v -47.600000 20.000000 87.600000
v -47.249846 18.855777 87.600000
v -46.252691 17.885751 87.600000
v -44.760344 17.237600 87.600000
v -43.000000 17.010000 87.600000
v -41.239656 17.237600 87.600000
v -39.747309 17.885751 87.600000
v -38.750154 18.855777 87.600000
v -39.044000 20.000000 108.400000
v -39.345133 20.984032 108.400000
v -40.202686 21.818254 108.400000
v -41.486104 22.375664 108.400000
v -43.000000 22.571400 108.400000
v -44.513896 22.375664 108.400000
v -45.797314 21.818254 108.400000
v -46.654867 20.984032 108.400000
v -46.956000 20.000000 108.400000
v -46.654867 19.015968 108.400000
v -45.797314 18.181746 108.400000
v -44.513896 17.624336 108.400000
v -43.000000 17.428600 108.400000
v -41.486104 17.624336 108.400000
v -40.202686 18.181746 108.400000
v -39.345133 19.015968 108.400000
v -41.390000 20.000000 124.000000
v -41.512554 20.400478 124.000000
v -41.861558 20.739987 124.000000
v -42.383880 20.966840 124.000000
v -43.000000 21.046500 124.000000
v -43.616120 20.966840 124.000000
v -44.138442 20.739987 124.000000
v -44.487446 20.400478 124.000000
v -44.610000 20.000000 124.000000
v -44.487446 19.599522 124.000000
v -44.138442 19.260013 124.000000
v -43.616120 19.033160 124.000000
v -43.000000 18.953500 124.000000
v -42.383880 19.033160 124.000000
v -41.861558 19.260013 124.000000
v -41.512554 19.599522 124.000000
v -47.416000 19.162800 9.600000
v -47.416000 19.162800 87.600000
v -46.797760 19.280008 108.400000
v -47.600000 20.000000 9.600000
v -47.600000 20.000000 87.600000
v -46.956000 20.000000 108.400000
v -47.416000 20.837200 9.600000
v -47.416000 20.837200 87.600000
v -46.797760 20.719992 108.400000
v -38.584000 19.162800 9.600000
v -38.584000 19.162800 87.600000
v -39.202240 19.280008 108.400000
v -38.400000 20.000000 9.600000
v -38.400000 20.000000 87.600000
v -39.044000 20.000000 108.400000
v -38.584000 20.837200 9.600000
v -38.584000 20.837200 87.600000
v -39.202240 20.719992 108.400000
v -38.400000 20.000000 33.000000
v -38.474319 20.535298 33.000000
v -38.694875 21.053300 33.000000
v -38.400000 20.000000 46.000000
v -38.474319 20.535298 46.000000
v -38.694875 21.053300 46.000000
v -38.400000 20.000000 59.000000
v -38.474319 20.535298 59.000000
v -38.694875 21.053300 59.000000
v -38.400000 20.000000 72.000000
v -38.474319 20.535298 72.000000
v -38.694875 21.053300 72.000000
v -38.400000 20.000000 85.000000
v -38.474319 20.535298 85.000000
v -38.694875 21.053300 85.000000
v 8.823657 -4.382528 18.500000
v 11.176343 -7.617472 18.500000
v 11.176343 -7.617472 35.500000
v 8.823657 -4.382528 35.500000
v 41.823657 19.617472 27.500000
v 44.176343 16.382528 27.500000
v 44.176343 16.382528 44.500000
v 41.823657 19.617472 44.500000
v 44.978000 20.000000 -6.000000
v 44.827434 20.492016 -6.000000
v 44.398657 20.909127 -6.000000
v 43.756948 21.187832 -6.000000
v 43.000000 21.285700 -6.000000
v 42.243052 21.187832 -6.000000
v 41.601343 20.909127 -6.000000
v 41.172566 20.492016 -6.000000
v 41.022000 20.000000 -6.000000
v 41.172566 19.507984 -6.000000
v 41.601343 19.090873 -6.000000
v 42.243052 18.812168 -6.000000
v 43.000000 18.714300 -6.000000
v 43.756948 18.812168 -6.000000
v 44.398657 19.090873 -6.000000
v 44.827434 19.507984 -6.000000
v 46.680000 20.000000 -1.450000
v 46.399877 20.915379 -1.450000
v 45.602153 21.691399 -1.450000
v 44.408275 22.209920 -1.450000
v 43.000000 22.392000 -1.450000
v 41.591725 22.209920 -1.450000
v 40.397847 21.691399 -1.450000
v 39.600123 20.915379 -1.450000
v 39.320000 20.000000 -1.450000
v 39.600123 19.084621 -1.450000
v 40.397847 18.308601 -1.450000
v 41.591725 17.790080 -1.450000
v 43.000000 17.608000 -1.450000
v 44.408275 17.790080 -1.450000
v 45.602153 18.308601 -1.450000
v 46.399877 19.084621 -1.450000
v 47.600000 20.000000 9.600000
v 47.249846 21.144223 9.600000
v 46.252691 22.114249 9.600000
v 44.760344 22.762400 9.600000
v 43.000000 22.990000 9.600000
v 41.239656 22.762400 9.600000
v 39.747309 22.114249 9.600000
v 38.750154 21.144223 9.600000
v 38.400000 20.000000 9.600000
v 38.750154 18.855777 9.600000
v 39.747309 17.885751 9.600000
v 41.239656 17.237600 9.600000
v 43.000000 17.010000 9.600000
v 44.760344 17.237600 9.600000
v 46.252691 17.885751 9.600000
v 47.249846 18.855777 9.600000
v 47.600000 20.000000 87.600000
v 47.249846 21.144223 87.600000
v 46.252691 22.114249 87.600000
v 44.760344 22.762400 87.600000
v 43.000000 22.990000 87.600000
v 41.239656 22.762400 87.600000
v 39.747309 22.114249 87.600000
v 38.750154 21.144223 87.600000
v 38.400000 20.000000 87.600000
v 38.750154 18.855777 87.600000
v 39.747309 17.885751 87.600000
v 41.239656 17.237600 87.600000
v 43.000000 17.010000 87.600000
v 44.760344 17.237600 87.600000
v 46.252691 17.885751 87.600000
v 47.249846 18.855777 87.600000
v 46.956000 20.000000 108.400000
v 46.654867 20.984032 108.400000
v 45.797314 21.818254 108.400000
v 44.513896 22.375664 108.400000
v 43.000000 22.571400 108.400000
v 41.486104 22.375664 108.400000
v 40.202686 21.818254 108.400000
v 39.345133 20.984032 108.400000
v 39.044000 20.000000 108.400000
v 39.345133 19.015968 108.400000
v 40.202686 18.181746 108.400000
v 41.486104 17.624336 108.400000
v 43.000000 17.428600 108.400000
v 44.513896 17.624336 108.400000
v 45.797314 18.181746 108.400000
v 46.654867 19.015968 108.400000
v 44.610000 20.000000 124.000000
v 44.487446 20.400478 124.000000
v 44.138442 20.739987 124.000000
v 43.616120 20.966840 124.000000
v 43.000000 21.046500 124.000000
v 42.383880 20.966840 124.000000
v 41.861558 20.739987 124.000000
v 41.512554 20.400478 124.000000
v 41.390000 20.000000 124.000000
v 41.512554 19.599522 124.000000
v 41.861558 19.260013 124.000000
v 42.383880 19.033160 124.000000
v 43.000000 18.953500 124.000000
v 43.616120 19.033160 124.000000
v 44.138442 19.260013 124.000000
v 44.487446 19.599522 124.000000
v 38.584000 19.162800 9.600000
v 38.584000 19.162800 87.600000
v 39.202240 19.280008 108.400000
v 38.400000 20.000000 9.600000
v 38.400000 20.000000 87.600000
v 39.044000 20.000000 108.400000
v 38.584000 20.837200 9.600000
v 38.584000 20.837200 87.600000
v 39.202240 20.719992 108.400000
v 47.416000 19.162800 9.600000
v 47.416000 19.162800 87.600000
v 46.797760 19.280008 108.400000
v 47.600000 20.000000 9.600000
v 47.600000 20.000000 87.600000
v 46.956000 20.000000 108.400000
v 47.416000 20.837200 9.600000
v 47.416000 20.837200 87.600000
v 46.797760 20.719992 108.400000
v 47.600000 20.000000 33.000000
v 47.525681 20.535298 33.000000
v 47.305125 21.053300 33.000000
v 47.600000 20.000000 46.000000
v 47.525681 20.535298 46.000000
v 47.305125 21.053300 46.000000
v 47.600000 20.000000 59.000000
v 47.525681 20.535298 59.000000
v 47.305125 21.053300 59.000000
v 47.600000 20.000000 72.000000
v 47.525681 20.535298 72.000000
v 47.305125 21.053300 72.000000
v 47.600000 20.000000 85.000000
v 47.525681 20.535298 85.000000
v 47.305125 21.053300 85.000000
v 9.240000 -10.000000 -28.300000
v 8.925155 -8.426380 -28.300000
v 8.002075 -6.960000 -28.300000
v 6.533667 -5.700791 -28.300000
v 4.620000 -4.734566 -28.300000
v 2.391488 -4.127171 -28.300000
v 0.000000 -3.920000 -28.300000
v -2.391488 -4.127171 -28.300000
v -4.620000 -4.734566 -28.300000
v -6.533667 -5.700791 -28.300000
v -8.002075 -6.960000 -28.300000
v -8.925155 -8.426380 -28.300000
v -9.240000 -10.000000 -28.300000
v -8.925155 -11.573620 -28.300000
v -8.002075 -13.040000 -28.300000
v -6.533667 -14.299209 -28.300000
v -4.620000 -15.265434 -28.300000
v -2.391488 -15.872829 -28.300000
v -0.000000 -16.080000 -28.300000
v 2.391488 -15.872829 -28.300000
v 4.620000 -15.265434 -28.300000
v 6.533667 -14.299209 -28.300000
v 8.002075 -13.040000 -28.300000
v 8.925155 -11.573620 -28.300000
v 7.854000 -10.000000 -29.800000
v 7.586381 -8.662423 -29.800000
v 6.801764 -7.416000 -29.800000
v 5.553617 -6.345672 -29.800000
v 3.927000 -5.524381 -29.800000
v 2.032765 -5.008095 -29.800000
v 0.000000 -4.832000 -29.800000
v -2.032765 -5.008095 -29.800000
v -3.927000 -5.524381 -29.800000
v -5.553617 -6.345672 -29.800000
v -6.801764 -7.416000 -29.800000
v -7.586381 -8.662423 -29.800000
v -7.854000 -10.000000 -29.800000
v -7.586381 -11.337577 -29.800000
v -6.801764 -12.584000 -29.800000
v -5.553617 -13.654328 -29.800000
v -3.927000 -14.475619 -29.800000
v -2.032765 -14.991905 -29.800000
v -0.000000 -15.168000 -29.800000
v 2.032765 -14.991905 -29.800000
v 3.927000 -14.475619 -29.800000
v 5.553617 -13.654328 -29.800000
v 6.801764 -12.584000 -29.800000
v 7.586381 -11.337577 -29.800000
v 3.234000 -10.000000 -30.400000
v 3.123804 -9.449233 -30.400000
v 2.800726 -8.936000 -30.400000
v 2.286783 -8.495277 -30.400000
v 1.617000 -8.157098 -30.400000
v 0.837021 -7.944510 -30.400000
v 0.000000 -7.872000 -30.400000
v -0.837021 -7.944510 -30.400000
v -1.617000 -8.157098 -30.400000
v -2.286783 -8.495277 -30.400000
v -2.800726 -8.936000 -30.400000
v -3.123804 -9.449233 -30.400000
v -3.234000 -10.000000 -30.400000
v -3.123804 -10.550767 -30.400000
v -2.800726 -11.064000 -30.400000
v -2.286783 -11.504723 -30.400000
v -1.617000 -11.842902 -30.400000
v -0.837021 -12.055490 -30.400000
v -0.000000 -12.128000 -30.400000
v 0.837021 -12.055490 -30.400000
v 1.617000 -11.842902 -30.400000
v 2.286783 -11.504723 -30.400000
v 2.800726 -11.064000 -30.400000
v 3.123804 -10.550767 -30.400000
v -6.500000 -14.200000 65.000000
v 6.500000 -14.200000 65.000000
v -6.500000 -11.400000 65.000000
v 6.500000 -11.400000 65.000000
v -6.500000 -8.600000 65.000000
v 6.500000 -8.600000 65.000000
v -6.500000 -5.800000 65.000000
v 6.500000 -5.800000 65.000000
g primary_hull
f 1 2 66 65
f 2 3 67 66
f 3 4 68 67
f 4 5 69 68
f 5 6 70 69
f 6 7 71 70
f 7 8 72 71
f 8 9 73 72
f 9 10 74 73
f 10 11 75 74
f 11 12 76 75
f 12 13 77 76
f 13 14 78 77
f 14 15 79 78
f 15 16 80 79
f 16 17 81 80
f 17 18 82 81
f 18 19 83 82
f 19 20 84 83
f 20 21 85 84
f 21 22 86 85
f 22 23 87 86
f 23 24 88 87
f 24 25 89 88
f 25 26 90 89
f 26 27 91 90
f 27 28 92 91
f 28 29 93 92
f 29 30 94 93
f 30 31 95 94
f 31 32 96 95
f 32 33 97 96
f 33 34 98 97
f 34 35 99 98
f 35 36 100 99
f 36 37 101 100
f 37 38 102 101
f 38 39 103 102
f 39 40 104 103
f 40 41 105 104
f 41 42 106 105
f 42 43 107 106
f 43 44 108 107
f 44 45 109 108
f 45 46 110 109
f 46 47 111 110
f 47 48 112 111
f 48 49 113 112
f 49 50 114 113
f 50 51 115 114
f 51 52 116 115
f 52 53 117 116
f 53 54 118 117
f 54 55 119 118
f 55 56 120 119
f 56 57 121 120
f 57 58 122 121
f 58 59 123 122
f 59 60 124 123
f 60 61 125 124
f 61 62 126 125
f 62 63 127 126
f 63 64 128 127
f 64 1 65 128
f 65 66 130 129
f 66 67 131 130
f 67 68 132 131
f 68 69 133 132
f 69 70 134 133
f 70 71 135 134
f 71 72 136 135
f 72 73 137 136
f 73 74 138 137
f 74 75 139 138
f 75 76 140 139
f 76 77 141 140
f 77 78 142 141
f 78 79 143 142
f 79 80 144 143
f 80 81 145 144
f 81 82 146 145
f 82 83 147 146
f 83 84 148 147
f 84 85 149 148
f 85 86 150 149
f 86 87 151 150
f 87 88 152 151
f 88 89 153 152
f 89 90 154 153
f 90 91 155 154
f 91 92 156 155
f 92 93 157 156
f 93 94 158 157
f 94 95 159 158
f 95 96 160 159
f 96 97 161 160
f 97 98 162 161
f 98 99 163 162
f 99 100 164 163
f 100 101 165 164
f 101 102 166 165
f 102 103 167 166
f 103 104 168 167
f 104 105 169 168
f 105 106 170 169
f 106 107 171 170
f 107 108 172 171
f 108 109 173 172
f 109 110 174 173
f 110 111 175 174
f 111 112 176 175
f 112 113 177 176
f 113 114 178 177
f 114 115 179 178
f 115 116 180 179
f 116 117 181 180
f 117 118 182 181
f 118 119 183 182
f 119 120 184 183
f 120 121 185 184
f 121 122 186 185
f 122 123 187 186
f 123 124 188 187
f 124 125 189 188
f 125 126 190 189
f 126 127 191 190
f 127 128 192 191
f 128 65 129 192
f 129 130 194 193
f 130 131 195 194
f 131 132 196 195
f 132 133 197 196
f 133 134 198 197
f 134 135 199 198
f 135 136 200 199
f 136 137 201 200
f 137 138 202 201
f 138 139 203 202
f 139 140 204 203
f 140 141 205 204
f 141 142 206 205
f 142 143 207 206
f 143 144 208 207
f 144 145 209 208
f 145 146 210 209
f 146 147 211 210
f 147 148 212 211
f 148 149 213 212
f 149 150 214 213
f 150 151 215 214
f 151 152 216 215
f 152 153 217 216
f 153 154 218 217
f 154 155 219 218
f 155 156 220 219
f 156 157 221 220
f 157 158 222 221
f 158 159 223 222
f 159 160 224 223
f 160 161 225 224
f 161 162 226 225
f 162 163 227 226
f 163 164 228 227
f 164 165 229 228
f 165 166 230 229
f 166 167 231 230
f 167 168 232 231
f 168 169 233 232
f 169 170 234 233
f 170 171 235 234
f 171 172 236 235
f 172 173 237 236
f 173 174 238 237
f 174 175 239 238
f 175 176 240 239
f 176 177 241 240
f 177 178 242 241
f 178 179 243 242
f 179 180 244 243
f 180 181 245 244
f 181 182 246 245
f 182 183 247 246
f 183 184 248 247
f 184 185 249 248
f 185 186 250 249
f 186 187 251 250
f 187 188 252 251
f 188 189 253 252
f 189 190 254 253
f 190 191 255 254
f 191 192 256 255
f 192 129 193 256
f 193 194 258 257
f 194 195 259 258
f 195 196 260 259
f 196 197 261 260
f 197 198 262 261
f 198 199 263 262
f 199 200 264 263
f 200 201 265 264
f 201 202 266 265
f 202 203 267 266
f 203 204 268 267
f 204 205 269 268
f 205 206 270 269
f 206 207 271 270
f 207 208 272 271
f 208 209 273 272
f 209 210 274 273
f 210 211 275 274
f 211 212 276 275
f 212 213 277 276
f 213 214 278 277
f 214 215 279 278
f 215 216 280 279
f 216 217 281 280
f 217 218 282 281
f 218 219 283 282
f 219 220 284 283
f 220 221 285 284
f 221 222 286 285
f 222 223 287 286
f 223 224 288 287
f 224 225 289 288
f 225 226 290 289
f 226 227 291 290
f 227 228 292 291
f 228 229 293 292
f 229 230 294 293
f 230 231 295 294
f 231 232 296 295
f 232 233 297 296
f 233 234 298 297
f 234 235 299 298
f 235 236 300 299
f 236 237 301 300
f 237 238 302 301
f 238 239 303 302
f 239 240 304 303
f 240 241 305 304
f 241 242 306 305
f 242 243 307 306
f 243 244 308 307
f 244 245 309 308
f 245 246 310 309
f 246 247 311 310
f 247 248 312 311
f 248 249 313 312
f 249 250 314 313
f 250 251 315 314
f 251 252 316 315
f 252 253 317 316
f 253 254 318 317
f 254 255 319 318
f 255 256 320 319
f 256 193 257 320
f 257 258 322 321
f 258 259 323 322
f 259 260 324 323
f 260 261 325 324
f 261 262 326 325
f 262 263 327 326
f 263 264 328 327
f 264 265 329 328
f 265 266 330 329
f 266 267 331 330
f 267 268 332 331
f 268 269 333 332
f 269 270 334 333
f 270 271 335 334
f 271 272 336 335
f 272 273 337 336
f 273 274 338 337
f 274 275 339 338
f 275 276 340 339
f 276 277 341 340
f 277 278 342 341
f 278 279 343 342
f 279 280 344 343
f 280 281 345 344
f 281 282 346 345
f 282 283 347 346
f 283 284 348 347
f 284 285 349 348
f 285 286 350 349
f 286 287 351 350
f 287 288 352 351
f 288 289 353 352
f 289 290 354 353
f 290 291 355 354
f 291 292 356 355
f 292 293 357 356
f 293 294 358 357
f 294 295 359 358
f 295 296 360 359
f 296 297 361 360
f 297 298 362 361
f 298 299 363 362
f 299 300 364 363
f 300 301 365 364
f 301 302 366 365
f 302 303 367 366
f 303 304 368 367
f 304 305 369 368
f 305 306 370 369
f 306 307 371 370
f 307 308 372 371
f 308 309 373 372
f 309 310 374 373
f 310 311 375 374
f 311 312 376 375
f 312 313 377 376
f 313 314 378 377
f 314 315 379 378
f 315 316 380 379
f 316 317 381 380
f 317 318 382 381
f 318 319 383 382
f 319 320 384 383
f 320 257 321 384
f 321 322 386 385
f 322 323 387 386
f 323 324 388 387
f 324 325 389 388
f 325 326 390 389
f 326 327 391 390
f 327 328 392 391
f 328 329 393 392
f 329 330 394 393
f 330 331 395 394
f 331 332 396 395
f 332 333 397 396
f 333 334 398 397
f 334 335 399 398
f 335 336 400 399
f 336 337 401 400
f 337 338 402 401
f 338 339 403 402
f 339 340 404 403
f 340 341 405 404
f 341 342 406 405
f 342 343 407 406
f 343 344 408 407
f 344 345 409 408
f 345 346 410 409
f 346 347 411 410
f 347 348 412 411
f 348 349 413 412
f 349 350 414 413
f 350 351 415 414
f 351 352 416 415
f 352 353 417 416
f 353 354 418 417
f 354 355 419 418
f 355 356 420 419
f 356 357 421 420
f 357 358 422 421
f 358 359 423 422
f 359 360 424 423
f 360 361 425 424
f 361 362 426 425
f 362 363 427 426
f 363 364 428 427
f 364 365 429 428
f 365 366 430 429
f 366 367 431 430
f 367 368 432 431
f 368 369 433 432
f 369 370 434 433
f 370 371 435 434
f 371 372 436 435
f 372 373 437 436
f 373 374 438 437
f 374 375 439 438
f 375 376 440 439
f 376 377 441 440
f 377 378 442 441
f 378 379 443 442
f 379 380 444 443
f 380 381 445 444
f 381 382 446 445
f 382 383 447 446
f 383 384 448 447
f 384 321 385 448
f 385 386 450 449
f 386 387 451 450
f 387 388 452 451
f 388 389 453 452
f 389 390 454 453
f 390 391 455 454
f 391 392 456 455
f 392 393 457 456
f 393 394 458 457
f 394 395 459 458
f 395 396 460 459
f 396 397 461 460
f 397 398 462 461
f 398 399 463 462
f 399 400 464 463
f 400 401 465 464
f 401 402 466 465
f 402 403 467 466
f 403 404 468 467
f 404 405 469 468
f 405 406 470 469
f 406 407 471 470
f 407 408 472 471
f 408 409 473 472
f 409 410 474 473
f 410 411 475 474
f 411 412 476 475
f 412 413 477 476
f 413 414 478 477
f 414 415 479 478
f 415 416 480 479
f 416 417 481 480
f 417 418 482 481
f 418 419 483 482
f 419 420 484 483
f 420 421 485 484
f 421 422 486 485
f 422 423 487 486
f 423 424 488 487
f 424 425 489 488
f 425 426 490 489
f 426 427 491 490
f 427 428 492 491
f 428 429 493 492
f 429 430 494 493
f 430 431 495 494
f 431 432 496 495
f 432 433 497 496
f 433 434 498 497
f 434 435 499 498
f 435 436 500 499
f 436 437 501 500
f 437 438 502 501
f 438 439 503 502
f 439 440 504 503
f 440 441 505 504
f 441 442 506 505
f 442 443 507 506
f 443 444 508 507
f 444 445 509 508
f 445 446 510 509
f 446 447 511 510
f 447 448 512 511
f 448 385 449 512
f 449 450 514 513
f 450 451 515 514
f 451 452 516 515
f 452 453 517 516
f 453 454 518 517
f 454 455 519 518
f 455 456 520 519
f 456 457 521 520
f 457 458 522 521
f 458 459 523 522
f 459 460 524 523
f 460 461 525 524
f 461 462 526 525
f 462 463 527 526
f 463 464 528 527
f 464 465 529 528
f 465 466 530 529
f 466 467 531 530
f 467 468 532 531
f 468 469 533 532
f 469 470 534 533
f 470 471 535 534
f 471 472 536 535
f 472 473 537 536
f 473 474 538 537
f 474 475 539 538
f 475 476 540 539
f 476 477 541 540
f 477 478 542 541
f 478 479 543 542
f 479 480 544 543
f 480 481 545 544
f 481 482 546 545
f 482 483 547 546
f 483 484 548 547
f 484 485 549 548
f 485 486 550 549
f 486 487 551 550
f 487 488 552 551
f 488 489 553 552
f 489 490 554 553
f 490 491 555 554
f 491 492 556 555
f 492 493 557 556
f 493 494 558 557
f 494 495 559 558
f 495 496 560 559
f 496 497 561 560
f 497 498 562 561
f 498 499 563 562
f 499 500 564 563
f 500 501 565 564
f 501 502 566 565
f 502 503 567 566
f 503 504 568 567
f 504 505 569 568
f 505 506 570 569
f 506 507 571 570
f 507 508 572 571
f 508 509 573 572
f 509 510 574 573
f 510 511 575 574
f 511 512 576 575
f 512 449 513 576
f 64 63 62 61 60 59 58 57 56 55 54 53 52 51 50 49 48 47 46 45 44 43 42 41 40 39 38 37 36 35 34 33 32 31 30 29 28 27 26 25 24 23 22 21 20 19 18 17 16 15 14 13 12 11 10 9 8 7 6 5 4 3 2 1
f 513 514 515 516 517 518 519 520 521 522 523 524 525 526 527 528 529 530 531 532 533 534 535 536 537 538 539 540 541 542 543 544 545 546 547 548 549 550 551 552 553 554 555 556 557 558 559 560 561 562 563 564 565 566 567 568 569 570 571 572 573 574 575 576
g bridge_superstructure
f 885 886 910 909
f 886 887 911 910
f 887 888 912 911
f 888 889 913 912
f 889 890 914 913
f 890 891 915 914
f 891 892 916 915
f 892 893 917 916
f 893 894 918 917
f 894 895 919 918
f 895 896 920 919
f 896 897 921 920
f 897 898 922 921
f 898 899 923 922
f 899 900 924 923
f 900 901 925 924
f 901 902 926 925
f 902 903 927 926
f 903 904 928 927
f 904 905 929 928
f 905 906 930 929
f 906 907 931 930
f 907 908 932 931
f 908 885 909 932
f 909 910 934 933
f 910 911 935 934
f 911 912 936 935
f 912 913 937 936
f 913 914 938 937
f 914 915 939 938
f 915 916 940 939
f 916 917 941 940
f 917 918 942 941
f 918 919 943 942
f 919 920 944 943
f 920 921 945 944
f 921 922 946 945
f 922 923 947 946
f 923 924 948 947
f 924 925 949 948
f 925 926 950 949
f 926 927 951 950
f 927 928 952 951
f 928 929 953 952
f 929 930 954 953
f 930 931 955 954
f 931 932 956 955
f 932 909 933 956
f 933 934 958 957
f 934 935 959 958
f 935 936 960 959
f 936 937 961 960
f 937 938 962 961
f 938 939 963 962
f 939 940 964 963
f 940 941 965 964
f 941 942 966 965
f 942 943 967 966
f 943 944 968 967
f 944 945 969 968
f 945 946 970 969
f 946 947 971 970
f 947 948 972 971
f 948 949 973 972
f 949 950 974 973
f 950 951 975 974
f 951 952 976 975
f 952 953 977 976
f 953 954 978 977
f 954 955 979 978
f 955 956 980 979
f 956 933 957 980
f 957 958 982 981
f 958 959 983 982
f 959 960 984 983
f 960 961 985 984
f 961 962 986 985
f 962 963 987 986
f 963 964 988 987
f 964 965 989 988
f 965 966 990 989
f 966 967 991 990
f 967 968 992 991
f 968 969 993 992
f 969 970 994 993
f 970 971 995 994
f 971 972 996 995
f 972 973 997 996
f 973 974 998 997
f 974 975 999 998
f 975 976 1000 999
f 976 977 1001 1000
f 977 978 1002 1001
f 978 979 1003 1002
f 979 980 1004 1003
f 980 957 981 1004
f 981 982 1006 1005
f 982 983 1007 1006
f 983 984 1008 1007
f 984 985 1009 1008
f 985 986 1010 1009
f 986 987 1011 1010
f 987 988 1012 1011
f 988 989 1013 1012
f 989 990 1014 1013
f 990 991 1015 1014
f 991 992 1016 1015
f 992 993 1017 1016
f 993 994 1018 1017
f 994 995 1019 1018
f 995 996 1020 1019
f 996 997 1021 1020
f 997 998 1022 1021
f 998 999 1023 1022
f 999 1000 1024 1023
f 1000 1001 1025 1024
f 1001 1002 1026 1025
f 1002 1003 1027 1026
f 1003 1004 1028 1027
f 1004 981 1005 1028
f 1005 1006 1030 1029
f 1006 1007 1031 1030
f 1007 1008 1032 1031
f 1008 1009 1033 1032
f 1009 1010 1034 1033
f 1010 1011 1035 1034
f 1011 1012 1036 1035
f 1012 1013 1037 1036
f 1013 1014 1038 1037
f 1014 1015 1039 1038
f 1015 1016 1040 1039
f 1016 1017 1041 1040
f 1017 1018 1042 1041
f 1018 1019 1043 1042
f 1019 1020 1044 1043
f 1020 1021 1045 1044
f 1021 1022 1046 1045
f 1022 1023 1047 1046
f 1023 1024 1048 1047
f 1024 1025 1049 1048
f 1025 1026 1050 1049
f 1026 1027 1051 1050
f 1027 1028 1052 1051
f 1028 1005 1029 1052
f 1029 1030 1054 1053
f 1030 1031 1055 1054
f 1031 1032 1056 1055
f 1032 1033 1057 1056
f 1033 1034 1058 1057
f 1034 1035 1059 1058
f 1035 1036 1060 1059
f 1036 1037 1061 1060
f 1037 1038 1062 1061
f 1038 1039 1063 1062
f 1039 1040 1064 1063
f 1040 1041 1065 1064
f 1041 1042 1066 1065
f 1042 1043 1067 1066
f 1043 1044 1068 1067
f 1044 1045 1069 1068
f 1045 1046 1070 1069
f 1046 1047 1071 1070
f 1047 1048 1072 1071
f 1048 1049 1073 1072
f 1049 1050 1074 1073
f 1050 1051 1075 1074
f 1051 1052 1076 1075
f 1052 1029 1053 1076
f 1053 1054 1078 1077
f 1054 1055 1079 1078
f 1055 1056 1080 1079
f 1056 1057 1081 1080
f 1057 1058 1082 1081
f 1058 1059 1083 1082
f 1059 1060 1084 1083
f 1060 1061 1085 1084
f 1061 1062 1086 1085
f 1062 1063 1087 1086
f 1063 1064 1088 1087
f 1064 1065 1089 1088
f 1065 1066 1090 1089
f 1066 1067 1091 1090
f 1067 1068 1092 1091
f 1068 1069 1093 1092
f 1069 1070 1094 1093
f 1070 1071 1095 1094
f 1071 1072 1096 1095
f 1072 1073 1097 1096
f 1073 1074 1098 1097
f 1074 1075 1099 1098
f 1075 1076 1100 1099
f 1076 1053 1077 1100
f 908 907 906 905 904 903 902 901 900 899 898 897 896 895 894 893 892 891 890 889 888 887 886 885
f 1077 1078 1079 1080 1081 1082 1083 1084 1085 1086 1087 1088 1089 1090 1091 1092 1093 1094 1095 1096 1097 1098 1099 1100
f 1101 1102 1126 1125
f 1102 1103 1127 1126
f 1103 1104 1128 1127
f 1104 1105 1129 1128
f 1105 1106 1130 1129
f 1106 1107 1131 1130
f 1107 1108 1132 1131
f 1108 1109 1133 1132
f 1109 1110 1134 1133
f 1110 1111 1135 1134
f 1111 1112 1136 1135
f 1112 1113 1137 1136
f 1113 1114 1138 1137
f 1114 1115 1139 1138
f 1115 1116 1140 1139
f 1116 1117 1141 1140
f 1117 1118 1142 1141
f 1118 1119 1143 1142
f 1119 1120 1144 1143
f 1120 1121 1145 1144
f 1121 1122 1146 1145
f 1122 1123 1147 1146
f 1123 1124 1148 1147
f 1124 1101 1125 1148
f 1125 1126 1150 1149
f 1126 1127 1151 1150
f 1127 1128 1152 1151
f 1128 1129 1153 1152
f 1129 1130 1154 1153
f 1130 1131 1155 1154
f 1131 1132 1156 1155
f 1132 1133 1157 1156
f 1133 1134 1158 1157
f 1134 1135 1159 1158
f 1135 1136 1160 1159
f 1136 1137 1161 1160
f 1137 1138 1162 1161
f 1138 1139 1163 1162
f 1139 1140 1164 1163
f 1140 1141 1165 1164
f 1141 1142 1166 1165
f 1142 1143 1167 1166
f 1143 1144 1168 1167
f 1144 1145 1169 1168
f 1145 1146 1170 1169
f 1146 1147 1171 1170
f 1147 1148 1172 1171
f 1148 1125 1149 1172
f 1149 1150 1174 1173
f 1150 1151 1175 1174
f 1151 1152 1176 1175
f 1152 1153 1177 1176
f 1153 1154 1178 1177
f 1154 1155 1179 1178
f 1155 1156 1180 1179
f 1156 1157 1181 1180
f 1157 1158 1182 1181
f 1158 1159 1183 1182
f 1159 1160 1184 1183
f 1160 1161 1185 1184
f 1161 1162 1186 1185
f 1162 1163 1187 1186
f 1163 1164 1188 1187
f 1164 1165 1189 1188
f 1165 1166 1190 1189
f 1166 1167 1191 1190
f 1167 1168 1192 1191
f 1168 1169 1193 1192
f 1169 1170 1194 1193
f 1170 1171 1195 1194
f 1171 1172 1196 1195
f 1172 1149 1173 1196
f 1173 1174 1198 1197
f 1174 1175 1199 1198
f 1175 1176 1200 1199
f 1176 1177 1201 1200
f 1177 1178 1202 1201
f 1178 1179 1203 1202
f 1179 1180 1204 1203
f 1180 1181 1205 1204
f 1181 1182 1206 1205
f 1182 1183 1207 1206
f 1183 1184 1208 1207
f 1184 1185 1209 1208
f 1185 1186 1210 1209
f 1186 1187 1211 1210
f 1187 1188 1212 1211
f 1188 1189 1213 1212
f 1189 1190 1214 1213
f 1190 1191 1215 1214
f 1191 1192 1216 1215
f 1192 1193 1217 1216
f 1193 1194 1218 1217
f 1194 1195 1219 1218
f 1195 1196 1220 1219
f 1196 1173 1197 1220
f 1197 1198 1222 1221
f 1198 1199 1223 1222
f 1199 1200 1224 1223
f 1200 1201 1225 1224
f 1201 1202 1226 1225
f 1202 1203 1227 1226
f 1203 1204 1228 1227
f 1204 1205 1229 1228
f 1205 1206 1230 1229
f 1206 1207 1231 1230
f 1207 1208 1232 1231
f 1208 1209 1233 1232
f 1209 1210 1234 1233
f 1210 1211 1235 1234
f 1211 1212 1236 1235
f 1212 1213 1237 1236
f 1213 1214 1238 1237
f 1214 1215 1239 1238
f 1215 1216 1240 1239
f 1216 1217 1241 1240
f 1217 1218 1242 1241
f 1218 1219 1243 1242
f 1219 1220 1244 1243
f 1220 1197 1221 1244
f 1221 1222 1246 1245
f 1222 1223 1247 1246
f 1223 1224 1248 1247
f 1224 1225 1249 1248
f 1225 1226 1250 1249
f 1226 1227 1251 1250
f 1227 1228 1252 1251
f 1228 1229 1253 1252
f 1229 1230 1254 1253
f 1230 1231 1255 1254
f 1231 1232 1256 1255
f 1232 1233 1257 1256
f 1233 1234 1258 1257
f 1234 1235 1259 1258
f 1235 1236 1260 1259
f 1236 1237 1261 1260
f 1237 1238 1262 1261
f 1238 1239 1263 1262
f 1239 1240 1264 1263
f 1240 1241 1265 1264
f 1241 1242 1266 1265
f 1242 1243 1267 1266
f 1243 1244 1268 1267
f 1244 1221 1245 1268
f 1245 1246 1270 1269
f 1246 1247 1271 1270
f 1247 1248 1272 1271
f 1248 1249 1273 1272
f 1249 1250 1274 1273
f 1250 1251 1275 1274
f 1251 1252 1276 1275
f 1252 1253 1277 1276
f 1253 1254 1278 1277
f 1254 1255 1279 1278
f 1255 1256 1280 1279
f 1256 1257 1281 1280
f 1257 1258 1282 1281
f 1258 1259 1283 1282
f 1259 1260 1284 1283
f 1260 1261 1285 1284
f 1261 1262 1286 1285
f 1262 1263 1287 1286
f 1263 1264 1288 1287
f 1264 1265 1289 1288
f 1265 1266 1290 1289
f 1266 1267 1291 1290
f 1267 1268 1292 1291
f 1268 1245 1269 1292
f 1269 1270 1294 1293
f 1270 1271 1295 1294
f 1271 1272 1296 1295
f 1272 1273 1297 1296
f 1273 1274 1298 1297
f 1274 1275 1299 1298
f 1275 1276 1300 1299
f 1276 1277 1301 1300
f 1277 1278 1302 1301
f 1278 1279 1303 1302
f 1279 1280 1304 1303
f 1280 1281 1305 1304
f 1281 1282 1306 1305
f 1282 1283 1307 1306
f 1283 1284 1308 1307
f 1284 1285 1309 1308
f 1285 1286 1310 1309
f 1286 1287 1311 1310
f 1287 1288 1312 1311
f 1288 1289 1313 1312
f 1289 1290 1314 1313
f 1290 1291 1315 1314
f 1291 1292 1316 1315
f 1292 1269 1293 1316
f 1124 1123 1122 1121 1120 1119 1118 1117 1116 1115 1114 1113 1112 1111 1110 1109 1108 1107 1106 1105 1104 1103 1102 1101
f 1293 1294 1295 1296 1297 1298 1299 1300 1301 1302 1303 1304 1305 1306 1307 1308 1309 1310 1311 1312 1313 1314 1315 1316
g connecting_neck
f 1321 1322 1318 1317
f 1322 1323 1319 1318
f 1323 1324 1320 1319
f 1324 1321 1317 1320
f 1317 1318 1319 1320
f 1324 1323 1322 1321
g engineering_hull
f 1325 1326 1346
f 1325 1346 1345
f 1326 1327 1347
f 1326 1347 1346
f 1327 1328 1348
f 1327 1348 1347
f 1328 1329 1349
f 1328 1349 1348
f 1329 1330 1350
f 1329 1350 1349
f 1330 1331 1351
f 1330 1351 1350
f 1331 1332 1352
f 1331 1352 1351
f 1332 1333 1353
f 1332 1353 1352
f 1333 1334 1354
f 1333 1354 1353
f 1334 1335 1355
f 1334 1355 1354
f 1335 1336 1356
f 1335 1356 1355
f 1336 1337 1357
f 1336 1357 1356
f 1337 1338 1358
f 1337 1358 1357
f 1338 1339 1359
f 1338 1359 1358
f 1339 1340 1360
f 1339 1360 1359
f 1340 1341 1361
f 1340 1361 1360
f 1341 1342 1362
f 1341 1362 1361
f 1342 1343 1363
f 1342 1363 1362
f 1343 1344 1364
f 1343 1364 1363
f 1344 1325 1345
f 1344 1345 1364
f 1345 1346 1366
f 1345 1366 1365
f 1346 1347 1367
f 1346 1367 1366
f 1347 1348 1368
f 1347 1368 1367
f 1348 1349 1369
f 1348 1369 1368
f 1349 1350 1370
f 1349 1370 1369
f 1350 1351 1371
f 1350 1371 1370
f 1351 1352 1372
f 1351 1372 1371
f 1352 1353 1373
f 1352 1373 1372
f 1353 1354 1374
f 1353 1374 1373
f 1354 1355 1375
f 1354 1375 1374
f 1355 1356 1376
f 1355 1376 1375
f 1356 1357 1377
f 1356 1377 1376
f 1357 1358 1378
f 1357 1378 1377
f 1358 1359 1379
f 1358 1379 1378
f 1359 1360 1380
f 1359 1380 1379
f 1360 1361 1381
f 1360 1381 1380
f 1361 1362 1382
f 1361 1382 1381
f 1362 1363 1383
f 1362 1383 1382
f 1363 1364 1384
f 1363 1384 1383
f 1364 1345 1365
f 1364 1365 1384
f 1365 1366 1386
f 1365 1386 1385
f 1366 1367 1387
f 1366 1387 1386
f 1367 1368 1388
f 1367 1388 1387
f 1368 1369 1389
f 1368 1389 1388
f 1369 1370 1390
f 1369 1390 1389
f 1370 1371 1391
f 1370 1391 1390
f 1371 1372 1392
f 1371 1392 1391
f 1372 1373 1393
f 1372 1393 1392
f 1373 1374 1394
f 1373 1394 1393
f 1374 1375 1395
f 1374 1395 1394
f 1375 1376 1396
f 1375 1396 1395
f 1376 1377 1397
f 1376 1397 1396
f 1377 1378 1398
f 1377 1398 1397
f 1378 1379 1399
f 1378 1399 1398
f 1379 1380 1400
f 1379 1400 1399
f 1380 1381 1401
f 1380 1401 1400
f 1381 1382 1402
f 1381 1402 1401
f 1382 1383 1403
f 1382 1403 1402
f 1383 1384 1404
f 1383 1404 1403
f 1384 1365 1385
f 1384 1385 1404
f 1385 1386 1406
f 1385 1406 1405
f 1386 1387 1407
f 1386 1407 1406
f 1387 1388 1408
f 1387 1408 1407
f 1388 1389 1409
f 1388 1409 1408
f 1389 1390 1410
f 1389 1410 1409
f 1390 1391 1411
f 1390 1411 1410
f 1391 1392 1412
f 1391 1412 1411
f 1392 1393 1413
f 1392 1413 1412
f 1393 1394 1414
f 1393 1414 1413
f 1394 1395 1415
f 1394 1415 1414
f 1395 1396 1416
f 1395 1416 1415
f 1396 1397 1417
f 1396 1417 1416
f 1397 1398 1418
f 1397 1418 1417
f 1398 1399 1419
f 1398 1419 1418
f 1399 1400 1420
f 1399 1420 1419
f 1400 1401 1421
f 1400 1421 1420
f 1401 1402 1422
f 1401 1422 1421
f 1402 1403 1423
f 1402 1423 1422
f 1403 1404 1424
f 1403 1424 1423
f 1404 1385 1405
f 1404 1405 1424
f 1344 1343 1342 1341 1340 1339 1338 1337 1336 1335 1334 1333 1332 1331 1330 1329 1328 1327 1326 1325
f 1405 1406 1407 1408 1409 1410 1411 1412 1413 1414 1415 1416 1417 1418 1419 1420 1421 1422 1423 1424
g dorsal_superstructure
f 1425 1426 1438
f 1425 1438 1437
f 1426 1427 1439
f 1426 1439 1438
f 1427 1428 1440
f 1427 1440 1439
f 1428 1429 1441
f 1428 1441 1440
f 1429 1430 1442
f 1429 1442 1441
f 1430 1431 1443
f 1430 1443 1442
f 1431 1432 1444
f 1431 1444 1443
f 1432 1433 1445
f 1432 1445 1444
f 1433 1434 1446
f 1433 1446 1445
f 1434 1435 1447
f 1434 1447 1446
f 1435 1436 1448
f 1435 1448 1447
f 1436 1425 1437
f 1436 1437 1448
f 1437 1438 1450 1449
f 1438 1439 1451 1450
f 1439 1440 1452 1451
f 1440 1441 1453 1452
f 1441 1442 1454 1453
f 1442 1443 1455 1454
f 1443 1444 1456 1455
f 1444 1445 1457 1456
f 1445 1446 1458 1457
f 1446 1447 1459 1458
f 1447 1448 1460 1459
f 1448 1437 1449 1460
f 1449 1450 1462
f 1449 1462 1461
f 1450 1451 1463
f 1450 1463 1462
f 1451 1452 1464
f 1451 1464 1463
f 1452 1453 1465
f 1452 1465 1464
f 1453 1454 1466
f 1453 1466 1465
f 1454 1455 1467
f 1454 1467 1466
f 1455 1456 1468
f 1455 1468 1467
f 1456 1457 1469
f 1456 1469 1468
f 1457 1458 1470
f 1457 1470 1469
f 1458 1459 1471
f 1458 1471 1470
f 1459 1460 1472
f 1459 1472 1471
f 1460 1449 1461
f 1460 1461 1472
f 1461 1462 1474
f 1461 1474 1473
f 1462 1463 1475
f 1462 1475 1474
f 1463 1464 1476
f 1463 1476 1475
f 1464 1465 1477
f 1464 1477 1476
f 1465 1466 1478
f 1465 1478 1477
f 1466 1467 1479
f 1466 1479 1478
f 1467 1468 1480
f 1467 1480 1479
f 1468 1469 1481
f 1468 1481 1480
f 1469 1470 1482
f 1469 1482 1481
f 1470 1471 1483
f 1470 1483 1482
f 1471 1472 1484
f 1471 1484 1483
f 1472 1461 1473
f 1472 1473 1484
f 1436 1435 1434 1433 1432 1431 1430 1429 1428 1427 1426 1425
f 1473 1474 1475 1476 1477 1478 1479 1480 1481 1482 1483 1484
g nacelle_pylon
f 1489 1490 1486 1485
f 1490 1491 1487 1486
f 1491 1492 1488 1487
f 1492 1489 1485 1488
f 1485 1486 1487 1488
f 1492 1491 1490 1489
g warp_nacelle
f 1493 1494 1510 1509
f 1494 1495 1511 1510
f 1495 1496 1512 1511
f 1496 1497 1513 1512
f 1497 1498 1514 1513
f 1498 1499 1515 1514
f 1499 1500 1516 1515
f 1500 1501 1517 1516
f 1501 1502 1518 1517
f 1502 1503 1519 1518
f 1503 1504 1520 1519
f 1504 1505 1521 1520
f 1505 1506 1522 1521
f 1506 1507 1523 1522
f 1507 1508 1524 1523
f 1508 1493 1509 1524
f 1509 1510 1526 1525
f 1510 1511 1527 1526
f 1511 1512 1528 1527
f 1512 1513 1529 1528
f 1513 1514 1530 1529
f 1514 1515 1531 1530
f 1515 1516 1532 1531
f 1516 1517 1533 1532
f 1517 1518 1534 1533
f 1518 1519 1535 1534
f 1519 1520 1536 1535
f 1520 1521 1537 1536
f 1521 1522 1538 1537
f 1522 1523 1539 1538
f 1523 1524 1540 1539
f 1524 1509 1525 1540
f 1525 1526 1542 1541
f 1526 1527 1543 1542
f 1527 1528 1544 1543
f 1528 1529 1545 1544
f 1529 1530 1546 1545
f 1530 1531 1547 1546
f 1531 1532 1548 1547
f 1532 1533 1549 1548
f 1533 1534 1550 1549
f 1534 1535 1551 1550
f 1535 1536 1552 1551
f 1536 1537 1553 1552
f 1537 1538 1554 1553
f 1538 1539 1555 1554
f 1539 1540 1556 1555
f 1540 1525 1541 1556
f 1541 1542 1558 1557
f 1542 1543 1559 1558
f 1543 1544 1560 1559
f 1544 1545 1561 1560
f 1545 1546 1562 1561
f 1546 1547 1563 1562
f 1547 1548 1564 1563
f 1548 1549 1565 1564
f 1549 1550 1566 1565
f 1550 1551 1567 1566
f 1551 1552 1568 1567
f 1552 1553 1569 1568
f 1553 1554 1570 1569
f 1554 1555 1571 1570
f 1555 1556 1572 1571
f 1556 1541 1557 1572
f 1557 1558 1574 1573
f 1558 1559 1575 1574
f 1559 1560 1576 1575
f 1560 1561 1577 1576
f 1561 1562 1578 1577
f 1562 1563 1579 1578
f 1563 1564 1580 1579
f 1564 1565 1581 1580
f 1565 1566 1582 1581
f 1566 1567 1583 1582
f 1567 1568 1584 1583
f 1568 1569 1585 1584
f 1569 1570 1586 1585
f 1570 1571 1587 1586
f 1571 1572 1588 1587
f 1572 1557 1573 1588
f 1508 1507 1506 1505 1504 1503 1502 1501 1500 1499 1498 1497 1496 1495 1494 1493
f 1573 1574 1575 1576 1577 1578 1579 1580 1581 1582 1583 1584 1585 1586 1587 1588
g nacelle_pylon
f 1626 1627 1623 1622
f 1627 1628 1624 1623
f 1628 1629 1625 1624
f 1629 1626 1622 1625
f 1622 1623 1624 1625
f 1629 1628 1627 1626
g warp_nacelle
f 1630 1631 1647 1646
f 1631 1632 1648 1647
f 1632 1633 1649 1648
f 1633 1634 1650 1649
f 1634 1635 1651 1650
f 1635 1636 1652 1651
f 1636 1637 1653 1652
f 1637 1638 1654 1653
f 1638 1639 1655 1654
f 1639 1640 1656 1655
f 1640 1641 1657 1656
f 1641 1642 1658 1657
f 1642 1643 1659 1658
f 1643 1644 1660 1659
f 1644 1645 1661 1660
f 1645 1630 1646 1661
f 1646 1647 1663 1662
f 1647 1648 1664 1663
f 1648 1649 1665 1664
f 1649 1650 1666 1665
f 1650 1651 1667 1666
f 1651 1652 1668 1667
f 1652 1653 1669 1668
f 1653 1654 1670 1669
f 1654 1655 1671 1670
f 1655 1656 1672 1671
f 1656 1657 1673 1672
f 1657 1658 1674 1673
f 1658 1659 1675 1674
f 1659 1660 1676 1675
f 1660 1661 1677 1676
f 1661 1646 1662 1677
f 1662 1663 1679 1678
f 1663 1664 1680 1679
f 1664 1665 1681 1680
f 1665 1666 1682 1681
f 1666 1667 1683 1682
f 1667 1668 1684 1683
f 1668 1669 1685 1684
f 1669 1670 1686 1685
f 1670 1671 1687 1686
f 1671 1672 1688 1687
f 1672 1673 1689 1688
f 1673 1674 1690 1689
f 1674 1675 1691 1690
f 1675 1676 1692 1691
f 1676 1677 1693 1692
f 1677 1662 1678 1693
f 1678 1679 1695 1694
f 1679 1680 1696 1695
f 1680 1681 1697 1696
f 1681 1682 1698 1697
f 1682 1683 1699 1698
f 1683 1684 1700 1699
f 1684 1685 1701 1700
f 1685 1686 1702 1701
f 1686 1687 1703 1702
f 1687 1688 1704 1703
f 1688 1689 1705 1704
f 1689 1690 1706 1705
f 1690 1691 1707 1706
f 1691 1692 1708 1707
f 1692 1693 1709 1708
f 1693 1678 1694 1709
f 1694 1695 1711 1710
f 1695 1696 1712 1711
f 1696 1697 1713 1712
f 1697 1698 1714 1713
f 1698 1699 1715 1714
f 1699 1700 1716 1715
f 1700 1701 1717 1716
f 1701 1702 1718 1717
f 1702 1703 1719 1718
f 1703 1704 1720 1719
f 1704 1705 1721 1720
f 1705 1706 1722 1721
f 1706 1707 1723 1722
f 1707 1708 1724 1723
f 1708 1709 1725 1724
f 1709 1694 1710 1725
f 1645 1644 1643 1642 1641 1640 1639 1638 1637 1636 1635 1634 1633 1632 1631 1630
f 1710 1711 1712 1713 1714 1715 1716 1717 1718 1719 1720 1721 1722 1723 1724 1725
g navigation_deflector
f 1783 1784 1760 1759
f 1784 1785 1761 1760
f 1785 1786 1762 1761
f 1786 1787 1763 1762
f 1787 1788 1764 1763
f 1788 1789 1765 1764
f 1789 1790 1766 1765
f 1790 1791 1767 1766
f 1791 1792 1768 1767
f 1792 1793 1769 1768
f 1793 1794 1770 1769
f 1794 1795 1771 1770
f 1795 1796 1772 1771
f 1796 1797 1773 1772
f 1797 1798 1774 1773
f 1798 1799 1775 1774
f 1799 1800 1776 1775
f 1800 1801 1777 1776
f 1801 1802 1778 1777
f 1802 1803 1779 1778
f 1803 1804 1780 1779
f 1804 1805 1781 1780
f 1805 1806 1782 1781
f 1806 1783 1759 1782
f 1807 1808 1784 1783
f 1808 1809 1785 1784
f 1809 1810 1786 1785
f 1810 1811 1787 1786
f 1811 1812 1788 1787
f 1812 1813 1789 1788
f 1813 1814 1790 1789
f 1814 1815 1791 1790
f 1815 1816 1792 1791
f 1816 1817 1793 1792
f 1817 1818 1794 1793
f 1818 1819 1795 1794
f 1819 1820 1796 1795
f 1820 1821 1797 1796
f 1821 1822 1798 1797
f 1822 1823 1799 1798
f 1823 1824 1800 1799
f 1824 1825 1801 1800
f 1825 1826 1802 1801
f 1826 1827 1803 1802
f 1827 1828 1804 1803
f 1828 1829 1805 1804
f 1829 1830 1806 1805
f 1830 1807 1783 1806
f 1759 1760 1761 1762 1763 1764 1765 1766 1767 1768 1769 1770 1771 1772 1773 1774 1775 1776 1777 1778 1779 1780 1781 1782
f 1830 1829 1828 1827 1826 1825 1824 1823 1822 1821 1820 1819 1818 1817 1816 1815 1814 1813 1812 1811 1810 1809 1808 1807
g schematic_details
l 65 66 67 68 69 70 71 72 73 74 75 76 77 78 79 80 81 82 83 84 85 86 87 88 89 90 91 92 93 94 95 96 97 98 99 100 101 102 103 104 105 106 107 108 109 110 111 112 113 114 115 116 117 118 119 120 121 122 123 124 125 126 127 128 65
l 129 130 131 132 133 134 135 136 137 138 139 140 141 142 143 144 145 146 147 148 149 150 151 152 153 154 155 156 157 158 159 160 161 162 163 164 165 166 167 168 169 170 171 172 173 174 175 176 177 178 179 180 181 182 183 184 185 186 187 188 189 190 191 192 129
l 193 194 195 196 197 198 199 200 201 202 203 204 205 206 207 208 209 210 211 212 213 214 215 216 217 218 219 220 221 222 223 224 225 226 227 228 229 230 231 232 233 234 235 236 237 238 239 240 241 242 243 244 245 246 247 248 249 250 251 252 253 254 255 256 193
l 257 258 259 260 261 262 263 264 265 266 267 268 269 270 271 272 273 274 275 276 277 278 279 280 281 282 283 284 285 286 287 288 289 290 291 292 293 294 295 296 297 298 299 300 301 302 303 304 305 306 307 308 309 310 311 312 313 314 315 316 317 318 319 320 257
l 321 322 323 324 325 326 327 328 329 330 331 332 333 334 335 336 337 338 339 340 341 342 343 344 345 346 347 348 349 350 351 352 353 354 355 356 357 358 359 360 361 362 363 364 365 366 367 368 369 370 371 372 373 374 375 376 377 378 379 380 381 382 383 384 321
l 385 386 387 388 389 390 391 392 393 394 395 396 397 398 399 400 401 402 403 404 405 406 407 408 409 410 411 412 413 414 415 416 417 418 419 420 421 422 423 424 425 426 427 428 429 430 431 432 433 434 435 436 437 438 439 440 441 442 443 444 445 446 447 448 385
l 449 450 451 452 453 454 455 456 457 458 459 460 461 462 463 464 465 466 467 468 469 470 471 472 473 474 475 476 477 478 479 480 481 482 483 484 485 486 487 488 489 490 491 492 493 494 495 496 497 498 499 500 501 502 503 504 505 506 507 508 509 510 511 512 449
l 65 129 193 257
l 69 133 197 261
l 73 137 201 265
l 77 141 205 269
l 81 145 209 273
l 85 149 213 277
l 89 153 217 281
l 93 157 221 285
l 97 161 225 289
l 101 165 229 293
l 105 169 233 297
l 109 173 237 301
l 113 177 241 305
l 117 181 245 309
l 121 185 249 313
l 125 189 253 317
l 321 385 449
l 329 393 457
l 337 401 465
l 345 409 473
l 353 417 481
l 361 425 489
l 369 433 497
l 377 441 505
l 577 578 579 580 581 582 583 584 585 586 587 588 589 590 591 592 593 594 595 596 597 598 599 600 601 602 603 604 605 606 607 608 609 610 611 612 613 614 615 616 617 618 619 620 621 622 623 624 625 626 627 628 629 630 631 632 633 634 635 636 637 638 639 640 577
l 641 642 643 644 645 646 647 648 649 650 651 652 653 654 655 656 657 658 659 660 661 662 663 664 665 666 667 668 669 670 671 672 673 674 675 676 677 678 679 680 681 682 683 684 685 686 687 688 689 690 691 692 693 694 695 696 697 698 699 700 701 702 703 704 641
l 705 706 707 708 709 710 711 712 713 714 715 716 717 718 719 720 721 722 723 724 725 726 727 728 729 730 731 732 733 734 735 736 737 738 739 740 741 742 743 744 745 746 747 748 749 750 751 752 753 754 755 756 757 758 759 760 761 762 763 764 765 766 767 768 705
l 769 770
l 771 772
l 773 774
l 775 776
l 777 778
l 779 780
l 781 782
l 783 784
l 785 786
l 787 788
l 789 790
l 791 792
l 793 794
l 795 796
l 797 798
l 799 800
l 801 802
l 803 804
l 805 806
l 807 808
l 809 810
l 811 812
l 813 814
l 815 816
l 817 818
l 819 820
l 821 822
l 823 824
l 825 826
l 827 828
l 829 830
l 831 832
l 833 834
l 835 836
l 837 838
l 839 840
l 841 842
l 843 844
l 845 846
l 847 848
l 849 850
l 851 852
l 853 854
l 855 856
l 857 858
l 859 860
l 861 862
l 863 864
l 865 866
l 867 868
l 869 870
l 871 872
l 873 874
l 875 876
l 877 878
l 879 880
l 881 882
l 883 884
l 1325 1326 1327 1328 1329 1330 1331 1332 1333 1334 1335 1336 1337 1338 1339 1340 1341 1342 1343 1344 1325
l 1345 1346 1347 1348 1349 1350 1351 1352 1353 1354 1355 1356 1357 1358 1359 1360 1361 1362 1363 1364 1345
l 1385 1386 1387 1388 1389 1390 1391 1392 1393 1394 1395 1396 1397 1398 1399 1400 1401 1402 1403 1404 1385
l 1405 1406 1407 1408 1409 1410 1411 1412 1413 1414 1415 1416 1417 1418 1419 1420 1421 1422 1423 1424 1405
l 1325 1345 1365 1385 1405
l 1330 1350 1370 1390 1410
l 1335 1355 1375 1395 1415
l 1340 1360 1380 1400 1420
l 1425 1426 1427 1428 1429 1430 1431 1432 1433 1434 1435 1436 1425
l 1437 1438 1439 1440 1441 1442 1443 1444 1445 1446 1447 1448 1437
l 1461 1462 1463 1464 1465 1466 1467 1468 1469 1470 1471 1472 1461
l 1473 1474 1475 1476 1477 1478 1479 1480 1481 1482 1483 1484 1473
l 1425 1437 1449 1461 1473
l 1428 1440 1452 1464 1476
l 1431 1443 1455 1467 1479
l 1434 1446 1458 1470 1482
l 1493 1494 1495 1496 1497 1498 1499 1500 1501 1502 1503 1504 1505 1506 1507 1508 1493
l 1509 1510 1511 1512 1513 1514 1515 1516 1517 1518 1519 1520 1521 1522 1523 1524 1509
l 1557 1558 1559 1560 1561 1562 1563 1564 1565 1566 1567 1568 1569 1570 1571 1572 1557
l 1573 1574 1575 1576 1577 1578 1579 1580 1581 1582 1583 1584 1585 1586 1587 1588 1573
l 1493 1509 1525 1541 1557 1573
l 1497 1513 1529 1545 1561 1577
l 1501 1517 1533 1549 1565 1581
l 1505 1521 1537 1553 1569 1585
l 1589 1590 1591
l 1592 1593 1594
l 1595 1596 1597
l 1598 1599 1600
l 1601 1602 1603
l 1604 1605 1606
l 1607 1608 1609
l 1610 1611 1612
l 1613 1614 1615
l 1616 1617 1618
l 1619 1620 1621
l 1630 1631 1632 1633 1634 1635 1636 1637 1638 1639 1640 1641 1642 1643 1644 1645 1630
l 1646 1647 1648 1649 1650 1651 1652 1653 1654 1655 1656 1657 1658 1659 1660 1661 1646
l 1694 1695 1696 1697 1698 1699 1700 1701 1702 1703 1704 1705 1706 1707 1708 1709 1694
l 1710 1711 1712 1713 1714 1715 1716 1717 1718 1719 1720 1721 1722 1723 1724 1725 1710
l 1630 1646 1662 1678 1694 1710
l 1634 1650 1666 1682 1698 1714
l 1638 1654 1670 1686 1702 1718
l 1642 1658 1674 1690 1706 1722
l 1726 1727 1728
l 1729 1730 1731
l 1732 1733 1734
l 1735 1736 1737
l 1738 1739 1740
l 1741 1742 1743
l 1744 1745 1746
l 1747 1748 1749
l 1750 1751 1752
l 1753 1754 1755
l 1756 1757 1758
l 1759 1760 1761 1762 1763 1764 1765 1766 1767 1768 1769 1770 1771 1772 1773 1774 1775 1776 1777 1778 1779 1780 1781 1782 1759
l 1783 1784 1785 1786 1787 1788 1789 1790 1791 1792 1793 1794 1795 1796 1797 1798 1799 1800 1801 1802 1803 1804 1805 1806 1783
l 1783 1784 1785 1786 1787 1788 1789 1790 1791 1792 1793 1794 1795 1796 1797 1798 1799 1800 1801 1802 1803 1804 1805 1806 1783
l 1807 1808 1809 1810 1811 1812 1813 1814 1815 1816 1817 1818 1819 1820 1821 1822 1823 1824 1825 1826 1827 1828 1829 1830 1807
l 1759 1783 1807
l 1765 1789 1813
l 1771 1795 1819
l 1777 1801 1825
l 1831 1832
l 1833 1834
l 1835 1836
l 1837 1838
