# Original procedural schematic geometry; +Y up / bow -Z. Units arbitrary.
# No materials, textures, imported meshes, or hidden dependencies.
o vessel
v 6.600000 6.560000 -36.000000
v 6.568219 6.560000 -35.447183
v 6.473183 6.560000 -34.899691
v 6.315806 6.560000 -34.362794
v 6.097605 6.560000 -33.841665
v 5.820680 6.560000 -33.341322
v 5.487699 6.560000 -32.866584
v 5.101869 6.560000 -32.422022
v 4.666905 6.560000 -32.011918
v 4.186996 6.560000 -31.640221
v 3.666764 6.560000 -31.310511
v 3.111218 6.560000 -31.025964
v 2.525711 6.560000 -30.789319
v 1.915879 6.560000 -30.602857
v 1.287596 6.560000 -30.468371
v 0.646913 6.560000 -30.387158
v 0.000000 6.560000 -30.360000
v -0.646913 6.560000 -30.387158
v -1.287596 6.560000 -30.468371
v -1.915879 6.560000 -30.602857
v -2.525711 6.560000 -30.789319
v -3.111218 6.560000 -31.025964
v -3.666764 6.560000 -31.310511
v -4.186996 6.560000 -31.640221
v -4.666905 6.560000 -32.011918
v -5.101869 6.560000 -32.422022
v -5.487699 6.560000 -32.866584
v -5.820680 6.560000 -33.341322
v -6.097605 6.560000 -33.841665
v -6.315806 6.560000 -34.362794
v -6.473183 6.560000 -34.899691
v -6.568219 6.560000 -35.447183
v -6.600000 6.560000 -36.000000
v -6.568219 6.560000 -36.552817
v -6.473183 6.560000 -37.100309
v -6.315806 6.560000 -37.637206
v -6.097605 6.560000 -38.158335
v -5.820680 6.560000 -38.658678
v -5.487699 6.560000 -39.133416
v -5.101869 6.560000 -39.577978
v -4.666905 6.560000 -39.988082
v -4.186996 6.560000 -40.359779
v -3.666764 6.560000 -40.689489
v -3.111218 6.560000 -40.974036
v -2.525711 6.560000 -41.210681
v -1.915879 6.560000 -41.397143
v -1.287596 6.560000 -41.531629
v -0.646913 6.560000 -41.612842
v -0.000000 6.560000 -41.640000
v 0.646913 6.560000 -41.612842
v 1.287596 6.560000 -41.531629
v 1.915879 6.560000 -41.397143
v 2.525711 6.560000 -41.210681
v 3.111218 6.560000 -40.974036
v 3.666764 6.560000 -40.689489
v 4.186996 6.560000 -40.359779
v 4.666905 6.560000 -39.988082
v 5.101869 6.560000 -39.577978
v 5.487699 6.560000 -39.133416
v 5.820680 6.560000 -38.658678
v 6.097605 6.560000 -38.158335
v 6.315806 6.560000 -37.637206
v 6.473183 6.560000 -37.100309
v 6.568219 6.560000 -36.552817
v 17.600000 5.760000 -36.000000
v 17.515251 5.760000 -34.525822
v 17.261821 5.760000 -33.065842
v 16.842150 5.760000 -31.634118
v 16.260280 5.760000 -30.244441
v 15.521814 5.760000 -28.910193
v 14.633865 5.760000 -27.644224
v 13.604984 5.760000 -26.458725
v 12.445079 5.760000 -25.365114
v 11.165322 5.760000 -24.373923
v 9.778036 5.760000 -23.494697
v 8.296583 5.760000 -22.735904
v 6.735228 5.760000 -22.104852
v 5.109010 5.760000 -21.607617
v 3.433590 5.760000 -21.248989
v 1.725102 5.760000 -21.032422
v 0.000000 5.760000 -20.960000
v -1.725102 5.760000 -21.032422
v -3.433590 5.760000 -21.248989
v -5.109010 5.760000 -21.607617
v -6.735228 5.760000 -22.104852
v -8.296583 5.760000 -22.735904
v -9.778036 5.760000 -23.494697
v -11.165322 5.760000 -24.373923
v -12.445079 5.760000 -25.365114
v -13.604984 5.760000 -26.458725
v -14.633865 5.760000 -27.644224
v -15.521814 5.760000 -28.910193
v -16.260280 5.760000 -30.244441
v -16.842150 5.760000 -31.634118
v -17.261821 5.760000 -33.065842
v -17.515251 5.760000 -34.525822
v -17.600000 5.760000 -36.000000
v -17.515251 5.760000 -37.474178
v -17.261821 5.760000 -38.934158
v -16.842150 5.760000 -40.365882
v -16.260280 5.760000 -41.755559
v -15.521814 5.760000 -43.089807
v -14.633865 5.760000 -44.355776
v -13.604984 5.760000 -45.541275
v -12.445079 5.760000 -46.634886
v -11.165322 5.760000 -47.626077
v -9.778036 5.760000 -48.505303
v -8.296583 5.760000 -49.264096
v -6.735228 5.760000 -49.895148
v -5.109010 5.760000 -50.392383
v -3.433590 5.760000 -50.751011
v -1.725102 5.760000 -50.967578
v -0.000000 5.760000 -51.040000
v 1.725102 5.760000 -50.967578
v 3.433590 5.760000 -50.751011
v 5.109010 5.760000 -50.392383
v 6.735228 5.760000 -49.895148
v 8.296583 5.760000 -49.264096
v 9.778036 5.760000 -48.505303
v 11.165322 5.760000 -47.626077
v 12.445079 5.760000 -46.634886
v 13.604984 5.760000 -45.541275
v 14.633865 5.760000 -44.355776
v 15.521814 5.760000 -43.089807
v 16.260280 5.760000 -41.755559
v 16.842150 5.760000 -40.365882
v 17.261821 5.760000 -38.934158
v 17.515251 5.760000 -37.474178
v 41.800000 2.960000 -36.000000
v 41.598722 2.960000 -32.498828
v 40.996825 2.960000 -29.031374
v 40.000106 2.960000 -25.631031
v 38.618164 2.960000 -22.330548
v 36.864309 2.960000 -19.161709
v 34.755430 2.960000 -16.155031
v 32.311837 2.960000 -13.339472
v 29.557063 2.960000 -10.742146
v 26.517639 2.960000 -8.388067
v 23.222836 2.960000 -6.299905
v 19.704384 2.960000 -4.497772
v 15.996167 2.960000 -2.999023
v 12.133900 2.960000 -1.818091
v 8.154775 2.960000 -0.966350
v 4.097116 2.960000 -0.452002
v 0.000000 2.960000 -0.280000
v -4.097116 2.960000 -0.452002
v -8.154775 2.960000 -0.966350
v -12.133900 2.960000 -1.818091
v -15.996167 2.960000 -2.999023
v -19.704384 2.960000 -4.497772
v -23.222836 2.960000 -6.299905
v -26.517639 2.960000 -8.388067
v -29.557063 2.960000 -10.742146
v -32.311837 2.960000 -13.339472
v -34.755430 2.960000 -16.155031
v -36.864309 2.960000 -19.161709
v -38.618164 2.960000 -22.330548
v -40.000106 2.960000 -25.631031
v -40.996825 2.960000 -29.031374
v -41.598722 2.960000 -32.498828
v -41.800000 2.960000 -36.000000
v -41.598722 2.960000 -39.501172
v -40.996825 2.960000 -42.968626
v -40.000106 2.960000 -46.368969
v -38.618164 2.960000 -49.669452
v -36.864309 2.960000 -52.838291
v -34.755430 2.960000 -55.844969
v -32.311837 2.960000 -58.660528
v -29.557063 2.960000 -61.257854
v -26.517639 2.960000 -63.611933
v -23.222836 2.960000 -65.700095
v -19.704384 2.960000 -67.502228
v -15.996167 2.960000 -69.000977
v -12.133900 2.960000 -70.181909
v -8.154775 2.960000 -71.033650
v -4.097116 2.960000 -71.547998
v -0.000000 2.960000 -71.720000
v 4.097116 2.960000 -71.547998
v 8.154775 2.960000 -71.033650
v 12.133900 2.960000 -70.181909
v 15.996167 2.960000 -69.000977
v 19.704384 2.960000 -67.502228
v 23.222836 2.960000 -65.700095
v 26.517639 2.960000 -63.611933
v 29.557063 2.960000 -61.257854
v 32.311837 2.960000 -58.660528
v 34.755430 2.960000 -55.844969
v 36.864309 2.960000 -52.838291
v 38.618164 2.960000 -49.669452
v 40.000106 2.960000 -46.368969
v 40.996825 2.960000 -42.968626
v 41.598722 2.960000 -39.501172
v 52.800000 1.360000 -36.000000
v 52.545754 1.360000 -31.577467
v 51.785463 1.360000 -27.197525
v 50.526450 1.360000 -22.902355
v 48.780839 1.360000 -18.733324
v 46.565443 1.360000 -14.730579
v 43.901596 1.360000 -10.932671
v 40.814952 1.360000 -7.376175
v 37.335238 1.360000 -4.095342
v 33.495965 1.360000 -1.121768
v 29.334108 1.360000 1.515909
v 24.889748 1.360000 3.792287
v 20.205685 1.360000 5.685445
v 15.327031 1.360000 7.177148
v 10.300769 1.360000 8.253032
v 5.175305 1.360000 8.902735
v 0.000000 1.360000 9.120000
v -5.175305 1.360000 8.902735
v -10.300769 1.360000 8.253032
v -15.327031 1.360000 7.177148
v -20.205685 1.360000 5.685445
v -24.889748 1.360000 3.792287
v -29.334108 1.360000 1.515909
v -33.495965 1.360000 -1.121768
v -37.335238 1.360000 -4.095342
v -40.814952 1.360000 -7.376175
v -43.901596 1.360000 -10.932671
v -46.565443 1.360000 -14.730579
v -48.780839 1.360000 -18.733324
v -50.526450 1.360000 -22.902355
v -51.785463 1.360000 -27.197525
v -52.545754 1.360000 -31.577467
v -52.800000 1.360000 -36.000000
v -52.545754 1.360000 -40.422533
v -51.785463 1.360000 -44.802475
v -50.526450 1.360000 -49.097645
v -48.780839 1.360000 -53.266676
v -46.565443 1.360000 -57.269421
v -43.901596 1.360000 -61.067329
v -40.814952 1.360000 -64.623825
v -37.335238 1.360000 -67.904658
v -33.495965 1.360000 -70.878232
v -29.334108 1.360000 -73.515909
v -24.889748 1.360000 -75.792287
v -20.205685 1.360000 -77.685445
v -15.327031 1.360000 -79.177148
v -10.300769 1.360000 -80.253032
v -5.175305 1.360000 -80.902735
v -0.000000 1.360000 -81.120000
v 5.175305 1.360000 -80.902735
v 10.300769 1.360000 -80.253032
v 15.327031 1.360000 -79.177148
v 20.205685 1.360000 -77.685445
v 24.889748 1.360000 -75.792287
v 29.334108 1.360000 -73.515909
v 33.495965 1.360000 -70.878232
v 37.335238 1.360000 -67.904658
v 40.814952 1.360000 -64.623825
v 43.901596 1.360000 -61.067329
v 46.565443 1.360000 -57.269421
v 48.780839 1.360000 -53.266676
v 50.526450 1.360000 -49.097645
v 51.785463 1.360000 -44.802475
v 52.545754 1.360000 -40.422533
v 55.000000 0.400000 -36.000000
v 54.735160 0.400000 -31.393194
v 53.943190 0.400000 -26.830755
v 52.631718 0.400000 -22.356620
v 50.813374 0.400000 -18.013879
v 48.505670 0.400000 -13.844353
v 45.730829 0.400000 -9.888199
v 42.515575 0.400000 -6.183516
v 38.890873 0.400000 -2.765981
v 34.891631 0.400000 0.331491
v 30.556363 0.400000 3.079072
v 25.926821 0.400000 5.450299
v 21.047589 0.400000 7.422338
v 15.965657 0.400000 8.976196
v 10.729968 0.400000 10.096908
v 5.390943 0.400000 10.773682
v 0.000000 0.400000 11.000000
v -5.390943 0.400000 10.773682
v -10.729968 0.400000 10.096908
v -15.965657 0.400000 8.976196
v -21.047589 0.400000 7.422338
v -25.926821 0.400000 5.450299
v -30.556363 0.400000 3.079072
v -34.891631 0.400000 0.331491
v -38.890873 0.400000 -2.765981
v -42.515575 0.400000 -6.183516
v -45.730829 0.400000 -9.888199
v -48.505670 0.400000 -13.844353
v -50.813374 0.400000 -18.013879
v -52.631718 0.400000 -22.356620
v -53.943190 0.400000 -26.830755
v -54.735160 0.400000 -31.393194
v -55.000000 0.400000 -36.000000
v -54.735160 0.400000 -40.606806
v -53.943190 0.400000 -45.169245
v -52.631718 0.400000 -49.643380
v -50.813374 0.400000 -53.986121
v -48.505670 0.400000 -58.155647
v -45.730829 0.400000 -62.111801
v -42.515575 0.400000 -65.816484
v -38.890873 0.400000 -69.234019
v -34.891631 0.400000 -72.331491
v -30.556363 0.400000 -75.079072
v -25.926821 0.400000 -77.450299
v -21.047589 0.400000 -79.422338
v -15.965657 0.400000 -80.976196
v -10.729968 0.400000 -82.096908
v -5.390943 0.400000 -82.773682
v -0.000000 0.400000 -83.000000
v 5.390943 0.400000 -82.773682
v 10.729968 0.400000 -82.096908
v 15.965657 0.400000 -80.976196
v 21.047589 0.400000 -79.422338
v 25.926821 0.400000 -77.450299
v 30.556363 0.400000 -75.079072
v 34.891631 0.400000 -72.331491
v 38.890873 0.400000 -69.234019
v 42.515575 0.400000 -65.816484
v 45.730829 0.400000 -62.111801
v 48.505670 0.400000 -58.155647
v 50.813374 0.400000 -53.986121
v 52.631718 0.400000 -49.643380
v 53.943190 0.400000 -45.169245
v 54.735160 0.400000 -40.606806
v 55.000000 -1.040000 -36.000000
v 54.735160 -1.040000 -31.393194
v 53.943190 -1.040000 -26.830755
v 52.631718 -1.040000 -22.356620
v 50.813374 -1.040000 -18.013879
v 48.505670 -1.040000 -13.844353
v 45.730829 -1.040000 -9.888199
v 42.515575 -1.040000 -6.183516
v 38.890873 -1.040000 -2.765981
v 34.891631 -1.040000 0.331491
v 30.556363 -1.040000 3.079072
v 25.926821 -1.040000 5.450299
v 21.047589 -1.040000 7.422338
v 15.965657 -1.040000 8.976196
v 10.729968 -1.040000 10.096908
v 5.390943 -1.040000 10.773682
v 0.000000 -1.040000 11.000000
v -5.390943 -1.040000 10.773682
v -10.729968 -1.040000 10.096908
v -15.965657 -1.040000 8.976196
v -21.047589 -1.040000 7.422338
v -25.926821 -1.040000 5.450299
v -30.556363 -1.040000 3.079072
v -34.891631 -1.040000 0.331491
v -38.890873 -1.040000 -2.765981
v -42.515575 -1.040000 -6.183516
v -45.730829 -1.040000 -9.888199
v -48.505670 -1.040000 -13.844353
v -50.813374 -1.040000 -18.013879
v -52.631718 -1.040000 -22.356620
v -53.943190 -1.040000 -26.830755
v -54.735160 -1.040000 -31.393194
v -55.000000 -1.040000 -36.000000
v -54.735160 -1.040000 -40.606806
v -53.943190 -1.040000 -45.169245
v -52.631718 -1.040000 -49.643380
v -50.813374 -1.040000 -53.986121
v -48.505670 -1.040000 -58.155647
v -45.730829 -1.040000 -62.111801
v -42.515575 -1.040000 -65.816484
v -38.890873 -1.040000 -69.234019
v -34.891631 -1.040000 -72.331491
v -30.556363 -1.040000 -75.079072
v -25.926821 -1.040000 -77.450299
v -21.047589 -1.040000 -79.422338
v -15.965657 -1.040000 -80.976196
v -10.729968 -1.040000 -82.096908
v -5.390943 -1.040000 -82.773682
v -0.000000 -1.040000 -83.000000
v 5.390943 -1.040000 -82.773682
v 10.729968 -1.040000 -82.096908
v 15.965657 -1.040000 -80.976196
v 21.047589 -1.040000 -79.422338
v 25.926821 -1.040000 -77.450299
v 30.556363 -1.040000 -75.079072
v 34.891631 -1.040000 -72.331491
v 38.890873 -1.040000 -69.234019
v 42.515575 -1.040000 -65.816484
v 45.730829 -1.040000 -62.111801
v 48.505670 -1.040000 -58.155647
v 50.813374 -1.040000 -53.986121
v 52.631718 -1.040000 -49.643380
v 53.943190 -1.040000 -45.169245
v 54.735160 -1.040000 -40.606806
v 45.650000 -3.200000 -36.000000
v 45.430183 -3.200000 -32.176351
v 44.772848 -3.200000 -28.389527
v 43.684326 -3.200000 -24.675995
v 42.175101 -3.200000 -21.071519
v 40.259706 -3.200000 -17.610813
v 37.956588 -3.200000 -14.327205
v 35.287927 -3.200000 -11.252318
v 32.279425 -3.200000 -8.415764
v 28.960053 -3.200000 -5.844862
v 25.361781 -3.200000 -3.564370
v 21.519261 -3.200000 -1.596251
v 17.469499 -3.200000 0.040541
v 13.251496 -3.200000 1.330242
v 8.905873 -3.200000 2.260434
v 4.474482 -3.200000 2.822156
v 0.000000 -3.200000 3.010000
v -4.474482 -3.200000 2.822156
v -8.905873 -3.200000 2.260434
v -13.251496 -3.200000 1.330242
v -17.469499 -3.200000 0.040541
v -21.519261 -3.200000 -1.596251
v -25.361781 -3.200000 -3.564370
v -28.960053 -3.200000 -5.844862
v -32.279425 -3.200000 -8.415764
v -35.287927 -3.200000 -11.252318
v -37.956588 -3.200000 -14.327205
v -40.259706 -3.200000 -17.610813
v -42.175101 -3.200000 -21.071519
v -43.684326 -3.200000 -24.675995
v -44.772848 -3.200000 -28.389527
v -45.430183 -3.200000 -32.176351
v -45.650000 -3.200000 -36.000000
v -45.430183 -3.200000 -39.823649
v -44.772848 -3.200000 -43.610473
v -43.684326 -3.200000 -47.324005
v -42.175101 -3.200000 -50.928481
v -40.259706 -3.200000 -54.389187
v -37.956588 -3.200000 -57.672795
v -35.287927 -3.200000 -60.747682
v -32.279425 -3.200000 -63.584236
v -28.960053 -3.200000 -66.155138
v -25.361781 -3.200000 -68.435630
v -21.519261 -3.200000 -70.403749
v -17.469499 -3.200000 -72.040541
v -13.251496 -3.200000 -73.330242
v -8.905873 -3.200000 -74.260434
v -4.474482 -3.200000 -74.822156
v -0.000000 -3.200000 -75.010000
v 4.474482 -3.200000 -74.822156
v 8.905873 -3.200000 -74.260434
v 13.251496 -3.200000 -73.330242
v 17.469499 -3.200000 -72.040541
v 21.519261 -3.200000 -70.403749
v 25.361781 -3.200000 -68.435630
v 28.960053 -3.200000 -66.155138
v 32.279425 -3.200000 -63.584236
v 35.287927 -3.200000 -60.747682
v 37.956588 -3.200000 -57.672795
v 40.259706 -3.200000 -54.389187
v 42.175101 -3.200000 -50.928481
v 43.684326 -3.200000 -47.324005
v 44.772848 -3.200000 -43.610473
v 45.430183 -3.200000 -39.823649
v 15.400000 -5.120000 -36.000000
v 15.325845 -5.120000 -34.710094
v 15.104093 -5.120000 -33.432611
v 14.736881 -5.120000 -32.179854
v 14.227745 -5.120000 -30.963886
v 13.581587 -5.120000 -29.796419
v 12.804632 -5.120000 -28.688696
v 11.904361 -5.120000 -27.651384
v 10.889444 -5.120000 -26.694475
v 9.769657 -5.120000 -25.827182
v 8.555782 -5.120000 -25.057860
v 7.259510 -5.120000 -24.393916
v 5.893325 -5.120000 -23.841745
v 4.470384 -5.120000 -23.406665
v 3.004391 -5.120000 -23.092866
v 1.509464 -5.120000 -22.903369
v 0.000000 -5.120000 -22.840000
v -1.509464 -5.120000 -22.903369
v -3.004391 -5.120000 -23.092866
v -4.470384 -5.120000 -23.406665
v -5.893325 -5.120000 -23.841745
v -7.259510 -5.120000 -24.393916
v -8.555782 -5.120000 -25.057860
v -9.769657 -5.120000 -25.827182
v -10.889444 -5.120000 -26.694475
v -11.904361 -5.120000 -27.651384
v -12.804632 -5.120000 -28.688696
v -13.581587 -5.120000 -29.796419
v -14.227745 -5.120000 -30.963886
v -14.736881 -5.120000 -32.179854
v -15.104093 -5.120000 -33.432611
v -15.325845 -5.120000 -34.710094
v -15.400000 -5.120000 -36.000000
v -15.325845 -5.120000 -37.289906
v -15.104093 -5.120000 -38.567389
v -14.736881 -5.120000 -39.820146
v -14.227745 -5.120000 -41.036114
v -13.581587 -5.120000 -42.203581
v -12.804632 -5.120000 -43.311304
v -11.904361 -5.120000 -44.348616
v -10.889444 -5.120000 -45.305525
v -9.769657 -5.120000 -46.172818
v -8.555782 -5.120000 -46.942140
v -7.259510 -5.120000 -47.606084
v -5.893325 -5.120000 -48.158255
v -4.470384 -5.120000 -48.593335
v -3.004391 -5.120000 -48.907134
v -1.509464 -5.120000 -49.096631
v -0.000000 -5.120000 -49.160000
v 1.509464 -5.120000 -49.096631
v 3.004391 -5.120000 -48.907134
v 4.470384 -5.120000 -48.593335
v 5.893325 -5.120000 -48.158255
v 7.259510 -5.120000 -47.606084
v 8.555782 -5.120000 -46.942140
v 9.769657 -5.120000 -46.172818
v 10.889444 -5.120000 -45.305525
v 11.904361 -5.120000 -44.348616
v 12.804632 -5.120000 -43.311304
v 13.581587 -5.120000 -42.203581
v 14.227745 -5.120000 -41.036114
v 14.736881 -5.120000 -39.820146
v 15.104093 -5.120000 -38.567389
v 15.325845 -5.120000 -37.289906
v 6.600000 -5.280000 -36.000000
v 6.568219 -5.280000 -35.447183
v 6.473183 -5.280000 -34.899691
v 6.315806 -5.280000 -34.362794
v 6.097605 -5.280000 -33.841665
v 5.820680 -5.280000 -33.341322
v 5.487699 -5.280000 -32.866584
v 5.101869 -5.280000 -32.422022
v 4.666905 -5.280000 -32.011918
v 4.186996 -5.280000 -31.640221
v 3.666764 -5.280000 -31.310511
v 3.111218 -5.280000 -31.025964
v 2.525711 -5.280000 -30.789319
v 1.915879 -5.280000 -30.602857
v 1.287596 -5.280000 -30.468371
v 0.646913 -5.280000 -30.387158
v 0.000000 -5.280000 -30.360000
v -0.646913 -5.280000 -30.387158
v -1.287596 -5.280000 -30.468371
v -1.915879 -5.280000 -30.602857
v -2.525711 -5.280000 -30.789319
v -3.111218 -5.280000 -31.025964
v -3.666764 -5.280000 -31.310511
v -4.186996 -5.280000 -31.640221
v -4.666905 -5.280000 -32.011918
v -5.101869 -5.280000 -32.422022
v -5.487699 -5.280000 -32.866584
v -5.820680 -5.280000 -33.341322
v -6.097605 -5.280000 -33.841665
v -6.315806 -5.280000 -34.362794
v -6.473183 -5.280000 -34.899691
v -6.568219 -5.280000 -35.447183
v -6.600000 -5.280000 -36.000000
v -6.568219 -5.280000 -36.552817
v -6.473183 -5.280000 -37.100309
v -6.315806 -5.280000 -37.637206
v -6.097605 -5.280000 -38.158335
v -5.820680 -5.280000 -38.658678
v -5.487699 -5.280000 -39.133416
v -5.101869 -5.280000 -39.577978
v -4.666905 -5.280000 -39.988082
v -4.186996 -5.280000 -40.359779
v -3.666764 -5.280000 -40.689489
v -3.111218 -5.280000 -40.974036
v -2.525711 -5.280000 -41.210681
v -1.915879 -5.280000 -41.397143
v -1.287596 -5.280000 -41.531629
v -0.646913 -5.280000 -41.612842
v -0.000000 -5.280000 -41.640000
v 0.646913 -5.280000 -41.612842
v 1.287596 -5.280000 -41.531629
v 1.915879 -5.280000 -41.397143
v 2.525711 -5.280000 -41.210681
v 3.111218 -5.280000 -40.974036
v 3.666764 -5.280000 -40.689489
v 4.186996 -5.280000 -40.359779
v 4.666905 -5.280000 -39.988082
v 5.101869 -5.280000 -39.577978
v 5.487699 -5.280000 -39.133416
v 5.820680 -5.280000 -38.658678
v 6.097605 -5.280000 -38.158335
v 6.315806 -5.280000 -37.637206
v 6.473183 -5.280000 -37.100309
v 6.568219 -5.280000 -36.552817
v 25.850000 4.829455 -36.000000
v 25.725525 4.829455 -33.834801
v 25.353299 4.829455 -31.690455
v 24.736908 4.829455 -29.587611
v 23.882286 4.829455 -27.546523
v 22.797665 4.829455 -25.586846
v 21.493489 4.829455 -23.727454
v 19.982320 4.829455 -21.986252
v 18.278710 4.829455 -20.380011
v 16.399066 4.829455 -18.924199
v 14.361491 4.829455 -17.632836
v 12.185606 4.829455 -16.518359
v 9.892367 4.829455 -15.591501
v 7.503859 4.829455 -14.861188
v 5.043085 4.829455 -14.334453
v 2.533743 4.829455 -14.016369
v 0.000000 4.829455 -13.910000
v -2.533743 4.829455 -14.016369
v -5.043085 4.829455 -14.334453
v -7.503859 4.829455 -14.861188
v -9.892367 4.829455 -15.591501
v -12.185606 4.829455 -16.518359
v -14.361491 4.829455 -17.632836
v -16.399066 4.829455 -18.924199
v -18.278710 4.829455 -20.380011
v -19.982320 4.829455 -21.986252
v -21.493489 4.829455 -23.727454
v -22.797665 4.829455 -25.586846
v -23.882286 4.829455 -27.546523
v -24.736908 4.829455 -29.587611
v -25.353299 4.829455 -31.690455
v -25.725525 4.829455 -33.834801
v -25.850000 4.829455 -36.000000
v -25.725525 4.829455 -38.165199
v -25.353299 4.829455 -40.309545
v -24.736908 4.829455 -42.412389
v -23.882286 4.829455 -44.453477
v -22.797665 4.829455 -46.413154
v -21.493489 4.829455 -48.272546
v -19.982320 4.829455 -50.013748
v -18.278710 4.829455 -51.619989
v -16.399066 4.829455 -53.075801
v -14.361491 4.829455 -54.367164
v -12.185606 4.829455 -55.481641
v -9.892367 4.829455 -56.408499
v -7.503859 4.829455 -57.138812
v -5.043085 4.829455 -57.665547
v -2.533743 4.829455 -57.983631
v -0.000000 4.829455 -58.090000
v 2.533743 4.829455 -57.983631
v 5.043085 4.829455 -57.665547
v 7.503859 4.829455 -57.138812
v 9.892367 4.829455 -56.408499
v 12.185606 4.829455 -55.481641
v 14.361491 4.829455 -54.367164
v 16.399066 4.829455 -53.075801
v 18.278710 4.829455 -51.619989
v 19.982320 4.829455 -50.013748
v 21.493489 4.829455 -48.272546
v 22.797665 4.829455 -46.413154
v 23.882286 4.829455 -44.453477
v 24.736908 4.829455 -42.412389
v 25.353299 4.829455 -40.309545
v 25.725525 4.829455 -38.165199
v 33.000000 4.002182 -36.000000
v 32.841096 4.002182 -33.235917
v 32.365914 4.002182 -30.498453
v 31.579031 4.002182 -27.813972
v 30.488025 4.002182 -25.208327
v 29.103402 4.002182 -22.706612
v 27.438497 4.002182 -20.332919
v 25.509345 4.002182 -18.110109
v 23.334524 4.002182 -16.059589
v 20.934978 4.002182 -14.201105
v 18.333818 4.002182 -12.552557
v 15.556092 4.002182 -11.129820
v 12.628553 4.002182 -9.946597
v 9.579394 4.002182 -9.014283
v 6.437981 4.002182 -8.341855
v 3.234566 4.002182 -7.935791
v 0.000000 4.002182 -7.800000
v -3.234566 4.002182 -7.935791
v -6.437981 4.002182 -8.341855
v -9.579394 4.002182 -9.014283
v -12.628553 4.002182 -9.946597
v -15.556092 4.002182 -11.129820
v -18.333818 4.002182 -12.552557
v -20.934978 4.002182 -14.201105
v -23.334524 4.002182 -16.059589
v -25.509345 4.002182 -18.110109
v -27.438497 4.002182 -20.332919
v -29.103402 4.002182 -22.706612
v -30.488025 4.002182 -25.208327
v -31.579031 4.002182 -27.813972
v -32.365914 4.002182 -30.498453
v -32.841096 4.002182 -33.235917
v -33.000000 4.002182 -36.000000
v -32.841096 4.002182 -38.764083
v -32.365914 4.002182 -41.501547
v -31.579031 4.002182 -44.186028
v -30.488025 4.002182 -46.791673
v -29.103402 4.002182 -49.293388
v -27.438497 4.002182 -51.667081
v -25.509345 4.002182 -53.889891
v -23.334524 4.002182 -55.940411
v -20.934978 4.002182 -57.798895
v -18.333818 4.002182 -59.447443
v -15.556092 4.002182 -60.870180
v -12.628553 4.002182 -62.053403
v -9.579394 4.002182 -62.985717
v -6.437981 4.002182 -63.658145
v -3.234566 4.002182 -64.064209
v -0.000000 4.002182 -64.200000
v 3.234566 4.002182 -64.064209
v 6.437981 4.002182 -63.658145
v 9.579394 4.002182 -62.985717
v 12.628553 4.002182 -62.053403
v 15.556092 4.002182 -60.870180
v 18.333818 4.002182 -59.447443
v 20.934978 4.002182 -57.798895
v 23.334524 4.002182 -55.940411
v 25.509345 4.002182 -53.889891
v 27.438497 4.002182 -51.667081
v 29.103402 4.002182 -49.293388
v 30.488025 4.002182 -46.791673
v 31.579031 4.002182 -44.186028
v 32.365914 4.002182 -41.501547
v 32.841096 4.002182 -38.764083
v 48.400000 2.024000 -36.000000
v 48.166941 2.024000 -31.946011
v 47.470008 2.024000 -27.931064
v 46.315912 2.024000 -23.993826
v 44.715769 2.024000 -20.172213
v 42.684989 2.024000 -16.503031
v 40.243129 2.024000 -13.021615
v 37.413706 2.024000 -9.761494
v 34.223968 2.024000 -6.754064
v 30.704635 2.024000 -4.028288
v 26.889599 2.024000 -1.610417
v 22.815602 2.024000 0.476263
v 18.521878 2.024000 2.211657
v 14.049778 2.024000 3.579052
v 9.442372 2.024000 4.565279
v 4.744030 2.024000 5.160840
v 0.000000 2.024000 5.360000
v -4.744030 2.024000 5.160840
v -9.442372 2.024000 4.565279
v -14.049778 2.024000 3.579052
v -18.521878 2.024000 2.211657
v -22.815602 2.024000 0.476263
v -26.889599 2.024000 -1.610417
v -30.704635 2.024000 -4.028288
v -34.223968 2.024000 -6.754064
v -37.413706 2.024000 -9.761494
v -40.243129 2.024000 -13.021615
v -42.684989 2.024000 -16.503031
v -44.715769 2.024000 -20.172213
v -46.315912 2.024000 -23.993826
v -47.470008 2.024000 -27.931064
v -48.166941 2.024000 -31.946011
v -48.400000 2.024000 -36.000000
v -48.166941 2.024000 -40.053989
v -47.470008 2.024000 -44.068936
v -46.315912 2.024000 -48.006174
v -44.715769 2.024000 -51.827787
v -42.684989 2.024000 -55.496969
v -40.243129 2.024000 -58.978385
v -37.413706 2.024000 -62.238506
v -34.223968 2.024000 -65.245936
v -30.704635 2.024000 -67.971712
v -26.889599 2.024000 -70.389583
v -22.815602 2.024000 -72.476263
v -18.521878 2.024000 -74.211657
v -14.049778 2.024000 -75.579052
v -9.442372 2.024000 -76.565279
v -4.744030 2.024000 -77.160840
v -0.000000 2.024000 -77.360000
v 4.744030 2.024000 -77.160840
v 9.442372 2.024000 -76.565279
v 14.049778 2.024000 -75.579052
v 18.521878 2.024000 -74.211657
v 22.815602 2.024000 -72.476263
v 26.889599 2.024000 -70.389583
v 30.704635 2.024000 -67.971712
v 34.223968 2.024000 -65.245936
v 37.413706 2.024000 -62.238506
v 40.243129 2.024000 -58.978385
v 42.684989 2.024000 -55.496969
v 44.715769 2.024000 -51.827787
v 46.315912 2.024000 -48.006174
v 47.470008 2.024000 -44.068936
v 48.166941 2.024000 -40.053989
v 50.980692 1.640000 -36.566381
v 50.980692 1.640000 -35.433619
v 50.800170 1.640000 -32.293506
v 50.670241 1.640000 -31.166198
v 50.130415 1.640000 -28.056326
v 49.871809 1.640000 -26.945330
v 48.977877 1.640000 -23.895648
v 48.593084 1.640000 -22.811663
v 47.353655 1.640000 -19.851542
v 46.846380 1.640000 -18.805007
v 45.273392 1.640000 -15.962955
v 44.648521 1.640000 -14.963948
v 42.757120 1.640000 -12.267334
v 42.020672 1.640000 -11.325477
v 39.829075 1.640000 -8.800273
v 38.988141 1.640000 -7.924636
v 36.517454 1.640000 -5.595160
v 35.580132 1.640000 -4.794176
v 32.854149 1.640000 -2.682862
v 31.829468 1.640000 -1.964245
v 28.874442 1.640000 -0.091426
v 27.772268 1.640000 0.537903
v 24.616657 1.640000 2.154191
v 23.447606 1.640000 2.688171
v 20.121801 1.640000 4.032361
v 18.897131 1.640000 4.465851
v 15.433161 1.640000 5.524999
v 14.164667 1.640000 5.853822
v 10.595891 1.640000 6.617728
v 9.295789 1.640000 6.838719
v -9.295789 1.640000 6.838719
v -10.595891 1.640000 6.617728
v -14.164667 1.640000 5.853822
v -15.433161 1.640000 5.524999
v -18.897131 1.640000 4.465851
v -20.121801 1.640000 4.032361
v -23.447606 1.640000 2.688171
v -24.616657 1.640000 2.154191
v -27.772268 1.640000 0.537903
v -28.874442 1.640000 -0.091426
v -31.829468 1.640000 -1.964245
v -32.854149 1.640000 -2.682862
v -35.580132 1.640000 -4.794176
v -36.517454 1.640000 -5.595160
v -38.988141 1.640000 -7.924636
v -39.829075 1.640000 -8.800273
v -42.020672 1.640000 -11.325477
v -42.757120 1.640000 -12.267334
v -44.648521 1.640000 -14.963948
v -45.273392 1.640000 -15.962955
v -46.846380 1.640000 -18.805007
v -47.353655 1.640000 -19.851542
v -48.593084 1.640000 -22.811663
v -48.977877 1.640000 -23.895648
v -49.871809 1.640000 -26.945330
v -50.130415 1.640000 -28.056326
v -50.670241 1.640000 -31.166198
v -50.800170 1.640000 -32.293506
v -50.980692 1.640000 -35.433619
v -50.980692 1.640000 -36.566381
v -50.800170 1.640000 -39.706494
v -50.670241 1.640000 -40.833802
v -50.130415 1.640000 -43.943674
v -49.871809 1.640000 -45.054670
v -48.977877 1.640000 -48.104352
v -48.593084 1.640000 -49.188337
v -47.353655 1.640000 -52.148458
v -46.846380 1.640000 -53.194993
v -45.273392 1.640000 -56.037045
v -44.648521 1.640000 -57.036052
v -42.757120 1.640000 -59.732666
v -42.020672 1.640000 -60.674523
v -39.829075 1.640000 -63.199727
v -38.988141 1.640000 -64.075364
v -36.517454 1.640000 -66.404840
v -35.580132 1.640000 -67.205824
v -32.854149 1.640000 -69.317138
v -31.829468 1.640000 -70.035755
v -28.874442 1.640000 -71.908574
v -27.772268 1.640000 -72.537903
v -24.616657 1.640000 -74.154191
v -23.447606 1.640000 -74.688171
v -20.121801 1.640000 -76.032361
v -18.897131 1.640000 -76.465851
v -15.433161 1.640000 -77.524999
v -14.164667 1.640000 -77.853822
v -10.595891 1.640000 -78.617728
v -9.295789 1.640000 -78.838719
v 9.295789 1.640000 -78.838719
v 10.595891 1.640000 -78.617728
v 14.164667 1.640000 -77.853822
v 15.433161 1.640000 -77.524999
v 18.897131 1.640000 -76.465851
v 20.121801 1.640000 -76.032361
v 23.447606 1.640000 -74.688171
v 24.616657 1.640000 -74.154191
v 27.772268 1.640000 -72.537903
v 28.874442 1.640000 -71.908574
v 31.829468 1.640000 -70.035755
v 32.854149 1.640000 -69.317138
v 35.580132 1.640000 -67.205824
v 36.517454 1.640000 -66.404840
v 38.988141 1.640000 -64.075364
v 39.829075 1.640000 -63.199727
v 42.020672 1.640000 -60.674523
v 42.757120 1.640000 -59.732666
v 44.648521 1.640000 -57.036052
v 45.273392 1.640000 -56.037045
v 46.846380 1.640000 -53.194993
v 47.353655 1.640000 -52.148458
v 48.593084 1.640000 -49.188337
v 48.977877 1.640000 -48.104352
v 49.871809 1.640000 -45.054670
v 50.130415 1.640000 -43.943674
v 50.670241 1.640000 -40.833802
v 50.800170 1.640000 -39.706494
v 0.693000 9.583000 -29.000000
v 0.669387 9.583000 -28.782592
v 0.600156 9.583000 -28.580000
v 0.490025 9.583000 -28.406030
v 0.346500 9.583000 -28.272539
v 0.179362 9.583000 -28.188622
v 0.000000 9.583000 -28.160000
v -0.179362 9.583000 -28.188622
v -0.346500 9.583000 -28.272539
v -0.490025 9.583000 -28.406030
v -0.600156 9.583000 -28.580000
v -0.669387 9.583000 -28.782592
v -0.693000 9.583000 -29.000000
v -0.669387 9.583000 -29.217408
v -0.600156 9.583000 -29.420000
v -0.490025 9.583000 -29.593970
v -0.346500 9.583000 -29.727461
v -0.179362 9.583000 -29.811378
v -0.000000 9.583000 -29.840000
v 0.179362 9.583000 -29.811378
v 0.346500 9.583000 -29.727461
v 0.490025 9.583000 -29.593970
v 0.600156 9.583000 -29.420000
v 0.669387 9.583000 -29.217408
v 1.848000 9.268000 -29.000000
v 1.785031 9.268000 -28.420245
v 1.600415 9.268000 -27.880000
v 1.306733 9.268000 -27.416081
v 0.924000 9.268000 -27.060103
v 0.478298 9.268000 -26.836326
v 0.000000 9.268000 -26.760000
v -0.478298 9.268000 -26.836326
v -0.924000 9.268000 -27.060103
v -1.306733 9.268000 -27.416081
v -1.600415 9.268000 -27.880000
v -1.785031 9.268000 -28.420245
v -1.848000 9.268000 -29.000000
v -1.785031 9.268000 -29.579755
v -1.600415 9.268000 -30.120000
v -1.306733 9.268000 -30.583919
v -0.924000 9.268000 -30.939897
v -0.478298 9.268000 -31.163674
v -0.000000 9.268000 -31.240000
v 0.478298 9.268000 -31.163674
v 0.924000 9.268000 -30.939897
v 1.306733 9.268000 -30.583919
v 1.600415 9.268000 -30.120000
v 1.785031 9.268000 -29.579755
v 4.389000 8.165500 -29.000000
v 4.239448 8.165500 -27.623083
v 3.800985 8.165500 -26.340000
v 3.103492 8.165500 -25.238192
v 2.194500 8.165500 -24.392745
v 1.135957 8.165500 -23.861275
v 0.000000 8.165500 -23.680000
v -1.135957 8.165500 -23.861275
v -2.194500 8.165500 -24.392745
v -3.103492 8.165500 -25.238192
v -3.800985 8.165500 -26.340000
v -4.239448 8.165500 -27.623083
v -4.389000 8.165500 -29.000000
v -4.239448 8.165500 -30.376917
v -3.800985 8.165500 -31.660000
v -3.103492 8.165500 -32.761808
v -2.194500 8.165500 -33.607255
v -1.135957 8.165500 -34.138725
v -0.000000 8.165500 -34.320000
v 1.135957 8.165500 -34.138725
v 2.194500 8.165500 -33.607255
v 3.103492 8.165500 -32.761808
v 3.800985 8.165500 -31.660000
v 4.239448 8.165500 -30.376917
v 5.544000 7.535500 -29.000000
v 5.355093 7.535500 -27.260736
v 4.801245 7.535500 -25.640000
v 3.920200 7.535500 -24.248242
v 2.772000 7.535500 -23.180309
v 1.434893 7.535500 -22.508978
v 0.000000 7.535500 -22.280000
v -1.434893 7.535500 -22.508978
v -2.772000 7.535500 -23.180309
v -3.920200 7.535500 -24.248242
v -4.801245 7.535500 -25.640000
v -5.355093 7.535500 -27.260736
v -5.544000 7.535500 -29.000000
v -5.355093 7.535500 -30.739264
v -4.801245 7.535500 -32.360000
v -3.920200 7.535500 -33.751758
v -2.772000 7.535500 -34.819691
v -1.434893 7.535500 -35.491022
v -0.000000 7.535500 -35.720000
v 1.434893 7.535500 -35.491022
v 2.772000 7.535500 -34.819691
v 3.920200 7.535500 -33.751758
v 4.801245 7.535500 -32.360000
v 5.355093 7.535500 -30.739264
v 5.775000 7.157500 -29.000000
v 5.578222 7.157500 -27.188267
v 5.001297 7.157500 -25.500000
v 4.083542 7.157500 -24.050253
v 2.887500 7.157500 -22.937822
v 1.494680 7.157500 -22.238519
v 0.000000 7.157500 -22.000000
v -1.494680 7.157500 -22.238519
v -2.887500 7.157500 -22.937822
v -4.083542 7.157500 -24.050253
v -5.001297 7.157500 -25.500000
v -5.578222 7.157500 -27.188267
v -5.775000 7.157500 -29.000000
v -5.578222 7.157500 -30.811733
v -5.001297 7.157500 -32.500000
v -4.083542 7.157500 -33.949747
v -2.887500 7.157500 -35.062178
v -1.494680 7.157500 -35.761481
v -0.000000 7.157500 -36.000000
v 1.494680 7.157500 -35.761481
v 2.887500 7.157500 -35.062178
v 4.083542 7.157500 -33.949747
v 5.001297 7.157500 -32.500000
v 5.578222 7.157500 -30.811733
v 5.775000 6.590500 -29.000000
v 5.578222 6.590500 -27.188267
v 5.001297 6.590500 -25.500000
v 4.083542 6.590500 -24.050253
v 2.887500 6.590500 -22.937822
v 1.494680 6.590500 -22.238519
v 0.000000 6.590500 -22.000000
v -1.494680 6.590500 -22.238519
v -2.887500 6.590500 -22.937822
v -4.083542 6.590500 -24.050253
v -5.001297 6.590500 -25.500000
v -5.578222 6.590500 -27.188267
v -5.775000 6.590500 -29.000000
v -5.578222 6.590500 -30.811733
v -5.001297 6.590500 -32.500000
v -4.083542 6.590500 -33.949747
v -2.887500 6.590500 -35.062178
v -1.494680 6.590500 -35.761481
v -0.000000 6.590500 -36.000000
v 1.494680 6.590500 -35.761481
v 2.887500 6.590500 -35.062178
v 4.083542 6.590500 -33.949747
v 5.001297 6.590500 -32.500000
v 5.578222 6.590500 -30.811733
v 4.793250 5.740000 -29.000000
v 4.629924 5.740000 -27.496261
v 4.151076 5.740000 -26.095000
v 3.389340 5.740000 -24.891710
v 2.396625 5.740000 -23.968392
v 1.240584 5.740000 -23.387971
v 0.000000 5.740000 -23.190000
v -1.240584 5.740000 -23.387971
v -2.396625 5.740000 -23.968392
v -3.389340 5.740000 -24.891710
v -4.151076 5.740000 -26.095000
v -4.629924 5.740000 -27.496261
v -4.793250 5.740000 -29.000000
v -4.629924 5.740000 -30.503739
v -4.151076 5.740000 -31.905000
v -3.389340 5.740000 -33.108290
v -2.396625 5.740000 -34.031608
v -1.240584 5.740000 -34.612029
v -0.000000 5.740000 -34.810000
v 1.240584 5.740000 -34.612029
v 2.396625 5.740000 -34.031608
v 3.389340 5.740000 -33.108290
v 4.151076 5.740000 -31.905000
v 4.629924 5.740000 -30.503739
v 1.617000 4.984000 -29.000000
v 1.561902 4.984000 -28.492715
v 1.400363 4.984000 -28.020000
v 1.143392 4.984000 -27.614071
v 0.808500 4.984000 -27.302590
v 0.418510 4.984000 -27.106785
v 0.000000 4.984000 -27.040000
v -0.418510 4.984000 -27.106785
v -0.808500 4.984000 -27.302590
v -1.143392 4.984000 -27.614071
v -1.400363 4.984000 -28.020000
v -1.561902 4.984000 -28.492715
v -1.617000 4.984000 -29.000000
v -1.561902 4.984000 -29.507285
v -1.400363 4.984000 -29.980000
v -1.143392 4.984000 -30.385929
v -0.808500 4.984000 -30.697410
v -0.418510 4.984000 -30.893215
v -0.000000 4.984000 -30.960000
v 0.418510 4.984000 -30.893215
v 0.808500 4.984000 -30.697410
v 1.143392 4.984000 -30.385929
v 1.400363 4.984000 -29.980000
v 1.561902 4.984000 -29.507285
v 0.693000 4.921000 -29.000000
v 0.669387 4.921000 -28.782592
v 0.600156 4.921000 -28.580000
v 0.490025 4.921000 -28.406030
v 0.346500 4.921000 -28.272539
v 0.179362 4.921000 -28.188622
v 0.000000 4.921000 -28.160000
v -0.179362 4.921000 -28.188622
v -0.346500 4.921000 -28.272539
v -0.490025 4.921000 -28.406030
v -0.600156 4.921000 -28.580000
v -0.669387 4.921000 -28.782592
v -0.693000 4.921000 -29.000000
v -0.669387 4.921000 -29.217408
v -0.600156 4.921000 -29.420000
v -0.490025 4.921000 -29.593970
v -0.346500 4.921000 -29.727461
v -0.179362 4.921000 -29.811378
v -0.000000 4.921000 -29.840000
v 0.179362 4.921000 -29.811378
v 0.346500 4.921000 -29.727461
v 0.490025 4.921000 -29.593970
v 0.600156 4.921000 -29.420000
v 0.669387 4.921000 -29.217408
v 0.420000 10.710000 -29.350000
v 0.405689 10.710000 -29.230426
v 0.363731 10.710000 -29.119000
v 0.296985 10.710000 -29.023317
v 0.210000 10.710000 -28.949896
v 0.108704 10.710000 -28.903742
v 0.000000 10.710000 -28.888000
v -0.108704 10.710000 -28.903742
v -0.210000 10.710000 -28.949896
v -0.296985 10.710000 -29.023317
v -0.363731 10.710000 -29.119000
v -0.405689 10.710000 -29.230426
v -0.420000 10.710000 -29.350000
v -0.405689 10.710000 -29.469574
v -0.363731 10.710000 -29.581000
v -0.296985 10.710000 -29.676683
v -0.210000 10.710000 -29.750104
v -0.108704 10.710000 -29.796258
v -0.000000 10.710000 -29.812000
v 0.108704 10.710000 -29.796258
v 0.210000 10.710000 -29.750104
v 0.296985 10.710000 -29.676683
v 0.363731 10.710000 -29.581000
v 0.405689 10.710000 -29.469574
v 1.120000 10.535000 -29.350000
v 1.081837 10.535000 -29.031135
v 0.969948 10.535000 -28.734000
v 0.791960 10.535000 -28.478844
v 0.560000 10.535000 -28.283057
v 0.289877 10.535000 -28.159979
v 0.000000 10.535000 -28.118000
v -0.289877 10.535000 -28.159979
v -0.560000 10.535000 -28.283057
v -0.791960 10.535000 -28.478844
v -0.969948 10.535000 -28.734000
v -1.081837 10.535000 -29.031135
v -1.120000 10.535000 -29.350000
v -1.081837 10.535000 -29.668865
v -0.969948 10.535000 -29.966000
v -0.791960 10.535000 -30.221156
v -0.560000 10.535000 -30.416943
v -0.289877 10.535000 -30.540021
v -0.000000 10.535000 -30.582000
v 0.289877 10.535000 -30.540021
v 0.560000 10.535000 -30.416943
v 0.791960 10.535000 -30.221156
v 0.969948 10.535000 -29.966000
v 1.081837 10.535000 -29.668865
v 2.660000 9.922500 -29.350000
v 2.569363 9.922500 -28.592695
v 2.303628 9.922500 -27.887000
v 1.880904 9.922500 -27.281006
v 1.330000 9.922500 -26.816010
v 0.688459 9.922500 -26.523701
v 0.000000 9.922500 -26.424000
v -0.688459 9.922500 -26.523701
v -1.330000 9.922500 -26.816010
v -1.880904 9.922500 -27.281006
v -2.303628 9.922500 -27.887000
v -2.569363 9.922500 -28.592695
v -2.660000 9.922500 -29.350000
v -2.569363 9.922500 -30.107305
v -2.303628 9.922500 -30.813000
v -1.880904 9.922500 -31.418994
v -1.330000 9.922500 -31.883990
v -0.688459 9.922500 -32.176299
v -0.000000 9.922500 -32.276000
v 0.688459 9.922500 -32.176299
v 1.330000 9.922500 -31.883990
v 1.880904 9.922500 -31.418994
v 2.303628 9.922500 -30.813000
v 2.569363 9.922500 -30.107305
v 3.360000 9.572500 -29.350000
v 3.245511 9.572500 -28.393405
v 2.909845 9.572500 -27.502000
v 2.375879 9.572500 -26.736533
v 1.680000 9.572500 -26.149170
v 0.869632 9.572500 -25.779938
v 0.000000 9.572500 -25.654000
v -0.869632 9.572500 -25.779938
v -1.680000 9.572500 -26.149170
v -2.375879 9.572500 -26.736533
v -2.909845 9.572500 -27.502000
v -3.245511 9.572500 -28.393405
v -3.360000 9.572500 -29.350000
v -3.245511 9.572500 -30.306595
v -2.909845 9.572500 -31.198000
v -2.375879 9.572500 -31.963467
v -1.680000 9.572500 -32.550830
v -0.869632 9.572500 -32.920062
v -0.000000 9.572500 -33.046000
v 0.869632 9.572500 -32.920062
v 1.680000 9.572500 -32.550830
v 2.375879 9.572500 -31.963467
v 2.909845 9.572500 -31.198000
v 3.245511 9.572500 -30.306595
v 3.500000 9.362500 -29.350000
v 3.380740 9.362500 -28.353547
v 3.031089 9.362500 -27.425000
v 2.474874 9.362500 -26.627639
v 1.750000 9.362500 -26.015802
v 0.905867 9.362500 -25.631186
v 0.000000 9.362500 -25.500000
v -0.905867 9.362500 -25.631186
v -1.750000 9.362500 -26.015802
v -2.474874 9.362500 -26.627639
v -3.031089 9.362500 -27.425000
v -3.380740 9.362500 -28.353547
v -3.500000 9.362500 -29.350000
v -3.380740 9.362500 -30.346453
v -3.031089 9.362500 -31.275000
v -2.474874 9.362500 -32.072361
v -1.750000 9.362500 -32.684198
v -0.905867 9.362500 -33.068814
v -0.000000 9.362500 -33.200000
v 0.905867 9.362500 -33.068814
v 1.750000 9.362500 -32.684198
v 2.474874 9.362500 -32.072361
v 3.031089 9.362500 -31.275000
v 3.380740 9.362500 -30.346453
v 3.500000 9.047500 -29.350000
v 3.380740 9.047500 -28.353547
v 3.031089 9.047500 -27.425000
v 2.474874 9.047500 -26.627639
v 1.750000 9.047500 -26.015802
v 0.905867 9.047500 -25.631186
v 0.000000 9.047500 -25.500000
v -0.905867 9.047500 -25.631186
v -1.750000 9.047500 -26.015802
v -2.474874 9.047500 -26.627639
v -3.031089 9.047500 -27.425000
v -3.380740 9.047500 -28.353547
v -3.500000 9.047500 -29.350000
v -3.380740 9.047500 -30.346453
v -3.031089 9.047500 -31.275000
v -2.474874 9.047500 -32.072361
v -1.750000 9.047500 -32.684198
v -0.905867 9.047500 -33.068814
v -0.000000 9.047500 -33.200000
v 0.905867 9.047500 -33.068814
v 1.750000 9.047500 -32.684198
v 2.474874 9.047500 -32.072361
v 3.031089 9.047500 -31.275000
v 3.380740 9.047500 -30.346453
v 2.905000 8.575000 -29.350000
v 2.806015 8.575000 -28.522944
v 2.515804 8.575000 -27.752250
v 2.054145 8.575000 -27.090440
v 1.452500 8.575000 -26.582616
v 0.751869 8.575000 -26.263384
v 0.000000 8.575000 -26.154500
v -0.751869 8.575000 -26.263384
v -1.452500 8.575000 -26.582616
v -2.054145 8.575000 -27.090440
v -2.515804 8.575000 -27.752250
v -2.806015 8.575000 -28.522944
v -2.905000 8.575000 -29.350000
v -2.806015 8.575000 -30.177056
v -2.515804 8.575000 -30.947750
v -2.054145 8.575000 -31.609560
v -1.452500 8.575000 -32.117384
v -0.751869 8.575000 -32.436616
v -0.000000 8.575000 -32.545500
v 0.751869 8.575000 -32.436616
v 1.452500 8.575000 -32.117384
v 2.054145 8.575000 -31.609560
v 2.515804 8.575000 -30.947750
v 2.806015 8.575000 -30.177056
v 0.980000 8.155000 -29.350000
v 0.946607 8.155000 -29.070993
v 0.848705 8.155000 -28.811000
v 0.692965 8.155000 -28.587739
v 0.490000 8.155000 -28.416425
v 0.253643 8.155000 -28.308732
v 0.000000 8.155000 -28.272000
v -0.253643 8.155000 -28.308732
v -0.490000 8.155000 -28.416425
v -0.692965 8.155000 -28.587739
v -0.848705 8.155000 -28.811000
v -0.946607 8.155000 -29.070993
v -0.980000 8.155000 -29.350000
v -0.946607 8.155000 -29.629007
v -0.848705 8.155000 -29.889000
v -0.692965 8.155000 -30.112261
v -0.490000 8.155000 -30.283575
v -0.253643 8.155000 -30.391268
v -0.000000 8.155000 -30.428000
v 0.253643 8.155000 -30.391268
v 0.490000 8.155000 -30.283575
v 0.692965 8.155000 -30.112261
v 0.848705 8.155000 -29.889000
v 0.946607 8.155000 -29.629007
v 0.420000 8.120000 -29.350000
v 0.405689 8.120000 -29.230426
v 0.363731 8.120000 -29.119000
v 0.296985 8.120000 -29.023317
v 0.210000 8.120000 -28.949896
v 0.108704 8.120000 -28.903742
v 0.000000 8.120000 -28.888000
v -0.108704 8.120000 -28.903742
v -0.210000 8.120000 -28.949896
v -0.296985 8.120000 -29.023317
v -0.363731 8.120000 -29.119000
v -0.405689 8.120000 -29.230426
v -0.420000 8.120000 -29.350000
v -0.405689 8.120000 -29.469574
v -0.363731 8.120000 -29.581000
v -0.296985 8.120000 -29.676683
v -0.210000 8.120000 -29.750104
v -0.108704 8.120000 -29.796258
v -0.000000 8.120000 -29.812000
v 0.108704 8.120000 -29.796258
v 0.210000 8.120000 -29.750104
v 0.296985 8.120000 -29.676683
v 0.363731 8.120000 -29.581000
v 0.405689 8.120000 -29.469574
v -20.000000 0.000000 -18.000000
v -21.071797 2.500000 -18.000000
v -24.000000 4.330127 -18.000000
v -28.000000 5.000000 -18.000000
v -32.000000 4.330127 -18.000000
v -34.928203 2.500000 -18.000000
v -36.000000 0.000000 -18.000000
v -34.928203 -2.500000 -18.000000
v -32.000000 -4.330127 -18.000000
v -28.000000 -5.000000 -18.000000
v -24.000000 -4.330127 -18.000000
v -21.071797 -2.500000 -18.000000
v -19.000000 1.000000 7.000000
v -20.205771 4.000000 7.000000
v -23.500000 6.196152 7.000000
v -28.000000 7.000000 7.000000
v -32.500000 6.196152 7.000000
v -35.794229 4.000000 7.000000
v -37.000000 1.000000 7.000000
v -35.794229 -2.000000 7.000000
v -32.500000 -4.196152 7.000000
v -28.000000 -5.000000 7.000000
v -23.500000 -4.196152 7.000000
v -20.205771 -2.000000 7.000000
v -20.000000 2.000000 44.000000
v -20.803848 4.500000 44.000000
v -23.000000 6.330127 44.000000
v -26.000000 7.000000 44.000000
v -29.000000 6.330127 44.000000
v -31.196152 4.500000 44.000000
v -32.000000 2.000000 44.000000
v -31.196152 -0.500000 44.000000
v -29.000000 -2.330127 44.000000
v -26.000000 -3.000000 44.000000
v -23.000000 -2.330127 44.000000
v -20.803848 -0.500000 44.000000
v -21.000000 3.000000 60.000000
v -21.401924 4.500000 60.000000
v -22.500000 5.598076 60.000000
v -24.000000 6.000000 60.000000
v -25.500000 5.598076 60.000000
v -26.598076 4.500000 60.000000
v -27.000000 3.000000 60.000000
v -26.598076 1.500000 60.000000
v -25.500000 0.401924 60.000000
v -24.000000 0.000000 60.000000
v -22.500000 0.401924 60.000000
v -21.401924 1.500000 60.000000
v -25.957704 1.244209 31.500000
v -24.042296 4.755791 31.500000
v -24.042296 4.755791 44.500000
v -25.957704 1.244209 44.500000
v -47.957704 13.244209 35.500000
v -46.042296 16.755791 35.500000
v -46.042296 16.755791 48.500000
v -47.957704 13.244209 48.500000
v -45.750000 16.000000 -1.000000
v -45.845151 16.478354 -1.000000
v -46.116117 16.883883 -1.000000
v -46.521646 17.154849 -1.000000
v -47.000000 17.250000 -1.000000
v -47.478354 17.154849 -1.000000
v -47.883883 16.883883 -1.000000
v -48.154849 16.478354 -1.000000
v -48.250000 16.000000 -1.000000
v -48.154849 15.521646 -1.000000
v -47.883883 15.116117 -1.000000
v -47.478354 14.845151 -1.000000
v -47.000000 14.750000 -1.000000
v -46.521646 14.845151 -1.000000
v -46.116117 15.116117 -1.000000
v -45.845151 15.521646 -1.000000
v -43.400000 16.000000 1.475000
v -43.674034 17.377660 1.475000
v -44.454416 18.545584 1.475000
v -45.622340 19.325966 1.475000
v -47.000000 19.600000 1.475000
v -48.377660 19.325966 1.475000
v -49.545584 18.545584 1.475000
v -50.325966 17.377660 1.475000
v -50.600000 16.000000 1.475000
v -50.325966 14.622340 1.475000
v -49.545584 13.454416 1.475000
v -48.377660 12.674034 1.475000
v -47.000000 12.400000 1.475000
v -45.622340 12.674034 1.475000
v -44.454416 13.454416 1.475000
v -43.674034 14.622340 1.475000
v -42.000000 16.000000 5.930000
v -42.380602 17.913417 5.930000
v -43.464466 19.535534 5.930000
v -45.086583 20.619398 5.930000
v -47.000000 21.000000 5.930000
v -48.913417 20.619398 5.930000
v -50.535534 19.535534 5.930000
v -51.619398 17.913417 5.930000
v -52.000000 16.000000 5.930000
v -51.619398 14.086583 5.930000
v -50.535534 12.464466 5.930000
v -48.913417 11.380602 5.930000
v -47.000000 11.000000 5.930000
v -45.086583 11.380602 5.930000
v -43.464466 12.464466 5.930000
v -42.380602 14.086583 5.930000
v -42.000000 16.000000 16.820000
v -42.380602 17.913417 16.820000
v -43.464466 19.535534 16.820000
v -45.086583 20.619398 16.820000
v -47.000000 21.000000 16.820000
v -48.913417 20.619398 16.820000
v -50.535534 19.535534 16.820000
v -51.619398 17.913417 16.820000
v -52.000000 16.000000 16.820000
v -51.619398 14.086583 16.820000
v -50.535534 12.464466 16.820000
v -48.913417 11.380602 16.820000
v -47.000000 11.000000 16.820000
v -45.086583 11.380602 16.820000
v -43.464466 12.464466 16.820000
v -42.380602 14.086583 16.820000
v -42.000000 16.000000 82.160000
v -42.380602 17.913417 82.160000
v -43.464466 19.535534 82.160000
v -45.086583 20.619398 82.160000
v -47.000000 21.000000 82.160000
v -48.913417 20.619398 82.160000
v -50.535534 19.535534 82.160000
v -51.619398 17.913417 82.160000
v -52.000000 16.000000 82.160000
v -51.619398 14.086583 82.160000
v -50.535534 12.464466 82.160000
v -48.913417 11.380602 82.160000
v -47.000000 11.000000 82.160000
v -45.086583 11.380602 82.160000
v -43.464466 12.464466 82.160000
v -42.380602 14.086583 82.160000
v -43.100000 16.000000 93.050000
v -43.396870 17.492465 93.050000
v -44.242284 18.757716 93.050000
v -45.507535 19.603130 93.050000
v -47.000000 19.900000 93.050000
v -48.492465 19.603130 93.050000
v -49.757716 18.757716 93.050000
v -50.603130 17.492465 93.050000
v -50.900000 16.000000 93.050000
v -50.603130 14.507535 93.050000
v -49.757716 13.242284 93.050000
v -48.492465 12.396870 93.050000
v -47.000000 12.100000 93.050000
v -45.507535 12.396870 93.050000
v -44.242284 13.242284 93.050000
v -43.396870 14.507535 93.050000
v -45.100000 16.000000 98.000000
v -45.244629 16.727099 98.000000
v -45.656497 17.343503 98.000000
v -46.272901 17.755371 98.000000
v -47.000000 17.900000 98.000000
v -47.727099 17.755371 98.000000
v -48.343503 17.343503 98.000000
v -48.755371 16.727099 98.000000
v -48.900000 16.000000 98.000000
v -48.755371 15.272901 98.000000
v -48.343503 14.656497 98.000000
v -47.727099 14.244629 98.000000
v -47.000000 14.100000 98.000000
v -46.272901 14.244629 98.000000
v -45.656497 14.656497 98.000000
v -45.244629 15.272901 98.000000
v -51.800000 14.600000 5.930000
v -51.800000 14.600000 16.820000
v -51.800000 14.600000 82.160000
v -50.744000 14.908000 93.050000
v -52.000000 16.000000 5.930000
v -52.000000 16.000000 16.820000
v -52.000000 16.000000 82.160000
v -50.900000 16.000000 93.050000
v -51.800000 17.400000 5.930000
v -51.800000 17.400000 16.820000
v -51.800000 17.400000 82.160000
v -50.744000 17.092000 93.050000
v -42.200000 14.600000 5.930000
v -42.200000 14.600000 16.820000
v -42.200000 14.600000 82.160000
v -43.256000 14.908000 93.050000
v -42.000000 16.000000 5.930000
v -42.000000 16.000000 16.820000
v -42.000000 16.000000 82.160000
v -43.100000 16.000000 93.050000
v -42.200000 17.400000 5.930000
v -42.200000 17.400000 16.820000
v -42.200000 17.400000 82.160000
v -43.256000 17.092000 93.050000
v -42.000000 16.000000 28.700000
v -42.080782 16.895148 28.700000
v -42.320516 17.761371 28.700000
v -42.000000 16.000000 38.600000
v -42.080782 16.895148 38.600000
v -42.320516 17.761371 38.600000
v -42.000000 16.000000 48.500000
v -42.080782 16.895148 48.500000
v -42.320516 17.761371 48.500000
v -42.000000 16.000000 58.400000
v -42.080782 16.895148 58.400000
v -42.320516 17.761371 58.400000
v -42.000000 16.000000 68.300000
v -42.080782 16.895148 68.300000
v -42.320516 17.761371 68.300000
v 36.000000 0.000000 -18.000000
v 34.928203 2.500000 -18.000000
v 32.000000 4.330127 -18.000000
v 28.000000 5.000000 -18.000000
v 24.000000 4.330127 -18.000000
v 21.071797 2.500000 -18.000000
v 20.000000 0.000000 -18.000000
v 21.071797 -2.500000 -18.000000
v 24.000000 -4.330127 -18.000000
v 28.000000 -5.000000 -18.000000
v 32.000000 -4.330127 -18.000000
v 34.928203 -2.500000 -18.000000
v 37.000000 1.000000 7.000000
v 35.794229 4.000000 7.000000
v 32.500000 6.196152 7.000000
v 28.000000 7.000000 7.000000
v 23.500000 6.196152 7.000000
v 20.205771 4.000000 7.000000
v 19.000000 1.000000 7.000000
v 20.205771 -2.000000 7.000000
v 23.500000 -4.196152 7.000000
v 28.000000 -5.000000 7.000000
v 32.500000 -4.196152 7.000000
v 35.794229 -2.000000 7.000000
v 32.000000 2.000000 44.000000
v 31.196152 4.500000 44.000000
v 29.000000 6.330127 44.000000
v 26.000000 7.000000 44.000000
v 23.000000 6.330127 44.000000
v 20.803848 4.500000 44.000000
v 20.000000 2.000000 44.000000
v 20.803848 -0.500000 44.000000
v 23.000000 -2.330127 44.000000
v 26.000000 -3.000000 44.000000
v 29.000000 -2.330127 44.000000
v 31.196152 -0.500000 44.000000
v 27.000000 3.000000 60.000000
v 26.598076 4.500000 60.000000
v 25.500000 5.598076 60.000000
v 24.000000 6.000000 60.000000
v 22.500000 5.598076 60.000000
v 21.401924 4.500000 60.000000
v 21.000000 3.000000 60.000000
v 21.401924 1.500000 60.000000
v 22.500000 0.401924 60.000000
v 24.000000 0.000000 60.000000
v 25.500000 0.401924 60.000000
v 26.598076 1.500000 60.000000
v 24.042296 4.755791 31.500000
v 25.957704 1.244209 31.500000
v 25.957704 1.244209 44.500000
v 24.042296 4.755791 44.500000
v 46.042296 16.755791 35.500000
v 47.957704 13.244209 35.500000
v 47.957704 13.244209 48.500000
v 46.042296 16.755791 48.500000
v 48.250000 16.000000 -1.000000
v 48.154849 16.478354 -1.000000
v 47.883883 16.883883 -1.000000
v 47.478354 17.154849 -1.000000
v 47.000000 17.250000 -1.000000
v 46.521646 17.154849 -1.000000
v 46.116117 16.883883 -1.000000
v 45.845151 16.478354 -1.000000
v 45.750000 16.000000 -1.000000
v 45.845151 15.521646 -1.000000
v 46.116117 15.116117 -1.000000
v 46.521646 14.845151 -1.000000
v 47.000000 14.750000 -1.000000
v 47.478354 14.845151 -1.000000
v 47.883883 15.116117 -1.000000
v 48.154849 15.521646 -1.000000
v 50.600000 16.000000 1.475000
v 50.325966 17.377660 1.475000
v 49.545584 18.545584 1.475000
v 48.377660 19.325966 1.475000
v 47.000000 19.600000 1.475000
v 45.622340 19.325966 1.475000
v 44.454416 18.545584 1.475000
v 43.674034 17.377660 1.475000
v 43.400000 16.000000 1.475000
v 43.674034 14.622340 1.475000
v 44.454416 13.454416 1.475000
v 45.622340 12.674034 1.475000
v 47.000000 12.400000 1.475000
v 48.377660 12.674034 1.475000
v 49.545584 13.454416 1.475000
v 50.325966 14.622340 1.475000
v 52.000000 16.000000 5.930000
v 51.619398 17.913417 5.930000
v 50.535534 19.535534 5.930000
v 48.913417 20.619398 5.930000
v 47.000000 21.000000 5.930000
v 45.086583 20.619398 5.930000
v 43.464466 19.535534 5.930000
v 42.380602 17.913417 5.930000
v 42.000000 16.000000 5.930000
v 42.380602 14.086583 5.930000
v 43.464466 12.464466 5.930000
v 45.086583 11.380602 5.930000
v 47.000000 11.000000 5.930000
v 48.913417 11.380602 5.930000
v 50.535534 12.464466 5.930000
v 51.619398 14.086583 5.930000
v 52.000000 16.000000 16.820000
v 51.619398 17.913417 16.820000
v 50.535534 19.535534 16.820000
v 48.913417 20.619398 16.820000
v 47.000000 21.000000 16.820000
v 45.086583 20.619398 16.820000
v 43.464466 19.535534 16.820000
v 42.380602 17.913417 16.820000
v 42.000000 16.000000 16.820000
v 42.380602 14.086583 16.820000
v 43.464466 12.464466 16.820000
v 45.086583 11.380602 16.820000
v 47.000000 11.000000 16.820000
v 48.913417 11.380602 16.820000
v 50.535534 12.464466 16.820000
v 51.619398 14.086583 16.820000
v 52.000000 16.000000 82.160000
v 51.619398 17.913417 82.160000
v 50.535534 19.535534 82.160000
v 48.913417 20.619398 82.160000
v 47.000000 21.000000 82.160000
v 45.086583 20.619398 82.160000
v 43.464466 19.535534 82.160000
v 42.380602 17.913417 82.160000
v 42.000000 16.000000 82.160000
v 42.380602 14.086583 82.160000
v 43.464466 12.464466 82.160000
v 45.086583 11.380602 82.160000
v 47.000000 11.000000 82.160000
v 48.913417 11.380602 82.160000
v 50.535534 12.464466 82.160000
v 51.619398 14.086583 82.160000
v 50.900000 16.000000 93.050000
v 50.603130 17.492465 93.050000
v 49.757716 18.757716 93.050000
v 48.492465 19.603130 93.050000
v 47.000000 19.900000 93.050000
v 45.507535 19.603130 93.050000
v 44.242284 18.757716 93.050000
v 43.396870 17.492465 93.050000
v 43.100000 16.000000 93.050000
v 43.396870 14.507535 93.050000
v 44.242284 13.242284 93.050000
v 45.507535 12.396870 93.050000
v 47.000000 12.100000 93.050000
v 48.492465 12.396870 93.050000
v 49.757716 13.242284 93.050000
v 50.603130 14.507535 93.050000
v 48.900000 16.000000 98.000000
v 48.755371 16.727099 98.000000
v 48.343503 17.343503 98.000000
v 47.727099 17.755371 98.000000
v 47.000000 17.900000 98.000000
v 46.272901 17.755371 98.000000
v 45.656497 17.343503 98.000000
v 45.244629 16.727099 98.000000
v 45.100000 16.000000 98.000000
v 45.244629 15.272901 98.000000
v 45.656497 14.656497 98.000000
v 46.272901 14.244629 98.000000
v 47.000000 14.100000 98.000000
v 47.727099 14.244629 98.000000
v 48.343503 14.656497 98.000000
v 48.755371 15.272901 98.000000
v 42.200000 14.600000 5.930000
v 42.200000 14.600000 16.820000
v 42.200000 14.600000 82.160000
v 43.256000 14.908000 93.050000
v 42.000000 16.000000 5.930000
v 42.000000 16.000000 16.820000
v 42.000000 16.000000 82.160000
v 43.100000 16.000000 93.050000
v 42.200000 17.400000 5.930000
v 42.200000 17.400000 16.820000
v 42.200000 17.400000 82.160000
v 43.256000 17.092000 93.050000
v 51.800000 14.600000 5.930000
v 51.800000 14.600000 16.820000
v 51.800000 14.600000 82.160000
v 50.744000 14.908000 93.050000
v 52.000000 16.000000 5.930000
v 52.000000 16.000000 16.820000
v 52.000000 16.000000 82.160000
v 50.900000 16.000000 93.050000
v 51.800000 17.400000 5.930000
v 51.800000 17.400000 16.820000
v 51.800000 17.400000 82.160000
v 50.744000 17.092000 93.050000
v 52.000000 16.000000 28.700000
v 51.919218 16.895148 28.700000
v 51.679484 17.761371 28.700000
v 52.000000 16.000000 38.600000
v 51.919218 16.895148 38.600000
v 51.679484 17.761371 38.600000
v 52.000000 16.000000 48.500000
v 51.919218 16.895148 48.500000
v 51.679484 17.761371 48.500000
v 52.000000 16.000000 58.400000
v 51.919218 16.895148 58.400000
v 51.679484 17.761371 58.400000
v 52.000000 16.000000 68.300000
v 51.919218 16.895148 68.300000
v 51.679484 17.761371 68.300000
v -25.000000 6.000000 41.500000
v -25.000000 0.000000 41.500000
v -25.000000 0.000000 50.500000
v -25.000000 6.000000 50.500000
v 25.000000 6.000000 41.500000
v 25.000000 0.000000 41.500000
v 25.000000 0.000000 50.500000
v 25.000000 6.000000 50.500000
v 4.000000 4.000000 32.000000
v 3.464102 5.500000 32.000000
v 2.000000 6.598076 32.000000
v 0.000000 7.000000 32.000000
v -2.000000 6.598076 32.000000
v -3.464102 5.500000 32.000000
v -4.000000 4.000000 32.000000
v -3.464102 2.500000 32.000000
v -2.000000 1.401924 32.000000
v -0.000000 1.000000 32.000000
v 2.000000 1.401924 32.000000
v 3.464102 2.500000 32.000000
v 4.000000 4.000000 56.000000
v 3.464102 5.500000 56.000000
v 2.000000 6.598076 56.000000
v 0.000000 7.000000 56.000000
v -2.000000 6.598076 56.000000
v -3.464102 5.500000 56.000000
v -4.000000 4.000000 56.000000
v -3.464102 2.500000 56.000000
v -2.000000 1.401924 56.000000
v -0.000000 1.000000 56.000000
v 2.000000 1.401924 56.000000
v 3.464102 2.500000 56.000000
v 10.000000 -2.000000 -81.000000
v 9.659258 -1.223543 -81.000000
v 8.660254 -0.500000 -81.000000
v 7.071068 0.121320 -81.000000
v 5.000000 0.598076 -81.000000
v 2.588190 0.897777 -81.000000
v 0.000000 1.000000 -81.000000
v -2.588190 0.897777 -81.000000
v -5.000000 0.598076 -81.000000
v -7.071068 0.121320 -81.000000
v -8.660254 -0.500000 -81.000000
v -9.659258 -1.223543 -81.000000
v -10.000000 -2.000000 -81.000000
v -9.659258 -2.776457 -81.000000
v -8.660254 -3.500000 -81.000000
v -7.071068 -4.121320 -81.000000
v -5.000000 -4.598076 -81.000000
v -2.588190 -4.897777 -81.000000
v -0.000000 -5.000000 -81.000000
v 2.588190 -4.897777 -81.000000
v 5.000000 -4.598076 -81.000000
v 7.071068 -4.121320 -81.000000
v 8.660254 -3.500000 -81.000000
v 9.659258 -2.776457 -81.000000
v 8.500000 -2.000000 -82.500000
v 8.210370 -1.340011 -82.500000
v 7.361216 -0.725000 -82.500000
v 6.010408 -0.196878 -82.500000
v 4.250000 0.208365 -82.500000
v 2.199962 0.463111 -82.500000
v 0.000000 0.550000 -82.500000
v -2.199962 0.463111 -82.500000
v -4.250000 0.208365 -82.500000
v -6.010408 -0.196878 -82.500000
v -7.361216 -0.725000 -82.500000
v -8.210370 -1.340011 -82.500000
v -8.500000 -2.000000 -82.500000
v -8.210370 -2.659989 -82.500000
v -7.361216 -3.275000 -82.500000
v -6.010408 -3.803122 -82.500000
v -4.250000 -4.208365 -82.500000
v -2.199962 -4.463111 -82.500000
v -0.000000 -4.550000 -82.500000
v 2.199962 -4.463111 -82.500000
v 4.250000 -4.208365 -82.500000
v 6.010408 -3.803122 -82.500000
v 7.361216 -3.275000 -82.500000
v 8.210370 -2.659989 -82.500000
v 3.500000 -2.000000 -83.100000
v 3.380740 -1.728240 -83.100000
v 3.031089 -1.475000 -83.100000
v 2.474874 -1.257538 -83.100000
v 1.750000 -1.090673 -83.100000
v 0.905867 -0.985778 -83.100000
v 0.000000 -0.950000 -83.100000
v -0.905867 -0.985778 -83.100000
v -1.750000 -1.090673 -83.100000
v -2.474874 -1.257538 -83.100000
v -3.031089 -1.475000 -83.100000
v -3.380740 -1.728240 -83.100000
v -3.500000 -2.000000 -83.100000
v -3.380740 -2.271760 -83.100000
v -3.031089 -2.525000 -83.100000
v -2.474874 -2.742462 -83.100000
v -1.750000 -2.909327 -83.100000
v -0.905867 -3.014222 -83.100000
v -0.000000 -3.050000 -83.100000
v 0.905867 -3.014222 -83.100000
v 1.750000 -2.909327 -83.100000
v 2.474874 -2.742462 -83.100000
v 3.031089 -2.525000 -83.100000
v 3.380740 -2.271760 -83.100000
g primary_hull
f 1 2 66 65
f 2 3 67 66
f 3 4 68 67
f 4 5 69 68
f 5 6 70 69
f 6 7 71 70
f 7 8 72 71
f 8 9 73 72
f 9 10 74 73
f 10 11 75 74
f 11 12 76 75
f 12 13 77 76
f 13 14 78 77
f 14 15 79 78
f 15 16 80 79
f 16 17 81 80
f 17 18 82 81
f 18 19 83 82
f 19 20 84 83
f 20 21 85 84
f 21 22 86 85
f 22 23 87 86
f 23 24 88 87
f 24 25 89 88
f 25 26 90 89
f 26 27 91 90
f 27 28 92 91
f 28 29 93 92
f 29 30 94 93
f 30 31 95 94
f 31 32 96 95
f 32 33 97 96
f 33 34 98 97
f 34 35 99 98
f 35 36 100 99
f 36 37 101 100
f 37 38 102 101
f 38 39 103 102
f 39 40 104 103
f 40 41 105 104
f 41 42 106 105
f 42 43 107 106
f 43 44 108 107
f 44 45 109 108
f 45 46 110 109
f 46 47 111 110
f 47 48 112 111
f 48 49 113 112
f 49 50 114 113
f 50 51 115 114
f 51 52 116 115
f 52 53 117 116
f 53 54 118 117
f 54 55 119 118
f 55 56 120 119
f 56 57 121 120
f 57 58 122 121
f 58 59 123 122
f 59 60 124 123
f 60 61 125 124
f 61 62 126 125
f 62 63 127 126
f 63 64 128 127
f 64 1 65 128
f 65 66 130 129
f 66 67 131 130
f 67 68 132 131
f 68 69 133 132
f 69 70 134 133
f 70 71 135 134
f 71 72 136 135
f 72 73 137 136
f 73 74 138 137
f 74 75 139 138
f 75 76 140 139
f 76 77 141 140
f 77 78 142 141
f 78 79 143 142
f 79 80 144 143
f 80 81 145 144
f 81 82 146 145
f 82 83 147 146
f 83 84 148 147
f 84 85 149 148
f 85 86 150 149
f 86 87 151 150
f 87 88 152 151
f 88 89 153 152
f 89 90 154 153
f 90 91 155 154
f 91 92 156 155
f 92 93 157 156
f 93 94 158 157
f 94 95 159 158
f 95 96 160 159
f 96 97 161 160
f 97 98 162 161
f 98 99 163 162
f 99 100 164 163
f 100 101 165 164
f 101 102 166 165
f 102 103 167 166
f 103 104 168 167
f 104 105 169 168
f 105 106 170 169
f 106 107 171 170
f 107 108 172 171
f 108 109 173 172
f 109 110 174 173
f 110 111 175 174
f 111 112 176 175
f 112 113 177 176
f 113 114 178 177
f 114 115 179 178
f 115 116 180 179
f 116 117 181 180
f 117 118 182 181
f 118 119 183 182
f 119 120 184 183
f 120 121 185 184
f 121 122 186 185
f 122 123 187 186
f 123 124 188 187
f 124 125 189 188
f 125 126 190 189
f 126 127 191 190
f 127 128 192 191
f 128 65 129 192
f 129 130 194 193
f 130 131 195 194
f 131 132 196 195
f 132 133 197 196
f 133 134 198 197
f 134 135 199 198
f 135 136 200 199
f 136 137 201 200
f 137 138 202 201
f 138 139 203 202
f 139 140 204 203
f 140 141 205 204
f 141 142 206 205
f 142 143 207 206
f 143 144 208 207
f 144 145 209 208
f 145 146 210 209
f 146 147 211 210
f 147 148 212 211
f 148 149 213 212
f 149 150 214 213
f 150 151 215 214
f 151 152 216 215
f 152 153 217 216
f 153 154 218 217
f 154 155 219 218
f 155 156 220 219
f 156 157 221 220
f 157 158 222 221
f 158 159 223 222
f 159 160 224 223
f 160 161 225 224
f 161 162 226 225
f 162 163 227 226
f 163 164 228 227
f 164 165 229 228
f 165 166 230 229
f 166 167 231 230
f 167 168 232 231
f 168 169 233 232
f 169 170 234 233
f 170 171 235 234
f 171 172 236 235
f 172 173 237 236
f 173 174 238 237
f 174 175 239 238
f 175 176 240 239
f 176 177 241 240
f 177 178 242 241
f 178 179 243 242
f 179 180 244 243
f 180 181 245 244
f 181 182 246 245
f 182 183 247 246
f 183 184 248 247
f 184 185 249 248
f 185 186 250 249
f 186 187 251 250
f 187 188 252 251
f 188 189 253 252
f 189 190 254 253
f 190 191 255 254
f 191 192 256 255
f 192 129 193 256
f 193 194 258 257
f 194 195 259 258
f 195 196 260 259
f 196 197 261 260
f 197 198 262 261
f 198 199 263 262
f 199 200 264 263
f 200 201 265 264
f 201 202 266 265
f 202 203 267 266
f 203 204 268 267
f 204 205 269 268
f 205 206 270 269
f 206 207 271 270
f 207 208 272 271
f 208 209 273 272
f 209 210 274 273
f 210 211 275 274
f 211 212 276 275
f 212 213 277 276
f 213 214 278 277
f 214 215 279 278
f 215 216 280 279
f 216 217 281 280
f 217 218 282 281
f 218 219 283 282
f 219 220 284 283
f 220 221 285 284
f 221 222 286 285
f 222 223 287 286
f 223 224 288 287
f 224 225 289 288
f 225 226 290 289
f 226 227 291 290
f 227 228 292 291
f 228 229 293 292
f 229 230 294 293
f 230 231 295 294
f 231 232 296 295
f 232 233 297 296
f 233 234 298 297
f 234 235 299 298
f 235 236 300 299
f 236 237 301 300
f 237 238 302 301
f 238 239 303 302
f 239 240 304 303
f 240 241 305 304
f 241 242 306 305
f 242 243 307 306
f 243 244 308 307
f 244 245 309 308
f 245 246 310 309
f 246 247 311 310
f 247 248 312 311
f 248 249 313 312
f 249 250 314 313
f 250 251 315 314
f 251 252 316 315
f 252 253 317 316
f 253 254 318 317
f 254 255 319 318
f 255 256 320 319
f 256 193 257 320
f 257 258 322 321
f 258 259 323 322
f 259 260 324 323
f 260 261 325 324
f 261 262 326 325
f 262 263 327 326
f 263 264 328 327
f 264 265 329 328
f 265 266 330 329
f 266 267 331 330
f 267 268 332 331
f 268 269 333 332
f 269 270 334 333
f 270 271 335 334
f 271 272 336 335
f 272 273 337 336
f 273 274 338 337
f 274 275 339 338
f 275 276 340 339
f 276 277 341 340
f 277 278 342 341
f 278 279 343 342
f 279 280 344 343
f 280 281 345 344
f 281 282 346 345
f 282 283 347 346
f 283 284 348 347
f 284 285 349 348
f 285 286 350 349
f 286 287 351 350
f 287 288 352 351
f 288 289 353 352
f 289 290 354 353
f 290 291 355 354
f 291 292 356 355
f 292 293 357 356
f 293 294 358 357
f 294 295 359 358
f 295 296 360 359
f 296 297 361 360
f 297 298 362 361
f 298 299 363 362
f 299 300 364 363
f 300 301 365 364
f 301 302 366 365
f 302 303 367 366
f 303 304 368 367
f 304 305 369 368
f 305 306 370 369
f 306 307 371 370
f 307 308 372 371
f 308 309 373 372
f 309 310 374 373
f 310 311 375 374
f 311 312 376 375
f 312 313 377 376
f 313 314 378 377
f 314 315 379 378
f 315 316 380 379
f 316 317 381 380
f 317 318 382 381
f 318 319 383 382
f 319 320 384 383
f 320 257 321 384
f 321 322 386 385
f 322 323 387 386
f 323 324 388 387
f 324 325 389 388
f 325 326 390 389
f 326 327 391 390
f 327 328 392 391
f 328 329 393 392
f 329 330 394 393
f 330 331 395 394
f 331 332 396 395
f 332 333 397 396
f 333 334 398 397
f 334 335 399 398
f 335 336 400 399
f 336 337 401 400
f 337 338 402 401
f 338 339 403 402
f 339 340 404 403
f 340 341 405 404
f 341 342 406 405
f 342 343 407 406
f 343 344 408 407
f 344 345 409 408
f 345 346 410 409
f 346 347 411 410
f 347 348 412 411
f 348 349 413 412
f 349 350 414 413
f 350 351 415 414
f 351 352 416 415
f 352 353 417 416
f 353 354 418 417
f 354 355 419 418
f 355 356 420 419
f 356 357 421 420
f 357 358 422 421
f 358 359 423 422
f 359 360 424 423
f 360 361 425 424
f 361 362 426 425
f 362 363 427 426
f 363 364 428 427
f 364 365 429 428
f 365 366 430 429
f 366 367 431 430
f 367 368 432 431
f 368 369 433 432
f 369 370 434 433
f 370 371 435 434
f 371 372 436 435
f 372 373 437 436
f 373 374 438 437
f 374 375 439 438
f 375 376 440 439
f 376 377 441 440
f 377 378 442 441
f 378 379 443 442
f 379 380 444 443
f 380 381 445 444
f 381 382 446 445
f 382 383 447 446
f 383 384 448 447
f 384 321 385 448
f 385 386 450 449
f 386 387 451 450
f 387 388 452 451
f 388 389 453 452
f 389 390 454 453
f 390 391 455 454
f 391 392 456 455
f 392 393 457 456
f 393 394 458 457
f 394 395 459 458
f 395 396 460 459
f 396 397 461 460
f 397 398 462 461
f 398 399 463 462
f 399 400 464 463
f 400 401 465 464
f 401 402 466 465
f 402 403 467 466
f 403 404 468 467
f 404 405 469 468
f 405 406 470 469
f 406 407 471 470
f 407 408 472 471
f 408 409 473 472
f 409 410 474 473
f 410 411 475 474
f 411 412 476 475
f 412 413 477 476
f 413 414 478 477
f 414 415 479 478
f 415 416 480 479
f 416 417 481 480
f 417 418 482 481
f 418 419 483 482
f 419 420 484 483
f 420 421 485 484
f 421 422 486 485
f 422 423 487 486
f 423 424 488 487
f 424 425 489 488
f 425 426 490 489
f 426 427 491 490
f 427 428 492 491
f 428 429 493 492
f 429 430 494 493
f 430 431 495 494
f 431 432 496 495
f 432 433 497 496
f 433 434 498 497
f 434 435 499 498
f 435 436 500 499
f 436 437 501 500
f 437 438 502 501
f 438 439 503 502
f 439 440 504 503
f 440 441 505 504
f 441 442 506 505
f 442 443 507 506
f 443 444 508 507
f 444 445 509 508
f 445 446 510 509
f 446 447 511 510
f 447 448 512 511
f 448 385 449 512
f 449 450 514 513
f 450 451 515 514
f 451 452 516 515
f 452 453 517 516
f 453 454 518 517
f 454 455 519 518
f 455 456 520 519
f 456 457 521 520
f 457 458 522 521
f 458 459 523 522
f 459 460 524 523
f 460 461 525 524
f 461 462 526 525
f 462 463 527 526
f 463 464 528 527
f 464 465 529 528
f 465 466 530 529
f 466 467 531 530
f 467 468 532 531
f 468 469 533 532
f 469 470 534 533
f 470 471 535 534
f 471 472 536 535
f 472 473 537 536
f 473 474 538 537
f 474 475 539 538
f 475 476 540 539
f 476 477 541 540
f 477 478 542 541
f 478 479 543 542
f 479 480 544 543
f 480 481 545 544
f 481 482 546 545
f 482 483 547 546
f 483 484 548 547
f 484 485 549 548
f 485 486 550 549
f 486 487 551 550
f 487 488 552 551
f 488 489 553 552
f 489 490 554 553
f 490 491 555 554
f 491 492 556 555
f 492 493 557 556
f 493 494 558 557
f 494 495 559 558
f 495 496 560 559
f 496 497 561 560
f 497 498 562 561
f 498 499 563 562
f 499 500 564 563
f 500 501 565 564
f 501 502 566 565
f 502 503 567 566
f 503 504 568 567
f 504 505 569 568
f 505 506 570 569
f 506 507 571 570
f 507 508 572 571
f 508 509 573 572
f 509 510 574 573
f 510 511 575 574
f 511 512 576 575
f 512 449 513 576
f 64 63 62 61 60 59 58 57 56 55 54 53 52 51 50 49 48 47 46 45 44 43 42 41 40 39 38 37 36 35 34 33 32 31 30 29 28 27 26 25 24 23 22 21 20 19 18 17 16 15 14 13 12 11 10 9 8 7 6 5 4 3 2 1
f 513 514 515 516 517 518 519 520 521 522 523 524 525 526 527 528 529 530 531 532 533 534 535 536 537 538 539 540 541 542 543 544 545 546 547 548 549 550 551 552 553 554 555 556 557 558 559 560 561 562 563 564 565 566 567 568 569 570 571 572 573 574 575 576
g bridge_superstructure
f 885 886 910 909
f 886 887 911 910
f 887 888 912 911
f 888 889 913 912
f 889 890 914 913
f 890 891 915 914
f 891 892 916 915
f 892 893 917 916
f 893 894 918 917
f 894 895 919 918
f 895 896 920 919
f 896 897 921 920
f 897 898 922 921
f 898 899 923 922
f 899 900 924 923
f 900 901 925 924
f 901 902 926 925
f 902 903 927 926
f 903 904 928 927
f 904 905 929 928
f 905 906 930 929
f 906 907 931 930
f 907 908 932 931
f 908 885 909 932
f 909 910 934 933
f 910 911 935 934
f 911 912 936 935
f 912 913 937 936
f 913 914 938 937
f 914 915 939 938
f 915 916 940 939
f 916 917 941 940
f 917 918 942 941
f 918 919 943 942
f 919 920 944 943
f 920 921 945 944
f 921 922 946 945
f 922 923 947 946
f 923 924 948 947
f 924 925 949 948
f 925 926 950 949
f 926 927 951 950
f 927 928 952 951
f 928 929 953 952
f 929 930 954 953
f 930 931 955 954
f 931 932 956 955
f 932 909 933 956
f 933 934 958 957
f 934 935 959 958
f 935 936 960 959
f 936 937 961 960
f 937 938 962 961
f 938 939 963 962
f 939 940 964 963
f 940 941 965 964
f 941 942 966 965
f 942 943 967 966
f 943 944 968 967
f 944 945 969 968
f 945 946 970 969
f 946 947 971 970
f 947 948 972 971
f 948 949 973 972
f 949 950 974 973
f 950 951 975 974
f 951 952 976 975
f 952 953 977 976
f 953 954 978 977
f 954 955 979 978
f 955 956 980 979
f 956 933 957 980
f 957 958 982 981
f 958 959 983 982
f 959 960 984 983
f 960 961 985 984
f 961 962 986 985
f 962 963 987 986
f 963 964 988 987
f 964 965 989 988
f 965 966 990 989
f 966 967 991 990
f 967 968 992 991
f 968 969 993 992
f 969 970 994 993
f 970 971 995 994
f 971 972 996 995
f 972 973 997 996
f 973 974 998 997
f 974 975 999 998
f 975 976 1000 999
f 976 977 1001 1000
f 977 978 1002 1001
f 978 979 1003 1002
f 979 980 1004 1003
f 980 957 981 1004
f 981 982 1006 1005
f 982 983 1007 1006
f 983 984 1008 1007
f 984 985 1009 1008
f 985 986 1010 1009
f 986 987 1011 1010
f 987 988 1012 1011
f 988 989 1013 1012
f 989 990 1014 1013
f 990 991 1015 1014
f 991 992 1016 1015
f 992 993 1017 1016
f 993 994 1018 1017
f 994 995 1019 1018
f 995 996 1020 1019
f 996 997 1021 1020
f 997 998 1022 1021
f 998 999 1023 1022
f 999 1000 1024 1023
f 1000 1001 1025 1024
f 1001 1002 1026 1025
f 1002 1003 1027 1026
f 1003 1004 1028 1027
f 1004 981 1005 1028
f 1005 1006 1030 1029
f 1006 1007 1031 1030
f 1007 1008 1032 1031
f 1008 1009 1033 1032
f 1009 1010 1034 1033
f 1010 1011 1035 1034
f 1011 1012 1036 1035
f 1012 1013 1037 1036
f 1013 1014 1038 1037
f 1014 1015 1039 1038
f 1015 1016 1040 1039
f 1016 1017 1041 1040
f 1017 1018 1042 1041
f 1018 1019 1043 1042
f 1019 1020 1044 1043
f 1020 1021 1045 1044
f 1021 1022 1046 1045
f 1022 1023 1047 1046
f 1023 1024 1048 1047
f 1024 1025 1049 1048
f 1025 1026 1050 1049
f 1026 1027 1051 1050
f 1027 1028 1052 1051
f 1028 1005 1029 1052
f 1029 1030 1054 1053
f 1030 1031 1055 1054
f 1031 1032 1056 1055
f 1032 1033 1057 1056
f 1033 1034 1058 1057
f 1034 1035 1059 1058
f 1035 1036 1060 1059
f 1036 1037 1061 1060
f 1037 1038 1062 1061
f 1038 1039 1063 1062
f 1039 1040 1064 1063
f 1040 1041 1065 1064
f 1041 1042 1066 1065
f 1042 1043 1067 1066
f 1043 1044 1068 1067
f 1044 1045 1069 1068
f 1045 1046 1070 1069
f 1046 1047 1071 1070
f 1047 1048 1072 1071
f 1048 1049 1073 1072
f 1049 1050 1074 1073
f 1050 1051 1075 1074
f 1051 1052 1076 1075
f 1052 1029 1053 1076
f 1053 1054 1078 1077
f 1054 1055 1079 1078
f 1055 1056 1080 1079
f 1056 1057 1081 1080
f 1057 1058 1082 1081
f 1058 1059 1083 1082
f 1059 1060 1084 1083
f 1060 1061 1085 1084
f 1061 1062 1086 1085
f 1062 1063 1087 1086
f 1063 1064 1088 1087
f 1064 1065 1089 1088
f 1065 1066 1090 1089
f 1066 1067 1091 1090
f 1067 1068 1092 1091
f 1068 1069 1093 1092
f 1069 1070 1094 1093
f 1070 1071 1095 1094
f 1071 1072 1096 1095
f 1072 1073 1097 1096
f 1073 1074 1098 1097
f 1074 1075 1099 1098
f 1075 1076 1100 1099
f 1076 1053 1077 1100
f 908 907 906 905 904 903 902 901 900 899 898 897 896 895 894 893 892 891 890 889 888 887 886 885
f 1077 1078 1079 1080 1081 1082 1083 1084 1085 1086 1087 1088 1089 1090 1091 1092 1093 1094 1095 1096 1097 1098 1099 1100
f 1101 1102 1126 1125
f 1102 1103 1127 1126
f 1103 1104 1128 1127
f 1104 1105 1129 1128
f 1105 1106 1130 1129
f 1106 1107 1131 1130
f 1107 1108 1132 1131
f 1108 1109 1133 1132
f 1109 1110 1134 1133
f 1110 1111 1135 1134
f 1111 1112 1136 1135
f 1112 1113 1137 1136
f 1113 1114 1138 1137
f 1114 1115 1139 1138
f 1115 1116 1140 1139
f 1116 1117 1141 1140
f 1117 1118 1142 1141
f 1118 1119 1143 1142
f 1119 1120 1144 1143
f 1120 1121 1145 1144
f 1121 1122 1146 1145
f 1122 1123 1147 1146
f 1123 1124 1148 1147
f 1124 1101 1125 1148
f 1125 1126 1150 1149
f 1126 1127 1151 1150
f 1127 1128 1152 1151
f 1128 1129 1153 1152
f 1129 1130 1154 1153
f 1130 1131 1155 1154
f 1131 1132 1156 1155
f 1132 1133 1157 1156
f 1133 1134 1158 1157
f 1134 1135 1159 1158
f 1135 1136 1160 1159
f 1136 1137 1161 1160
f 1137 1138 1162 1161
f 1138 1139 1163 1162
f 1139 1140 1164 1163
f 1140 1141 1165 1164
f 1141 1142 1166 1165
f 1142 1143 1167 1166
f 1143 1144 1168 1167
f 1144 1145 1169 1168
f 1145 1146 1170 1169
f 1146 1147 1171 1170
f 1147 1148 1172 1171
f 1148 1125 1149 1172
f 1149 1150 1174 1173
f 1150 1151 1175 1174
f 1151 1152 1176 1175
f 1152 1153 1177 1176
f 1153 1154 1178 1177
f 1154 1155 1179 1178
f 1155 1156 1180 1179
f 1156 1157 1181 1180
f 1157 1158 1182 1181
f 1158 1159 1183 1182
f 1159 1160 1184 1183
f 1160 1161 1185 1184
f 1161 1162 1186 1185
f 1162 1163 1187 1186
f 1163 1164 1188 1187
f 1164 1165 1189 1188
f 1165 1166 1190 1189
f 1166 1167 1191 1190
f 1167 1168 1192 1191
f 1168 1169 1193 1192
f 1169 1170 1194 1193
f 1170 1171 1195 1194
f 1171 1172 1196 1195
f 1172 1149 1173 1196
f 1173 1174 1198 1197
f 1174 1175 1199 1198
f 1175 1176 1200 1199
f 1176 1177 1201 1200
f 1177 1178 1202 1201
f 1178 1179 1203 1202
f 1179 1180 1204 1203
f 1180 1181 1205 1204
f 1181 1182 1206 1205
f 1182 1183 1207 1206
f 1183 1184 1208 1207
f 1184 1185 1209 1208
f 1185 1186 1210 1209
f 1186 1187 1211 1210
f 1187 1188 1212 1211
f 1188 1189 1213 1212
f 1189 1190 1214 1213
f 1190 1191 1215 1214
f 1191 1192 1216 1215
f 1192 1193 1217 1216
f 1193 1194 1218 1217
f 1194 1195 1219 1218
f 1195 1196 1220 1219
f 1196 1173 1197 1220
f 1197 1198 1222 1221
f 1198 1199 1223 1222
f 1199 1200 1224 1223
f 1200 1201 1225 1224
f 1201 1202 1226 1225
f 1202 1203 1227 1226
f 1203 1204 1228 1227
f 1204 1205 1229 1228
f 1205 1206 1230 1229
f 1206 1207 1231 1230
f 1207 1208 1232 1231
f 1208 1209 1233 1232
f 1209 1210 1234 1233
f 1210 1211 1235 1234
f 1211 1212 1236 1235
f 1212 1213 1237 1236
f 1213 1214 1238 1237
f 1214 1215 1239 1238
f 1215 1216 1240 1239
f 1216 1217 1241 1240
f 1217 1218 1242 1241
f 1218 1219 1243 1242
f 1219 1220 1244 1243
f 1220 1197 1221 1244
f 1221 1222 1246 1245
f 1222 1223 1247 1246
f 1223 1224 1248 1247
f 1224 1225 1249 1248
f 1225 1226 1250 1249
f 1226 1227 1251 1250
f 1227 1228 1252 1251
f 1228 1229 1253 1252
f 1229 1230 1254 1253
f 1230 1231 1255 1254
f 1231 1232 1256 1255
f 1232 1233 1257 1256
f 1233 1234 1258 1257
f 1234 1235 1259 1258
f 1235 1236 1260 1259
f 1236 1237 1261 1260
f 1237 1238 1262 1261
f 1238 1239 1263 1262
f 1239 1240 1264 1263
f 1240 1241 1265 1264
f 1241 1242 1266 1265
f 1242 1243 1267 1266
f 1243 1244 1268 1267
f 1244 1221 1245 1268
f 1245 1246 1270 1269
f 1246 1247 1271 1270
f 1247 1248 1272 1271
f 1248 1249 1273 1272
f 1249 1250 1274 1273
f 1250 1251 1275 1274
f 1251 1252 1276 1275
f 1252 1253 1277 1276
f 1253 1254 1278 1277
f 1254 1255 1279 1278
f 1255 1256 1280 1279
f 1256 1257 1281 1280
f 1257 1258 1282 1281
f 1258 1259 1283 1282
f 1259 1260 1284 1283
f 1260 1261 1285 1284
f 1261 1262 1286 1285
f 1262 1263 1287 1286
f 1263 1264 1288 1287
f 1264 1265 1289 1288
f 1265 1266 1290 1289
f 1266 1267 1291 1290
f 1267 1268 1292 1291
f 1268 1245 1269 1292
f 1269 1270 1294 1293
f 1270 1271 1295 1294
f 1271 1272 1296 1295
f 1272 1273 1297 1296
f 1273 1274 1298 1297
f 1274 1275 1299 1298
f 1275 1276 1300 1299
f 1276 1277 1301 1300
f 1277 1278 1302 1301
f 1278 1279 1303 1302
f 1279 1280 1304 1303
f 1280 1281 1305 1304
f 1281 1282 1306 1305
f 1282 1283 1307 1306
f 1283 1284 1308 1307
f 1284 1285 1309 1308
f 1285 1286 1310 1309
f 1286 1287 1311 1310
f 1287 1288 1312 1311
f 1288 1289 1313 1312
f 1289 1290 1314 1313
f 1290 1291 1315 1314
f 1291 1292 1316 1315
f 1292 1269 1293 1316
f 1124 1123 1122 1121 1120 1119 1118 1117 1116 1115 1114 1113 1112 1111 1110 1109 1108 1107 1106 1105 1104 1103 1102 1101
f 1293 1294 1295 1296 1297 1298 1299 1300 1301 1302 1303 1304 1305 1306 1307 1308 1309 1310 1311 1312 1313 1314 1315 1316
g aft_boom
f 1317 1318 1330
f 1317 1330 1329
f 1318 1319 1331
f 1318 1331 1330
f 1319 1320 1332
f 1319 1332 1331
f 1320 1321 1333
f 1320 1333 1332
f 1321 1322 1334
f 1321 1334 1333
f 1322 1323 1335
f 1322 1335 1334
f 1323 1324 1336
f 1323 1336 1335
f 1324 1325 1337
f 1324 1337 1336
f 1325 1326 1338
f 1325 1338 1337
f 1326 1327 1339
f 1326 1339 1338
f 1327 1328 1340
f 1327 1340 1339
f 1328 1317 1329
f 1328 1329 1340
f 1329 1330 1342
f 1329 1342 1341
f 1330 1331 1343
f 1330 1343 1342
f 1331 1332 1344
f 1331 1344 1343
f 1332 1333 1345
f 1332 1345 1344
f 1333 1334 1346
f 1333 1346 1345
f 1334 1335 1347
f 1334 1347 1346
f 1335 1336 1348
f 1335 1348 1347
f 1336 1337 1349
f 1336 1349 1348
f 1337 1338 1350
f 1337 1350 1349
f 1338 1339 1351
f 1338 1351 1350
f 1339 1340 1352
f 1339 1352 1351
f 1340 1329 1341
f 1340 1341 1352
f 1341 1342 1354
f 1341 1354 1353
f 1342 1343 1355
f 1342 1355 1354
f 1343 1344 1356
f 1343 1356 1355
f 1344 1345 1357
f 1344 1357 1356
f 1345 1346 1358
f 1345 1358 1357
f 1346 1347 1359
f 1346 1359 1358
f 1347 1348 1360
f 1347 1360 1359
f 1348 1349 1361
f 1348 1361 1360
f 1349 1350 1362
f 1349 1362 1361
f 1350 1351 1363
f 1350 1363 1362
f 1351 1352 1364
f 1351 1364 1363
f 1352 1341 1353
f 1352 1353 1364
f 1328 1327 1326 1325 1324 1323 1322 1321 1320 1319 1318 1317
f 1353 1354 1355 1356 1357 1358 1359 1360 1361 1362 1363 1364
g warp_pylon
f 1369 1370 1366 1365
f 1370 1371 1367 1366
f 1371 1372 1368 1367
f 1372 1369 1365 1368
f 1365 1366 1367 1368
f 1372 1371 1370 1369
g warp_nacelle
f 1373 1374 1390 1389
f 1374 1375 1391 1390
f 1375 1376 1392 1391
f 1376 1377 1393 1392
f 1377 1378 1394 1393
f 1378 1379 1395 1394
f 1379 1380 1396 1395
f 1380 1381 1397 1396
f 1381 1382 1398 1397
f 1382 1383 1399 1398
f 1383 1384 1400 1399
f 1384 1385 1401 1400
f 1385 1386 1402 1401
f 1386 1387 1403 1402
f 1387 1388 1404 1403
f 1388 1373 1389 1404
f 1389 1390 1406 1405
f 1390 1391 1407 1406
f 1391 1392 1408 1407
f 1392 1393 1409 1408
f 1393 1394 1410 1409
f 1394 1395 1411 1410
f 1395 1396 1412 1411
f 1396 1397 1413 1412
f 1397 1398 1414 1413
f 1398 1399 1415 1414
f 1399 1400 1416 1415
f 1400 1401 1417 1416
f 1401 1402 1418 1417
f 1402 1403 1419 1418
f 1403 1404 1420 1419
f 1404 1389 1405 1420
f 1405 1406 1422 1421
f 1406 1407 1423 1422
f 1407 1408 1424 1423
f 1408 1409 1425 1424
f 1409 1410 1426 1425
f 1410 1411 1427 1426
f 1411 1412 1428 1427
f 1412 1413 1429 1428
f 1413 1414 1430 1429
f 1414 1415 1431 1430
f 1415 1416 1432 1431
f 1416 1417 1433 1432
f 1417 1418 1434 1433
f 1418 1419 1435 1434
f 1419 1420 1436 1435
f 1420 1405 1421 1436
f 1421 1422 1438 1437
f 1422 1423 1439 1438
f 1423 1424 1440 1439
f 1424 1425 1441 1440
f 1425 1426 1442 1441
f 1426 1427 1443 1442
f 1427 1428 1444 1443
f 1428 1429 1445 1444
f 1429 1430 1446 1445
f 1430 1431 1447 1446
f 1431 1432 1448 1447
f 1432 1433 1449 1448
f 1433 1434 1450 1449
f 1434 1435 1451 1450
f 1435 1436 1452 1451
f 1436 1421 1437 1452
f 1437 1438 1454 1453
f 1438 1439 1455 1454
f 1439 1440 1456 1455
f 1440 1441 1457 1456
f 1441 1442 1458 1457
f 1442 1443 1459 1458
f 1443 1444 1460 1459
f 1444 1445 1461 1460
f 1445 1446 1462 1461
f 1446 1447 1463 1462
f 1447 1448 1464 1463
f 1448 1449 1465 1464
f 1449 1450 1466 1465
f 1450 1451 1467 1466
f 1451 1452 1468 1467
f 1452 1437 1453 1468
f 1453 1454 1470 1469
f 1454 1455 1471 1470
f 1455 1456 1472 1471
f 1456 1457 1473 1472
f 1457 1458 1474 1473
f 1458 1459 1475 1474
f 1459 1460 1476 1475
f 1460 1461 1477 1476
f 1461 1462 1478 1477
f 1462 1463 1479 1478
f 1463 1464 1480 1479
f 1464 1465 1481 1480
f 1465 1466 1482 1481
f 1466 1467 1483 1482
f 1467 1468 1484 1483
f 1468 1453 1469 1484
f 1388 1387 1386 1385 1384 1383 1382 1381 1380 1379 1378 1377 1376 1375 1374 1373
f 1469 1470 1471 1472 1473 1474 1475 1476 1477 1478 1479 1480 1481 1482 1483 1484
g aft_boom
f 1524 1525 1537
f 1524 1537 1536
f 1525 1526 1538
f 1525 1538 1537
f 1526 1527 1539
f 1526 1539 1538
f 1527 1528 1540
f 1527 1540 1539
f 1528 1529 1541
f 1528 1541 1540
f 1529 1530 1542
f 1529 1542 1541
f 1530 1531 1543
f 1530 1543 1542
f 1531 1532 1544
f 1531 1544 1543
f 1532 1533 1545
f 1532 1545 1544
f 1533 1534 1546
f 1533 1546 1545
f 1534 1535 1547
f 1534 1547 1546
f 1535 1524 1536
f 1535 1536 1547
f 1536 1537 1549
f 1536 1549 1548
f 1537 1538 1550
f 1537 1550 1549
f 1538 1539 1551
f 1538 1551 1550
f 1539 1540 1552
f 1539 1552 1551
f 1540 1541 1553
f 1540 1553 1552
f 1541 1542 1554
f 1541 1554 1553
f 1542 1543 1555
f 1542 1555 1554
f 1543 1544 1556
f 1543 1556 1555
f 1544 1545 1557
f 1544 1557 1556
f 1545 1546 1558
f 1545 1558 1557
f 1546 1547 1559
f 1546 1559 1558
f 1547 1536 1548
f 1547 1548 1559
f 1548 1549 1561
f 1548 1561 1560
f 1549 1550 1562
f 1549 1562 1561
f 1550 1551 1563
f 1550 1563 1562
f 1551 1552 1564
f 1551 1564 1563
f 1552 1553 1565
f 1552 1565 1564
f 1553 1554 1566
f 1553 1566 1565
f 1554 1555 1567
f 1554 1567 1566
f 1555 1556 1568
f 1555 1568 1567
f 1556 1557 1569
f 1556 1569 1568
f 1557 1558 1570
f 1557 1570 1569
f 1558 1559 1571
f 1558 1571 1570
f 1559 1548 1560
f 1559 1560 1571
f 1535 1534 1533 1532 1531 1530 1529 1528 1527 1526 1525 1524
f 1560 1561 1562 1563 1564 1565 1566 1567 1568 1569 1570 1571
g warp_pylon
f 1576 1577 1573 1572
f 1577 1578 1574 1573
f 1578 1579 1575 1574
f 1579 1576 1572 1575
f 1572 1573 1574 1575
f 1579 1578 1577 1576
g warp_nacelle
f 1580 1581 1597 1596
f 1581 1582 1598 1597
f 1582 1583 1599 1598
f 1583 1584 1600 1599
f 1584 1585 1601 1600
f 1585 1586 1602 1601
f 1586 1587 1603 1602
f 1587 1588 1604 1603
f 1588 1589 1605 1604
f 1589 1590 1606 1605
f 1590 1591 1607 1606
f 1591 1592 1608 1607
f 1592 1593 1609 1608
f 1593 1594 1610 1609
f 1594 1595 1611 1610
f 1595 1580 1596 1611
f 1596 1597 1613 1612
f 1597 1598 1614 1613
f 1598 1599 1615 1614
f 1599 1600 1616 1615
f 1600 1601 1617 1616
f 1601 1602 1618 1617
f 1602 1603 1619 1618
f 1603 1604 1620 1619
f 1604 1605 1621 1620
f 1605 1606 1622 1621
f 1606 1607 1623 1622
f 1607 1608 1624 1623
f 1608 1609 1625 1624
f 1609 1610 1626 1625
f 1610 1611 1627 1626
f 1611 1596 1612 1627
f 1612 1613 1629 1628
f 1613 1614 1630 1629
f 1614 1615 1631 1630
f 1615 1616 1632 1631
f 1616 1617 1633 1632
f 1617 1618 1634 1633
f 1618 1619 1635 1634
f 1619 1620 1636 1635
f 1620 1621 1637 1636
f 1621 1622 1638 1637
f 1622 1623 1639 1638
f 1623 1624 1640 1639
f 1624 1625 1641 1640
f 1625 1626 1642 1641
f 1626 1627 1643 1642
f 1627 1612 1628 1643
f 1628 1629 1645 1644
f 1629 1630 1646 1645
f 1630 1631 1647 1646
f 1631 1632 1648 1647
f 1632 1633 1649 1648
f 1633 1634 1650 1649
f 1634 1635 1651 1650
f 1635 1636 1652 1651
f 1636 1637 1653 1652
f 1637 1638 1654 1653
f 1638 1639 1655 1654
f 1639 1640 1656 1655
f 1640 1641 1657 1656
f 1641 1642 1658 1657
f 1642 1643 1659 1658
f 1643 1628 1644 1659
f 1644 1645 1661 1660
f 1645 1646 1662 1661
f 1646 1647 1663 1662
f 1647 1648 1664 1663
f 1648 1649 1665 1664
f 1649 1650 1666 1665
f 1650 1651 1667 1666
f 1651 1652 1668 1667
f 1652 1653 1669 1668
f 1653 1654 1670 1669
f 1654 1655 1671 1670
f 1655 1656 1672 1671
f 1656 1657 1673 1672
f 1657 1658 1674 1673
f 1658 1659 1675 1674
f 1659 1644 1660 1675
f 1660 1661 1677 1676
f 1661 1662 1678 1677
f 1662 1663 1679 1678
f 1663 1664 1680 1679
f 1664 1665 1681 1680
f 1665 1666 1682 1681
f 1666 1667 1683 1682
f 1667 1668 1684 1683
f 1668 1669 1685 1684
f 1669 1670 1686 1685
f 1670 1671 1687 1686
f 1671 1672 1688 1687
f 1672 1673 1689 1688
f 1673 1674 1690 1689
f 1674 1675 1691 1690
f 1675 1660 1676 1691
f 1595 1594 1593 1592 1591 1590 1589 1588 1587 1586 1585 1584 1583 1582 1581 1580
f 1676 1677 1678 1679 1680 1681 1682 1683 1684 1685 1686 1687 1688 1689 1690 1691
g aft_crossbar
f 1735 1736 1732 1731
f 1736 1737 1733 1732
f 1737 1738 1734 1733
f 1738 1735 1731 1734
f 1731 1732 1733 1734
f 1738 1737 1736 1735
g warp_field_governor
f 1739 1740 1752 1751
f 1740 1741 1753 1752
f 1741 1742 1754 1753
f 1742 1743 1755 1754
f 1743 1744 1756 1755
f 1744 1745 1757 1756
f 1745 1746 1758 1757
f 1746 1747 1759 1758
f 1747 1748 1760 1759
f 1748 1749 1761 1760
f 1749 1750 1762 1761
f 1750 1739 1751 1762
f 1750 1749 1748 1747 1746 1745 1744 1743 1742 1741 1740 1739
f 1751 1752 1753 1754 1755 1756 1757 1758 1759 1760 1761 1762
g navigation_deflector
f 1787 1788 1764 1763
f 1788 1789 1765 1764
f 1789 1790 1766 1765
f 1790 1791 1767 1766
f 1791 1792 1768 1767
f 1792 1793 1769 1768
f 1793 1794 1770 1769
f 1794 1795 1771 1770
f 1795 1796 1772 1771
f 1796 1797 1773 1772
f 1797 1798 1774 1773
f 1798 1799 1775 1774
f 1799 1800 1776 1775
f 1800 1801 1777 1776
f 1801 1802 1778 1777
f 1802 1803 1779 1778
f 1803 1804 1780 1779
f 1804 1805 1781 1780
f 1805 1806 1782 1781
f 1806 1807 1783 1782
f 1807 1808 1784 1783
f 1808 1809 1785 1784
f 1809 1810 1786 1785
f 1810 1787 1763 1786
f 1811 1812 1788 1787
f 1812 1813 1789 1788
f 1813 1814 1790 1789
f 1814 1815 1791 1790
f 1815 1816 1792 1791
f 1816 1817 1793 1792
f 1817 1818 1794 1793
f 1818 1819 1795 1794
f 1819 1820 1796 1795
f 1820 1821 1797 1796
f 1821 1822 1798 1797
f 1822 1823 1799 1798
f 1823 1824 1800 1799
f 1824 1825 1801 1800
f 1825 1826 1802 1801
f 1826 1827 1803 1802
f 1827 1828 1804 1803
f 1828 1829 1805 1804
f 1829 1830 1806 1805
f 1830 1831 1807 1806
f 1831 1832 1808 1807
f 1832 1833 1809 1808
f 1833 1834 1810 1809
f 1834 1811 1787 1810
f 1763 1764 1765 1766 1767 1768 1769 1770 1771 1772 1773 1774 1775 1776 1777 1778 1779 1780 1781 1782 1783 1784 1785 1786
f 1834 1833 1832 1831 1830 1829 1828 1827 1826 1825 1824 1823 1822 1821 1820 1819 1818 1817 1816 1815 1814 1813 1812 1811
g schematic_details
l 65 66 67 68 69 70 71 72 73 74 75 76 77 78 79 80 81 82 83 84 85 86 87 88 89 90 91 92 93 94 95 96 97 98 99 100 101 102 103 104 105 106 107 108 109 110 111 112 113 114 115 116 117 118 119 120 121 122 123 124 125 126 127 128 65
l 129 130 131 132 133 134 135 136 137 138 139 140 141 142 143 144 145 146 147 148 149 150 151 152 153 154 155 156 157 158 159 160 161 162 163 164 165 166 167 168 169 170 171 172 173 174 175 176 177 178 179 180 181 182 183 184 185 186 187 188 189 190 191 192 129
l 193 194 195 196 197 198 199 200 201 202 203 204 205 206 207 208 209 210 211 212 213 214 215 216 217 218 219 220 221 222 223 224 225 226 227 228 229 230 231 232 233 234 235 236 237 238 239 240 241 242 243 244 245 246 247 248 249 250 251 252 253 254 255 256 193
l 257 258 259 260 261 262 263 264 265 266 267 268 269 270 271 272 273 274 275 276 277 278 279 280 281 282 283 284 285 286 287 288 289 290 291 292 293 294 295 296 297 298 299 300 301 302 303 304 305 306 307 308 309 310 311 312 313 314 315 316 317 318 319 320 257
l 321 322 323 324 325 326 327 328 329 330 331 332 333 334 335 336 337 338 339 340 341 342 343 344 345 346 347 348 349 350 351 352 353 354 355 356 357 358 359 360 361 362 363 364 365 366 367 368 369 370 371 372 373 374 375 376 377 378 379 380 381 382 383 384 321
l 385 386 387 388 389 390 391 392 393 394 395 396 397 398 399 400 401 402 403 404 405 406 407 408 409 410 411 412 413 414 415 416 417 418 419 420 421 422 423 424 425 426 427 428 429 430 431 432 433 434 435 436 437 438 439 440 441 442 443 444 445 446 447 448 385
l 449 450 451 452 453 454 455 456 457 458 459 460 461 462 463 464 465 466 467 468 469 470 471 472 473 474 475 476 477 478 479 480 481 482 483 484 485 486 487 488 489 490 491 492 493 494 495 496 497 498 499 500 501 502 503 504 505 506 507 508 509 510 511 512 449
l 65 129 193 257
l 69 133 197 261
l 73 137 201 265
l 77 141 205 269
l 81 145 209 273
l 85 149 213 277
l 89 153 217 281
l 93 157 221 285
l 97 161 225 289
l 101 165 229 293
l 105 169 233 297
l 109 173 237 301
l 113 177 241 305
l 117 181 245 309
l 121 185 249 313
l 125 189 253 317
l 321 385 449
l 329 393 457
l 337 401 465
l 345 409 473
l 353 417 481
l 361 425 489
l 369 433 497
l 377 441 505
l 577 578 579 580 581 582 583 584 585 586 587 588 589 590 591 592 593 594 595 596 597 598 599 600 601 602 603 604 605 606 607 608 609 610 611 612 613 614 615 616 617 618 619 620 621 622 623 624 625 626 627 628 629 630 631 632 633 634 635 636 637 638 639 640 577
l 641 642 643 644 645 646 647 648 649 650 651 652 653 654 655 656 657 658 659 660 661 662 663 664 665 666 667 668 669 670 671 672 673 674 675 676 677 678 679 680 681 682 683 684 685 686 687 688 689 690 691 692 693 694 695 696 697 698 699 700 701 702 703 704 641
l 705 706 707 708 709 710 711 712 713 714 715 716 717 718 719 720 721 722 723 724 725 726 727 728 729 730 731 732 733 734 735 736 737 738 739 740 741 742 743 744 745 746 747 748 749 750 751 752 753 754 755 756 757 758 759 760 761 762 763 764 765 766 767 768 705
l 769 770
l 771 772
l 773 774
l 775 776
l 777 778
l 779 780
l 781 782
l 783 784
l 785 786
l 787 788
l 789 790
l 791 792
l 793 794
l 795 796
l 797 798
l 799 800
l 801 802
l 803 804
l 805 806
l 807 808
l 809 810
l 811 812
l 813 814
l 815 816
l 817 818
l 819 820
l 821 822
l 823 824
l 825 826
l 827 828
l 829 830
l 831 832
l 833 834
l 835 836
l 837 838
l 839 840
l 841 842
l 843 844
l 845 846
l 847 848
l 849 850
l 851 852
l 853 854
l 855 856
l 857 858
l 859 860
l 861 862
l 863 864
l 865 866
l 867 868
l 869 870
l 871 872
l 873 874
l 875 876
l 877 878
l 879 880
l 881 882
l 883 884
l 1317 1318 1319 1320 1321 1322 1323 1324 1325 1326 1327 1328 1317
l 1329 1330 1331 1332 1333 1334 1335 1336 1337 1338 1339 1340 1329
l 1341 1342 1343 1344 1345 1346 1347 1348 1349 1350 1351 1352 1341
l 1353 1354 1355 1356 1357 1358 1359 1360 1361 1362 1363 1364 1353
l 1317 1329 1341 1353
l 1320 1332 1344 1356
l 1323 1335 1347 1359
l 1326 1338 1350 1362
l 1373 1374 1375 1376 1377 1378 1379 1380 1381 1382 1383 1384 1385 1386 1387 1388 1373
l 1389 1390 1391 1392 1393 1394 1395 1396 1397 1398 1399 1400 1401 1402 1403 1404 1389
l 1453 1454 1455 1456 1457 1458 1459 1460 1461 1462 1463 1464 1465 1466 1467 1468 1453
l 1469 1470 1471 1472 1473 1474 1475 1476 1477 1478 1479 1480 1481 1482 1483 1484 1469
l 1373 1389 1405 1421 1437 1453 1469
l 1377 1393 1409 1425 1441 1457 1473
l 1381 1397 1413 1429 1445 1461 1477
l 1385 1401 1417 1433 1449 1465 1481
l 1485 1486 1487 1488
l 1489 1490 1491 1492
l 1493 1494 1495 1496
l 1497 1498 1499 1500
l 1501 1502 1503 1504
l 1505 1506 1507 1508
l 1509 1510 1511
l 1512 1513 1514
l 1515 1516 1517
l 1518 1519 1520
l 1521 1522 1523
l 1524 1525 1526 1527 1528 1529 1530 1531 1532 1533 1534 1535 1524
l 1536 1537 1538 1539 1540 1541 1542 1543 1544 1545 1546 1547 1536
l 1548 1549 1550 1551 1552 1553 1554 1555 1556 1557 1558 1559 1548
l 1560 1561 1562 1563 1564 1565 1566 1567 1568 1569 1570 1571 1560
l 1524 1536 1548 1560
l 1527 1539 1551 1563
l 1530 1542 1554 1566
l 1533 1545 1557 1569
l 1580 1581 1582 1583 1584 1585 1586 1587 1588 1589 1590 1591 1592 1593 1594 1595 1580
l 1596 1597 1598 1599 1600 1601 1602 1603 1604 1605 1606 1607 1608 1609 1610 1611 1596
l 1660 1661 1662 1663 1664 1665 1666 1667 1668 1669 1670 1671 1672 1673 1674 1675 1660
l 1676 1677 1678 1679 1680 1681 1682 1683 1684 1685 1686 1687 1688 1689 1690 1691 1676
l 1580 1596 1612 1628 1644 1660 1676
l 1584 1600 1616 1632 1648 1664 1680
l 1588 1604 1620 1636 1652 1668 1684
l 1592 1608 1624 1640 1656 1672 1688
l 1692 1693 1694 1695
l 1696 1697 1698 1699
l 1700 1701 1702 1703
l 1704 1705 1706 1707
l 1708 1709 1710 1711
l 1712 1713 1714 1715
l 1716 1717 1718
l 1719 1720 1721
l 1722 1723 1724
l 1725 1726 1727
l 1728 1729 1730
l 1739 1740 1741 1742 1743 1744 1745 1746 1747 1748 1749 1750 1739
l 1751 1752 1753 1754 1755 1756 1757 1758 1759 1760 1761 1762 1751
l 1739 1740 1741 1742 1743 1744 1745 1746 1747 1748 1749 1750 1739
l 1751 1752 1753 1754 1755 1756 1757 1758 1759 1760 1761 1762 1751
l 1739 1751
l 1742 1754
l 1745 1757
l 1748 1760
l 1763 1764 1765 1766 1767 1768 1769 1770 1771 1772 1773 1774 1775 1776 1777 1778 1779 1780 1781 1782 1783 1784 1785 1786 1763
l 1787 1788 1789 1790 1791 1792 1793 1794 1795 1796 1797 1798 1799 1800 1801 1802 1803 1804 1805 1806 1807 1808 1809 1810 1787
l 1787 1788 1789 1790 1791 1792 1793 1794 1795 1796 1797 1798 1799 1800 1801 1802 1803 1804 1805 1806 1807 1808 1809 1810 1787
l 1811 1812 1813 1814 1815 1816 1817 1818 1819 1820 1821 1822 1823 1824 1825 1826 1827 1828 1829 1830 1831 1832 1833 1834 1811
l 1763 1787 1811
l 1769 1793 1817
l 1775 1799 1823
l 1781 1805 1829
