# Original procedural schematic geometry; +Y up / bow -Z. Units arbitrary.
# No materials, textures, imported meshes, or hidden dependencies.
o vessel
v 5.280000 12.560000 -46.000000
v 5.331831 12.560000 -45.317801
v 5.330089 12.560000 -44.642171
v 5.272651 12.560000 -43.979619
v 5.158098 12.560000 -43.336523
v 4.985806 12.560000 -42.719079
v 4.756016 12.560000 -42.133231
v 4.469886 12.560000 -41.584623
v 4.129524 12.560000 -41.078537
v 3.737988 12.560000 -40.619847
v 3.299267 12.560000 -40.212971
v 2.818237 12.560000 -39.861828
v 2.300583 12.560000 -39.569798
v 1.752709 12.560000 -39.339695
v 1.181620 12.560000 -39.173734
v 0.594786 12.560000 -39.073514
v 0.000000 12.560000 -39.040000
v -0.594786 12.560000 -39.073514
v -1.181620 12.560000 -39.173734
v -1.752709 12.560000 -39.339695
v -2.300583 12.560000 -39.569798
v -2.818237 12.560000 -39.861828
v -3.299267 12.560000 -40.212971
v -3.737988 12.560000 -40.619847
v -4.129524 12.560000 -41.078537
v -4.469886 12.560000 -41.584623
v -4.756016 12.560000 -42.133231
v -4.985806 12.560000 -42.719079
v -5.158098 12.560000 -43.336523
v -5.272651 12.560000 -43.979619
v -5.330089 12.560000 -44.642171
v -5.331831 12.560000 -45.317801
v -5.280000 12.560000 -46.000000
v -5.177320 12.560000 -46.682199
v -5.027004 12.560000 -47.357829
v -4.832639 12.560000 -48.020381
v -4.598070 12.560000 -48.663477
v -4.327282 12.560000 -49.280921
v -4.024303 12.560000 -49.866769
v -3.693104 12.560000 -50.415377
v -3.337524 12.560000 -50.921463
v -2.961206 12.560000 -51.380153
v -2.567555 12.560000 -51.787029
v -2.159713 12.560000 -52.138172
v -1.740554 12.560000 -52.430202
v -1.312697 12.560000 -52.660305
v -0.878534 12.560000 -52.826266
v -0.440275 12.560000 -52.926486
v -0.000000 12.560000 -52.960000
v 0.440275 12.560000 -52.926486
v 0.878534 12.560000 -52.826266
v 1.312697 12.560000 -52.660305
v 1.740554 12.560000 -52.430202
v 2.159713 12.560000 -52.138172
v 2.567555 12.560000 -51.787029
v 2.961206 12.560000 -51.380153
v 3.337524 12.560000 -50.921463
v 3.693104 12.560000 -50.415377
v 4.024303 12.560000 -49.866769
v 4.327282 12.560000 -49.280921
v 4.598070 12.560000 -48.663477
v 4.832639 12.560000 -48.020381
v 5.027004 12.560000 -47.357829
v 5.177320 12.560000 -46.682199
v 14.080000 11.760000 -46.000000
v 14.218216 11.760000 -44.180802
v 14.213570 11.760000 -42.379124
v 14.060402 11.760000 -40.612316
v 13.754929 11.760000 -38.897395
v 13.295483 11.760000 -37.250877
v 12.682709 11.760000 -35.688616
v 11.919696 11.760000 -34.225661
v 11.012063 11.760000 -32.876098
v 9.967967 11.760000 -31.652926
v 8.798046 11.760000 -30.567924
v 7.515298 11.760000 -29.631541
v 6.134887 11.760000 -28.852796
v 4.673890 11.760000 -28.239187
v 3.150985 11.760000 -27.796625
v 1.586097 11.760000 -27.529371
v 0.000000 11.760000 -27.440000
v -1.586097 11.760000 -27.529371
v -3.150985 11.760000 -27.796625
v -4.673890 11.760000 -28.239187
v -6.134887 11.760000 -28.852796
v -7.515298 11.760000 -29.631541
v -8.798046 11.760000 -30.567924
v -9.967967 11.760000 -31.652926
v -11.012063 11.760000 -32.876098
v -11.919696 11.760000 -34.225661
v -12.682709 11.760000 -35.688616
v -13.295483 11.760000 -37.250877
v -13.754929 11.760000 -38.897395
v -14.060402 11.760000 -40.612316
v -14.213570 11.760000 -42.379124
v -14.218216 11.760000 -44.180802
v -14.080000 11.760000 -46.000000
v -13.806186 11.760000 -47.819198
v -13.405343 11.760000 -49.620876
v -12.887038 11.760000 -51.387684
v -12.261519 11.760000 -53.102605
v -11.539419 11.760000 -54.749123
v -10.731475 11.760000 -56.311384
v -9.848278 11.760000 -57.774339
v -8.900063 11.760000 -59.123902
v -7.896548 11.760000 -60.347074
v -6.846812 11.760000 -61.432076
v -5.759234 11.760000 -62.368459
v -4.641478 11.760000 -63.147204
v -3.500526 11.760000 -63.760813
v -2.342758 11.760000 -64.203375
v -1.174066 11.760000 -64.470629
v -0.000000 11.760000 -64.560000
v 1.174066 11.760000 -64.470629
v 2.342758 11.760000 -64.203375
v 3.500526 11.760000 -63.760813
v 4.641478 11.760000 -63.147204
v 5.759234 11.760000 -62.368459
v 6.846812 11.760000 -61.432076
v 7.896548 11.760000 -60.347074
v 8.900063 11.760000 -59.123902
v 9.848278 11.760000 -57.774339
v 10.731475 11.760000 -56.311384
v 11.539419 11.760000 -54.749123
v 12.261519 11.760000 -53.102605
v 12.887038 11.760000 -51.387684
v 13.405343 11.760000 -49.620876
v 13.806186 11.760000 -47.819198
v 33.440000 8.960000 -46.000000
v 33.768264 8.960000 -41.679404
v 33.757230 8.960000 -37.400419
v 33.393455 8.960000 -33.204251
v 32.667955 8.960000 -29.131314
v 31.576773 8.960000 -25.220832
v 30.121434 8.960000 -21.510464
v 28.309279 8.960000 -18.035944
v 26.153651 8.960000 -14.830733
v 23.673921 8.960000 -11.925699
v 20.895358 8.960000 -9.348819
v 17.848833 8.960000 -7.124911
v 14.570358 8.960000 -5.275390
v 11.100490 8.960000 -3.818070
v 7.483590 8.960000 -2.766985
v 3.766980 8.960000 -2.132257
v 0.000000 8.960000 -1.920000
v -3.766980 8.960000 -2.132257
v -7.483590 8.960000 -2.766985
v -11.100490 8.960000 -3.818070
v -14.570358 8.960000 -5.275390
v -17.848833 8.960000 -7.124911
v -20.895358 8.960000 -9.348819
v -23.673921 8.960000 -11.925699
v -26.153651 8.960000 -14.830733
v -28.309279 8.960000 -18.035944
v -30.121434 8.960000 -21.510464
v -31.576773 8.960000 -25.220832
v -32.667955 8.960000 -29.131314
v -33.393455 8.960000 -33.204251
v -33.757230 8.960000 -37.400419
v -33.768264 8.960000 -41.679404
v -33.440000 8.960000 -46.000000
v -32.789691 8.960000 -50.320596
v -31.837690 8.960000 -54.599581
v -30.606715 8.960000 -58.795749
v -29.121108 8.960000 -62.868686
v -27.406121 8.960000 -66.779168
v -25.487254 8.960000 -70.489536
v -23.389660 8.960000 -73.964056
v -21.137651 8.960000 -77.169267
v -18.754302 8.960000 -80.074301
v -16.261179 8.960000 -82.651181
v -13.678181 8.960000 -84.875089
v -11.023510 8.960000 -86.724610
v -8.313749 8.960000 -88.181930
v -5.564050 8.960000 -89.233015
v -2.788407 8.960000 -89.867743
v -0.000000 8.960000 -90.080000
v 2.788407 8.960000 -89.867743
v 5.564050 8.960000 -89.233015
v 8.313749 8.960000 -88.181930
v 11.023510 8.960000 -86.724610
v 13.678181 8.960000 -84.875089
v 16.261179 8.960000 -82.651181
v 18.754302 8.960000 -80.074301
v 21.137651 8.960000 -77.169267
v 23.389660 8.960000 -73.964056
v 25.487254 8.960000 -70.489536
v 27.406121 8.960000 -66.779168
v 29.121108 8.960000 -62.868686
v 30.606715 8.960000 -58.795749
v 31.837690 8.960000 -54.599581
v 32.789691 8.960000 -50.320596
v 42.240000 7.360000 -46.000000
v 42.654649 7.360000 -40.542406
v 42.640711 7.360000 -35.137371
v 42.181206 7.360000 -29.836949
v 41.264786 7.360000 -24.692186
v 39.886450 7.360000 -19.752630
v 38.048127 7.360000 -15.065849
v 35.759089 7.360000 -10.676982
v 33.036190 7.360000 -6.628294
v 29.903900 7.360000 -2.958778
v 26.394137 7.360000 0.296228
v 22.545894 7.360000 3.105376
v 18.404662 7.360000 5.441612
v 14.021671 7.360000 7.282438
v 9.452956 7.360000 8.610124
v 4.758290 7.360000 9.411886
v 0.000000 7.360000 9.680000
v -4.758290 7.360000 9.411886
v -9.452956 7.360000 8.610124
v -14.021671 7.360000 7.282438
v -18.404662 7.360000 5.441612
v -22.545894 7.360000 3.105376
v -26.394137 7.360000 0.296228
v -29.903900 7.360000 -2.958778
v -33.036190 7.360000 -6.628294
v -35.759089 7.360000 -10.676982
v -38.048127 7.360000 -15.065849
v -39.886450 7.360000 -19.752630
v -41.264786 7.360000 -24.692186
v -42.181206 7.360000 -29.836949
v -42.640711 7.360000 -35.137371
v -42.654649 7.360000 -40.542406
v -42.240000 7.360000 -46.000000
v -41.418557 7.360000 -51.457594
v -40.216029 7.360000 -56.862629
v -38.661113 7.360000 -62.163051
v -36.784557 7.360000 -67.307814
v -34.618258 7.360000 -72.247370
v -32.194426 7.360000 -76.934151
v -29.544834 7.360000 -81.323018
v -26.700190 7.360000 -85.371706
v -23.689645 7.360000 -89.041222
v -20.540436 7.360000 -92.296228
v -17.277702 7.360000 -95.105376
v -13.924434 7.360000 -97.441612
v -10.501578 7.360000 -99.282438
v -7.028274 7.360000 -100.610124
v -3.522198 7.360000 -101.411886
v -0.000000 7.360000 -101.680000
v 3.522198 7.360000 -101.411886
v 7.028274 7.360000 -100.610124
v 10.501578 7.360000 -99.282438
v 13.924434 7.360000 -97.441612
v 17.277702 7.360000 -95.105376
v 20.540436 7.360000 -92.296228
v 23.689645 7.360000 -89.041222
v 26.700190 7.360000 -85.371706
v 29.544834 7.360000 -81.323018
v 32.194426 7.360000 -76.934151
v 34.618258 7.360000 -72.247370
v 36.784557 7.360000 -67.307814
v 38.661113 7.360000 -62.163051
v 40.216029 7.360000 -56.862629
v 41.418557 7.360000 -51.457594
v 44.000000 6.400000 -46.000000
v 44.431926 6.400000 -40.315006
v 44.417408 6.400000 -34.684761
v 43.938757 6.400000 -29.163489
v 42.984152 6.400000 -23.804361
v 41.548385 6.400000 -18.658989
v 39.633465 6.400000 -13.776926
v 37.249051 6.400000 -9.205190
v 34.412698 6.400000 -4.987807
v 31.149896 6.400000 -1.165394
v 27.493893 6.400000 2.225238
v 23.485306 6.400000 5.151433
v 19.171523 6.400000 7.585013
v 14.605908 6.400000 9.502539
v 9.846829 6.400000 10.885546
v 4.956552 6.400000 11.720714
v 0.000000 6.400000 12.000000
v -4.956552 6.400000 11.720714
v -9.846829 6.400000 10.885546
v -14.605908 6.400000 9.502539
v -19.171523 6.400000 7.585013
v -23.485306 6.400000 5.151433
v -27.493893 6.400000 2.225238
v -31.149896 6.400000 -1.165394
v -34.412698 6.400000 -4.987807
v -37.249051 6.400000 -9.205190
v -39.633465 6.400000 -13.776926
v -41.548385 6.400000 -18.658989
v -42.984152 6.400000 -23.804361
v -43.938757 6.400000 -29.163489
v -44.417408 6.400000 -34.684761
v -44.431926 6.400000 -40.315006
v -44.000000 6.400000 -46.000000
v -43.144330 6.400000 -51.684994
v -41.891697 6.400000 -57.315239
v -40.271993 6.400000 -62.836511
v -38.317247 6.400000 -68.195639
v -36.060686 6.400000 -73.341011
v -33.535860 6.400000 -78.223074
v -30.775869 6.400000 -82.794810
v -27.812698 6.400000 -87.012193
v -24.676713 6.400000 -90.834606
v -21.396288 6.400000 -94.225238
v -17.997607 6.400000 -97.151433
v -14.504619 6.400000 -99.585013
v -10.939144 6.400000 -101.502539
v -7.321119 6.400000 -102.885546
v -3.668956 6.400000 -103.720714
v -0.000000 6.400000 -104.000000
v 3.668956 6.400000 -103.720714
v 7.321119 6.400000 -102.885546
v 10.939144 6.400000 -101.502539
v 14.504619 6.400000 -99.585013
v 17.997607 6.400000 -97.151433
v 21.396288 6.400000 -94.225238
v 24.676713 6.400000 -90.834606
v 27.812698 6.400000 -87.012193
v 30.775869 6.400000 -82.794810
v 33.535860 6.400000 -78.223074
v 36.060686 6.400000 -73.341011
v 38.317247 6.400000 -68.195639
v 40.271993 6.400000 -62.836511
v 41.891697 6.400000 -57.315239
v 43.144330 6.400000 -51.684994
v 44.000000 4.960000 -46.000000
v 44.431926 4.960000 -40.315006
v 44.417408 4.960000 -34.684761
v 43.938757 4.960000 -29.163489
v 42.984152 4.960000 -23.804361
v 41.548385 4.960000 -18.658989
v 39.633465 4.960000 -13.776926
v 37.249051 4.960000 -9.205190
v 34.412698 4.960000 -4.987807
v 31.149896 4.960000 -1.165394
v 27.493893 4.960000 2.225238
v 23.485306 4.960000 5.151433
v 19.171523 4.960000 7.585013
v 14.605908 4.960000 9.502539
v 9.846829 4.960000 10.885546
v 4.956552 4.960000 11.720714
v 0.000000 4.960000 12.000000
v -4.956552 4.960000 11.720714
v -9.846829 4.960000 10.885546
v -14.605908 4.960000 9.502539
v -19.171523 4.960000 7.585013
v -23.485306 4.960000 5.151433
v -27.493893 4.960000 2.225238
v -31.149896 4.960000 -1.165394
v -34.412698 4.960000 -4.987807
v -37.249051 4.960000 -9.205190
v -39.633465 4.960000 -13.776926
v -41.548385 4.960000 -18.658989
v -42.984152 4.960000 -23.804361
v -43.938757 4.960000 -29.163489
v -44.417408 4.960000 -34.684761
v -44.431926 4.960000 -40.315006
v -44.000000 4.960000 -46.000000
v -43.144330 4.960000 -51.684994
v -41.891697 4.960000 -57.315239
v -40.271993 4.960000 -62.836511
v -38.317247 4.960000 -68.195639
v -36.060686 4.960000 -73.341011
v -33.535860 4.960000 -78.223074
v -30.775869 4.960000 -82.794810
v -27.812698 4.960000 -87.012193
v -24.676713 4.960000 -90.834606
v -21.396288 4.960000 -94.225238
v -17.997607 4.960000 -97.151433
v -14.504619 4.960000 -99.585013
v -10.939144 4.960000 -101.502539
v -7.321119 4.960000 -102.885546
v -3.668956 4.960000 -103.720714
v -0.000000 4.960000 -104.000000
v 3.668956 4.960000 -103.720714
v 7.321119 4.960000 -102.885546
v 10.939144 4.960000 -101.502539
v 14.504619 4.960000 -99.585013
v 17.997607 4.960000 -97.151433
v 21.396288 4.960000 -94.225238
v 24.676713 4.960000 -90.834606
v 27.812698 4.960000 -87.012193
v 30.775869 4.960000 -82.794810
v 33.535860 4.960000 -78.223074
v 36.060686 4.960000 -73.341011
v 38.317247 4.960000 -68.195639
v 40.271993 4.960000 -62.836511
v 41.891697 4.960000 -57.315239
v 43.144330 4.960000 -51.684994
v 36.520000 2.800000 -46.000000
v 36.878499 2.800000 -41.281455
v 36.866448 2.800000 -36.608352
v 36.469168 2.800000 -32.025696
v 35.676846 2.800000 -27.577620
v 34.485160 2.800000 -23.306961
v 32.895776 2.800000 -19.254849
v 30.916713 2.800000 -15.460307
v 28.562540 2.800000 -11.959880
v 25.854414 2.800000 -8.787277
v 22.819931 2.800000 -5.973053
v 19.492804 2.800000 -3.544310
v 15.912364 2.800000 -1.524439
v 12.122903 2.800000 0.067108
v 8.172868 2.800000 1.215003
v 4.113938 2.800000 1.908193
v 0.000000 2.800000 2.140000
v -4.113938 2.800000 1.908193
v -8.172868 2.800000 1.215003
v -12.122903 2.800000 0.067108
v -15.912364 2.800000 -1.524439
v -19.492804 2.800000 -3.544310
v -22.819931 2.800000 -5.973053
v -25.854414 2.800000 -8.787277
v -28.562540 2.800000 -11.959880
v -30.916713 2.800000 -15.460307
v -32.895776 2.800000 -19.254849
v -34.485160 2.800000 -23.306961
v -35.676846 2.800000 -27.577620
v -36.469168 2.800000 -32.025696
v -36.866448 2.800000 -36.608352
v -36.878499 2.800000 -41.281455
v -36.520000 2.800000 -46.000000
v -35.809794 2.800000 -50.718545
v -34.770109 2.800000 -55.391648
v -33.425754 2.800000 -59.974304
v -31.803315 2.800000 -64.422380
v -29.930369 2.800000 -68.693039
v -27.834764 2.800000 -72.745151
v -25.543971 2.800000 -76.539693
v -23.084540 2.800000 -80.040120
v -20.481672 2.800000 -83.212723
v -17.758919 2.800000 -86.026947
v -14.938014 2.800000 -88.455690
v -12.038833 2.800000 -90.475561
v -9.079490 2.800000 -92.067108
v -6.076529 2.800000 -93.215003
v -3.045234 2.800000 -93.908193
v -0.000000 2.800000 -94.140000
v 3.045234 2.800000 -93.908193
v 6.076529 2.800000 -93.215003
v 9.079490 2.800000 -92.067108
v 12.038833 2.800000 -90.475561
v 14.938014 2.800000 -88.455690
v 17.758919 2.800000 -86.026947
v 20.481672 2.800000 -83.212723
v 23.084540 2.800000 -80.040120
v 25.543971 2.800000 -76.539693
v 27.834764 2.800000 -72.745151
v 29.930369 2.800000 -68.693039
v 31.803315 2.800000 -64.422380
v 33.425754 2.800000 -59.974304
v 34.770109 2.800000 -55.391648
v 35.809794 2.800000 -50.718545
v 12.320000 0.880000 -46.000000
v 12.440939 0.880000 -44.408202
v 12.436874 0.880000 -42.831733
v 12.302852 0.880000 -41.285777
v 12.035563 0.880000 -39.785221
v 11.633548 0.880000 -38.344517
v 11.097370 0.880000 -36.977539
v 10.429734 0.880000 -35.697453
v 9.635556 0.880000 -34.516586
v 8.721971 0.880000 -33.446310
v 7.698290 0.880000 -32.496933
v 6.575886 0.880000 -31.677599
v 5.368027 0.880000 -30.996196
v 4.089654 0.880000 -30.459289
v 2.757112 0.880000 -30.072047
v 1.387835 0.880000 -29.838200
v 0.000000 0.880000 -29.760000
v -1.387835 0.880000 -29.838200
v -2.757112 0.880000 -30.072047
v -4.089654 0.880000 -30.459289
v -5.368027 0.880000 -30.996196
v -6.575886 0.880000 -31.677599
v -7.698290 0.880000 -32.496933
v -8.721971 0.880000 -33.446310
v -9.635556 0.880000 -34.516586
v -10.429734 0.880000 -35.697453
v -11.097370 0.880000 -36.977539
v -11.633548 0.880000 -38.344517
v -12.035563 0.880000 -39.785221
v -12.302852 0.880000 -41.285777
v -12.436874 0.880000 -42.831733
v -12.440939 0.880000 -44.408202
v -12.320000 0.880000 -46.000000
v -12.080412 0.880000 -47.591798
v -11.729675 0.880000 -49.168267
v -11.276158 0.880000 -50.714223
v -10.728829 0.880000 -52.214779
v -10.096992 0.880000 -53.655483
v -9.390041 0.880000 -55.022461
v -8.617243 0.880000 -56.302547
v -7.787556 0.880000 -57.483414
v -6.909480 0.880000 -58.553690
v -5.990961 0.880000 -59.503067
v -5.039330 0.880000 -60.322401
v -4.061293 0.880000 -61.003804
v -3.062960 0.880000 -61.540711
v -2.049913 0.880000 -61.927953
v -1.027308 0.880000 -62.161800
v -0.000000 0.880000 -62.240000
v 1.027308 0.880000 -62.161800
v 2.049913 0.880000 -61.927953
v 3.062960 0.880000 -61.540711
v 4.061293 0.880000 -61.003804
v 5.039330 0.880000 -60.322401
v 5.990961 0.880000 -59.503067
v 6.909480 0.880000 -58.553690
v 7.787556 0.880000 -57.483414
v 8.617243 0.880000 -56.302547
v 9.390041 0.880000 -55.022461
v 10.096992 0.880000 -53.655483
v 10.728829 0.880000 -52.214779
v 11.276158 0.880000 -50.714223
v 11.729675 0.880000 -49.168267
v 12.080412 0.880000 -47.591798
v 5.280000 0.720000 -46.000000
v 5.331831 0.720000 -45.317801
v 5.330089 0.720000 -44.642171
v 5.272651 0.720000 -43.979619
v 5.158098 0.720000 -43.336523
v 4.985806 0.720000 -42.719079
v 4.756016 0.720000 -42.133231
v 4.469886 0.720000 -41.584623
v 4.129524 0.720000 -41.078537
v 3.737988 0.720000 -40.619847
v 3.299267 0.720000 -40.212971
v 2.818237 0.720000 -39.861828
v 2.300583 0.720000 -39.569798
v 1.752709 0.720000 -39.339695
v 1.181620 0.720000 -39.173734
v 0.594786 0.720000 -39.073514
v 0.000000 0.720000 -39.040000
v -0.594786 0.720000 -39.073514
v -1.181620 0.720000 -39.173734
v -1.752709 0.720000 -39.339695
v -2.300583 0.720000 -39.569798
v -2.818237 0.720000 -39.861828
v -3.299267 0.720000 -40.212971
v -3.737988 0.720000 -40.619847
v -4.129524 0.720000 -41.078537
v -4.469886 0.720000 -41.584623
v -4.756016 0.720000 -42.133231
v -4.985806 0.720000 -42.719079
v -5.158098 0.720000 -43.336523
v -5.272651 0.720000 -43.979619
v -5.330089 0.720000 -44.642171
v -5.331831 0.720000 -45.317801
v -5.280000 0.720000 -46.000000
v -5.177320 0.720000 -46.682199
v -5.027004 0.720000 -47.357829
v -4.832639 0.720000 -48.020381
v -4.598070 0.720000 -48.663477
v -4.327282 0.720000 -49.280921
v -4.024303 0.720000 -49.866769
v -3.693104 0.720000 -50.415377
v -3.337524 0.720000 -50.921463
v -2.961206 0.720000 -51.380153
v -2.567555 0.720000 -51.787029
v -2.159713 0.720000 -52.138172
v -1.740554 0.720000 -52.430202
v -1.312697 0.720000 -52.660305
v -0.878534 0.720000 -52.826266
v -0.440275 0.720000 -52.926486
v -0.000000 0.720000 -52.960000
v 0.440275 0.720000 -52.926486
v 0.878534 0.720000 -52.826266
v 1.312697 0.720000 -52.660305
v 1.740554 0.720000 -52.430202
v 2.159713 0.720000 -52.138172
v 2.567555 0.720000 -51.787029
v 2.961206 0.720000 -51.380153
v 3.337524 0.720000 -50.921463
v 3.693104 0.720000 -50.415377
v 4.024303 0.720000 -49.866769
v 4.327282 0.720000 -49.280921
v 4.598070 0.720000 -48.663477
v 4.832639 0.720000 -48.020381
v 5.027004 0.720000 -47.357829
v 5.177320 0.720000 -46.682199
v 20.680000 10.829455 -46.000000
v 20.883005 10.829455 -43.328053
v 20.876182 10.829455 -40.681838
v 20.651216 10.829455 -38.086840
v 20.202551 10.829455 -35.568050
v 19.527741 10.829455 -33.149725
v 18.627729 10.829455 -30.855155
v 17.507054 10.829455 -28.706439
v 16.173968 10.829455 -26.724269
v 14.640451 10.829455 -24.927735
v 12.922130 10.829455 -23.334138
v 11.038094 10.829455 -21.958826
v 9.010616 10.829455 -20.815044
v 6.864777 10.829455 -19.913806
v 4.628010 10.829455 -19.263793
v 2.329580 10.829455 -18.871264
v 0.000000 10.829455 -18.740000
v -2.329580 10.829455 -18.871264
v -4.628010 10.829455 -19.263793
v -6.864777 10.829455 -19.913806
v -9.010616 10.829455 -20.815044
v -11.038094 10.829455 -21.958826
v -12.922130 10.829455 -23.334138
v -14.640451 10.829455 -24.927735
v -16.173968 10.829455 -26.724269
v -17.507054 10.829455 -28.706439
v -18.627729 10.829455 -30.855155
v -19.527741 10.829455 -33.149725
v -20.202551 10.829455 -35.568050
v -20.651216 10.829455 -38.086840
v -20.876182 10.829455 -40.681838
v -20.883005 10.829455 -43.328053
v -20.680000 10.829455 -46.000000
v -20.277835 10.829455 -48.671947
v -19.689098 10.829455 -51.318162
v -18.927837 10.829455 -53.913160
v -18.009106 10.829455 -56.431950
v -16.948522 10.829455 -58.850275
v -15.761854 10.829455 -61.144845
v -14.464658 10.829455 -63.293561
v -13.071968 10.829455 -65.275731
v -11.598055 10.829455 -67.072265
v -10.056255 10.829455 -68.665862
v -8.458875 10.829455 -70.041174
v -6.817171 10.829455 -71.184956
v -5.141398 10.829455 -72.086194
v -3.440926 10.829455 -72.736207
v -1.724409 10.829455 -73.128736
v -0.000000 10.829455 -73.260000
v 1.724409 10.829455 -73.128736
v 3.440926 10.829455 -72.736207
v 5.141398 10.829455 -72.086194
v 6.817171 10.829455 -71.184956
v 8.458875 10.829455 -70.041174
v 10.056255 10.829455 -68.665862
v 11.598055 10.829455 -67.072265
v 13.071968 10.829455 -65.275731
v 14.464658 10.829455 -63.293561
v 15.761854 10.829455 -61.144845
v 16.948522 10.829455 -58.850275
v 18.009106 10.829455 -56.431950
v 18.927837 10.829455 -53.913160
v 19.689098 10.829455 -51.318162
v 20.277835 10.829455 -48.671947
v 26.400000 10.002182 -46.000000
v 26.659156 10.002182 -42.589004
v 26.650445 10.002182 -39.210857
v 26.363254 10.002182 -35.898093
v 25.790491 10.002182 -32.682617
v 24.929031 10.002182 -29.595394
v 23.780079 10.002182 -26.666156
v 22.349431 10.002182 -23.923114
v 20.647619 10.002182 -21.392684
v 18.689938 10.002182 -19.099236
v 16.496336 10.002182 -17.064857
v 14.091184 10.002182 -15.309140
v 11.502914 10.002182 -13.848992
v 8.763545 10.002182 -12.698476
v 5.908098 10.002182 -11.868672
v 2.973931 10.002182 -11.367572
v 0.000000 10.002182 -11.200000
v -2.973931 10.002182 -11.367572
v -5.908098 10.002182 -11.868672
v -8.763545 10.002182 -12.698476
v -11.502914 10.002182 -13.848992
v -14.091184 10.002182 -15.309140
v -16.496336 10.002182 -17.064857
v -18.689938 10.002182 -19.099236
v -20.647619 10.002182 -21.392684
v -22.349431 10.002182 -23.923114
v -23.780079 10.002182 -26.666156
v -24.929031 10.002182 -29.595394
v -25.790491 10.002182 -32.682617
v -26.363254 10.002182 -35.898093
v -26.650445 10.002182 -39.210857
v -26.659156 10.002182 -42.589004
v -26.400000 10.002182 -46.000000
v -25.886598 10.002182 -49.410996
v -25.135018 10.002182 -52.789143
v -24.163196 10.002182 -56.101907
v -22.990348 10.002182 -59.317383
v -21.636412 10.002182 -62.404606
v -20.121516 10.002182 -65.333844
v -18.465521 10.002182 -68.076886
v -16.687619 10.002182 -70.607316
v -14.806028 10.002182 -72.900764
v -12.837773 10.002182 -74.935143
v -10.798564 10.002182 -76.690860
v -8.702771 10.002182 -78.151008
v -6.563486 10.002182 -79.301524
v -4.392671 10.002182 -80.131328
v -2.201374 10.002182 -80.632428
v -0.000000 10.002182 -80.800000
v 2.201374 10.002182 -80.632428
v 4.392671 10.002182 -80.131328
v 6.563486 10.002182 -79.301524
v 8.702771 10.002182 -78.151008
v 10.798564 10.002182 -76.690860
v 12.837773 10.002182 -74.935143
v 14.806028 10.002182 -72.900764
v 16.687619 10.002182 -70.607316
v 18.465521 10.002182 -68.076886
v 20.121516 10.002182 -65.333844
v 21.636412 10.002182 -62.404606
v 22.990348 10.002182 -59.317383
v 24.163196 10.002182 -56.101907
v 25.135018 10.002182 -52.789143
v 25.886598 10.002182 -49.410996
v 38.720000 8.024000 -46.000000
v 39.100095 8.024000 -40.997205
v 39.087319 8.024000 -36.042590
v 38.666106 8.024000 -31.183870
v 37.826054 8.024000 -26.467838
v 36.562579 8.024000 -21.939911
v 34.877450 8.024000 -17.643695
v 32.779165 8.024000 -13.620567
v 30.283175 8.024000 -9.909270
v 27.411908 8.024000 -6.545546
v 24.194626 8.024000 -3.561791
v 20.667069 8.024000 -0.986739
v 16.870941 8.024000 1.154811
v 12.853199 8.024000 2.842235
v 8.665210 8.024000 4.059281
v 4.361766 8.024000 4.794228
v 0.000000 8.024000 5.040000
v -4.361766 8.024000 4.794228
v -8.665210 8.024000 4.059281
v -12.853199 8.024000 2.842235
v -16.870941 8.024000 1.154811
v -20.667069 8.024000 -0.986739
v -24.194626 8.024000 -3.561791
v -27.411908 8.024000 -6.545546
v -30.283175 8.024000 -9.909270
v -32.779165 8.024000 -13.620567
v -34.877450 8.024000 -17.643695
v -36.562579 8.024000 -21.939911
v -37.826054 8.024000 -26.467838
v -38.666106 8.024000 -31.183870
v -39.087319 8.024000 -36.042590
v -39.100095 8.024000 -40.997205
v -38.720000 8.024000 -46.000000
v -37.967010 8.024000 -51.002795
v -36.864693 8.024000 -55.957410
v -35.439354 8.024000 -60.816130
v -33.719177 8.024000 -65.532162
v -31.733404 8.024000 -70.060089
v -29.511557 8.024000 -74.356305
v -27.082764 8.024000 -78.379433
v -24.475175 8.024000 -82.090730
v -21.715508 8.024000 -85.454454
v -18.828733 8.024000 -88.438209
v -15.837894 8.024000 -91.013261
v -12.764064 8.024000 -93.154811
v -9.626447 8.024000 -94.842235
v -6.442585 8.024000 -96.059281
v -3.228681 8.024000 -96.794228
v -0.000000 8.024000 -97.040000
v 3.228681 8.024000 -96.794228
v 6.442585 8.024000 -96.059281
v 9.626447 8.024000 -94.842235
v 12.764064 8.024000 -93.154811
v 15.837894 8.024000 -91.013261
v 18.828733 8.024000 -88.438209
v 21.715508 8.024000 -85.454454
v 24.475175 8.024000 -82.090730
v 27.082764 8.024000 -78.379433
v 29.511557 8.024000 -74.356305
v 31.733404 8.024000 -70.060089
v 33.719177 8.024000 -65.532162
v 35.439354 8.024000 -60.816130
v 36.864693 8.024000 -55.957410
v 37.967010 8.024000 -51.002795
v 40.705026 7.640000 -46.698938
v 40.864081 7.640000 -45.301062
v 41.158736 7.640000 -41.426028
v 41.210792 7.640000 -40.034883
v 41.201130 7.640000 -36.197168
v 41.141192 7.640000 -34.826152
v 40.815147 7.640000 -31.062715
v 40.639562 7.640000 -29.725031
v 39.989069 7.640000 -26.072116
v 39.695718 7.640000 -24.780646
v 38.717219 7.640000 -21.273433
v 38.305689 7.640000 -20.040616
v 37.000547 7.640000 -16.712881
v 36.472256 7.640000 -15.550589
v 34.847051 7.640000 -12.434379
v 34.205334 7.640000 -11.353806
v 32.272029 7.640000 -8.479133
v 31.522172 7.640000 -7.490685
v 29.298141 7.640000 -4.885234
v 28.447365 7.640000 -3.998430
v 25.955272 7.640000 -1.687292
v 25.012665 7.640000 -0.910673
v 22.280198 7.640000 1.083895
v 21.256591 7.640000 1.742849
v 18.316054 7.640000 3.401637
v 17.223850 7.640000 3.936582
v 14.111624 7.640000 5.243615
v 12.964579 7.640000 5.649398
v 9.720458 7.640000 6.592089
v 8.533428 7.640000 6.864802
v -8.533428 7.640000 6.864802
v -9.720458 7.640000 6.592089
v -12.964579 7.640000 5.649398
v -14.111624 7.640000 5.243615
v -17.223850 7.640000 3.936582
v -18.316054 7.640000 3.401637
v -21.256591 7.640000 1.742849
v -22.280198 7.640000 1.083895
v -25.012665 7.640000 -0.910673
v -25.955272 7.640000 -1.687292
v -28.447365 7.640000 -3.998430
v -29.298141 7.640000 -4.885234
v -31.522172 7.640000 -7.490685
v -32.272029 7.640000 -8.479133
v -34.205334 7.640000 -11.353806
v -34.847051 7.640000 -12.434379
v -36.472256 7.640000 -15.550589
v -37.000547 7.640000 -16.712881
v -38.305689 7.640000 -20.040616
v -38.717219 7.640000 -21.273433
v -39.695718 7.640000 -24.780646
v -39.989069 7.640000 -26.072116
v -40.639562 7.640000 -29.725031
v -40.815147 7.640000 -31.062715
v -41.141192 7.640000 -34.826152
v -41.201130 7.640000 -36.197168
v -41.210792 7.640000 -40.034883
v -41.158736 7.640000 -41.426028
v -40.864081 7.640000 -45.301062
v -40.705026 7.640000 -46.698938
v -40.121537 7.640000 -50.573972
v -39.861595 7.640000 -51.965117
v -39.007535 7.640000 -55.802832
v -38.653702 7.640000 -57.173848
v -37.549456 7.640000 -60.937285
v -37.109372 7.640000 -62.274969
v -35.776779 7.640000 -65.927884
v -35.258491 7.640000 -67.219354
v -33.720207 7.640000 -70.726567
v -33.131944 7.640000 -71.959384
v -31.410846 7.640000 -75.287119
v -30.760819 7.640000 -76.449411
v -28.879469 7.640000 -79.565621
v -28.175691 7.640000 -80.646194
v -26.155897 7.640000 -83.520867
v -25.406040 7.640000 -84.509315
v -23.268498 7.640000 -87.114766
v -22.479783 7.640000 -88.001570
v -20.243835 7.640000 -90.312708
v -19.422964 7.640000 -91.089327
v -17.106453 7.640000 -93.083895
v -16.259579 7.640000 -93.742849
v -13.878827 7.640000 -95.401637
v -13.011560 7.640000 -95.936582
v -10.581433 7.640000 -97.243615
v -9.698888 7.640000 -97.649398
v -7.232967 7.640000 -98.592089
v -6.339834 7.640000 -98.864802
v 6.339834 7.640000 -98.864802
v 7.232967 7.640000 -98.592089
v 9.698888 7.640000 -97.649398
v 10.581433 7.640000 -97.243615
v 13.011560 7.640000 -95.936582
v 13.878827 7.640000 -95.401637
v 16.259579 7.640000 -93.742849
v 17.106453 7.640000 -93.083895
v 19.422964 7.640000 -91.089327
v 20.243835 7.640000 -90.312708
v 22.479783 7.640000 -88.001570
v 23.268498 7.640000 -87.114766
v 25.406040 7.640000 -84.509315
v 26.155897 7.640000 -83.520867
v 28.175691 7.640000 -80.646194
v 28.879469 7.640000 -79.565621
v 30.760819 7.640000 -76.449411
v 31.410846 7.640000 -75.287119
v 33.131944 7.640000 -71.959384
v 33.720207 7.640000 -70.726567
v 35.258491 7.640000 -67.219354
v 35.776779 7.640000 -65.927884
v 37.109372 7.640000 -62.274969
v 37.549456 7.640000 -60.937285
v 38.653702 7.640000 -57.173848
v 39.007535 7.640000 -55.802832
v 39.861595 7.640000 -51.965117
v 40.121537 7.640000 -50.573972
v 9.000000 -2.000000 -35.000000
v 8.559509 0.163119 -35.000000
v 7.281153 2.114497 -35.000000
v 5.290067 3.663119 -35.000000
v 2.781153 4.657396 -35.000000
v 0.000000 5.000000 -35.000000
v -2.781153 4.657396 -35.000000
v -5.290067 3.663119 -35.000000
v -7.281153 2.114497 -35.000000
v -8.559509 0.163119 -35.000000
v -9.000000 -2.000000 -35.000000
v -8.559509 -4.163119 -35.000000
v -7.281153 -6.114497 -35.000000
v -5.290067 -7.663119 -35.000000
v -2.781153 -8.657396 -35.000000
v -0.000000 -9.000000 -35.000000
v 2.781153 -8.657396 -35.000000
v 5.290067 -7.663119 -35.000000
v 7.281153 -6.114497 -35.000000
v 8.559509 -4.163119 -35.000000
v 19.000000 -6.000000 -11.000000
v 18.070074 -2.600813 -11.000000
v 15.371323 0.465638 -11.000000
v 11.167920 2.899187 -11.000000
v 5.871323 4.461622 -11.000000
v 0.000000 5.000000 -11.000000
v -5.871323 4.461622 -11.000000
v -11.167920 2.899187 -11.000000
v -15.371323 0.465638 -11.000000
v -18.070074 -2.600813 -11.000000
v -19.000000 -6.000000 -11.000000
v -18.070074 -9.399187 -11.000000
v -15.371323 -12.465638 -11.000000
v -11.167920 -14.899187 -11.000000
v -5.871323 -16.461622 -11.000000
v -0.000000 -17.000000 -11.000000
v 5.871323 -16.461622 -11.000000
v 11.167920 -14.899187 -11.000000
v 15.371323 -12.465638 -11.000000
v 18.070074 -9.399187 -11.000000
v 23.000000 -5.000000 22.000000
v 21.874300 -1.291796 22.000000
v 18.607391 2.053423 22.000000
v 13.519061 4.708204 22.000000
v 7.107391 6.412678 22.000000
v 0.000000 7.000000 22.000000
v -7.107391 6.412678 22.000000
v -13.519061 4.708204 22.000000
v -18.607391 2.053423 22.000000
v -21.874300 -1.291796 22.000000
v -23.000000 -5.000000 22.000000
v -21.874300 -8.708204 22.000000
v -18.607391 -12.053423 22.000000
v -13.519061 -14.708204 22.000000
v -7.107391 -16.412678 22.000000
v -0.000000 -17.000000 22.000000
v 7.107391 -16.412678 22.000000
v 13.519061 -14.708204 22.000000
v 18.607391 -12.053423 22.000000
v 21.874300 -8.708204 22.000000
v 17.000000 -3.000000 55.000000
v 16.167961 -0.218847 55.000000
v 13.753289 2.290067 55.000000
v 9.992349 4.281153 55.000000
v 5.253289 5.559509 55.000000
v 0.000000 6.000000 55.000000
v -5.253289 5.559509 55.000000
v -9.992349 4.281153 55.000000
v -13.753289 2.290067 55.000000
v -16.167961 -0.218847 55.000000
v -17.000000 -3.000000 55.000000
v -16.167961 -5.781153 55.000000
v -13.753289 -8.290067 55.000000
v -9.992349 -10.281153 55.000000
v -5.253289 -11.559509 55.000000
v -0.000000 -12.000000 55.000000
v 5.253289 -11.559509 55.000000
v 9.992349 -10.281153 55.000000
v 13.753289 -8.290067 55.000000
v 16.167961 -5.781153 55.000000
v 9.000000 -1.000000 81.000000
v 8.559509 0.545085 81.000000
v 7.281153 1.938926 81.000000
v 5.290067 3.045085 81.000000
v 2.781153 3.755283 81.000000
v 0.000000 4.000000 81.000000
v -2.781153 3.755283 81.000000
v -5.290067 3.045085 81.000000
v -7.281153 1.938926 81.000000
v -8.559509 0.545085 81.000000
v -9.000000 -1.000000 81.000000
v -8.559509 -2.545085 81.000000
v -7.281153 -3.938926 81.000000
v -5.290067 -5.045085 81.000000
v -2.781153 -5.755283 81.000000
v -0.000000 -6.000000 81.000000
v 2.781153 -5.755283 81.000000
v 5.290067 -5.045085 81.000000
v 7.281153 -3.938926 81.000000
v 8.559509 -2.545085 81.000000
v 3.000000 0.000000 90.000000
v 2.853170 0.618034 90.000000
v 2.427051 1.175571 90.000000
v 1.763356 1.618034 90.000000
v 0.927051 1.902113 90.000000
v 0.000000 2.000000 90.000000
v -0.927051 1.902113 90.000000
v -1.763356 1.618034 90.000000
v -2.427051 1.175571 90.000000
v -2.853170 0.618034 90.000000
v -3.000000 0.000000 90.000000
v -2.853170 -0.618034 90.000000
v -2.427051 -1.175571 90.000000
v -1.763356 -1.618034 90.000000
v -0.927051 -1.902113 90.000000
v -0.000000 -2.000000 90.000000
v 0.927051 -1.902113 90.000000
v 1.763356 -1.618034 90.000000
v 2.427051 -1.175571 90.000000
v 2.853170 -0.618034 90.000000
v 3.000000 11.000000 -61.000000
v 2.598076 12.000000 -61.000000
v 1.500000 12.732051 -61.000000
v 0.000000 13.000000 -61.000000
v -1.500000 12.732051 -61.000000
v -2.598076 12.000000 -61.000000
v -3.000000 11.000000 -61.000000
v -2.598076 10.000000 -61.000000
v -1.500000 9.267949 -61.000000
v -0.000000 9.000000 -61.000000
v 1.500000 9.267949 -61.000000
v 2.598076 10.000000 -61.000000
v 9.000000 12.000000 -40.000000
v 7.794229 13.500000 -40.000000
v 4.500000 14.598076 -40.000000
v 0.000000 15.000000 -40.000000
v -4.500000 14.598076 -40.000000
v -7.794229 13.500000 -40.000000
v -9.000000 12.000000 -40.000000
v -7.794229 10.500000 -40.000000
v -4.500000 9.401924 -40.000000
v -0.000000 9.000000 -40.000000
v 4.500000 9.401924 -40.000000
v 7.794229 10.500000 -40.000000
v 11.000000 8.000000 -12.000000
v 9.526279 10.000000 -12.000000
v 5.500000 11.464102 -12.000000
v 0.000000 12.000000 -12.000000
v -5.500000 11.464102 -12.000000
v -9.526279 10.000000 -12.000000
v -11.000000 8.000000 -12.000000
v -9.526279 6.000000 -12.000000
v -5.500000 4.535898 -12.000000
v -0.000000 4.000000 -12.000000
v 5.500000 4.535898 -12.000000
v 9.526279 6.000000 -12.000000
v 9.000000 5.000000 22.000000
v 7.794229 7.000000 22.000000
v 4.500000 8.464102 22.000000
v 0.000000 9.000000 22.000000
v -4.500000 8.464102 22.000000
v -7.794229 7.000000 22.000000
v -9.000000 5.000000 22.000000
v -7.794229 3.000000 22.000000
v -4.500000 1.535898 22.000000
v -0.000000 1.000000 22.000000
v 4.500000 1.535898 22.000000
v 7.794229 3.000000 22.000000
v 3.000000 4.000000 60.000000
v 2.598076 5.000000 60.000000
v 1.500000 5.732051 60.000000
v 0.000000 6.000000 60.000000
v -1.500000 5.732051 60.000000
v -2.598076 5.000000 60.000000
v -3.000000 4.000000 60.000000
v -2.598076 3.000000 60.000000
v -1.500000 2.267949 60.000000
v -0.000000 2.000000 60.000000
v 1.500000 2.267949 60.000000
v 2.598076 3.000000 60.000000
v 0.633600 13.961600 -36.000000
v 0.612011 13.961600 -35.801227
v 0.548714 13.961600 -35.616000
v 0.448023 13.961600 -35.456942
v 0.316800 13.961600 -35.334892
v 0.163988 13.961600 -35.258169
v 0.000000 13.961600 -35.232000
v -0.163988 13.961600 -35.258169
v -0.316800 13.961600 -35.334892
v -0.448023 13.961600 -35.456942
v -0.548714 13.961600 -35.616000
v -0.612011 13.961600 -35.801227
v -0.633600 13.961600 -36.000000
v -0.612011 13.961600 -36.198773
v -0.548714 13.961600 -36.384000
v -0.448023 13.961600 -36.543058
v -0.316800 13.961600 -36.665108
v -0.163988 13.961600 -36.741831
v -0.000000 13.961600 -36.768000
v 0.163988 13.961600 -36.741831
v 0.316800 13.961600 -36.665108
v 0.448023 13.961600 -36.543058
v 0.548714 13.961600 -36.384000
v 0.612011 13.961600 -36.198773
v 1.689600 13.673600 -36.000000
v 1.632028 13.673600 -35.469939
v 1.463237 13.673600 -34.976000
v 1.194728 13.673600 -34.551845
v 0.844800 13.673600 -34.226380
v 0.437301 13.673600 -34.021784
v 0.000000 13.673600 -33.952000
v -0.437301 13.673600 -34.021784
v -0.844800 13.673600 -34.226380
v -1.194728 13.673600 -34.551845
v -1.463237 13.673600 -34.976000
v -1.632028 13.673600 -35.469939
v -1.689600 13.673600 -36.000000
v -1.632028 13.673600 -36.530061
v -1.463237 13.673600 -37.024000
v -1.194728 13.673600 -37.448155
v -0.844800 13.673600 -37.773620
v -0.437301 13.673600 -37.978216
v -0.000000 13.673600 -38.048000
v 0.437301 13.673600 -37.978216
v 0.844800 13.673600 -37.773620
v 1.194728 13.673600 -37.448155
v 1.463237 13.673600 -37.024000
v 1.632028 13.673600 -36.530061
v 4.012800 12.665600 -36.000000
v 3.876067 12.665600 -34.741104
v 3.475187 12.665600 -33.568000
v 2.837478 12.665600 -32.560633
v 2.006400 12.665600 -31.787652
v 1.038589 12.665600 -31.301737
v 0.000000 12.665600 -31.136000
v -1.038589 12.665600 -31.301737
v -2.006400 12.665600 -31.787652
v -2.837478 12.665600 -32.560633
v -3.475187 12.665600 -33.568000
v -3.876067 12.665600 -34.741104
v -4.012800 12.665600 -36.000000
v -3.876067 12.665600 -37.258896
v -3.475187 12.665600 -38.432000
v -2.837478 12.665600 -39.439367
v -2.006400 12.665600 -40.212348
v -1.038589 12.665600 -40.698263
v -0.000000 12.665600 -40.864000
v 1.038589 12.665600 -40.698263
v 2.006400 12.665600 -40.212348
v 2.837478 12.665600 -39.439367
v 3.475187 12.665600 -38.432000
v 3.876067 12.665600 -37.258896
v 5.068800 12.089600 -36.000000
v 4.896085 12.089600 -34.409816
v 4.389710 12.089600 -32.928000
v 3.584183 12.089600 -31.655536
v 2.534400 12.089600 -30.679140
v 1.311902 12.089600 -30.065352
v 0.000000 12.089600 -29.856000
v -1.311902 12.089600 -30.065352
v -2.534400 12.089600 -30.679140
v -3.584183 12.089600 -31.655536
v -4.389710 12.089600 -32.928000
v -4.896085 12.089600 -34.409816
v -5.068800 12.089600 -36.000000
v -4.896085 12.089600 -37.590184
v -4.389710 12.089600 -39.072000
v -3.584183 12.089600 -40.344464
v -2.534400 12.089600 -41.320860
v -1.311902 12.089600 -41.934648
v -0.000000 12.089600 -42.144000
v 1.311902 12.089600 -41.934648
v 2.534400 12.089600 -41.320860
v 3.584183 12.089600 -40.344464
v 4.389710 12.089600 -39.072000
v 4.896085 12.089600 -37.590184
v 5.280000 11.744000 -36.000000
v 5.100088 11.744000 -34.343558
v 4.572614 11.744000 -32.800000
v 3.733524 11.744000 -31.474517
v 2.640000 11.744000 -30.457437
v 1.366565 11.744000 -29.818075
v 0.000000 11.744000 -29.600000
v -1.366565 11.744000 -29.818075
v -2.640000 11.744000 -30.457437
v -3.733524 11.744000 -31.474517
v -4.572614 11.744000 -32.800000
v -5.100088 11.744000 -34.343558
v -5.280000 11.744000 -36.000000
v -5.100088 11.744000 -37.656442
v -4.572614 11.744000 -39.200000
v -3.733524 11.744000 -40.525483
v -2.640000 11.744000 -41.542563
v -1.366565 11.744000 -42.181925
v -0.000000 11.744000 -42.400000
v 1.366565 11.744000 -42.181925
v 2.640000 11.744000 -41.542563
v 3.733524 11.744000 -40.525483
v 4.572614 11.744000 -39.200000
v 5.100088 11.744000 -37.656442
v 5.280000 11.225600 -36.000000
v 5.100088 11.225600 -34.343558
v 4.572614 11.225600 -32.800000
v 3.733524 11.225600 -31.474517
v 2.640000 11.225600 -30.457437
v 1.366565 11.225600 -29.818075
v 0.000000 11.225600 -29.600000
v -1.366565 11.225600 -29.818075
v -2.640000 11.225600 -30.457437
v -3.733524 11.225600 -31.474517
v -4.572614 11.225600 -32.800000
v -5.100088 11.225600 -34.343558
v -5.280000 11.225600 -36.000000
v -5.100088 11.225600 -37.656442
v -4.572614 11.225600 -39.200000
v -3.733524 11.225600 -40.525483
v -2.640000 11.225600 -41.542563
v -1.366565 11.225600 -42.181925
v -0.000000 11.225600 -42.400000
v 1.366565 11.225600 -42.181925
v 2.640000 11.225600 -41.542563
v 3.733524 11.225600 -40.525483
v 4.572614 11.225600 -39.200000
v 5.100088 11.225600 -37.656442
v 4.382400 10.448000 -36.000000
v 4.233073 10.448000 -34.625153
v 3.795270 10.448000 -33.344000
v 3.098825 10.448000 -32.243849
v 2.191200 10.448000 -31.399673
v 1.134249 10.448000 -30.869002
v 0.000000 10.448000 -30.688000
v -1.134249 10.448000 -30.869002
v -2.191200 10.448000 -31.399673
v -3.098825 10.448000 -32.243849
v -3.795270 10.448000 -33.344000
v -4.233073 10.448000 -34.625153
v -4.382400 10.448000 -36.000000
v -4.233073 10.448000 -37.374847
v -3.795270 10.448000 -38.656000
v -3.098825 10.448000 -39.756151
v -2.191200 10.448000 -40.600327
v -1.134249 10.448000 -41.130998
v -0.000000 10.448000 -41.312000
v 1.134249 10.448000 -41.130998
v 2.191200 10.448000 -40.600327
v 3.098825 10.448000 -39.756151
v 3.795270 10.448000 -38.656000
v 4.233073 10.448000 -37.374847
v 1.478400 9.756800 -36.000000
v 1.428025 9.756800 -35.536196
v 1.280332 9.756800 -35.104000
v 1.045387 9.756800 -34.732865
v 0.739200 9.756800 -34.448082
v 0.382638 9.756800 -34.269061
v 0.000000 9.756800 -34.208000
v -0.382638 9.756800 -34.269061
v -0.739200 9.756800 -34.448082
v -1.045387 9.756800 -34.732865
v -1.280332 9.756800 -35.104000
v -1.428025 9.756800 -35.536196
v -1.478400 9.756800 -36.000000
v -1.428025 9.756800 -36.463804
v -1.280332 9.756800 -36.896000
v -1.045387 9.756800 -37.267135
v -0.739200 9.756800 -37.551918
v -0.382638 9.756800 -37.730939
v -0.000000 9.756800 -37.792000
v 0.382638 9.756800 -37.730939
v 0.739200 9.756800 -37.551918
v 1.045387 9.756800 -37.267135
v 1.280332 9.756800 -36.896000
v 1.428025 9.756800 -36.463804
v 0.633600 9.699200 -36.000000
v 0.612011 9.699200 -35.801227
v 0.548714 9.699200 -35.616000
v 0.448023 9.699200 -35.456942
v 0.316800 9.699200 -35.334892
v 0.163988 9.699200 -35.258169
v 0.000000 9.699200 -35.232000
v -0.163988 9.699200 -35.258169
v -0.316800 9.699200 -35.334892
v -0.448023 9.699200 -35.456942
v -0.548714 9.699200 -35.616000
v -0.612011 9.699200 -35.801227
v -0.633600 9.699200 -36.000000
v -0.612011 9.699200 -36.198773
v -0.548714 9.699200 -36.384000
v -0.448023 9.699200 -36.543058
v -0.316800 9.699200 -36.665108
v -0.163988 9.699200 -36.741831
v -0.000000 9.699200 -36.768000
v 0.163988 9.699200 -36.741831
v 0.316800 9.699200 -36.665108
v 0.448023 9.699200 -36.543058
v 0.548714 9.699200 -36.384000
v 0.612011 9.699200 -36.198773
v 0.384000 14.992000 -36.320000
v 0.370916 14.992000 -36.210675
v 0.332554 14.992000 -36.108800
v 0.271529 14.992000 -36.021318
v 0.192000 14.992000 -35.954191
v 0.099387 14.992000 -35.911993
v 0.000000 14.992000 -35.897600
v -0.099387 14.992000 -35.911993
v -0.192000 14.992000 -35.954191
v -0.271529 14.992000 -36.021318
v -0.332554 14.992000 -36.108800
v -0.370916 14.992000 -36.210675
v -0.384000 14.992000 -36.320000
v -0.370916 14.992000 -36.429325
v -0.332554 14.992000 -36.531200
v -0.271529 14.992000 -36.618682
v -0.192000 14.992000 -36.685809
v -0.099387 14.992000 -36.728007
v -0.000000 14.992000 -36.742400
v 0.099387 14.992000 -36.728007
v 0.192000 14.992000 -36.685809
v 0.271529 14.992000 -36.618682
v 0.332554 14.992000 -36.531200
v 0.370916 14.992000 -36.429325
v 1.024000 14.832000 -36.320000
v 0.989108 14.832000 -36.028466
v 0.886810 14.832000 -35.756800
v 0.724077 14.832000 -35.523515
v 0.512000 14.832000 -35.344509
v 0.265031 14.832000 -35.231981
v 0.000000 14.832000 -35.193600
v -0.265031 14.832000 -35.231981
v -0.512000 14.832000 -35.344509
v -0.724077 14.832000 -35.523515
v -0.886810 14.832000 -35.756800
v -0.989108 14.832000 -36.028466
v -1.024000 14.832000 -36.320000
v -0.989108 14.832000 -36.611534
v -0.886810 14.832000 -36.883200
v -0.724077 14.832000 -37.116485
v -0.512000 14.832000 -37.295491
v -0.265031 14.832000 -37.408019
v -0.000000 14.832000 -37.446400
v 0.265031 14.832000 -37.408019
v 0.512000 14.832000 -37.295491
v 0.724077 14.832000 -37.116485
v 0.886810 14.832000 -36.883200
v 0.989108 14.832000 -36.611534
v 2.432000 14.272000 -36.320000
v 2.349132 14.272000 -35.627607
v 2.106174 14.272000 -34.982400
v 1.719684 14.272000 -34.428348
v 1.216000 14.272000 -34.003209
v 0.629448 14.272000 -33.735955
v 0.000000 14.272000 -33.644800
v -0.629448 14.272000 -33.735955
v -1.216000 14.272000 -34.003209
v -1.719684 14.272000 -34.428348
v -2.106174 14.272000 -34.982400
v -2.349132 14.272000 -35.627607
v -2.432000 14.272000 -36.320000
v -2.349132 14.272000 -37.012393
v -2.106174 14.272000 -37.657600
v -1.719684 14.272000 -38.211652
v -1.216000 14.272000 -38.636791
v -0.629448 14.272000 -38.904045
v -0.000000 14.272000 -38.995200
v 0.629448 14.272000 -38.904045
v 1.216000 14.272000 -38.636791
v 1.719684 14.272000 -38.211652
v 2.106174 14.272000 -37.657600
v 2.349132 14.272000 -37.012393
v 3.072000 13.952000 -36.320000
v 2.967324 13.952000 -35.445399
v 2.660430 13.952000 -34.630400
v 2.172232 13.952000 -33.930545
v 1.536000 13.952000 -33.393527
v 0.795092 13.952000 -33.055943
v 0.000000 13.952000 -32.940800
v -0.795092 13.952000 -33.055943
v -1.536000 13.952000 -33.393527
v -2.172232 13.952000 -33.930545
v -2.660430 13.952000 -34.630400
v -2.967324 13.952000 -35.445399
v -3.072000 13.952000 -36.320000
v -2.967324 13.952000 -37.194601
v -2.660430 13.952000 -38.009600
v -2.172232 13.952000 -38.709455
v -1.536000 13.952000 -39.246473
v -0.795092 13.952000 -39.584057
v -0.000000 13.952000 -39.699200
v 0.795092 13.952000 -39.584057
v 1.536000 13.952000 -39.246473
v 2.172232 13.952000 -38.709455
v 2.660430 13.952000 -38.009600
v 2.967324 13.952000 -37.194601
v 3.200000 13.760000 -36.320000
v 3.090963 13.760000 -35.408957
v 2.771281 13.760000 -34.560000
v 2.262742 13.760000 -33.830984
v 1.600000 13.760000 -33.271591
v 0.828221 13.760000 -32.919941
v 0.000000 13.760000 -32.800000
v -0.828221 13.760000 -32.919941
v -1.600000 13.760000 -33.271591
v -2.262742 13.760000 -33.830984
v -2.771281 13.760000 -34.560000
v -3.090963 13.760000 -35.408957
v -3.200000 13.760000 -36.320000
v -3.090963 13.760000 -37.231043
v -2.771281 13.760000 -38.080000
v -2.262742 13.760000 -38.809016
v -1.600000 13.760000 -39.368409
v -0.828221 13.760000 -39.720059
v -0.000000 13.760000 -39.840000
v 0.828221 13.760000 -39.720059
v 1.600000 13.760000 -39.368409
v 2.262742 13.760000 -38.809016
v 2.771281 13.760000 -38.080000
v 3.090963 13.760000 -37.231043
v 3.200000 13.472000 -36.320000
v 3.090963 13.472000 -35.408957
v 2.771281 13.472000 -34.560000
v 2.262742 13.472000 -33.830984
v 1.600000 13.472000 -33.271591
v 0.828221 13.472000 -32.919941
v 0.000000 13.472000 -32.800000
v -0.828221 13.472000 -32.919941
v -1.600000 13.472000 -33.271591
v -2.262742 13.472000 -33.830984
v -2.771281 13.472000 -34.560000
v -3.090963 13.472000 -35.408957
v -3.200000 13.472000 -36.320000
v -3.090963 13.472000 -37.231043
v -2.771281 13.472000 -38.080000
v -2.262742 13.472000 -38.809016
v -1.600000 13.472000 -39.368409
v -0.828221 13.472000 -39.720059
v -0.000000 13.472000 -39.840000
v 0.828221 13.472000 -39.720059
v 1.600000 13.472000 -39.368409
v 2.262742 13.472000 -38.809016
v 2.771281 13.472000 -38.080000
v 3.090963 13.472000 -37.231043
v 2.656000 13.040000 -36.320000
v 2.565499 13.040000 -35.563834
v 2.300163 13.040000 -34.859200
v 1.878076 13.040000 -34.254117
v 1.328000 13.040000 -33.789820
v 0.687423 13.040000 -33.497951
v 0.000000 13.040000 -33.398400
v -0.687423 13.040000 -33.497951
v -1.328000 13.040000 -33.789820
v -1.878076 13.040000 -34.254117
v -2.300163 13.040000 -34.859200
v -2.565499 13.040000 -35.563834
v -2.656000 13.040000 -36.320000
v -2.565499 13.040000 -37.076166
v -2.300163 13.040000 -37.780800
v -1.878076 13.040000 -38.385883
v -1.328000 13.040000 -38.850180
v -0.687423 13.040000 -39.142049
v -0.000000 13.040000 -39.241600
v 0.687423 13.040000 -39.142049
v 1.328000 13.040000 -38.850180
v 1.878076 13.040000 -38.385883
v 2.300163 13.040000 -37.780800
v 2.565499 13.040000 -37.076166
v 0.896000 12.656000 -36.320000
v 0.865470 12.656000 -36.064908
v 0.775959 12.656000 -35.827200
v 0.633568 12.656000 -35.623076
v 0.448000 12.656000 -35.466445
v 0.231902 12.656000 -35.367984
v 0.000000 12.656000 -35.334400
v -0.231902 12.656000 -35.367984
v -0.448000 12.656000 -35.466445
v -0.633568 12.656000 -35.623076
v -0.775959 12.656000 -35.827200
v -0.865470 12.656000 -36.064908
v -0.896000 12.656000 -36.320000
v -0.865470 12.656000 -36.575092
v -0.775959 12.656000 -36.812800
v -0.633568 12.656000 -37.016924
v -0.448000 12.656000 -37.173555
v -0.231902 12.656000 -37.272016
v -0.000000 12.656000 -37.305600
v 0.231902 12.656000 -37.272016
v 0.448000 12.656000 -37.173555
v 0.633568 12.656000 -37.016924
v 0.775959 12.656000 -36.812800
v 0.865470 12.656000 -36.575092
v 0.384000 12.624000 -36.320000
v 0.370916 12.624000 -36.210675
v 0.332554 12.624000 -36.108800
v 0.271529 12.624000 -36.021318
v 0.192000 12.624000 -35.954191
v 0.099387 12.624000 -35.911993
v 0.000000 12.624000 -35.897600
v -0.099387 12.624000 -35.911993
v -0.192000 12.624000 -35.954191
v -0.271529 12.624000 -36.021318
v -0.332554 12.624000 -36.108800
v -0.370916 12.624000 -36.210675
v -0.384000 12.624000 -36.320000
v -0.370916 12.624000 -36.429325
v -0.332554 12.624000 -36.531200
v -0.271529 12.624000 -36.618682
v -0.192000 12.624000 -36.685809
v -0.099387 12.624000 -36.728007
v -0.000000 12.624000 -36.742400
v 0.099387 12.624000 -36.728007
v 0.192000 12.624000 -36.685809
v 0.271529 12.624000 -36.618682
v 0.332554 12.624000 -36.531200
v 0.370916 12.624000 -36.429325
v -12.380044 -3.963560 25.500000
v -11.619956 -0.036440 25.500000
v -11.619956 -0.036440 42.500000
v -12.380044 -3.963560 42.500000
v -43.380044 2.036440 55.500000
v -42.619956 5.963560 55.500000
v -42.619956 5.963560 72.500000
v -43.380044 2.036440 72.500000
v -42.280000 6.000000 32.000000
v -42.334807 6.176341 32.000000
v -42.490883 6.325835 32.000000
v -42.724468 6.425724 32.000000
v -43.000000 6.460800 32.000000
v -43.275532 6.425724 32.000000
v -43.509117 6.325835 32.000000
v -43.665193 6.176341 32.000000
v -43.720000 6.000000 32.000000
v -43.665193 5.823659 32.000000
v -43.509117 5.674165 32.000000
v -43.275532 5.574276 32.000000
v -43.000000 5.539200 32.000000
v -42.724468 5.574276 32.000000
v -42.490883 5.674165 32.000000
v -42.334807 5.823659 32.000000
v -38.800000 6.000000 36.500000
v -39.119706 7.028653 36.500000
v -40.030152 7.900703 36.500000
v -41.392730 8.483388 36.500000
v -43.000000 8.688000 36.500000
v -44.607270 8.483388 36.500000
v -45.969848 7.900703 36.500000
v -46.880294 7.028653 36.500000
v -47.200000 6.000000 36.500000
v -46.880294 4.971347 36.500000
v -45.969848 4.099297 36.500000
v -44.607270 3.516612 36.500000
v -43.000000 3.312000 36.500000
v -41.392730 3.516612 36.500000
v -40.030152 4.099297 36.500000
v -39.119706 4.971347 36.500000
v -37.000000 6.000000 44.000000
v -37.456723 7.469504 44.000000
v -38.757359 8.715290 44.000000
v -40.703899 9.547697 44.000000
v -43.000000 9.840000 44.000000
v -45.296101 9.547697 44.000000
v -47.242641 8.715290 44.000000
v -48.543277 7.469504 44.000000
v -49.000000 6.000000 44.000000
v -48.543277 4.530496 44.000000
v -47.242641 3.284710 44.000000
v -45.296101 2.452303 44.000000
v -43.000000 2.160000 44.000000
v -40.703899 2.452303 44.000000
v -38.757359 3.284710 44.000000
v -37.456723 4.530496 44.000000
v -37.900000 6.000000 86.000000
v -38.288214 7.249079 86.000000
v -39.393755 8.307997 86.000000
v -41.048314 9.015543 86.000000
v -43.000000 9.264000 86.000000
v -44.951686 9.015543 86.000000
v -46.606245 8.307997 86.000000
v -47.711786 7.249079 86.000000
v -48.100000 6.000000 86.000000
v -47.711786 4.750921 86.000000
v -46.606245 3.692003 86.000000
v -44.951686 2.984457 86.000000
v -43.000000 2.736000 86.000000
v -41.048314 2.984457 86.000000
v -39.393755 3.692003 86.000000
v -38.288214 4.750921 86.000000
v -40.000000 6.000000 102.500000
v -40.228361 6.734752 102.500000
v -40.878680 7.357645 102.500000
v -41.851950 7.773849 102.500000
v -43.000000 7.920000 102.500000
v -44.148050 7.773849 102.500000
v -45.121320 7.357645 102.500000
v -45.771639 6.734752 102.500000
v -46.000000 6.000000 102.500000
v -45.771639 5.265248 102.500000
v -45.121320 4.642355 102.500000
v -44.148050 4.226151 102.500000
v -43.000000 4.080000 102.500000
v -41.851950 4.226151 102.500000
v -40.878680 4.642355 102.500000
v -40.228361 5.265248 102.500000
v -42.400000 6.000000 107.000000
v -42.445672 6.146950 107.000000
v -42.575736 6.271529 107.000000
v -42.770390 6.354770 107.000000
v -43.000000 6.384000 107.000000
v -43.229610 6.354770 107.000000
v -43.424264 6.271529 107.000000
v -43.554328 6.146950 107.000000
v -43.600000 6.000000 107.000000
v -43.554328 5.853050 107.000000
v -43.424264 5.728471 107.000000
v -43.229610 5.645230 107.000000
v -43.000000 5.616000 107.000000
v -42.770390 5.645230 107.000000
v -42.575736 5.728471 107.000000
v -42.445672 5.853050 107.000000
v -48.760000 4.924800 44.000000
v -47.896000 5.086080 86.000000
v -45.880000 5.462400 102.500000
v -49.000000 6.000000 44.000000
v -48.100000 6.000000 86.000000
v -46.000000 6.000000 102.500000
v -48.760000 7.075200 44.000000
v -47.896000 6.913920 86.000000
v -45.880000 6.537600 102.500000
v -37.240000 4.924800 44.000000
v -38.104000 5.086080 86.000000
v -40.120000 5.462400 102.500000
v -37.000000 6.000000 44.000000
v -37.900000 6.000000 86.000000
v -40.000000 6.000000 102.500000
v -37.240000 7.075200 44.000000
v -38.104000 6.913920 86.000000
v -40.120000 6.537600 102.500000
v -37.225000 6.000000 54.500000
v -37.318303 6.661693 54.500000
v -37.595196 7.302006 54.500000
v -37.385714 6.000000 62.000000
v -37.476420 6.643279 62.000000
v -37.745608 7.265772 62.000000
v -37.546429 6.000000 69.500000
v -37.634538 6.624864 69.500000
v -37.896020 7.229538 69.500000
v -37.707143 6.000000 77.000000
v -37.792656 6.606450 77.000000
v -38.046432 7.193304 77.000000
v -37.867857 6.000000 84.500000
v -37.950774 6.588035 84.500000
v -38.196844 7.157070 84.500000
v 11.619956 -0.036440 25.500000
v 12.380044 -3.963560 25.500000
v 12.380044 -3.963560 42.500000
v 11.619956 -0.036440 42.500000
v 42.619956 5.963560 55.500000
v 43.380044 2.036440 55.500000
v 43.380044 2.036440 72.500000
v 42.619956 5.963560 72.500000
v 43.720000 6.000000 32.000000
v 43.665193 6.176341 32.000000
v 43.509117 6.325835 32.000000
v 43.275532 6.425724 32.000000
v 43.000000 6.460800 32.000000
v 42.724468 6.425724 32.000000
v 42.490883 6.325835 32.000000
v 42.334807 6.176341 32.000000
v 42.280000 6.000000 32.000000
v 42.334807 5.823659 32.000000
v 42.490883 5.674165 32.000000
v 42.724468 5.574276 32.000000
v 43.000000 5.539200 32.000000
v 43.275532 5.574276 32.000000
v 43.509117 5.674165 32.000000
v 43.665193 5.823659 32.000000
v 47.200000 6.000000 36.500000
v 46.880294 7.028653 36.500000
v 45.969848 7.900703 36.500000
v 44.607270 8.483388 36.500000
v 43.000000 8.688000 36.500000
v 41.392730 8.483388 36.500000
v 40.030152 7.900703 36.500000
v 39.119706 7.028653 36.500000
v 38.800000 6.000000 36.500000
v 39.119706 4.971347 36.500000
v 40.030152 4.099297 36.500000
v 41.392730 3.516612 36.500000
v 43.000000 3.312000 36.500000
v 44.607270 3.516612 36.500000
v 45.969848 4.099297 36.500000
v 46.880294 4.971347 36.500000
v 49.000000 6.000000 44.000000
v 48.543277 7.469504 44.000000
v 47.242641 8.715290 44.000000
v 45.296101 9.547697 44.000000
v 43.000000 9.840000 44.000000
v 40.703899 9.547697 44.000000
v 38.757359 8.715290 44.000000
v 37.456723 7.469504 44.000000
v 37.000000 6.000000 44.000000
v 37.456723 4.530496 44.000000
v 38.757359 3.284710 44.000000
v 40.703899 2.452303 44.000000
v 43.000000 2.160000 44.000000
v 45.296101 2.452303 44.000000
v 47.242641 3.284710 44.000000
v 48.543277 4.530496 44.000000
v 48.100000 6.000000 86.000000
v 47.711786 7.249079 86.000000
v 46.606245 8.307997 86.000000
v 44.951686 9.015543 86.000000
v 43.000000 9.264000 86.000000
v 41.048314 9.015543 86.000000
v 39.393755 8.307997 86.000000
v 38.288214 7.249079 86.000000
v 37.900000 6.000000 86.000000
v 38.288214 4.750921 86.000000
v 39.393755 3.692003 86.000000
v 41.048314 2.984457 86.000000
v 43.000000 2.736000 86.000000
v 44.951686 2.984457 86.000000
v 46.606245 3.692003 86.000000
v 47.711786 4.750921 86.000000
v 46.000000 6.000000 102.500000
v 45.771639 6.734752 102.500000
v 45.121320 7.357645 102.500000
v 44.148050 7.773849 102.500000
v 43.000000 7.920000 102.500000
v 41.851950 7.773849 102.500000
v 40.878680 7.357645 102.500000
v 40.228361 6.734752 102.500000
v 40.000000 6.000000 102.500000
v 40.228361 5.265248 102.500000
v 40.878680 4.642355 102.500000
v 41.851950 4.226151 102.500000
v 43.000000 4.080000 102.500000
v 44.148050 4.226151 102.500000
v 45.121320 4.642355 102.500000
v 45.771639 5.265248 102.500000
v 43.600000 6.000000 107.000000
v 43.554328 6.146950 107.000000
v 43.424264 6.271529 107.000000
v 43.229610 6.354770 107.000000
v 43.000000 6.384000 107.000000
v 42.770390 6.354770 107.000000
v 42.575736 6.271529 107.000000
v 42.445672 6.146950 107.000000
v 42.400000 6.000000 107.000000
v 42.445672 5.853050 107.000000
v 42.575736 5.728471 107.000000
v 42.770390 5.645230 107.000000
v 43.000000 5.616000 107.000000
v 43.229610 5.645230 107.000000
v 43.424264 5.728471 107.000000
v 43.554328 5.853050 107.000000
v 37.240000 4.924800 44.000000
v 38.104000 5.086080 86.000000
v 40.120000 5.462400 102.500000
v 37.000000 6.000000 44.000000
v 37.900000 6.000000 86.000000
v 40.000000 6.000000 102.500000
v 37.240000 7.075200 44.000000
v 38.104000 6.913920 86.000000
v 40.120000 6.537600 102.500000
v 48.760000 4.924800 44.000000
v 47.896000 5.086080 86.000000
v 45.880000 5.462400 102.500000
v 49.000000 6.000000 44.000000
v 48.100000 6.000000 86.000000
v 46.000000 6.000000 102.500000
v 48.760000 7.075200 44.000000
v 47.896000 6.913920 86.000000
v 45.880000 6.537600 102.500000
v 48.775000 6.000000 54.500000
v 48.681697 6.661693 54.500000
v 48.404804 7.302006 54.500000
v 48.614286 6.000000 62.000000
v 48.523580 6.643279 62.000000
v 48.254392 7.265772 62.000000
v 48.453571 6.000000 69.500000
v 48.365462 6.624864 69.500000
v 48.103980 7.229538 69.500000
v 48.292857 6.000000 77.000000
v 48.207344 6.606450 77.000000
v 47.953568 7.193304 77.000000
v 48.132143 6.000000 84.500000
v 48.049226 6.588035 84.500000
v 47.803156 7.157070 84.500000
v 8.000000 -9.000000 -25.000000
v 7.727407 -7.964724 -25.000000
v 6.928203 -7.000000 -25.000000
v 5.656854 -6.171573 -25.000000
v 4.000000 -5.535898 -25.000000
v 2.070552 -5.136297 -25.000000
v 0.000000 -5.000000 -25.000000
v -2.070552 -5.136297 -25.000000
v -4.000000 -5.535898 -25.000000
v -5.656854 -6.171573 -25.000000
v -6.928203 -7.000000 -25.000000
v -7.727407 -7.964724 -25.000000
v -8.000000 -9.000000 -25.000000
v -7.727407 -10.035276 -25.000000
v -6.928203 -11.000000 -25.000000
v -5.656854 -11.828427 -25.000000
v -4.000000 -12.464102 -25.000000
v -2.070552 -12.863703 -25.000000
v -0.000000 -13.000000 -25.000000
v 2.070552 -12.863703 -25.000000
v 4.000000 -12.464102 -25.000000
v 5.656854 -11.828427 -25.000000
v 6.928203 -11.000000 -25.000000
v 7.727407 -10.035276 -25.000000
v 6.800000 -9.000000 -26.500000
v 6.568296 -8.120015 -26.500000
v 5.888973 -7.300000 -26.500000
v 4.808326 -6.595837 -26.500000
v 3.400000 -6.055514 -26.500000
v 1.759970 -5.715852 -26.500000
v 0.000000 -5.600000 -26.500000
v -1.759970 -5.715852 -26.500000
v -3.400000 -6.055514 -26.500000
v -4.808326 -6.595837 -26.500000
v -5.888973 -7.300000 -26.500000
v -6.568296 -8.120015 -26.500000
v -6.800000 -9.000000 -26.500000
v -6.568296 -9.879985 -26.500000
v -5.888973 -10.700000 -26.500000
v -4.808326 -11.404163 -26.500000
v -3.400000 -11.944486 -26.500000
v -1.759970 -12.284148 -26.500000
v -0.000000 -12.400000 -26.500000
v 1.759970 -12.284148 -26.500000
v 3.400000 -11.944486 -26.500000
v 4.808326 -11.404163 -26.500000
v 5.888973 -10.700000 -26.500000
v 6.568296 -9.879985 -26.500000
v 2.800000 -9.000000 -27.100000
v 2.704592 -8.637653 -27.100000
v 2.424871 -8.300000 -27.100000
v 1.979899 -8.010051 -27.100000
v 1.400000 -7.787564 -27.100000
v 0.724693 -7.647704 -27.100000
v 0.000000 -7.600000 -27.100000
v -0.724693 -7.647704 -27.100000
v -1.400000 -7.787564 -27.100000
v -1.979899 -8.010051 -27.100000
v -2.424871 -8.300000 -27.100000
v -2.704592 -8.637653 -27.100000
v -2.800000 -9.000000 -27.100000
v -2.704592 -9.362347 -27.100000
v -2.424871 -9.700000 -27.100000
v -1.979899 -9.989949 -27.100000
v -1.400000 -10.212436 -27.100000
v -0.724693 -10.352296 -27.100000
v -0.000000 -10.400000 -27.100000
v 0.724693 -10.352296 -27.100000
v 1.400000 -10.212436 -27.100000
v 1.979899 -9.989949 -27.100000
v 2.424871 -9.700000 -27.100000
v 2.704592 -9.362347 -27.100000
v -6.000000 1.000000 -84.000000
v -9.000000 0.000000 -68.000000
v -6.000000 0.000000 -56.000000
v 6.000000 0.000000 -56.000000
v 9.000000 0.000000 -68.000000
v 6.000000 1.000000 -84.000000
g primary_hull
f 1 2 66 65
f 2 3 67 66
f 3 4 68 67
f 4 5 69 68
f 5 6 70 69
f 6 7 71 70
f 7 8 72 71
f 8 9 73 72
f 9 10 74 73
f 10 11 75 74
f 11 12 76 75
f 12 13 77 76
f 13 14 78 77
f 14 15 79 78
f 15 16 80 79
f 16 17 81 80
f 17 18 82 81
f 18 19 83 82
f 19 20 84 83
f 20 21 85 84
f 21 22 86 85
f 22 23 87 86
f 23 24 88 87
f 24 25 89 88
f 25 26 90 89
f 26 27 91 90
f 27 28 92 91
f 28 29 93 92
f 29 30 94 93
f 30 31 95 94
f 31 32 96 95
f 32 33 97 96
f 33 34 98 97
f 34 35 99 98
f 35 36 100 99
f 36 37 101 100
f 37 38 102 101
f 38 39 103 102
f 39 40 104 103
f 40 41 105 104
f 41 42 106 105
f 42 43 107 106
f 43 44 108 107
f 44 45 109 108
f 45 46 110 109
f 46 47 111 110
f 47 48 112 111
f 48 49 113 112
f 49 50 114 113
f 50 51 115 114
f 51 52 116 115
f 52 53 117 116
f 53 54 118 117
f 54 55 119 118
f 55 56 120 119
f 56 57 121 120
f 57 58 122 121
f 58 59 123 122
f 59 60 124 123
f 60 61 125 124
f 61 62 126 125
f 62 63 127 126
f 63 64 128 127
f 64 1 65 128
f 65 66 130 129
f 66 67 131 130
f 67 68 132 131
f 68 69 133 132
f 69 70 134 133
f 70 71 135 134
f 71 72 136 135
f 72 73 137 136
f 73 74 138 137
f 74 75 139 138
f 75 76 140 139
f 76 77 141 140
f 77 78 142 141
f 78 79 143 142
f 79 80 144 143
f 80 81 145 144
f 81 82 146 145
f 82 83 147 146
f 83 84 148 147
f 84 85 149 148
f 85 86 150 149
f 86 87 151 150
f 87 88 152 151
f 88 89 153 152
f 89 90 154 153
f 90 91 155 154
f 91 92 156 155
f 92 93 157 156
f 93 94 158 157
f 94 95 159 158
f 95 96 160 159
f 96 97 161 160
f 97 98 162 161
f 98 99 163 162
f 99 100 164 163
f 100 101 165 164
f 101 102 166 165
f 102 103 167 166
f 103 104 168 167
f 104 105 169 168
f 105 106 170 169
f 106 107 171 170
f 107 108 172 171
f 108 109 173 172
f 109 110 174 173
f 110 111 175 174
f 111 112 176 175
f 112 113 177 176
f 113 114 178 177
f 114 115 179 178
f 115 116 180 179
f 116 117 181 180
f 117 118 182 181
f 118 119 183 182
f 119 120 184 183
f 120 121 185 184
f 121 122 186 185
f 122 123 187 186
f 123 124 188 187
f 124 125 189 188
f 125 126 190 189
f 126 127 191 190
f 127 128 192 191
f 128 65 129 192
f 129 130 194 193
f 130 131 195 194
f 131 132 196 195
f 132 133 197 196
f 133 134 198 197
f 134 135 199 198
f 135 136 200 199
f 136 137 201 200
f 137 138 202 201
f 138 139 203 202
f 139 140 204 203
f 140 141 205 204
f 141 142 206 205
f 142 143 207 206
f 143 144 208 207
f 144 145 209 208
f 145 146 210 209
f 146 147 211 210
f 147 148 212 211
f 148 149 213 212
f 149 150 214 213
f 150 151 215 214
f 151 152 216 215
f 152 153 217 216
f 153 154 218 217
f 154 155 219 218
f 155 156 220 219
f 156 157 221 220
f 157 158 222 221
f 158 159 223 222
f 159 160 224 223
f 160 161 225 224
f 161 162 226 225
f 162 163 227 226
f 163 164 228 227
f 164 165 229 228
f 165 166 230 229
f 166 167 231 230
f 167 168 232 231
f 168 169 233 232
f 169 170 234 233
f 170 171 235 234
f 171 172 236 235
f 172 173 237 236
f 173 174 238 237
f 174 175 239 238
f 175 176 240 239
f 176 177 241 240
f 177 178 242 241
f 178 179 243 242
f 179 180 244 243
f 180 181 245 244
f 181 182 246 245
f 182 183 247 246
f 183 184 248 247
f 184 185 249 248
f 185 186 250 249
f 186 187 251 250
f 187 188 252 251
f 188 189 253 252
f 189 190 254 253
f 190 191 255 254
f 191 192 256 255
f 192 129 193 256
f 193 194 258 257
f 194 195 259 258
f 195 196 260 259
f 196 197 261 260
f 197 198 262 261
f 198 199 263 262
f 199 200 264 263
f 200 201 265 264
f 201 202 266 265
f 202 203 267 266
f 203 204 268 267
f 204 205 269 268
f 205 206 270 269
f 206 207 271 270
f 207 208 272 271
f 208 209 273 272
f 209 210 274 273
f 210 211 275 274
f 211 212 276 275
f 212 213 277 276
f 213 214 278 277
f 214 215 279 278
f 215 216 280 279
f 216 217 281 280
f 217 218 282 281
f 218 219 283 282
f 219 220 284 283
f 220 221 285 284
f 221 222 286 285
f 222 223 287 286
f 223 224 288 287
f 224 225 289 288
f 225 226 290 289
f 226 227 291 290
f 227 228 292 291
f 228 229 293 292
f 229 230 294 293
f 230 231 295 294
f 231 232 296 295
f 232 233 297 296
f 233 234 298 297
f 234 235 299 298
f 235 236 300 299
f 236 237 301 300
f 237 238 302 301
f 238 239 303 302
f 239 240 304 303
f 240 241 305 304
f 241 242 306 305
f 242 243 307 306
f 243 244 308 307
f 244 245 309 308
f 245 246 310 309
f 246 247 311 310
f 247 248 312 311
f 248 249 313 312
f 249 250 314 313
f 250 251 315 314
f 251 252 316 315
f 252 253 317 316
f 253 254 318 317
f 254 255 319 318
f 255 256 320 319
f 256 193 257 320
f 257 258 322 321
f 258 259 323 322
f 259 260 324 323
f 260 261 325 324
f 261 262 326 325
f 262 263 327 326
f 263 264 328 327
f 264 265 329 328
f 265 266 330 329
f 266 267 331 330
f 267 268 332 331
f 268 269 333 332
f 269 270 334 333
f 270 271 335 334
f 271 272 336 335
f 272 273 337 336
f 273 274 338 337
f 274 275 339 338
f 275 276 340 339
f 276 277 341 340
f 277 278 342 341
f 278 279 343 342
f 279 280 344 343
f 280 281 345 344
f 281 282 346 345
f 282 283 347 346
f 283 284 348 347
f 284 285 349 348
f 285 286 350 349
f 286 287 351 350
f 287 288 352 351
f 288 289 353 352
f 289 290 354 353
f 290 291 355 354
f 291 292 356 355
f 292 293 357 356
f 293 294 358 357
f 294 295 359 358
f 295 296 360 359
f 296 297 361 360
f 297 298 362 361
f 298 299 363 362
f 299 300 364 363
f 300 301 365 364
f 301 302 366 365
f 302 303 367 366
f 303 304 368 367
f 304 305 369 368
f 305 306 370 369
f 306 307 371 370
f 307 308 372 371
f 308 309 373 372
f 309 310 374 373
f 310 311 375 374
f 311 312 376 375
f 312 313 377 376
f 313 314 378 377
f 314 315 379 378
f 315 316 380 379
f 316 317 381 380
f 317 318 382 381
f 318 319 383 382
f 319 320 384 383
f 320 257 321 384
f 321 322 386 385
f 322 323 387 386
f 323 324 388 387
f 324 325 389 388
f 325 326 390 389
f 326 327 391 390
f 327 328 392 391
f 328 329 393 392
f 329 330 394 393
f 330 331 395 394
f 331 332 396 395
f 332 333 397 396
f 333 334 398 397
f 334 335 399 398
f 335 336 400 399
f 336 337 401 400
f 337 338 402 401
f 338 339 403 402
f 339 340 404 403
f 340 341 405 404
f 341 342 406 405
f 342 343 407 406
f 343 344 408 407
f 344 345 409 408
f 345 346 410 409
f 346 347 411 410
f 347 348 412 411
f 348 349 413 412
f 349 350 414 413
f 350 351 415 414
f 351 352 416 415
f 352 353 417 416
f 353 354 418 417
f 354 355 419 418
f 355 356 420 419
f 356 357 421 420
f 357 358 422 421
f 358 359 423 422
f 359 360 424 423
f 360 361 425 424
f 361 362 426 425
f 362 363 427 426
f 363 364 428 427
f 364 365 429 428
f 365 366 430 429
f 366 367 431 430
f 367 368 432 431
f 368 369 433 432
f 369 370 434 433
f 370 371 435 434
f 371 372 436 435
f 372 373 437 436
f 373 374 438 437
f 374 375 439 438
f 375 376 440 439
f 376 377 441 440
f 377 378 442 441
f 378 379 443 442
f 379 380 444 443
f 380 381 445 444
f 381 382 446 445
f 382 383 447 446
f 383 384 448 447
f 384 321 385 448
f 385 386 450 449
f 386 387 451 450
f 387 388 452 451
f 388 389 453 452
f 389 390 454 453
f 390 391 455 454
f 391 392 456 455
f 392 393 457 456
f 393 394 458 457
f 394 395 459 458
f 395 396 460 459
f 396 397 461 460
f 397 398 462 461
f 398 399 463 462
f 399 400 464 463
f 400 401 465 464
f 401 402 466 465
f 402 403 467 466
f 403 404 468 467
f 404 405 469 468
f 405 406 470 469
f 406 407 471 470
f 407 408 472 471
f 408 409 473 472
f 409 410 474 473
f 410 411 475 474
f 411 412 476 475
f 412 413 477 476
f 413 414 478 477
f 414 415 479 478
f 415 416 480 479
f 416 417 481 480
f 417 418 482 481
f 418 419 483 482
f 419 420 484 483
f 420 421 485 484
f 421 422 486 485
f 422 423 487 486
f 423 424 488 487
f 424 425 489 488
f 425 426 490 489
f 426 427 491 490
f 427 428 492 491
f 428 429 493 492
f 429 430 494 493
f 430 431 495 494
f 431 432 496 495
f 432 433 497 496
f 433 434 498 497
f 434 435 499 498
f 435 436 500 499
f 436 437 501 500
f 437 438 502 501
f 438 439 503 502
f 439 440 504 503
f 440 441 505 504
f 441 442 506 505
f 442 443 507 506
f 443 444 508 507
f 444 445 509 508
f 445 446 510 509
f 446 447 511 510
f 447 448 512 511
f 448 385 449 512
f 449 450 514 513
f 450 451 515 514
f 451 452 516 515
f 452 453 517 516
f 453 454 518 517
f 454 455 519 518
f 455 456 520 519
f 456 457 521 520
f 457 458 522 521
f 458 459 523 522
f 459 460 524 523
f 460 461 525 524
f 461 462 526 525
f 462 463 527 526
f 463 464 528 527
f 464 465 529 528
f 465 466 530 529
f 466 467 531 530
f 467 468 532 531
f 468 469 533 532
f 469 470 534 533
f 470 471 535 534
f 471 472 536 535
f 472 473 537 536
f 473 474 538 537
f 474 475 539 538
f 475 476 540 539
f 476 477 541 540
f 477 478 542 541
f 478 479 543 542
f 479 480 544 543
f 480 481 545 544
f 481 482 546 545
f 482 483 547 546
f 483 484 548 547
f 484 485 549 548
f 485 486 550 549
f 486 487 551 550
f 487 488 552 551
f 488 489 553 552
f 489 490 554 553
f 490 491 555 554
f 491 492 556 555
f 492 493 557 556
f 493 494 558 557
f 494 495 559 558
f 495 496 560 559
f 496 497 561 560
f 497 498 562 561
f 498 499 563 562
f 499 500 564 563
f 500 501 565 564
f 501 502 566 565
f 502 503 567 566
f 503 504 568 567
f 504 505 569 568
f 505 506 570 569
f 506 507 571 570
f 507 508 572 571
f 508 509 573 572
f 509 510 574 573
f 510 511 575 574
f 511 512 576 575
f 512 449 513 576
f 64 63 62 61 60 59 58 57 56 55 54 53 52 51 50 49 48 47 46 45 44 43 42 41 40 39 38 37 36 35 34 33 32 31 30 29 28 27 26 25 24 23 22 21 20 19 18 17 16 15 14 13 12 11 10 9 8 7 6 5 4 3 2 1
f 513 514 515 516 517 518 519 520 521 522 523 524 525 526 527 528 529 530 531 532 533 534 535 536 537 538 539 540 541 542 543 544 545 546 547 548 549 550 551 552 553 554 555 556 557 558 559 560 561 562 563 564 565 566 567 568 569 570 571 572 573 574 575 576
g integrated_engineering_hull
f 885 886 906
f 885 906 905
f 886 887 907
f 886 907 906
f 887 888 908
f 887 908 907
f 888 889 909
f 888 909 908
f 889 890 910
f 889 910 909
f 890 891 911
f 890 911 910
f 891 892 912
f 891 912 911
f 892 893 913
f 892 913 912
f 893 894 914
f 893 914 913
f 894 895 915
f 894 915 914
f 895 896 916
f 895 916 915
f 896 897 917
f 896 917 916
f 897 898 918
f 897 918 917
f 898 899 919
f 898 919 918
f 899 900 920
f 899 920 919
f 900 901 921
f 900 921 920
f 901 902 922
f 901 922 921
f 902 903 923
f 902 923 922
f 903 904 924
f 903 924 923
f 904 885 905
f 904 905 924
f 905 906 926
f 905 926 925
f 906 907 927
f 906 927 926
f 907 908 928
f 907 928 927
f 908 909 929
f 908 929 928
f 909 910 930
f 909 930 929
f 910 911 931
f 910 931 930
f 911 912 932
f 911 932 931
f 912 913 933
f 912 933 932
f 913 914 934
f 913 934 933
f 914 915 935
f 914 935 934
f 915 916 936
f 915 936 935
f 916 917 937
f 916 937 936
f 917 918 938
f 917 938 937
f 918 919 939
f 918 939 938
f 919 920 940
f 919 940 939
f 920 921 941
f 920 941 940
f 921 922 942
f 921 942 941
f 922 923 943
f 922 943 942
f 923 924 944
f 923 944 943
f 924 905 925
f 924 925 944
f 925 926 946
f 925 946 945
f 926 927 947
f 926 947 946
f 927 928 948
f 927 948 947
f 928 929 949
f 928 949 948
f 929 930 950
f 929 950 949
f 930 931 951
f 930 951 950
f 931 932 952
f 931 952 951
f 932 933 953
f 932 953 952
f 933 934 954
f 933 954 953
f 934 935 955
f 934 955 954
f 935 936 956
f 935 956 955
f 936 937 957
f 936 957 956
f 937 938 958
f 937 958 957
f 938 939 959
f 938 959 958
f 939 940 960
f 939 960 959
f 940 941 961
f 940 961 960
f 941 942 962
f 941 962 961
f 942 943 963
f 942 963 962
f 943 944 964
f 943 964 963
f 944 925 945
f 944 945 964
f 945 946 966
f 945 966 965
f 946 947 967
f 946 967 966
f 947 948 968
f 947 968 967
f 948 949 969
f 948 969 968
f 949 950 970
f 949 970 969
f 950 951 971
f 950 971 970
f 951 952 972
f 951 972 971
f 952 953 973
f 952 973 972
f 953 954 974
f 953 974 973
f 954 955 975
f 954 975 974
f 955 956 976
f 955 976 975
f 956 957 977
f 956 977 976
f 957 958 978
f 957 978 977
f 958 959 979
f 958 979 978
f 959 960 980
f 959 980 979
f 960 961 981
f 960 981 980
f 961 962 982
f 961 982 981
f 962 963 983
f 962 983 982
f 963 964 984
f 963 984 983
f 964 945 965
f 964 965 984
f 965 966 986
f 965 986 985
f 966 967 987
f 966 987 986
f 967 968 988
f 967 988 987
f 968 969 989
f 968 989 988
f 969 970 990
f 969 990 989
f 970 971 991
f 970 991 990
f 971 972 992
f 971 992 991
f 972 973 993
f 972 993 992
f 973 974 994
f 973 994 993
f 974 975 995
f 974 995 994
f 975 976 996
f 975 996 995
f 976 977 997
f 976 997 996
f 977 978 998
f 977 998 997
f 978 979 999
f 978 999 998
f 979 980 1000
f 979 1000 999
f 980 981 1001
f 980 1001 1000
f 981 982 1002
f 981 1002 1001
f 982 983 1003
f 982 1003 1002
f 983 984 1004
f 983 1004 1003
f 984 965 985
f 984 985 1004
f 904 903 902 901 900 899 898 897 896 895 894 893 892 891 890 889 888 887 886 885
f 985 986 987 988 989 990 991 992 993 994 995 996 997 998 999 1000 1001 1002 1003 1004
g dorsal_spine
f 1005 1006 1018
f 1005 1018 1017
f 1006 1007 1019
f 1006 1019 1018
f 1007 1008 1020
f 1007 1020 1019
f 1008 1009 1021
f 1008 1021 1020
f 1009 1010 1022
f 1009 1022 1021
f 1010 1011 1023
f 1010 1023 1022
f 1011 1012 1024
f 1011 1024 1023
f 1012 1013 1025
f 1012 1025 1024
f 1013 1014 1026
f 1013 1026 1025
f 1014 1015 1027
f 1014 1027 1026
f 1015 1016 1028
f 1015 1028 1027
f 1016 1005 1017
f 1016 1017 1028
f 1017 1018 1030
f 1017 1030 1029
f 1018 1019 1031
f 1018 1031 1030
f 1019 1020 1032
f 1019 1032 1031
f 1020 1021 1033
f 1020 1033 1032
f 1021 1022 1034
f 1021 1034 1033
f 1022 1023 1035
f 1022 1035 1034
f 1023 1024 1036
f 1023 1036 1035
f 1024 1025 1037
f 1024 1037 1036
f 1025 1026 1038
f 1025 1038 1037
f 1026 1027 1039
f 1026 1039 1038
f 1027 1028 1040
f 1027 1040 1039
f 1028 1017 1029
f 1028 1029 1040
f 1029 1030 1042
f 1029 1042 1041
f 1030 1031 1043
f 1030 1043 1042
f 1031 1032 1044
f 1031 1044 1043
f 1032 1033 1045
f 1032 1045 1044
f 1033 1034 1046
f 1033 1046 1045
f 1034 1035 1047
f 1034 1047 1046
f 1035 1036 1048
f 1035 1048 1047
f 1036 1037 1049
f 1036 1049 1048
f 1037 1038 1050
f 1037 1050 1049
f 1038 1039 1051
f 1038 1051 1050
f 1039 1040 1052
f 1039 1052 1051
f 1040 1029 1041
f 1040 1041 1052
f 1041 1042 1054
f 1041 1054 1053
f 1042 1043 1055
f 1042 1055 1054
f 1043 1044 1056
f 1043 1056 1055
f 1044 1045 1057
f 1044 1057 1056
f 1045 1046 1058
f 1045 1058 1057
f 1046 1047 1059
f 1046 1059 1058
f 1047 1048 1060
f 1047 1060 1059
f 1048 1049 1061
f 1048 1061 1060
f 1049 1050 1062
f 1049 1062 1061
f 1050 1051 1063
f 1050 1063 1062
f 1051 1052 1064
f 1051 1064 1063
f 1052 1041 1053
f 1052 1053 1064
f 1016 1015 1014 1013 1012 1011 1010 1009 1008 1007 1006 1005
f 1053 1054 1055 1056 1057 1058 1059 1060 1061 1062 1063 1064
g bridge_superstructure
f 1065 1066 1090 1089
f 1066 1067 1091 1090
f 1067 1068 1092 1091
f 1068 1069 1093 1092
f 1069 1070 1094 1093
f 1070 1071 1095 1094
f 1071 1072 1096 1095
f 1072 1073 1097 1096
f 1073 1074 1098 1097
f 1074 1075 1099 1098
f 1075 1076 1100 1099
f 1076 1077 1101 1100
f 1077 1078 1102 1101
f 1078 1079 1103 1102
f 1079 1080 1104 1103
f 1080 1081 1105 1104
f 1081 1082 1106 1105
f 1082 1083 1107 1106
f 1083 1084 1108 1107
f 1084 1085 1109 1108
f 1085 1086 1110 1109
f 1086 1087 1111 1110
f 1087 1088 1112 1111
f 1088 1065 1089 1112
f 1089 1090 1114 1113
f 1090 1091 1115 1114
f 1091 1092 1116 1115
f 1092 1093 1117 1116
f 1093 1094 1118 1117
f 1094 1095 1119 1118
f 1095 1096 1120 1119
f 1096 1097 1121 1120
f 1097 1098 1122 1121
f 1098 1099 1123 1122
f 1099 1100 1124 1123
f 1100 1101 1125 1124
f 1101 1102 1126 1125
f 1102 1103 1127 1126
f 1103 1104 1128 1127
f 1104 1105 1129 1128
f 1105 1106 1130 1129
f 1106 1107 1131 1130
f 1107 1108 1132 1131
f 1108 1109 1133 1132
f 1109 1110 1134 1133
f 1110 1111 1135 1134
f 1111 1112 1136 1135
f 1112 1089 1113 1136
f 1113 1114 1138 1137
f 1114 1115 1139 1138
f 1115 1116 1140 1139
f 1116 1117 1141 1140
f 1117 1118 1142 1141
f 1118 1119 1143 1142
f 1119 1120 1144 1143
f 1120 1121 1145 1144
f 1121 1122 1146 1145
f 1122 1123 1147 1146
f 1123 1124 1148 1147
f 1124 1125 1149 1148
f 1125 1126 1150 1149
f 1126 1127 1151 1150
f 1127 1128 1152 1151
f 1128 1129 1153 1152
f 1129 1130 1154 1153
f 1130 1131 1155 1154
f 1131 1132 1156 1155
f 1132 1133 1157 1156
f 1133 1134 1158 1157
f 1134 1135 1159 1158
f 1135 1136 1160 1159
f 1136 1113 1137 1160
f 1137 1138 1162 1161
f 1138 1139 1163 1162
f 1139 1140 1164 1163
f 1140 1141 1165 1164
f 1141 1142 1166 1165
f 1142 1143 1167 1166
f 1143 1144 1168 1167
f 1144 1145 1169 1168
f 1145 1146 1170 1169
f 1146 1147 1171 1170
f 1147 1148 1172 1171
f 1148 1149 1173 1172
f 1149 1150 1174 1173
f 1150 1151 1175 1174
f 1151 1152 1176 1175
f 1152 1153 1177 1176
f 1153 1154 1178 1177
f 1154 1155 1179 1178
f 1155 1156 1180 1179
f 1156 1157 1181 1180
f 1157 1158 1182 1181
f 1158 1159 1183 1182
f 1159 1160 1184 1183
f 1160 1137 1161 1184
f 1161 1162 1186 1185
f 1162 1163 1187 1186
f 1163 1164 1188 1187
f 1164 1165 1189 1188
f 1165 1166 1190 1189
f 1166 1167 1191 1190
f 1167 1168 1192 1191
f 1168 1169 1193 1192
f 1169 1170 1194 1193
f 1170 1171 1195 1194
f 1171 1172 1196 1195
f 1172 1173 1197 1196
f 1173 1174 1198 1197
f 1174 1175 1199 1198
f 1175 1176 1200 1199
f 1176 1177 1201 1200
f 1177 1178 1202 1201
f 1178 1179 1203 1202
f 1179 1180 1204 1203
f 1180 1181 1205 1204
f 1181 1182 1206 1205
f 1182 1183 1207 1206
f 1183 1184 1208 1207
f 1184 1161 1185 1208
f 1185 1186 1210 1209
f 1186 1187 1211 1210
f 1187 1188 1212 1211
f 1188 1189 1213 1212
f 1189 1190 1214 1213
f 1190 1191 1215 1214
f 1191 1192 1216 1215
f 1192 1193 1217 1216
f 1193 1194 1218 1217
f 1194 1195 1219 1218
f 1195 1196 1220 1219
f 1196 1197 1221 1220
f 1197 1198 1222 1221
f 1198 1199 1223 1222
f 1199 1200 1224 1223
f 1200 1201 1225 1224
f 1201 1202 1226 1225
f 1202 1203 1227 1226
f 1203 1204 1228 1227
f 1204 1205 1229 1228
f 1205 1206 1230 1229
f 1206 1207 1231 1230
f 1207 1208 1232 1231
f 1208 1185 1209 1232
f 1209 1210 1234 1233
f 1210 1211 1235 1234
f 1211 1212 1236 1235
f 1212 1213 1237 1236
f 1213 1214 1238 1237
f 1214 1215 1239 1238
f 1215 1216 1240 1239
f 1216 1217 1241 1240
f 1217 1218 1242 1241
f 1218 1219 1243 1242
f 1219 1220 1244 1243
f 1220 1221 1245 1244
f 1221 1222 1246 1245
f 1222 1223 1247 1246
f 1223 1224 1248 1247
f 1224 1225 1249 1248
f 1225 1226 1250 1249
f 1226 1227 1251 1250
f 1227 1228 1252 1251
f 1228 1229 1253 1252
f 1229 1230 1254 1253
f 1230 1231 1255 1254
f 1231 1232 1256 1255
f 1232 1209 1233 1256
f 1233 1234 1258 1257
f 1234 1235 1259 1258
f 1235 1236 1260 1259
f 1236 1237 1261 1260
f 1237 1238 1262 1261
f 1238 1239 1263 1262
f 1239 1240 1264 1263
f 1240 1241 1265 1264
f 1241 1242 1266 1265
f 1242 1243 1267 1266
f 1243 1244 1268 1267
f 1244 1245 1269 1268
f 1245 1246 1270 1269
f 1246 1247 1271 1270
f 1247 1248 1272 1271
f 1248 1249 1273 1272
f 1249 1250 1274 1273
f 1250 1251 1275 1274
f 1251 1252 1276 1275
f 1252 1253 1277 1276
f 1253 1254 1278 1277
f 1254 1255 1279 1278
f 1255 1256 1280 1279
f 1256 1233 1257 1280
f 1088 1087 1086 1085 1084 1083 1082 1081 1080 1079 1078 1077 1076 1075 1074 1073 1072 1071 1070 1069 1068 1067 1066 1065
f 1257 1258 1259 1260 1261 1262 1263 1264 1265 1266 1267 1268 1269 1270 1271 1272 1273 1274 1275 1276 1277 1278 1279 1280
f 1281 1282 1306 1305
f 1282 1283 1307 1306
f 1283 1284 1308 1307
f 1284 1285 1309 1308
f 1285 1286 1310 1309
f 1286 1287 1311 1310
f 1287 1288 1312 1311
f 1288 1289 1313 1312
f 1289 1290 1314 1313
f 1290 1291 1315 1314
f 1291 1292 1316 1315
f 1292 1293 1317 1316
f 1293 1294 1318 1317
f 1294 1295 1319 1318
f 1295 1296 1320 1319
f 1296 1297 1321 1320
f 1297 1298 1322 1321
f 1298 1299 1323 1322
f 1299 1300 1324 1323
f 1300 1301 1325 1324
f 1301 1302 1326 1325
f 1302 1303 1327 1326
f 1303 1304 1328 1327
f 1304 1281 1305 1328
f 1305 1306 1330 1329
f 1306 1307 1331 1330
f 1307 1308 1332 1331
f 1308 1309 1333 1332
f 1309 1310 1334 1333
f 1310 1311 1335 1334
f 1311 1312 1336 1335
f 1312 1313 1337 1336
f 1313 1314 1338 1337
f 1314 1315 1339 1338
f 1315 1316 1340 1339
f 1316 1317 1341 1340
f 1317 1318 1342 1341
f 1318 1319 1343 1342
f 1319 1320 1344 1343
f 1320 1321 1345 1344
f 1321 1322 1346 1345
f 1322 1323 1347 1346
f 1323 1324 1348 1347
f 1324 1325 1349 1348
f 1325 1326 1350 1349
f 1326 1327 1351 1350
f 1327 1328 1352 1351
f 1328 1305 1329 1352
f 1329 1330 1354 1353
f 1330 1331 1355 1354
f 1331 1332 1356 1355
f 1332 1333 1357 1356
f 1333 1334 1358 1357
f 1334 1335 1359 1358
f 1335 1336 1360 1359
f 1336 1337 1361 1360
f 1337 1338 1362 1361
f 1338 1339 1363 1362
f 1339 1340 1364 1363
f 1340 1341 1365 1364
f 1341 1342 1366 1365
f 1342 1343 1367 1366
f 1343 1344 1368 1367
f 1344 1345 1369 1368
f 1345 1346 1370 1369
f 1346 1347 1371 1370
f 1347 1348 1372 1371
f 1348 1349 1373 1372
f 1349 1350 1374 1373
f 1350 1351 1375 1374
f 1351 1352 1376 1375
f 1352 1329 1353 1376
f 1353 1354 1378 1377
f 1354 1355 1379 1378
f 1355 1356 1380 1379
f 1356 1357 1381 1380
f 1357 1358 1382 1381
f 1358 1359 1383 1382
f 1359 1360 1384 1383
f 1360 1361 1385 1384
f 1361 1362 1386 1385
f 1362 1363 1387 1386
f 1363 1364 1388 1387
f 1364 1365 1389 1388
f 1365 1366 1390 1389
f 1366 1367 1391 1390
f 1367 1368 1392 1391
f 1368 1369 1393 1392
f 1369 1370 1394 1393
f 1370 1371 1395 1394
f 1371 1372 1396 1395
f 1372 1373 1397 1396
f 1373 1374 1398 1397
f 1374 1375 1399 1398
f 1375 1376 1400 1399
f 1376 1353 1377 1400
f 1377 1378 1402 1401
f 1378 1379 1403 1402
f 1379 1380 1404 1403
f 1380 1381 1405 1404
f 1381 1382 1406 1405
f 1382 1383 1407 1406
f 1383 1384 1408 1407
f 1384 1385 1409 1408
f 1385 1386 1410 1409
f 1386 1387 1411 1410
f 1387 1388 1412 1411
f 1388 1389 1413 1412
f 1389 1390 1414 1413
f 1390 1391 1415 1414
f 1391 1392 1416 1415
f 1392 1393 1417 1416
f 1393 1394 1418 1417
f 1394 1395 1419 1418
f 1395 1396 1420 1419
f 1396 1397 1421 1420
f 1397 1398 1422 1421
f 1398 1399 1423 1422
f 1399 1400 1424 1423
f 1400 1377 1401 1424
f 1401 1402 1426 1425
f 1402 1403 1427 1426
f 1403 1404 1428 1427
f 1404 1405 1429 1428
f 1405 1406 1430 1429
f 1406 1407 1431 1430
f 1407 1408 1432 1431
f 1408 1409 1433 1432
f 1409 1410 1434 1433
f 1410 1411 1435 1434
f 1411 1412 1436 1435
f 1412 1413 1437 1436
f 1413 1414 1438 1437
f 1414 1415 1439 1438
f 1415 1416 1440 1439
f 1416 1417 1441 1440
f 1417 1418 1442 1441
f 1418 1419 1443 1442
f 1419 1420 1444 1443
f 1420 1421 1445 1444
f 1421 1422 1446 1445
f 1422 1423 1447 1446
f 1423 1424 1448 1447
f 1424 1401 1425 1448
f 1425 1426 1450 1449
f 1426 1427 1451 1450
f 1427 1428 1452 1451
f 1428 1429 1453 1452
f 1429 1430 1454 1453
f 1430 1431 1455 1454
f 1431 1432 1456 1455
f 1432 1433 1457 1456
f 1433 1434 1458 1457
f 1434 1435 1459 1458
f 1435 1436 1460 1459
f 1436 1437 1461 1460
f 1437 1438 1462 1461
f 1438 1439 1463 1462
f 1439 1440 1464 1463
f 1440 1441 1465 1464
f 1441 1442 1466 1465
f 1442 1443 1467 1466
f 1443 1444 1468 1467
f 1444 1445 1469 1468
f 1445 1446 1470 1469
f 1446 1447 1471 1470
f 1447 1448 1472 1471
f 1448 1425 1449 1472
f 1449 1450 1474 1473
f 1450 1451 1475 1474
f 1451 1452 1476 1475
f 1452 1453 1477 1476
f 1453 1454 1478 1477
f 1454 1455 1479 1478
f 1455 1456 1480 1479
f 1456 1457 1481 1480
f 1457 1458 1482 1481
f 1458 1459 1483 1482
f 1459 1460 1484 1483
f 1460 1461 1485 1484
f 1461 1462 1486 1485
f 1462 1463 1487 1486
f 1463 1464 1488 1487
f 1464 1465 1489 1488
f 1465 1466 1490 1489
f 1466 1467 1491 1490
f 1467 1468 1492 1491
f 1468 1469 1493 1492
f 1469 1470 1494 1493
f 1470 1471 1495 1494
f 1471 1472 1496 1495
f 1472 1449 1473 1496
f 1304 1303 1302 1301 1300 1299 1298 1297 1296 1295 1294 1293 1292 1291 1290 1289 1288 1287 1286 1285 1284 1283 1282 1281
f 1473 1474 1475 1476 1477 1478 1479 1480 1481 1482 1483 1484 1485 1486 1487 1488 1489 1490 1491 1492 1493 1494 1495 1496
g swept_nacelle_pylon
f 1501 1502 1498 1497
f 1502 1503 1499 1498
f 1503 1504 1500 1499
f 1504 1501 1497 1500
f 1497 1498 1499 1500
f 1504 1503 1502 1501
g warp_nacelle
f 1505 1506 1522 1521
f 1506 1507 1523 1522
f 1507 1508 1524 1523
f 1508 1509 1525 1524
f 1509 1510 1526 1525
f 1510 1511 1527 1526
f 1511 1512 1528 1527
f 1512 1513 1529 1528
f 1513 1514 1530 1529
f 1514 1515 1531 1530
f 1515 1516 1532 1531
f 1516 1517 1533 1532
f 1517 1518 1534 1533
f 1518 1519 1535 1534
f 1519 1520 1536 1535
f 1520 1505 1521 1536
f 1521 1522 1538 1537
f 1522 1523 1539 1538
f 1523 1524 1540 1539
f 1524 1525 1541 1540
f 1525 1526 1542 1541
f 1526 1527 1543 1542
f 1527 1528 1544 1543
f 1528 1529 1545 1544
f 1529 1530 1546 1545
f 1530 1531 1547 1546
f 1531 1532 1548 1547
f 1532 1533 1549 1548
f 1533 1534 1550 1549
f 1534 1535 1551 1550
f 1535 1536 1552 1551
f 1536 1521 1537 1552
f 1537 1538 1554 1553
f 1538 1539 1555 1554
f 1539 1540 1556 1555
f 1540 1541 1557 1556
f 1541 1542 1558 1557
f 1542 1543 1559 1558
f 1543 1544 1560 1559
f 1544 1545 1561 1560
f 1545 1546 1562 1561
f 1546 1547 1563 1562
f 1547 1548 1564 1563
f 1548 1549 1565 1564
f 1549 1550 1566 1565
f 1550 1551 1567 1566
f 1551 1552 1568 1567
f 1552 1537 1553 1568
f 1553 1554 1570 1569
f 1554 1555 1571 1570
f 1555 1556 1572 1571
f 1556 1557 1573 1572
f 1557 1558 1574 1573
f 1558 1559 1575 1574
f 1559 1560 1576 1575
f 1560 1561 1577 1576
f 1561 1562 1578 1577
f 1562 1563 1579 1578
f 1563 1564 1580 1579
f 1564 1565 1581 1580
f 1565 1566 1582 1581
f 1566 1567 1583 1582
f 1567 1568 1584 1583
f 1568 1553 1569 1584
f 1569 1570 1586 1585
f 1570 1571 1587 1586
f 1571 1572 1588 1587
f 1572 1573 1589 1588
f 1573 1574 1590 1589
f 1574 1575 1591 1590
f 1575 1576 1592 1591
f 1576 1577 1593 1592
f 1577 1578 1594 1593
f 1578 1579 1595 1594
f 1579 1580 1596 1595
f 1580 1581 1597 1596
f 1581 1582 1598 1597
f 1582 1583 1599 1598
f 1583 1584 1600 1599
f 1584 1569 1585 1600
f 1520 1519 1518 1517 1516 1515 1514 1513 1512 1511 1510 1509 1508 1507 1506 1505
f 1585 1586 1587 1588 1589 1590 1591 1592 1593 1594 1595 1596 1597 1598 1599 1600
g swept_nacelle_pylon
f 1638 1639 1635 1634
f 1639 1640 1636 1635
f 1640 1641 1637 1636
f 1641 1638 1634 1637
f 1634 1635 1636 1637
f 1641 1640 1639 1638
g warp_nacelle
f 1642 1643 1659 1658
f 1643 1644 1660 1659
f 1644 1645 1661 1660
f 1645 1646 1662 1661
f 1646 1647 1663 1662
f 1647 1648 1664 1663
f 1648 1649 1665 1664
f 1649 1650 1666 1665
f 1650 1651 1667 1666
f 1651 1652 1668 1667
f 1652 1653 1669 1668
f 1653 1654 1670 1669
f 1654 1655 1671 1670
f 1655 1656 1672 1671
f 1656 1657 1673 1672
f 1657 1642 1658 1673
f 1658 1659 1675 1674
f 1659 1660 1676 1675
f 1660 1661 1677 1676
f 1661 1662 1678 1677
f 1662 1663 1679 1678
f 1663 1664 1680 1679
f 1664 1665 1681 1680
f 1665 1666 1682 1681
f 1666 1667 1683 1682
f 1667 1668 1684 1683
f 1668 1669 1685 1684
f 1669 1670 1686 1685
f 1670 1671 1687 1686
f 1671 1672 1688 1687
f 1672 1673 1689 1688
f 1673 1658 1674 1689
f 1674 1675 1691 1690
f 1675 1676 1692 1691
f 1676 1677 1693 1692
f 1677 1678 1694 1693
f 1678 1679 1695 1694
f 1679 1680 1696 1695
f 1680 1681 1697 1696
f 1681 1682 1698 1697
f 1682 1683 1699 1698
f 1683 1684 1700 1699
f 1684 1685 1701 1700
f 1685 1686 1702 1701
f 1686 1687 1703 1702
f 1687 1688 1704 1703
f 1688 1689 1705 1704
f 1689 1674 1690 1705
f 1690 1691 1707 1706
f 1691 1692 1708 1707
f 1692 1693 1709 1708
f 1693 1694 1710 1709
f 1694 1695 1711 1710
f 1695 1696 1712 1711
f 1696 1697 1713 1712
f 1697 1698 1714 1713
f 1698 1699 1715 1714
f 1699 1700 1716 1715
f 1700 1701 1717 1716
f 1701 1702 1718 1717
f 1702 1703 1719 1718
f 1703 1704 1720 1719
f 1704 1705 1721 1720
f 1705 1690 1706 1721
f 1706 1707 1723 1722
f 1707 1708 1724 1723
f 1708 1709 1725 1724
f 1709 1710 1726 1725
f 1710 1711 1727 1726
f 1711 1712 1728 1727
f 1712 1713 1729 1728
f 1713 1714 1730 1729
f 1714 1715 1731 1730
f 1715 1716 1732 1731
f 1716 1717 1733 1732
f 1717 1718 1734 1733
f 1718 1719 1735 1734
f 1719 1720 1736 1735
f 1720 1721 1737 1736
f 1721 1706 1722 1737
f 1657 1656 1655 1654 1653 1652 1651 1650 1649 1648 1647 1646 1645 1644 1643 1642
f 1722 1723 1724 1725 1726 1727 1728 1729 1730 1731 1732 1733 1734 1735 1736 1737
g navigation_deflector
f 1795 1796 1772 1771
f 1796 1797 1773 1772
f 1797 1798 1774 1773
f 1798 1799 1775 1774
f 1799 1800 1776 1775
f 1800 1801 1777 1776
f 1801 1802 1778 1777
f 1802 1803 1779 1778
f 1803 1804 1780 1779
f 1804 1805 1781 1780
f 1805 1806 1782 1781
f 1806 1807 1783 1782
f 1807 1808 1784 1783
f 1808 1809 1785 1784
f 1809 1810 1786 1785
f 1810 1811 1787 1786
f 1811 1812 1788 1787
f 1812 1813 1789 1788
f 1813 1814 1790 1789
f 1814 1815 1791 1790
f 1815 1816 1792 1791
f 1816 1817 1793 1792
f 1817 1818 1794 1793
f 1818 1795 1771 1794
f 1819 1820 1796 1795
f 1820 1821 1797 1796
f 1821 1822 1798 1797
f 1822 1823 1799 1798
f 1823 1824 1800 1799
f 1824 1825 1801 1800
f 1825 1826 1802 1801
f 1826 1827 1803 1802
f 1827 1828 1804 1803
f 1828 1829 1805 1804
f 1829 1830 1806 1805
f 1830 1831 1807 1806
f 1831 1832 1808 1807
f 1832 1833 1809 1808
f 1833 1834 1810 1809
f 1834 1835 1811 1810
f 1835 1836 1812 1811
f 1836 1837 1813 1812
f 1837 1838 1814 1813
f 1838 1839 1815 1814
f 1839 1840 1816 1815
f 1840 1841 1817 1816
f 1841 1842 1818 1817
f 1842 1819 1795 1818
f 1771 1772 1773 1774 1775 1776 1777 1778 1779 1780 1781 1782 1783 1784 1785 1786 1787 1788 1789 1790 1791 1792 1793 1794
f 1842 1841 1840 1839 1838 1837 1836 1835 1834 1833 1832 1831 1830 1829 1828 1827 1826 1825 1824 1823 1822 1821 1820 1819
g schematic_details
l 65 66 67 68 69 70 71 72 73 74 75 76 77 78 79 80 81 82 83 84 85 86 87 88 89 90 91 92 93 94 95 96 97 98 99 100 101 102 103 104 105 106 107 108 109 110 111 112 113 114 115 116 117 118 119 120 121 122 123 124 125 126 127 128 65
l 129 130 131 132 133 134 135 136 137 138 139 140 141 142 143 144 145 146 147 148 149 150 151 152 153 154 155 156 157 158 159 160 161 162 163 164 165 166 167 168 169 170 171 172 173 174 175 176 177 178 179 180 181 182 183 184 185 186 187 188 189 190 191 192 129
l 193 194 195 196 197 198 199 200 201 202 203 204 205 206 207 208 209 210 211 212 213 214 215 216 217 218 219 220 221 222 223 224 225 226 227 228 229 230 231 232 233 234 235 236 237 238 239 240 241 242 243 244 245 246 247 248 249 250 251 252 253 254 255 256 193
l 257 258 259 260 261 262 263 264 265 266 267 268 269 270 271 272 273 274 275 276 277 278 279 280 281 282 283 284 285 286 287 288 289 290 291 292 293 294 295 296 297 298 299 300 301 302 303 304 305 306 307 308 309 310 311 312 313 314 315 316 317 318 319 320 257
l 321 322 323 324 325 326 327 328 329 330 331 332 333 334 335 336 337 338 339 340 341 342 343 344 345 346 347 348 349 350 351 352 353 354 355 356 357 358 359 360 361 362 363 364 365 366 367 368 369 370 371 372 373 374 375 376 377 378 379 380 381 382 383 384 321
l 385 386 387 388 389 390 391 392 393 394 395 396 397 398 399 400 401 402 403 404 405 406 407 408 409 410 411 412 413 414 415 416 417 418 419 420 421 422 423 424 425 426 427 428 429 430 431 432 433 434 435 436 437 438 439 440 441 442 443 444 445 446 447 448 385
l 449 450 451 452 453 454 455 456 457 458 459 460 461 462 463 464 465 466 467 468 469 470 471 472 473 474 475 476 477 478 479 480 481 482 483 484 485 486 487 488 489 490 491 492 493 494 495 496 497 498 499 500 501 502 503 504 505 506 507 508 509 510 511 512 449
l 65 129 193 257
l 69 133 197 261
l 73 137 201 265
l 77 141 205 269
l 81 145 209 273
l 85 149 213 277
l 89 153 217 281
l 93 157 221 285
l 97 161 225 289
l 101 165 229 293
l 105 169 233 297
l 109 173 237 301
l 113 177 241 305
l 117 181 245 309
l 121 185 249 313
l 125 189 253 317
l 321 385 449
l 329 393 457
l 337 401 465
l 345 409 473
l 353 417 481
l 361 425 489
l 369 433 497
l 377 441 505
l 577 578 579 580 581 582 583 584 585 586 587 588 589 590 591 592 593 594 595 596 597 598 599 600 601 602 603 604 605 606 607 608 609 610 611 612 613 614 615 616 617 618 619 620 621 622 623 624 625 626 627 628 629 630 631 632 633 634 635 636 637 638 639 640 577
l 641 642 643 644 645 646 647 648 649 650 651 652 653 654 655 656 657 658 659 660 661 662 663 664 665 666 667 668 669 670 671 672 673 674 675 676 677 678 679 680 681 682 683 684 685 686 687 688 689 690 691 692 693 694 695 696 697 698 699 700 701 702 703 704 641
l 705 706 707 708 709 710 711 712 713 714 715 716 717 718 719 720 721 722 723 724 725 726 727 728 729 730 731 732 733 734 735 736 737 738 739 740 741 742 743 744 745 746 747 748 749 750 751 752 753 754 755 756 757 758 759 760 761 762 763 764 765 766 767 768 705
l 769 770
l 771 772
l 773 774
l 775 776
l 777 778
l 779 780
l 781 782
l 783 784
l 785 786
l 787 788
l 789 790
l 791 792
l 793 794
l 795 796
l 797 798
l 799 800
l 801 802
l 803 804
l 805 806
l 807 808
l 809 810
l 811 812
l 813 814
l 815 816
l 817 818
l 819 820
l 821 822
l 823 824
l 825 826
l 827 828
l 829 830
l 831 832
l 833 834
l 835 836
l 837 838
l 839 840
l 841 842
l 843 844
l 845 846
l 847 848
l 849 850
l 851 852
l 853 854
l 855 856
l 857 858
l 859 860
l 861 862
l 863 864
l 865 866
l 867 868
l 869 870
l 871 872
l 873 874
l 875 876
l 877 878
l 879 880
l 881 882
l 883 884
l 885 886 887 888 889 890 891 892 893 894 895 896 897 898 899 900 901 902 903 904 885
l 905 906 907 908 909 910 911 912 913 914 915 916 917 918 919 920 921 922 923 924 905
l 965 966 967 968 969 970 971 972 973 974 975 976 977 978 979 980 981 982 983 984 965
l 985 986 987 988 989 990 991 992 993 994 995 996 997 998 999 1000 1001 1002 1003 1004 985
l 885 905 925 945 965 985
l 890 910 930 950 970 990
l 895 915 935 955 975 995
l 900 920 940 960 980 1000
l 1005 1006 1007 1008 1009 1010 1011 1012 1013 1014 1015 1016 1005
l 1017 1018 1019 1020 1021 1022 1023 1024 1025 1026 1027 1028 1017
l 1041 1042 1043 1044 1045 1046 1047 1048 1049 1050 1051 1052 1041
l 1053 1054 1055 1056 1057 1058 1059 1060 1061 1062 1063 1064 1053
l 1005 1017 1029 1041 1053
l 1008 1020 1032 1044 1056
l 1011 1023 1035 1047 1059
l 1014 1026 1038 1050 1062
l 1505 1506 1507 1508 1509 1510 1511 1512 1513 1514 1515 1516 1517 1518 1519 1520 1505
l 1521 1522 1523 1524 1525 1526 1527 1528 1529 1530 1531 1532 1533 1534 1535 1536 1521
l 1569 1570 1571 1572 1573 1574 1575 1576 1577 1578 1579 1580 1581 1582 1583 1584 1569
l 1585 1586 1587 1588 1589 1590 1591 1592 1593 1594 1595 1596 1597 1598 1599 1600 1585
l 1505 1521 1537 1553 1569 1585
l 1509 1525 1541 1557 1573 1589
l 1513 1529 1545 1561 1577 1593
l 1517 1533 1549 1565 1581 1597
l 1601 1602 1603
l 1604 1605 1606
l 1607 1608 1609
l 1610 1611 1612
l 1613 1614 1615
l 1616 1617 1618
l 1619 1620 1621
l 1622 1623 1624
l 1625 1626 1627
l 1628 1629 1630
l 1631 1632 1633
l 1642 1643 1644 1645 1646 1647 1648 1649 1650 1651 1652 1653 1654 1655 1656 1657 1642
l 1658 1659 1660 1661 1662 1663 1664 1665 1666 1667 1668 1669 1670 1671 1672 1673 1658
l 1706 1707 1708 1709 1710 1711 1712 1713 1714 1715 1716 1717 1718 1719 1720 1721 1706
l 1722 1723 1724 1725 1726 1727 1728 1729 1730 1731 1732 1733 1734 1735 1736 1737 1722
l 1642 1658 1674 1690 1706 1722
l 1646 1662 1678 1694 1710 1726
l 1650 1666 1682 1698 1714 1730
l 1654 1670 1686 1702 1718 1734
l 1738 1739 1740
l 1741 1742 1743
l 1744 1745 1746
l 1747 1748 1749
l 1750 1751 1752
l 1753 1754 1755
l 1756 1757 1758
l 1759 1760 1761
l 1762 1763 1764
l 1765 1766 1767
l 1768 1769 1770
l 1771 1772 1773 1774 1775 1776 1777 1778 1779 1780 1781 1782 1783 1784 1785 1786 1787 1788 1789 1790 1791 1792 1793 1794 1771
l 1795 1796 1797 1798 1799 1800 1801 1802 1803 1804 1805 1806 1807 1808 1809 1810 1811 1812 1813 1814 1815 1816 1817 1818 1795
l 1795 1796 1797 1798 1799 1800 1801 1802 1803 1804 1805 1806 1807 1808 1809 1810 1811 1812 1813 1814 1815 1816 1817 1818 1795
l 1819 1820 1821 1822 1823 1824 1825 1826 1827 1828 1829 1830 1831 1832 1833 1834 1835 1836 1837 1838 1839 1840 1841 1842 1819
l 1771 1795 1819
l 1777 1801 1825
l 1783 1807 1831
l 1789 1813 1837
l 1843 1844 1845 1846 1847 1848 1843
