# Original procedural schematic geometry; +Y up / bow -Z. Units arbitrary.
# No materials, textures, imported meshes, or hidden dependencies.
o vessel
v 5.760000 25.740000 -63.000000
v 5.732264 25.740000 -62.435421
v 5.649323 25.740000 -61.876280
v 5.511976 25.740000 -61.327960
v 5.321546 25.740000 -60.795743
v 5.079866 25.740000 -60.284755
v 4.789265 25.740000 -59.799915
v 4.452540 25.740000 -59.345895
v 4.072935 25.740000 -58.927065
v 3.654105 25.740000 -58.547460
v 3.200085 25.740000 -58.210735
v 2.715245 25.740000 -57.920134
v 2.204257 25.740000 -57.678454
v 1.672040 25.740000 -57.488024
v 1.123720 25.740000 -57.350677
v 0.564579 25.740000 -57.267736
v 0.000000 25.740000 -57.240000
v -0.564579 25.740000 -57.267736
v -1.123720 25.740000 -57.350677
v -1.672040 25.740000 -57.488024
v -2.204257 25.740000 -57.678454
v -2.715245 25.740000 -57.920134
v -3.200085 25.740000 -58.210735
v -3.654105 25.740000 -58.547460
v -4.072935 25.740000 -58.927065
v -4.452540 25.740000 -59.345895
v -4.789265 25.740000 -59.799915
v -5.079866 25.740000 -60.284755
v -5.321546 25.740000 -60.795743
v -5.511976 25.740000 -61.327960
v -5.649323 25.740000 -61.876280
v -5.732264 25.740000 -62.435421
v -5.760000 25.740000 -63.000000
v -5.732264 25.740000 -63.564579
v -5.649323 25.740000 -64.123720
v -5.511976 25.740000 -64.672040
v -5.321546 25.740000 -65.204257
v -5.079866 25.740000 -65.715245
v -4.789265 25.740000 -66.200085
v -4.452540 25.740000 -66.654105
v -4.072935 25.740000 -67.072935
v -3.654105 25.740000 -67.452540
v -3.200085 25.740000 -67.789265
v -2.715245 25.740000 -68.079866
v -2.204257 25.740000 -68.321546
v -1.672040 25.740000 -68.511976
v -1.123720 25.740000 -68.649323
v -0.564579 25.740000 -68.732264
v -0.000000 25.740000 -68.760000
v 0.564579 25.740000 -68.732264
v 1.123720 25.740000 -68.649323
v 1.672040 25.740000 -68.511976
v 2.204257 25.740000 -68.321546
v 2.715245 25.740000 -68.079866
v 3.200085 25.740000 -67.789265
v 3.654105 25.740000 -67.452540
v 4.072935 25.740000 -67.072935
v 4.452540 25.740000 -66.654105
v 4.789265 25.740000 -66.200085
v 5.079866 25.740000 -65.715245
v 5.321546 25.740000 -65.204257
v 5.511976 25.740000 -64.672040
v 5.649323 25.740000 -64.123720
v 5.732264 25.740000 -63.564579
v 15.360000 25.040000 -63.000000
v 15.286037 25.040000 -61.494457
v 15.064862 25.040000 -60.003413
v 14.698604 25.040000 -58.541227
v 14.190790 25.040000 -57.121982
v 13.546311 25.040000 -55.759346
v 12.771373 25.040000 -54.466441
v 11.873441 25.040000 -53.255719
v 10.861160 25.040000 -52.138840
v 9.744281 25.040000 -51.126559
v 8.533559 25.040000 -50.228627
v 7.240654 25.040000 -49.453689
v 5.878018 25.040000 -48.809210
v 4.458773 25.040000 -48.301396
v 2.996587 25.040000 -47.935138
v 1.505543 25.040000 -47.713963
v 0.000000 25.040000 -47.640000
v -1.505543 25.040000 -47.713963
v -2.996587 25.040000 -47.935138
v -4.458773 25.040000 -48.301396
v -5.878018 25.040000 -48.809210
v -7.240654 25.040000 -49.453689
v -8.533559 25.040000 -50.228627
v -9.744281 25.040000 -51.126559
v -10.861160 25.040000 -52.138840
v -11.873441 25.040000 -53.255719
v -12.771373 25.040000 -54.466441
v -13.546311 25.040000 -55.759346
v -14.190790 25.040000 -57.121982
v -14.698604 25.040000 -58.541227
v -15.064862 25.040000 -60.003413
v -15.286037 25.040000 -61.494457
v -15.360000 25.040000 -63.000000
v -15.286037 25.040000 -64.505543
v -15.064862 25.040000 -65.996587
v -14.698604 25.040000 -67.458773
v -14.190790 25.040000 -68.878018
v -13.546311 25.040000 -70.240654
v -12.771373 25.040000 -71.533559
v -11.873441 25.040000 -72.744281
v -10.861160 25.040000 -73.861160
v -9.744281 25.040000 -74.873441
v -8.533559 25.040000 -75.771373
v -7.240654 25.040000 -76.546311
v -5.878018 25.040000 -77.190790
v -4.458773 25.040000 -77.698604
v -2.996587 25.040000 -78.064862
v -1.505543 25.040000 -78.286037
v -0.000000 25.040000 -78.360000
v 1.505543 25.040000 -78.286037
v 2.996587 25.040000 -78.064862
v 4.458773 25.040000 -77.698604
v 5.878018 25.040000 -77.190790
v 7.240654 25.040000 -76.546311
v 8.533559 25.040000 -75.771373
v 9.744281 25.040000 -74.873441
v 10.861160 25.040000 -73.861160
v 11.873441 25.040000 -72.744281
v 12.771373 25.040000 -71.533559
v 13.546311 25.040000 -70.240654
v 14.190790 25.040000 -68.878018
v 14.698604 25.040000 -67.458773
v 15.064862 25.040000 -65.996587
v 15.286037 25.040000 -64.505543
v 36.480000 22.590000 -63.000000
v 36.304339 22.590000 -59.424335
v 35.779047 22.590000 -55.883105
v 34.909183 22.590000 -52.410415
v 33.703125 22.590000 -49.039708
v 32.172488 22.590000 -45.803447
v 30.332011 22.590000 -42.732798
v 28.199421 22.590000 -39.857333
v 25.795255 22.590000 -37.204745
v 23.142667 22.590000 -34.800579
v 20.267202 22.590000 -32.667989
v 17.196553 22.590000 -30.827512
v 13.960292 22.590000 -29.296875
v 10.589585 22.590000 -28.090817
v 7.116895 22.590000 -27.220953
v 3.575665 22.590000 -26.695661
v 0.000000 22.590000 -26.520000
v -3.575665 22.590000 -26.695661
v -7.116895 22.590000 -27.220953
v -10.589585 22.590000 -28.090817
v -13.960292 22.590000 -29.296875
v -17.196553 22.590000 -30.827512
v -20.267202 22.590000 -32.667989
v -23.142667 22.590000 -34.800579
v -25.795255 22.590000 -37.204745
v -28.199421 22.590000 -39.857333
v -30.332011 22.590000 -42.732798
v -32.172488 22.590000 -45.803447
v -33.703125 22.590000 -49.039708
v -34.909183 22.590000 -52.410415
v -35.779047 22.590000 -55.883105
v -36.304339 22.590000 -59.424335
v -36.480000 22.590000 -63.000000
v -36.304339 22.590000 -66.575665
v -35.779047 22.590000 -70.116895
v -34.909183 22.590000 -73.589585
v -33.703125 22.590000 -76.960292
v -32.172488 22.590000 -80.196553
v -30.332011 22.590000 -83.267202
v -28.199421 22.590000 -86.142667
v -25.795255 22.590000 -88.795255
v -23.142667 22.590000 -91.199421
v -20.267202 22.590000 -93.332011
v -17.196553 22.590000 -95.172488
v -13.960292 22.590000 -96.703125
v -10.589585 22.590000 -97.909183
v -7.116895 22.590000 -98.779047
v -3.575665 22.590000 -99.304339
v -0.000000 22.590000 -99.480000
v 3.575665 22.590000 -99.304339
v 7.116895 22.590000 -98.779047
v 10.589585 22.590000 -97.909183
v 13.960292 22.590000 -96.703125
v 17.196553 22.590000 -95.172488
v 20.267202 22.590000 -93.332011
v 23.142667 22.590000 -91.199421
v 25.795255 22.590000 -88.795255
v 28.199421 22.590000 -86.142667
v 30.332011 22.590000 -83.267202
v 32.172488 22.590000 -80.196553
v 33.703125 22.590000 -76.960292
v 34.909183 22.590000 -73.589585
v 35.779047 22.590000 -70.116895
v 36.304339 22.590000 -66.575665
v 46.080000 21.190000 -63.000000
v 45.858112 21.190000 -58.483370
v 45.194586 21.190000 -54.010238
v 44.095811 21.190000 -49.623682
v 42.572369 21.190000 -45.365947
v 40.638932 21.190000 -41.278038
v 38.314120 21.190000 -37.399324
v 35.620322 21.190000 -33.767157
v 32.583480 21.190000 -30.416520
v 29.232843 21.190000 -27.379678
v 25.600676 21.190000 -24.685880
v 21.721962 21.190000 -22.361068
v 17.634053 21.190000 -20.427631
v 13.376318 21.190000 -18.904189
v 8.989762 21.190000 -17.805414
v 4.516630 21.190000 -17.141888
v 0.000000 21.190000 -16.920000
v -4.516630 21.190000 -17.141888
v -8.989762 21.190000 -17.805414
v -13.376318 21.190000 -18.904189
v -17.634053 21.190000 -20.427631
v -21.721962 21.190000 -22.361068
v -25.600676 21.190000 -24.685880
v -29.232843 21.190000 -27.379678
v -32.583480 21.190000 -30.416520
v -35.620322 21.190000 -33.767157
v -38.314120 21.190000 -37.399324
v -40.638932 21.190000 -41.278038
v -42.572369 21.190000 -45.365947
v -44.095811 21.190000 -49.623682
v -45.194586 21.190000 -54.010238
v -45.858112 21.190000 -58.483370
v -46.080000 21.190000 -63.000000
v -45.858112 21.190000 -67.516630
v -45.194586 21.190000 -71.989762
v -44.095811 21.190000 -76.376318
v -42.572369 21.190000 -80.634053
v -40.638932 21.190000 -84.721962
v -38.314120 21.190000 -88.600676
v -35.620322 21.190000 -92.232843
v -32.583480 21.190000 -95.583480
v -29.232843 21.190000 -98.620322
v -25.600676 21.190000 -101.314120
v -21.721962 21.190000 -103.638932
v -17.634053 21.190000 -105.572369
v -13.376318 21.190000 -107.095811
v -8.989762 21.190000 -108.194586
v -4.516630 21.190000 -108.858112
v -0.000000 21.190000 -109.080000
v 4.516630 21.190000 -108.858112
v 8.989762 21.190000 -108.194586
v 13.376318 21.190000 -107.095811
v 17.634053 21.190000 -105.572369
v 21.721962 21.190000 -103.638932
v 25.600676 21.190000 -101.314120
v 29.232843 21.190000 -98.620322
v 32.583480 21.190000 -95.583480
v 35.620322 21.190000 -92.232843
v 38.314120 21.190000 -88.600676
v 40.638932 21.190000 -84.721962
v 42.572369 21.190000 -80.634053
v 44.095811 21.190000 -76.376318
v 45.194586 21.190000 -71.989762
v 45.858112 21.190000 -67.516630
v 48.000000 20.350000 -63.000000
v 47.768867 20.350000 -58.295177
v 47.077693 20.350000 -53.635665
v 45.933136 20.350000 -49.066335
v 44.346218 20.350000 -44.631195
v 42.332221 20.350000 -40.372957
v 39.910541 20.350000 -36.332629
v 37.104502 20.350000 -32.549122
v 33.941125 20.350000 -29.058875
v 30.450878 20.350000 -25.895498
v 26.667371 20.350000 -23.089459
v 22.627043 20.350000 -20.667779
v 18.368805 20.350000 -18.653782
v 13.933665 20.350000 -17.066864
v 9.364335 20.350000 -15.922307
v 4.704823 20.350000 -15.231133
v 0.000000 20.350000 -15.000000
v -4.704823 20.350000 -15.231133
v -9.364335 20.350000 -15.922307
v -13.933665 20.350000 -17.066864
v -18.368805 20.350000 -18.653782
v -22.627043 20.350000 -20.667779
v -26.667371 20.350000 -23.089459
v -30.450878 20.350000 -25.895498
v -33.941125 20.350000 -29.058875
v -37.104502 20.350000 -32.549122
v -39.910541 20.350000 -36.332629
v -42.332221 20.350000 -40.372957
v -44.346218 20.350000 -44.631195
v -45.933136 20.350000 -49.066335
v -47.077693 20.350000 -53.635665
v -47.768867 20.350000 -58.295177
v -48.000000 20.350000 -63.000000
v -47.768867 20.350000 -67.704823
v -47.077693 20.350000 -72.364335
v -45.933136 20.350000 -76.933665
v -44.346218 20.350000 -81.368805
v -42.332221 20.350000 -85.627043
v -39.910541 20.350000 -89.667371
v -37.104502 20.350000 -93.450878
v -33.941125 20.350000 -96.941125
v -30.450878 20.350000 -100.104502
v -26.667371 20.350000 -102.910541
v -22.627043 20.350000 -105.332221
v -18.368805 20.350000 -107.346218
v -13.933665 20.350000 -108.933136
v -9.364335 20.350000 -110.077693
v -4.704823 20.350000 -110.768867
v -0.000000 20.350000 -111.000000
v 4.704823 20.350000 -110.768867
v 9.364335 20.350000 -110.077693
v 13.933665 20.350000 -108.933136
v 18.368805 20.350000 -107.346218
v 22.627043 20.350000 -105.332221
v 26.667371 20.350000 -102.910541
v 30.450878 20.350000 -100.104502
v 33.941125 20.350000 -96.941125
v 37.104502 20.350000 -93.450878
v 39.910541 20.350000 -89.667371
v 42.332221 20.350000 -85.627043
v 44.346218 20.350000 -81.368805
v 45.933136 20.350000 -76.933665
v 47.077693 20.350000 -72.364335
v 47.768867 20.350000 -67.704823
v 48.000000 19.090000 -63.000000
v 47.768867 19.090000 -58.295177
v 47.077693 19.090000 -53.635665
v 45.933136 19.090000 -49.066335
v 44.346218 19.090000 -44.631195
v 42.332221 19.090000 -40.372957
v 39.910541 19.090000 -36.332629
v 37.104502 19.090000 -32.549122
v 33.941125 19.090000 -29.058875
v 30.450878 19.090000 -25.895498
v 26.667371 19.090000 -23.089459
v 22.627043 19.090000 -20.667779
v 18.368805 19.090000 -18.653782
v 13.933665 19.090000 -17.066864
v 9.364335 19.090000 -15.922307
v 4.704823 19.090000 -15.231133
v 0.000000 19.090000 -15.000000
v -4.704823 19.090000 -15.231133
v -9.364335 19.090000 -15.922307
v -13.933665 19.090000 -17.066864
v -18.368805 19.090000 -18.653782
v -22.627043 19.090000 -20.667779
v -26.667371 19.090000 -23.089459
v -30.450878 19.090000 -25.895498
v -33.941125 19.090000 -29.058875
v -37.104502 19.090000 -32.549122
v -39.910541 19.090000 -36.332629
v -42.332221 19.090000 -40.372957
v -44.346218 19.090000 -44.631195
v -45.933136 19.090000 -49.066335
v -47.077693 19.090000 -53.635665
v -47.768867 19.090000 -58.295177
v -48.000000 19.090000 -63.000000
v -47.768867 19.090000 -67.704823
v -47.077693 19.090000 -72.364335
v -45.933136 19.090000 -76.933665
v -44.346218 19.090000 -81.368805
v -42.332221 19.090000 -85.627043
v -39.910541 19.090000 -89.667371
v -37.104502 19.090000 -93.450878
v -33.941125 19.090000 -96.941125
v -30.450878 19.090000 -100.104502
v -26.667371 19.090000 -102.910541
v -22.627043 19.090000 -105.332221
v -18.368805 19.090000 -107.346218
v -13.933665 19.090000 -108.933136
v -9.364335 19.090000 -110.077693
v -4.704823 19.090000 -110.768867
v -0.000000 19.090000 -111.000000
v 4.704823 19.090000 -110.768867
v 9.364335 19.090000 -110.077693
v 13.933665 19.090000 -108.933136
v 18.368805 19.090000 -107.346218
v 22.627043 19.090000 -105.332221
v 26.667371 19.090000 -102.910541
v 30.450878 19.090000 -100.104502
v 33.941125 19.090000 -96.941125
v 37.104502 19.090000 -93.450878
v 39.910541 19.090000 -89.667371
v 42.332221 19.090000 -85.627043
v 44.346218 19.090000 -81.368805
v 45.933136 19.090000 -76.933665
v 47.077693 19.090000 -72.364335
v 47.768867 19.090000 -67.704823
v 39.840000 17.200000 -63.000000
v 39.648160 17.200000 -59.094997
v 39.074486 17.200000 -55.227602
v 38.124503 17.200000 -51.435058
v 36.807361 17.200000 -47.753892
v 35.135743 17.200000 -44.219554
v 33.125749 17.200000 -40.866082
v 30.796736 17.200000 -37.725772
v 28.171134 17.200000 -34.828866
v 25.274228 17.200000 -32.203264
v 22.133918 17.200000 -29.874251
v 18.780446 17.200000 -27.864257
v 15.246108 17.200000 -26.192639
v 11.564942 17.200000 -24.875497
v 7.772398 17.200000 -23.925514
v 3.905003 17.200000 -23.351840
v 0.000000 17.200000 -23.160000
v -3.905003 17.200000 -23.351840
v -7.772398 17.200000 -23.925514
v -11.564942 17.200000 -24.875497
v -15.246108 17.200000 -26.192639
v -18.780446 17.200000 -27.864257
v -22.133918 17.200000 -29.874251
v -25.274228 17.200000 -32.203264
v -28.171134 17.200000 -34.828866
v -30.796736 17.200000 -37.725772
v -33.125749 17.200000 -40.866082
v -35.135743 17.200000 -44.219554
v -36.807361 17.200000 -47.753892
v -38.124503 17.200000 -51.435058
v -39.074486 17.200000 -55.227602
v -39.648160 17.200000 -59.094997
v -39.840000 17.200000 -63.000000
v -39.648160 17.200000 -66.905003
v -39.074486 17.200000 -70.772398
v -38.124503 17.200000 -74.564942
v -36.807361 17.200000 -78.246108
v -35.135743 17.200000 -81.780446
v -33.125749 17.200000 -85.133918
v -30.796736 17.200000 -88.274228
v -28.171134 17.200000 -91.171134
v -25.274228 17.200000 -93.796736
v -22.133918 17.200000 -96.125749
v -18.780446 17.200000 -98.135743
v -15.246108 17.200000 -99.807361
v -11.564942 17.200000 -101.124503
v -7.772398 17.200000 -102.074486
v -3.905003 17.200000 -102.648160
v -0.000000 17.200000 -102.840000
v 3.905003 17.200000 -102.648160
v 7.772398 17.200000 -102.074486
v 11.564942 17.200000 -101.124503
v 15.246108 17.200000 -99.807361
v 18.780446 17.200000 -98.135743
v 22.133918 17.200000 -96.125749
v 25.274228 17.200000 -93.796736
v 28.171134 17.200000 -91.171134
v 30.796736 17.200000 -88.274228
v 33.125749 17.200000 -85.133918
v 35.135743 17.200000 -81.780446
v 36.807361 17.200000 -78.246108
v 38.124503 17.200000 -74.564942
v 39.074486 17.200000 -70.772398
v 39.648160 17.200000 -66.905003
v 13.440000 15.520000 -63.000000
v 13.375283 15.520000 -61.682650
v 13.181754 15.520000 -60.377986
v 12.861278 15.520000 -59.098574
v 12.416941 15.520000 -57.856735
v 11.853022 15.520000 -56.664428
v 11.174952 15.520000 -55.533136
v 10.389260 15.520000 -54.473754
v 9.503515 15.520000 -53.496485
v 8.526246 15.520000 -52.610740
v 7.466864 15.520000 -51.825048
v 6.335572 15.520000 -51.146978
v 5.143265 15.520000 -50.583059
v 3.901426 15.520000 -50.138722
v 2.622014 15.520000 -49.818246
v 1.317350 15.520000 -49.624717
v 0.000000 15.520000 -49.560000
v -1.317350 15.520000 -49.624717
v -2.622014 15.520000 -49.818246
v -3.901426 15.520000 -50.138722
v -5.143265 15.520000 -50.583059
v -6.335572 15.520000 -51.146978
v -7.466864 15.520000 -51.825048
v -8.526246 15.520000 -52.610740
v -9.503515 15.520000 -53.496485
v -10.389260 15.520000 -54.473754
v -11.174952 15.520000 -55.533136
v -11.853022 15.520000 -56.664428
v -12.416941 15.520000 -57.856735
v -12.861278 15.520000 -59.098574
v -13.181754 15.520000 -60.377986
v -13.375283 15.520000 -61.682650
v -13.440000 15.520000 -63.000000
v -13.375283 15.520000 -64.317350
v -13.181754 15.520000 -65.622014
v -12.861278 15.520000 -66.901426
v -12.416941 15.520000 -68.143265
v -11.853022 15.520000 -69.335572
v -11.174952 15.520000 -70.466864
v -10.389260 15.520000 -71.526246
v -9.503515 15.520000 -72.503515
v -8.526246 15.520000 -73.389260
v -7.466864 15.520000 -74.174952
v -6.335572 15.520000 -74.853022
v -5.143265 15.520000 -75.416941
v -3.901426 15.520000 -75.861278
v -2.622014 15.520000 -76.181754
v -1.317350 15.520000 -76.375283
v -0.000000 15.520000 -76.440000
v 1.317350 15.520000 -76.375283
v 2.622014 15.520000 -76.181754
v 3.901426 15.520000 -75.861278
v 5.143265 15.520000 -75.416941
v 6.335572 15.520000 -74.853022
v 7.466864 15.520000 -74.174952
v 8.526246 15.520000 -73.389260
v 9.503515 15.520000 -72.503515
v 10.389260 15.520000 -71.526246
v 11.174952 15.520000 -70.466864
v 11.853022 15.520000 -69.335572
v 12.416941 15.520000 -68.143265
v 12.861278 15.520000 -66.901426
v 13.181754 15.520000 -65.622014
v 13.375283 15.520000 -64.317350
v 5.760000 15.380000 -63.000000
v 5.732264 15.380000 -62.435421
v 5.649323 15.380000 -61.876280
v 5.511976 15.380000 -61.327960
v 5.321546 15.380000 -60.795743
v 5.079866 15.380000 -60.284755
v 4.789265 15.380000 -59.799915
v 4.452540 15.380000 -59.345895
v 4.072935 15.380000 -58.927065
v 3.654105 15.380000 -58.547460
v 3.200085 15.380000 -58.210735
v 2.715245 15.380000 -57.920134
v 2.204257 15.380000 -57.678454
v 1.672040 15.380000 -57.488024
v 1.123720 15.380000 -57.350677
v 0.564579 15.380000 -57.267736
v 0.000000 15.380000 -57.240000
v -0.564579 15.380000 -57.267736
v -1.123720 15.380000 -57.350677
v -1.672040 15.380000 -57.488024
v -2.204257 15.380000 -57.678454
v -2.715245 15.380000 -57.920134
v -3.200085 15.380000 -58.210735
v -3.654105 15.380000 -58.547460
v -4.072935 15.380000 -58.927065
v -4.452540 15.380000 -59.345895
v -4.789265 15.380000 -59.799915
v -5.079866 15.380000 -60.284755
v -5.321546 15.380000 -60.795743
v -5.511976 15.380000 -61.327960
v -5.649323 15.380000 -61.876280
v -5.732264 15.380000 -62.435421
v -5.760000 15.380000 -63.000000
v -5.732264 15.380000 -63.564579
v -5.649323 15.380000 -64.123720
v -5.511976 15.380000 -64.672040
v -5.321546 15.380000 -65.204257
v -5.079866 15.380000 -65.715245
v -4.789265 15.380000 -66.200085
v -4.452540 15.380000 -66.654105
v -4.072935 15.380000 -67.072935
v -3.654105 15.380000 -67.452540
v -3.200085 15.380000 -67.789265
v -2.715245 15.380000 -68.079866
v -2.204257 15.380000 -68.321546
v -1.672040 15.380000 -68.511976
v -1.123720 15.380000 -68.649323
v -0.564579 15.380000 -68.732264
v -0.000000 15.380000 -68.760000
v 0.564579 15.380000 -68.732264
v 1.123720 15.380000 -68.649323
v 1.672040 15.380000 -68.511976
v 2.204257 15.380000 -68.321546
v 2.715245 15.380000 -68.079866
v 3.200085 15.380000 -67.789265
v 3.654105 15.380000 -67.452540
v 4.072935 15.380000 -67.072935
v 4.452540 15.380000 -66.654105
v 4.789265 15.380000 -66.200085
v 5.079866 15.380000 -65.715245
v 5.321546 15.380000 -65.204257
v 5.511976 15.380000 -64.672040
v 5.649323 15.380000 -64.123720
v 5.732264 15.380000 -63.564579
v 22.560000 24.225773 -63.000000
v 22.451367 24.225773 -60.788733
v 22.126516 24.225773 -58.598762
v 21.588574 24.225773 -56.451178
v 20.842722 24.225773 -54.366662
v 19.896144 24.225773 -52.365290
v 18.757954 24.225773 -50.466336
v 17.439116 24.225773 -48.688088
v 15.952329 24.225773 -47.047671
v 14.311912 24.225773 -45.560884
v 12.533664 24.225773 -44.242046
v 10.634710 24.225773 -43.103856
v 8.633338 24.225773 -42.157278
v 6.548822 24.225773 -41.411426
v 4.401238 24.225773 -40.873484
v 2.211267 24.225773 -40.548633
v 0.000000 24.225773 -40.440000
v -2.211267 24.225773 -40.548633
v -4.401238 24.225773 -40.873484
v -6.548822 24.225773 -41.411426
v -8.633338 24.225773 -42.157278
v -10.634710 24.225773 -43.103856
v -12.533664 24.225773 -44.242046
v -14.311912 24.225773 -45.560884
v -15.952329 24.225773 -47.047671
v -17.439116 24.225773 -48.688088
v -18.757954 24.225773 -50.466336
v -19.896144 24.225773 -52.365290
v -20.842722 24.225773 -54.366662
v -21.588574 24.225773 -56.451178
v -22.126516 24.225773 -58.598762
v -22.451367 24.225773 -60.788733
v -22.560000 24.225773 -63.000000
v -22.451367 24.225773 -65.211267
v -22.126516 24.225773 -67.401238
v -21.588574 24.225773 -69.548822
v -20.842722 24.225773 -71.633338
v -19.896144 24.225773 -73.634710
v -18.757954 24.225773 -75.533664
v -17.439116 24.225773 -77.311912
v -15.952329 24.225773 -78.952329
v -14.311912 24.225773 -80.439116
v -12.533664 24.225773 -81.757954
v -10.634710 24.225773 -82.896144
v -8.633338 24.225773 -83.842722
v -6.548822 24.225773 -84.588574
v -4.401238 24.225773 -85.126516
v -2.211267 24.225773 -85.451367
v -0.000000 24.225773 -85.560000
v 2.211267 24.225773 -85.451367
v 4.401238 24.225773 -85.126516
v 6.548822 24.225773 -84.588574
v 8.633338 24.225773 -83.842722
v 10.634710 24.225773 -82.896144
v 12.533664 24.225773 -81.757954
v 14.311912 24.225773 -80.439116
v 15.952329 24.225773 -78.952329
v 17.439116 24.225773 -77.311912
v 18.757954 24.225773 -75.533664
v 19.896144 24.225773 -73.634710
v 20.842722 24.225773 -71.633338
v 21.588574 24.225773 -69.548822
v 22.126516 24.225773 -67.401238
v 22.451367 24.225773 -65.211267
v 28.800000 23.501909 -63.000000
v 28.661320 23.501909 -60.177106
v 28.246616 23.501909 -57.381399
v 27.559882 23.501909 -54.639801
v 26.607731 23.501909 -51.978717
v 25.399332 23.501909 -49.423774
v 23.946325 23.501909 -46.999577
v 22.262701 23.501909 -44.729473
v 20.364675 23.501909 -42.635325
v 18.270527 23.501909 -40.737299
v 16.000423 23.501909 -39.053675
v 13.576226 23.501909 -37.600668
v 11.021283 23.501909 -36.392269
v 8.360199 23.501909 -35.440118
v 5.618601 23.501909 -34.753384
v 2.822894 23.501909 -34.338680
v 0.000000 23.501909 -34.200000
v -2.822894 23.501909 -34.338680
v -5.618601 23.501909 -34.753384
v -8.360199 23.501909 -35.440118
v -11.021283 23.501909 -36.392269
v -13.576226 23.501909 -37.600668
v -16.000423 23.501909 -39.053675
v -18.270527 23.501909 -40.737299
v -20.364675 23.501909 -42.635325
v -22.262701 23.501909 -44.729473
v -23.946325 23.501909 -46.999577
v -25.399332 23.501909 -49.423774
v -26.607731 23.501909 -51.978717
v -27.559882 23.501909 -54.639801
v -28.246616 23.501909 -57.381399
v -28.661320 23.501909 -60.177106
v -28.800000 23.501909 -63.000000
v -28.661320 23.501909 -65.822894
v -28.246616 23.501909 -68.618601
v -27.559882 23.501909 -71.360199
v -26.607731 23.501909 -74.021283
v -25.399332 23.501909 -76.576226
v -23.946325 23.501909 -79.000423
v -22.262701 23.501909 -81.270527
v -20.364675 23.501909 -83.364675
v -18.270527 23.501909 -85.262701
v -16.000423 23.501909 -86.946325
v -13.576226 23.501909 -88.399332
v -11.021283 23.501909 -89.607731
v -8.360199 23.501909 -90.559882
v -5.618601 23.501909 -91.246616
v -2.822894 23.501909 -91.661320
v -0.000000 23.501909 -91.800000
v 2.822894 23.501909 -91.661320
v 5.618601 23.501909 -91.246616
v 8.360199 23.501909 -90.559882
v 11.021283 23.501909 -89.607731
v 13.576226 23.501909 -88.399332
v 16.000423 23.501909 -86.946325
v 18.270527 23.501909 -85.262701
v 20.364675 23.501909 -83.364675
v 22.262701 23.501909 -81.270527
v 23.946325 23.501909 -79.000423
v 25.399332 23.501909 -76.576226
v 26.607731 23.501909 -74.021283
v 27.559882 23.501909 -71.360199
v 28.246616 23.501909 -68.618601
v 28.661320 23.501909 -65.822894
v 42.240000 21.771000 -63.000000
v 42.036603 21.771000 -58.859756
v 41.428370 21.771000 -54.759385
v 40.421160 21.771000 -50.738375
v 39.024671 21.771000 -46.835452
v 37.252354 21.771000 -43.088202
v 35.121276 21.771000 -39.532713
v 32.651962 21.771000 -36.203228
v 29.868190 21.771000 -33.131810
v 26.796772 21.771000 -30.348038
v 23.467287 21.771000 -27.878724
v 19.911798 21.771000 -25.747646
v 16.164548 21.771000 -23.975329
v 12.261625 21.771000 -22.578840
v 8.240615 21.771000 -21.571630
v 4.140244 21.771000 -20.963397
v 0.000000 21.771000 -20.760000
v -4.140244 21.771000 -20.963397
v -8.240615 21.771000 -21.571630
v -12.261625 21.771000 -22.578840
v -16.164548 21.771000 -23.975329
v -19.911798 21.771000 -25.747646
v -23.467287 21.771000 -27.878724
v -26.796772 21.771000 -30.348038
v -29.868190 21.771000 -33.131810
v -32.651962 21.771000 -36.203228
v -35.121276 21.771000 -39.532713
v -37.252354 21.771000 -43.088202
v -39.024671 21.771000 -46.835452
v -40.421160 21.771000 -50.738375
v -41.428370 21.771000 -54.759385
v -42.036603 21.771000 -58.859756
v -42.240000 21.771000 -63.000000
v -42.036603 21.771000 -67.140244
v -41.428370 21.771000 -71.240615
v -40.421160 21.771000 -75.261625
v -39.024671 21.771000 -79.164548
v -37.252354 21.771000 -82.911798
v -35.121276 21.771000 -86.467287
v -32.651962 21.771000 -89.796772
v -29.868190 21.771000 -92.868190
v -26.796772 21.771000 -95.651962
v -23.467287 21.771000 -98.121276
v -19.911798 21.771000 -100.252354
v -16.164548 21.771000 -102.024671
v -12.261625 21.771000 -103.421160
v -8.240615 21.771000 -104.428370
v -4.140244 21.771000 -105.036603
v -0.000000 21.771000 -105.240000
v 4.140244 21.771000 -105.036603
v 8.240615 21.771000 -104.428370
v 12.261625 21.771000 -103.421160
v 16.164548 21.771000 -102.024671
v 19.911798 21.771000 -100.252354
v 23.467287 21.771000 -98.121276
v 26.796772 21.771000 -95.651962
v 29.868190 21.771000 -92.868190
v 32.651962 21.771000 -89.796772
v 35.121276 21.771000 -86.467287
v 37.252354 21.771000 -82.911798
v 39.024671 21.771000 -79.164548
v 40.421160 21.771000 -75.261625
v 41.428370 21.771000 -71.240615
v 42.036603 21.771000 -67.140244
v 44.492240 21.435000 -63.578432
v 44.492240 21.435000 -62.421568
v 44.334694 21.435000 -59.214644
v 44.221302 21.435000 -58.063351
v 43.750181 21.435000 -54.887312
v 43.524488 21.435000 -53.752677
v 42.744329 21.435000 -50.638109
v 42.408509 21.435000 -49.531060
v 41.326826 21.435000 -46.507958
v 40.884114 21.435000 -45.439156
v 39.511323 21.435000 -42.536634
v 38.965982 21.435000 -41.516372
v 37.315305 21.435000 -38.762384
v 36.672586 21.435000 -37.800487
v 34.759920 21.435000 -35.221555
v 34.026014 21.435000 -34.327288
v 31.869778 21.435000 -31.948248
v 31.051752 21.435000 -31.130222
v 28.672712 21.435000 -28.973986
v 27.778445 21.435000 -28.240080
v 25.199513 21.435000 -26.327414
v 24.237616 21.435000 -25.684695
v 21.483628 21.435000 -24.034018
v 20.463366 21.435000 -23.488677
v 17.560844 21.435000 -22.115886
v 16.492042 21.435000 -21.673174
v 13.468940 21.435000 -20.591491
v 12.361891 21.435000 -20.255671
v 9.247323 21.435000 -19.475512
v 8.112688 21.435000 -19.249819
v -8.112688 21.435000 -19.249819
v -9.247323 21.435000 -19.475512
v -12.361891 21.435000 -20.255671
v -13.468940 21.435000 -20.591491
v -16.492042 21.435000 -21.673174
v -17.560844 21.435000 -22.115886
v -20.463366 21.435000 -23.488677
v -21.483628 21.435000 -24.034018
v -24.237616 21.435000 -25.684695
v -25.199513 21.435000 -26.327414
v -27.778445 21.435000 -28.240080
v -28.672712 21.435000 -28.973986
v -31.051752 21.435000 -31.130222
v -31.869778 21.435000 -31.948248
v -34.026014 21.435000 -34.327288
v -34.759920 21.435000 -35.221555
v -36.672586 21.435000 -37.800487
v -37.315305 21.435000 -38.762384
v -38.965982 21.435000 -41.516372
v -39.511323 21.435000 -42.536634
v -40.884114 21.435000 -45.439156
v -41.326826 21.435000 -46.507958
v -42.408509 21.435000 -49.531060
v -42.744329 21.435000 -50.638109
v -43.524488 21.435000 -53.752677
v -43.750181 21.435000 -54.887312
v -44.221302 21.435000 -58.063351
v -44.334694 21.435000 -59.214644
v -44.492240 21.435000 -62.421568
v -44.492240 21.435000 -63.578432
v -44.334694 21.435000 -66.785356
v -44.221302 21.435000 -67.936649
v -43.750181 21.435000 -71.112688
v -43.524488 21.435000 -72.247323
v -42.744329 21.435000 -75.361891
v -42.408509 21.435000 -76.468940
v -41.326826 21.435000 -79.492042
v -40.884114 21.435000 -80.560844
v -39.511323 21.435000 -83.463366
v -38.965982 21.435000 -84.483628
v -37.315305 21.435000 -87.237616
v -36.672586 21.435000 -88.199513
v -34.759920 21.435000 -90.778445
v -34.026014 21.435000 -91.672712
v -31.869778 21.435000 -94.051752
v -31.051752 21.435000 -94.869778
v -28.672712 21.435000 -97.026014
v -27.778445 21.435000 -97.759920
v -25.199513 21.435000 -99.672586
v -24.237616 21.435000 -100.315305
v -21.483628 21.435000 -101.965982
v -20.463366 21.435000 -102.511323
v -17.560844 21.435000 -103.884114
v -16.492042 21.435000 -104.326826
v -13.468940 21.435000 -105.408509
v -12.361891 21.435000 -105.744329
v -9.247323 21.435000 -106.524488
v -8.112688 21.435000 -106.750181
v 8.112688 21.435000 -106.750181
v 9.247323 21.435000 -106.524488
v 12.361891 21.435000 -105.744329
v 13.468940 21.435000 -105.408509
v 16.492042 21.435000 -104.326826
v 17.560844 21.435000 -103.884114
v 20.463366 21.435000 -102.511323
v 21.483628 21.435000 -101.965982
v 24.237616 21.435000 -100.315305
v 25.199513 21.435000 -99.672586
v 27.778445 21.435000 -97.759920
v 28.672712 21.435000 -97.026014
v 31.051752 21.435000 -94.869778
v 31.869778 21.435000 -94.051752
v 34.026014 21.435000 -91.672712
v 34.759920 21.435000 -90.778445
v 36.672586 21.435000 -88.199513
v 37.315305 21.435000 -87.237616
v 38.965982 21.435000 -84.483628
v 39.511323 21.435000 -83.463366
v 40.884114 21.435000 -80.560844
v 41.326826 21.435000 -79.492042
v 42.408509 21.435000 -76.468940
v 42.744329 21.435000 -75.361891
v 43.524488 21.435000 -72.247323
v 43.750181 21.435000 -71.112688
v 44.221302 21.435000 -67.936649
v 44.334694 21.435000 -66.785356
v 0.693000 28.183000 -59.000000
v 0.669387 28.183000 -58.782592
v 0.600156 28.183000 -58.580000
v 0.490025 28.183000 -58.406030
v 0.346500 28.183000 -58.272539
v 0.179362 28.183000 -58.188622
v 0.000000 28.183000 -58.160000
v -0.179362 28.183000 -58.188622
v -0.346500 28.183000 -58.272539
v -0.490025 28.183000 -58.406030
v -0.600156 28.183000 -58.580000
v -0.669387 28.183000 -58.782592
v -0.693000 28.183000 -59.000000
v -0.669387 28.183000 -59.217408
v -0.600156 28.183000 -59.420000
v -0.490025 28.183000 -59.593970
v -0.346500 28.183000 -59.727461
v -0.179362 28.183000 -59.811378
v -0.000000 28.183000 -59.840000
v 0.179362 28.183000 -59.811378
v 0.346500 28.183000 -59.727461
v 0.490025 28.183000 -59.593970
v 0.600156 28.183000 -59.420000
v 0.669387 28.183000 -59.217408
v 1.848000 27.868000 -59.000000
v 1.785031 27.868000 -58.420245
v 1.600415 27.868000 -57.880000
v 1.306733 27.868000 -57.416081
v 0.924000 27.868000 -57.060103
v 0.478298 27.868000 -56.836326
v 0.000000 27.868000 -56.760000
v -0.478298 27.868000 -56.836326
v -0.924000 27.868000 -57.060103
v -1.306733 27.868000 -57.416081
v -1.600415 27.868000 -57.880000
v -1.785031 27.868000 -58.420245
v -1.848000 27.868000 -59.000000
v -1.785031 27.868000 -59.579755
v -1.600415 27.868000 -60.120000
v -1.306733 27.868000 -60.583919
v -0.924000 27.868000 -60.939897
v -0.478298 27.868000 -61.163674
v -0.000000 27.868000 -61.240000
v 0.478298 27.868000 -61.163674
v 0.924000 27.868000 -60.939897
v 1.306733 27.868000 -60.583919
v 1.600415 27.868000 -60.120000
v 1.785031 27.868000 -59.579755
v 4.389000 26.765500 -59.000000
v 4.239448 26.765500 -57.623083
v 3.800985 26.765500 -56.340000
v 3.103492 26.765500 -55.238192
v 2.194500 26.765500 -54.392745
v 1.135957 26.765500 -53.861275
v 0.000000 26.765500 -53.680000
v -1.135957 26.765500 -53.861275
v -2.194500 26.765500 -54.392745
v -3.103492 26.765500 -55.238192
v -3.800985 26.765500 -56.340000
v -4.239448 26.765500 -57.623083
v -4.389000 26.765500 -59.000000
v -4.239448 26.765500 -60.376917
v -3.800985 26.765500 -61.660000
v -3.103492 26.765500 -62.761808
v -2.194500 26.765500 -63.607255
v -1.135957 26.765500 -64.138725
v -0.000000 26.765500 -64.320000
v 1.135957 26.765500 -64.138725
v 2.194500 26.765500 -63.607255
v 3.103492 26.765500 -62.761808
v 3.800985 26.765500 -61.660000
v 4.239448 26.765500 -60.376917
v 5.544000 26.135500 -59.000000
v 5.355093 26.135500 -57.260736
v 4.801245 26.135500 -55.640000
v 3.920200 26.135500 -54.248242
v 2.772000 26.135500 -53.180309
v 1.434893 26.135500 -52.508978
v 0.000000 26.135500 -52.280000
v -1.434893 26.135500 -52.508978
v -2.772000 26.135500 -53.180309
v -3.920200 26.135500 -54.248242
v -4.801245 26.135500 -55.640000
v -5.355093 26.135500 -57.260736
v -5.544000 26.135500 -59.000000
v -5.355093 26.135500 -60.739264
v -4.801245 26.135500 -62.360000
v -3.920200 26.135500 -63.751758
v -2.772000 26.135500 -64.819691
v -1.434893 26.135500 -65.491022
v -0.000000 26.135500 -65.720000
v 1.434893 26.135500 -65.491022
v 2.772000 26.135500 -64.819691
v 3.920200 26.135500 -63.751758
v 4.801245 26.135500 -62.360000
v 5.355093 26.135500 -60.739264
v 5.775000 25.757500 -59.000000
v 5.578222 25.757500 -57.188267
v 5.001297 25.757500 -55.500000
v 4.083542 25.757500 -54.050253
v 2.887500 25.757500 -52.937822
v 1.494680 25.757500 -52.238519
v 0.000000 25.757500 -52.000000
v -1.494680 25.757500 -52.238519
v -2.887500 25.757500 -52.937822
v -4.083542 25.757500 -54.050253
v -5.001297 25.757500 -55.500000
v -5.578222 25.757500 -57.188267
v -5.775000 25.757500 -59.000000
v -5.578222 25.757500 -60.811733
v -5.001297 25.757500 -62.500000
v -4.083542 25.757500 -63.949747
v -2.887500 25.757500 -65.062178
v -1.494680 25.757500 -65.761481
v -0.000000 25.757500 -66.000000
v 1.494680 25.757500 -65.761481
v 2.887500 25.757500 -65.062178
v 4.083542 25.757500 -63.949747
v 5.001297 25.757500 -62.500000
v 5.578222 25.757500 -60.811733
v 5.775000 25.190500 -59.000000
v 5.578222 25.190500 -57.188267
v 5.001297 25.190500 -55.500000
v 4.083542 25.190500 -54.050253
v 2.887500 25.190500 -52.937822
v 1.494680 25.190500 -52.238519
v 0.000000 25.190500 -52.000000
v -1.494680 25.190500 -52.238519
v -2.887500 25.190500 -52.937822
v -4.083542 25.190500 -54.050253
v -5.001297 25.190500 -55.500000
v -5.578222 25.190500 -57.188267
v -5.775000 25.190500 -59.000000
v -5.578222 25.190500 -60.811733
v -5.001297 25.190500 -62.500000
v -4.083542 25.190500 -63.949747
v -2.887500 25.190500 -65.062178
v -1.494680 25.190500 -65.761481
v -0.000000 25.190500 -66.000000
v 1.494680 25.190500 -65.761481
v 2.887500 25.190500 -65.062178
v 4.083542 25.190500 -63.949747
v 5.001297 25.190500 -62.500000
v 5.578222 25.190500 -60.811733
v 4.793250 24.340000 -59.000000
v 4.629924 24.340000 -57.496261
v 4.151076 24.340000 -56.095000
v 3.389340 24.340000 -54.891710
v 2.396625 24.340000 -53.968392
v 1.240584 24.340000 -53.387971
v 0.000000 24.340000 -53.190000
v -1.240584 24.340000 -53.387971
v -2.396625 24.340000 -53.968392
v -3.389340 24.340000 -54.891710
v -4.151076 24.340000 -56.095000
v -4.629924 24.340000 -57.496261
v -4.793250 24.340000 -59.000000
v -4.629924 24.340000 -60.503739
v -4.151076 24.340000 -61.905000
v -3.389340 24.340000 -63.108290
v -2.396625 24.340000 -64.031608
v -1.240584 24.340000 -64.612029
v -0.000000 24.340000 -64.810000
v 1.240584 24.340000 -64.612029
v 2.396625 24.340000 -64.031608
v 3.389340 24.340000 -63.108290
v 4.151076 24.340000 -61.905000
v 4.629924 24.340000 -60.503739
v 1.617000 23.584000 -59.000000
v 1.561902 23.584000 -58.492715
v 1.400363 23.584000 -58.020000
v 1.143392 23.584000 -57.614071
v 0.808500 23.584000 -57.302590
v 0.418510 23.584000 -57.106785
v 0.000000 23.584000 -57.040000
v -0.418510 23.584000 -57.106785
v -0.808500 23.584000 -57.302590
v -1.143392 23.584000 -57.614071
v -1.400363 23.584000 -58.020000
v -1.561902 23.584000 -58.492715
v -1.617000 23.584000 -59.000000
v -1.561902 23.584000 -59.507285
v -1.400363 23.584000 -59.980000
v -1.143392 23.584000 -60.385929
v -0.808500 23.584000 -60.697410
v -0.418510 23.584000 -60.893215
v -0.000000 23.584000 -60.960000
v 0.418510 23.584000 -60.893215
v 0.808500 23.584000 -60.697410
v 1.143392 23.584000 -60.385929
v 1.400363 23.584000 -59.980000
v 1.561902 23.584000 -59.507285
v 0.693000 23.521000 -59.000000
v 0.669387 23.521000 -58.782592
v 0.600156 23.521000 -58.580000
v 0.490025 23.521000 -58.406030
v 0.346500 23.521000 -58.272539
v 0.179362 23.521000 -58.188622
v 0.000000 23.521000 -58.160000
v -0.179362 23.521000 -58.188622
v -0.346500 23.521000 -58.272539
v -0.490025 23.521000 -58.406030
v -0.600156 23.521000 -58.580000
v -0.669387 23.521000 -58.782592
v -0.693000 23.521000 -59.000000
v -0.669387 23.521000 -59.217408
v -0.600156 23.521000 -59.420000
v -0.490025 23.521000 -59.593970
v -0.346500 23.521000 -59.727461
v -0.179362 23.521000 -59.811378
v -0.000000 23.521000 -59.840000
v 0.179362 23.521000 -59.811378
v 0.346500 23.521000 -59.727461
v 0.490025 23.521000 -59.593970
v 0.600156 23.521000 -59.420000
v 0.669387 23.521000 -59.217408
v 0.420000 29.310000 -59.350000
v 0.405689 29.310000 -59.230426
v 0.363731 29.310000 -59.119000
v 0.296985 29.310000 -59.023317
v 0.210000 29.310000 -58.949896
v 0.108704 29.310000 -58.903742
v 0.000000 29.310000 -58.888000
v -0.108704 29.310000 -58.903742
v -0.210000 29.310000 -58.949896
v -0.296985 29.310000 -59.023317
v -0.363731 29.310000 -59.119000
v -0.405689 29.310000 -59.230426
v -0.420000 29.310000 -59.350000
v -0.405689 29.310000 -59.469574
v -0.363731 29.310000 -59.581000
v -0.296985 29.310000 -59.676683
v -0.210000 29.310000 -59.750104
v -0.108704 29.310000 -59.796258
v -0.000000 29.310000 -59.812000
v 0.108704 29.310000 -59.796258
v 0.210000 29.310000 -59.750104
v 0.296985 29.310000 -59.676683
v 0.363731 29.310000 -59.581000
v 0.405689 29.310000 -59.469574
v 1.120000 29.135000 -59.350000
v 1.081837 29.135000 -59.031135
v 0.969948 29.135000 -58.734000
v 0.791960 29.135000 -58.478844
v 0.560000 29.135000 -58.283057
v 0.289877 29.135000 -58.159979
v 0.000000 29.135000 -58.118000
v -0.289877 29.135000 -58.159979
v -0.560000 29.135000 -58.283057
v -0.791960 29.135000 -58.478844
v -0.969948 29.135000 -58.734000
v -1.081837 29.135000 -59.031135
v -1.120000 29.135000 -59.350000
v -1.081837 29.135000 -59.668865
v -0.969948 29.135000 -59.966000
v -0.791960 29.135000 -60.221156
v -0.560000 29.135000 -60.416943
v -0.289877 29.135000 -60.540021
v -0.000000 29.135000 -60.582000
v 0.289877 29.135000 -60.540021
v 0.560000 29.135000 -60.416943
v 0.791960 29.135000 -60.221156
v 0.969948 29.135000 -59.966000
v 1.081837 29.135000 -59.668865
v 2.660000 28.522500 -59.350000
v 2.569363 28.522500 -58.592695
v 2.303628 28.522500 -57.887000
v 1.880904 28.522500 -57.281006
v 1.330000 28.522500 -56.816010
v 0.688459 28.522500 -56.523701
v 0.000000 28.522500 -56.424000
v -0.688459 28.522500 -56.523701
v -1.330000 28.522500 -56.816010
v -1.880904 28.522500 -57.281006
v -2.303628 28.522500 -57.887000
v -2.569363 28.522500 -58.592695
v -2.660000 28.522500 -59.350000
v -2.569363 28.522500 -60.107305
v -2.303628 28.522500 -60.813000
v -1.880904 28.522500 -61.418994
v -1.330000 28.522500 -61.883990
v -0.688459 28.522500 -62.176299
v -0.000000 28.522500 -62.276000
v 0.688459 28.522500 -62.176299
v 1.330000 28.522500 -61.883990
v 1.880904 28.522500 -61.418994
v 2.303628 28.522500 -60.813000
v 2.569363 28.522500 -60.107305
v 3.360000 28.172500 -59.350000
v 3.245511 28.172500 -58.393405
v 2.909845 28.172500 -57.502000
v 2.375879 28.172500 -56.736533
v 1.680000 28.172500 -56.149170
v 0.869632 28.172500 -55.779938
v 0.000000 28.172500 -55.654000
v -0.869632 28.172500 -55.779938
v -1.680000 28.172500 -56.149170
v -2.375879 28.172500 -56.736533
v -2.909845 28.172500 -57.502000
v -3.245511 28.172500 -58.393405
v -3.360000 28.172500 -59.350000
v -3.245511 28.172500 -60.306595
v -2.909845 28.172500 -61.198000
v -2.375879 28.172500 -61.963467
v -1.680000 28.172500 -62.550830
v -0.869632 28.172500 -62.920062
v -0.000000 28.172500 -63.046000
v 0.869632 28.172500 -62.920062
v 1.680000 28.172500 -62.550830
v 2.375879 28.172500 -61.963467
v 2.909845 28.172500 -61.198000
v 3.245511 28.172500 -60.306595
v 3.500000 27.962500 -59.350000
v 3.380740 27.962500 -58.353547
v 3.031089 27.962500 -57.425000
v 2.474874 27.962500 -56.627639
v 1.750000 27.962500 -56.015802
v 0.905867 27.962500 -55.631186
v 0.000000 27.962500 -55.500000
v -0.905867 27.962500 -55.631186
v -1.750000 27.962500 -56.015802
v -2.474874 27.962500 -56.627639
v -3.031089 27.962500 -57.425000
v -3.380740 27.962500 -58.353547
v -3.500000 27.962500 -59.350000
v -3.380740 27.962500 -60.346453
v -3.031089 27.962500 -61.275000
v -2.474874 27.962500 -62.072361
v -1.750000 27.962500 -62.684198
v -0.905867 27.962500 -63.068814
v -0.000000 27.962500 -63.200000
v 0.905867 27.962500 -63.068814
v 1.750000 27.962500 -62.684198
v 2.474874 27.962500 -62.072361
v 3.031089 27.962500 -61.275000
v 3.380740 27.962500 -60.346453
v 3.500000 27.647500 -59.350000
v 3.380740 27.647500 -58.353547
v 3.031089 27.647500 -57.425000
v 2.474874 27.647500 -56.627639
v 1.750000 27.647500 -56.015802
v 0.905867 27.647500 -55.631186
v 0.000000 27.647500 -55.500000
v -0.905867 27.647500 -55.631186
v -1.750000 27.647500 -56.015802
v -2.474874 27.647500 -56.627639
v -3.031089 27.647500 -57.425000
v -3.380740 27.647500 -58.353547
v -3.500000 27.647500 -59.350000
v -3.380740 27.647500 -60.346453
v -3.031089 27.647500 -61.275000
v -2.474874 27.647500 -62.072361
v -1.750000 27.647500 -62.684198
v -0.905867 27.647500 -63.068814
v -0.000000 27.647500 -63.200000
v 0.905867 27.647500 -63.068814
v 1.750000 27.647500 -62.684198
v 2.474874 27.647500 -62.072361
v 3.031089 27.647500 -61.275000
v 3.380740 27.647500 -60.346453
v 2.905000 27.175000 -59.350000
v 2.806015 27.175000 -58.522944
v 2.515804 27.175000 -57.752250
v 2.054145 27.175000 -57.090440
v 1.452500 27.175000 -56.582616
v 0.751869 27.175000 -56.263384
v 0.000000 27.175000 -56.154500
v -0.751869 27.175000 -56.263384
v -1.452500 27.175000 -56.582616
v -2.054145 27.175000 -57.090440
v -2.515804 27.175000 -57.752250
v -2.806015 27.175000 -58.522944
v -2.905000 27.175000 -59.350000
v -2.806015 27.175000 -60.177056
v -2.515804 27.175000 -60.947750
v -2.054145 27.175000 -61.609560
v -1.452500 27.175000 -62.117384
v -0.751869 27.175000 -62.436616
v -0.000000 27.175000 -62.545500
v 0.751869 27.175000 -62.436616
v 1.452500 27.175000 -62.117384
v 2.054145 27.175000 -61.609560
v 2.515804 27.175000 -60.947750
v 2.806015 27.175000 -60.177056
v 0.980000 26.755000 -59.350000
v 0.946607 26.755000 -59.070993
v 0.848705 26.755000 -58.811000
v 0.692965 26.755000 -58.587739
v 0.490000 26.755000 -58.416425
v 0.253643 26.755000 -58.308732
v 0.000000 26.755000 -58.272000
v -0.253643 26.755000 -58.308732
v -0.490000 26.755000 -58.416425
v -0.692965 26.755000 -58.587739
v -0.848705 26.755000 -58.811000
v -0.946607 26.755000 -59.070993
v -0.980000 26.755000 -59.350000
v -0.946607 26.755000 -59.629007
v -0.848705 26.755000 -59.889000
v -0.692965 26.755000 -60.112261
v -0.490000 26.755000 -60.283575
v -0.253643 26.755000 -60.391268
v -0.000000 26.755000 -60.428000
v 0.253643 26.755000 -60.391268
v 0.490000 26.755000 -60.283575
v 0.692965 26.755000 -60.112261
v 0.848705 26.755000 -59.889000
v 0.946607 26.755000 -59.629007
v 0.420000 26.720000 -59.350000
v 0.405689 26.720000 -59.230426
v 0.363731 26.720000 -59.119000
v 0.296985 26.720000 -59.023317
v 0.210000 26.720000 -58.949896
v 0.108704 26.720000 -58.903742
v 0.000000 26.720000 -58.888000
v -0.108704 26.720000 -58.903742
v -0.210000 26.720000 -58.949896
v -0.296985 26.720000 -59.023317
v -0.363731 26.720000 -59.119000
v -0.405689 26.720000 -59.230426
v -0.420000 26.720000 -59.350000
v -0.405689 26.720000 -59.469574
v -0.363731 26.720000 -59.581000
v -0.296985 26.720000 -59.676683
v -0.210000 26.720000 -59.750104
v -0.108704 26.720000 -59.796258
v -0.000000 26.720000 -59.812000
v 0.108704 26.720000 -59.796258
v 0.210000 26.720000 -59.750104
v 0.296985 26.720000 -59.676683
v 0.363731 26.720000 -59.581000
v 0.405689 26.720000 -59.469574
v 2.500000 17.000000 -45.000000
v -2.500000 17.000000 -45.000000
v -2.500000 17.000000 -19.000000
v 2.500000 17.000000 -19.000000
v 2.500000 -12.000000 -19.000000
v -2.500000 -12.000000 -19.000000
v -2.500000 -12.000000 7.000000
v 2.500000 -12.000000 7.000000
v 13.000000 -17.000000 -25.000000
v 12.363735 -12.982779 -25.000000
v 10.517221 -9.358792 -25.000000
v 7.641208 -6.482779 -25.000000
v 4.017221 -4.636265 -25.000000
v 0.000000 -4.000000 -25.000000
v -4.017221 -4.636265 -25.000000
v -7.641208 -6.482779 -25.000000
v -10.517221 -9.358792 -25.000000
v -12.363735 -12.982779 -25.000000
v -13.000000 -17.000000 -25.000000
v -12.363735 -21.017221 -25.000000
v -10.517221 -24.641208 -25.000000
v -7.641208 -27.517221 -25.000000
v -4.017221 -29.363735 -25.000000
v -0.000000 -30.000000 -25.000000
v 4.017221 -29.363735 -25.000000
v 7.641208 -27.517221 -25.000000
v 10.517221 -24.641208 -25.000000
v 12.363735 -21.017221 -25.000000
v 15.000000 -17.000000 -15.000000
v 14.265848 -12.673762 -15.000000
v 12.135255 -8.771006 -15.000000
v 8.816779 -5.673762 -15.000000
v 4.635255 -3.685209 -15.000000
v 0.000000 -3.000000 -15.000000
v -4.635255 -3.685209 -15.000000
v -8.816779 -5.673762 -15.000000
v -12.135255 -8.771006 -15.000000
v -14.265848 -12.673762 -15.000000
v -15.000000 -17.000000 -15.000000
v -14.265848 -21.326238 -15.000000
v -12.135255 -25.228994 -15.000000
v -8.816779 -28.326238 -15.000000
v -4.635255 -30.314791 -15.000000
v -0.000000 -31.000000 -15.000000
v 4.635255 -30.314791 -15.000000
v 8.816779 -28.326238 -15.000000
v 12.135255 -25.228994 -15.000000
v 14.265848 -21.326238 -15.000000
v 13.000000 -17.000000 16.000000
v 12.363735 -13.291796 16.000000
v 10.517221 -9.946577 16.000000
v 7.641208 -7.291796 16.000000
v 4.017221 -5.587322 16.000000
v 0.000000 -5.000000 16.000000
v -4.017221 -5.587322 16.000000
v -7.641208 -7.291796 16.000000
v -10.517221 -9.946577 16.000000
v -12.363735 -13.291796 16.000000
v -13.000000 -17.000000 16.000000
v -12.363735 -20.708204 16.000000
v -10.517221 -24.053423 16.000000
v -7.641208 -26.708204 16.000000
v -4.017221 -28.412678 16.000000
v -0.000000 -29.000000 16.000000
v 4.017221 -28.412678 16.000000
v 7.641208 -26.708204 16.000000
v 10.517221 -24.053423 16.000000
v 12.363735 -20.708204 16.000000
v 8.000000 -14.000000 51.000000
v 7.608452 -11.527864 51.000000
v 6.472136 -9.297718 51.000000
v 4.702282 -7.527864 51.000000
v 2.472136 -6.391548 51.000000
v 0.000000 -6.000000 51.000000
v -2.472136 -6.391548 51.000000
v -4.702282 -7.527864 51.000000
v -6.472136 -9.297718 51.000000
v -7.608452 -11.527864 51.000000
v -8.000000 -14.000000 51.000000
v -7.608452 -16.472136 51.000000
v -6.472136 -18.702282 51.000000
v -4.702282 -20.472136 51.000000
v -2.472136 -21.608452 51.000000
v -0.000000 -22.000000 51.000000
v 2.472136 -21.608452 51.000000
v 4.702282 -20.472136 51.000000
v 6.472136 -18.702282 51.000000
v 7.608452 -16.472136 51.000000
v 5.000000 -13.000000 67.000000
v 4.755283 -11.454915 67.000000
v 4.045085 -10.061074 67.000000
v 2.938926 -8.954915 67.000000
v 1.545085 -8.244717 67.000000
v 0.000000 -8.000000 67.000000
v -1.545085 -8.244717 67.000000
v -2.938926 -8.954915 67.000000
v -4.045085 -10.061074 67.000000
v -4.755283 -11.454915 67.000000
v -5.000000 -13.000000 67.000000
v -4.755283 -14.545085 67.000000
v -4.045085 -15.938926 67.000000
v -2.938926 -17.045085 67.000000
v -1.545085 -17.755283 67.000000
v -0.000000 -18.000000 67.000000
v 1.545085 -17.755283 67.000000
v 2.938926 -17.045085 67.000000
v 4.045085 -15.938926 67.000000
v 4.755283 -14.545085 67.000000
v -10.471090 -12.354952 20.500000
v -7.528910 -9.645048 20.500000
v -7.528910 -9.645048 29.500000
v -10.471090 -12.354952 29.500000
v -45.471090 25.645048 40.500000
v -42.528910 28.354952 40.500000
v -42.528910 28.354952 49.500000
v -45.471090 25.645048 49.500000
v -42.500000 29.000000 -10.000000
v -42.614181 29.574025 -10.000000
v -42.939340 30.060660 -10.000000
v -43.425975 30.385819 -10.000000
v -44.000000 30.500000 -10.000000
v -44.574025 30.385819 -10.000000
v -45.060660 30.060660 -10.000000
v -45.385819 29.574025 -10.000000
v -45.500000 29.000000 -10.000000
v -45.385819 28.425975 -10.000000
v -45.060660 27.939340 -10.000000
v -44.574025 27.614181 -10.000000
v -44.000000 27.500000 -10.000000
v -43.425975 27.614181 -10.000000
v -42.939340 27.939340 -10.000000
v -42.614181 28.425975 -10.000000
v -39.680000 29.000000 -7.300000
v -40.008840 30.653192 -7.300000
v -40.945299 32.054701 -7.300000
v -42.346808 32.991160 -7.300000
v -44.000000 33.320000 -7.300000
v -45.653192 32.991160 -7.300000
v -47.054701 32.054701 -7.300000
v -47.991160 30.653192 -7.300000
v -48.320000 29.000000 -7.300000
v -47.991160 27.346808 -7.300000
v -47.054701 25.945299 -7.300000
v -45.653192 25.008840 -7.300000
v -44.000000 24.680000 -7.300000
v -42.346808 25.008840 -7.300000
v -40.945299 25.945299 -7.300000
v -40.008840 27.346808 -7.300000
v -38.000000 29.000000 -2.440000
v -38.456723 31.296101 -2.440000
v -39.757359 33.242641 -2.440000
v -41.703899 34.543277 -2.440000
v -44.000000 35.000000 -2.440000
v -46.296101 34.543277 -2.440000
v -48.242641 33.242641 -2.440000
v -49.543277 31.296101 -2.440000
v -50.000000 29.000000 -2.440000
v -49.543277 26.703899 -2.440000
v -48.242641 24.757359 -2.440000
v -46.296101 23.456723 -2.440000
v -44.000000 23.000000 -2.440000
v -41.703899 23.456723 -2.440000
v -39.757359 24.757359 -2.440000
v -38.456723 26.703899 -2.440000
v -38.000000 29.000000 9.440000
v -38.456723 31.296101 9.440000
v -39.757359 33.242641 9.440000
v -41.703899 34.543277 9.440000
v -44.000000 35.000000 9.440000
v -46.296101 34.543277 9.440000
v -48.242641 33.242641 9.440000
v -49.543277 31.296101 9.440000
v -50.000000 29.000000 9.440000
v -49.543277 26.703899 9.440000
v -48.242641 24.757359 9.440000
v -46.296101 23.456723 9.440000
v -44.000000 23.000000 9.440000
v -41.703899 23.456723 9.440000
v -39.757359 24.757359 9.440000
v -38.456723 26.703899 9.440000
v -38.000000 29.000000 80.720000
v -38.456723 31.296101 80.720000
v -39.757359 33.242641 80.720000
v -41.703899 34.543277 80.720000
v -44.000000 35.000000 80.720000
v -46.296101 34.543277 80.720000
v -48.242641 33.242641 80.720000
v -49.543277 31.296101 80.720000
v -50.000000 29.000000 80.720000
v -49.543277 26.703899 80.720000
v -48.242641 24.757359 80.720000
v -46.296101 23.456723 80.720000
v -44.000000 23.000000 80.720000
v -41.703899 23.456723 80.720000
v -39.757359 24.757359 80.720000
v -38.456723 26.703899 80.720000
v -39.320000 29.000000 92.600000
v -39.676244 30.790958 92.600000
v -40.690740 32.309260 92.600000
v -42.209042 33.323756 92.600000
v -44.000000 33.680000 92.600000
v -45.790958 33.323756 92.600000
v -47.309260 32.309260 92.600000
v -48.323756 30.790958 92.600000
v -48.680000 29.000000 92.600000
v -48.323756 27.209042 92.600000
v -47.309260 25.690740 92.600000
v -45.790958 24.676244 92.600000
v -44.000000 24.320000 92.600000
v -42.209042 24.676244 92.600000
v -40.690740 25.690740 92.600000
v -39.676244 27.209042 92.600000
v -41.720000 29.000000 98.000000
v -41.893555 29.872518 98.000000
v -42.387797 30.612203 98.000000
v -43.127482 31.106445 98.000000
v -44.000000 31.280000 98.000000
v -44.872518 31.106445 98.000000
v -45.612203 30.612203 98.000000
v -46.106445 29.872518 98.000000
v -46.280000 29.000000 98.000000
v -46.106445 28.127482 98.000000
v -45.612203 27.387797 98.000000
v -44.872518 26.893555 98.000000
v -44.000000 26.720000 98.000000
v -43.127482 26.893555 98.000000
v -42.387797 27.387797 98.000000
v -41.893555 28.127482 98.000000
v -49.760000 27.320000 -2.440000
v -49.760000 27.320000 9.440000
v -49.760000 27.320000 80.720000
v -48.492800 27.689600 92.600000
v -50.000000 29.000000 -2.440000
v -50.000000 29.000000 9.440000
v -50.000000 29.000000 80.720000
v -48.680000 29.000000 92.600000
v -49.760000 30.680000 -2.440000
v -49.760000 30.680000 9.440000
v -49.760000 30.680000 80.720000
v -48.492800 30.310400 92.600000
v -38.240000 27.320000 -2.440000
v -38.240000 27.320000 9.440000
v -38.240000 27.320000 80.720000
v -39.507200 27.689600 92.600000
v -38.000000 29.000000 -2.440000
v -38.000000 29.000000 9.440000
v -38.000000 29.000000 80.720000
v -39.320000 29.000000 92.600000
v -38.240000 30.680000 -2.440000
v -38.240000 30.680000 9.440000
v -38.240000 30.680000 80.720000
v -39.507200 30.310400 92.600000
v -38.000000 29.000000 22.400000
v -38.096938 30.074177 22.400000
v -38.384619 31.113645 22.400000
v -38.000000 29.000000 33.200000
v -38.096938 30.074177 33.200000
v -38.384619 31.113645 33.200000
v -38.000000 29.000000 44.000000
v -38.096938 30.074177 44.000000
v -38.384619 31.113645 44.000000
v -38.000000 29.000000 54.800000
v -38.096938 30.074177 54.800000
v -38.384619 31.113645 54.800000
v -38.000000 29.000000 65.600000
v -38.096938 30.074177 65.600000
v -38.384619 31.113645 65.600000
v 7.528910 -9.645048 20.500000
v 10.471090 -12.354952 20.500000
v 10.471090 -12.354952 29.500000
v 7.528910 -9.645048 29.500000
v 42.528910 28.354952 40.500000
v 45.471090 25.645048 40.500000
v 45.471090 25.645048 49.500000
v 42.528910 28.354952 49.500000
v 45.500000 29.000000 -10.000000
v 45.385819 29.574025 -10.000000
v 45.060660 30.060660 -10.000000
v 44.574025 30.385819 -10.000000
v 44.000000 30.500000 -10.000000
v 43.425975 30.385819 -10.000000
v 42.939340 30.060660 -10.000000
v 42.614181 29.574025 -10.000000
v 42.500000 29.000000 -10.000000
v 42.614181 28.425975 -10.000000
v 42.939340 27.939340 -10.000000
v 43.425975 27.614181 -10.000000
v 44.000000 27.500000 -10.000000
v 44.574025 27.614181 -10.000000
v 45.060660 27.939340 -10.000000
v 45.385819 28.425975 -10.000000
v 48.320000 29.000000 -7.300000
v 47.991160 30.653192 -7.300000
v 47.054701 32.054701 -7.300000
v 45.653192 32.991160 -7.300000
v 44.000000 33.320000 -7.300000
v 42.346808 32.991160 -7.300000
v 40.945299 32.054701 -7.300000
v 40.008840 30.653192 -7.300000
v 39.680000 29.000000 -7.300000
v 40.008840 27.346808 -7.300000
v 40.945299 25.945299 -7.300000
v 42.346808 25.008840 -7.300000
v 44.000000 24.680000 -7.300000
v 45.653192 25.008840 -7.300000
v 47.054701 25.945299 -7.300000
v 47.991160 27.346808 -7.300000
v 50.000000 29.000000 -2.440000
v 49.543277 31.296101 -2.440000
v 48.242641 33.242641 -2.440000
v 46.296101 34.543277 -2.440000
v 44.000000 35.000000 -2.440000
v 41.703899 34.543277 -2.440000
v 39.757359 33.242641 -2.440000
v 38.456723 31.296101 -2.440000
v 38.000000 29.000000 -2.440000
v 38.456723 26.703899 -2.440000
v 39.757359 24.757359 -2.440000
v 41.703899 23.456723 -2.440000
v 44.000000 23.000000 -2.440000
v 46.296101 23.456723 -2.440000
v 48.242641 24.757359 -2.440000
v 49.543277 26.703899 -2.440000
v 50.000000 29.000000 9.440000
v 49.543277 31.296101 9.440000
v 48.242641 33.242641 9.440000
v 46.296101 34.543277 9.440000
v 44.000000 35.000000 9.440000
v 41.703899 34.543277 9.440000
v 39.757359 33.242641 9.440000
v 38.456723 31.296101 9.440000
v 38.000000 29.000000 9.440000
v 38.456723 26.703899 9.440000
v 39.757359 24.757359 9.440000
v 41.703899 23.456723 9.440000
v 44.000000 23.000000 9.440000
v 46.296101 23.456723 9.440000
v 48.242641 24.757359 9.440000
v 49.543277 26.703899 9.440000
v 50.000000 29.000000 80.720000
v 49.543277 31.296101 80.720000
v 48.242641 33.242641 80.720000
v 46.296101 34.543277 80.720000
v 44.000000 35.000000 80.720000
v 41.703899 34.543277 80.720000
v 39.757359 33.242641 80.720000
v 38.456723 31.296101 80.720000
v 38.000000 29.000000 80.720000
v 38.456723 26.703899 80.720000
v 39.757359 24.757359 80.720000
v 41.703899 23.456723 80.720000
v 44.000000 23.000000 80.720000
v 46.296101 23.456723 80.720000
v 48.242641 24.757359 80.720000
v 49.543277 26.703899 80.720000
v 48.680000 29.000000 92.600000
v 48.323756 30.790958 92.600000
v 47.309260 32.309260 92.600000
v 45.790958 33.323756 92.600000
v 44.000000 33.680000 92.600000
v 42.209042 33.323756 92.600000
v 40.690740 32.309260 92.600000
v 39.676244 30.790958 92.600000
v 39.320000 29.000000 92.600000
v 39.676244 27.209042 92.600000
v 40.690740 25.690740 92.600000
v 42.209042 24.676244 92.600000
v 44.000000 24.320000 92.600000
v 45.790958 24.676244 92.600000
v 47.309260 25.690740 92.600000
v 48.323756 27.209042 92.600000
v 46.280000 29.000000 98.000000
v 46.106445 29.872518 98.000000
v 45.612203 30.612203 98.000000
v 44.872518 31.106445 98.000000
v 44.000000 31.280000 98.000000
v 43.127482 31.106445 98.000000
v 42.387797 30.612203 98.000000
v 41.893555 29.872518 98.000000
v 41.720000 29.000000 98.000000
v 41.893555 28.127482 98.000000
v 42.387797 27.387797 98.000000
v 43.127482 26.893555 98.000000
v 44.000000 26.720000 98.000000
v 44.872518 26.893555 98.000000
v 45.612203 27.387797 98.000000
v 46.106445 28.127482 98.000000
v 38.240000 27.320000 -2.440000
v 38.240000 27.320000 9.440000
v 38.240000 27.320000 80.720000
v 39.507200 27.689600 92.600000
v 38.000000 29.000000 -2.440000
v 38.000000 29.000000 9.440000
v 38.000000 29.000000 80.720000
v 39.320000 29.000000 92.600000
v 38.240000 30.680000 -2.440000
v 38.240000 30.680000 9.440000
v 38.240000 30.680000 80.720000
v 39.507200 30.310400 92.600000
v 49.760000 27.320000 -2.440000
v 49.760000 27.320000 9.440000
v 49.760000 27.320000 80.720000
v 48.492800 27.689600 92.600000
v 50.000000 29.000000 -2.440000
v 50.000000 29.000000 9.440000
v 50.000000 29.000000 80.720000
v 48.680000 29.000000 92.600000
v 49.760000 30.680000 -2.440000
v 49.760000 30.680000 9.440000
v 49.760000 30.680000 80.720000
v 48.492800 30.310400 92.600000
v 50.000000 29.000000 22.400000
v 49.903062 30.074177 22.400000
v 49.615381 31.113645 22.400000
v 50.000000 29.000000 33.200000
v 49.903062 30.074177 33.200000
v 49.615381 31.113645 33.200000
v 50.000000 29.000000 44.000000
v 49.903062 30.074177 44.000000
v 49.615381 31.113645 44.000000
v 50.000000 29.000000 54.800000
v 49.903062 30.074177 54.800000
v 49.615381 31.113645 54.800000
v 50.000000 29.000000 65.600000
v 49.903062 30.074177 65.600000
v 49.615381 31.113645 65.600000
v 10.920000 -17.000000 -25.300000
v 10.547910 -14.442868 -25.300000
v 9.456997 -12.060000 -25.300000
v 7.721606 -10.013785 -25.300000
v 5.460000 -8.443669 -25.300000
v 2.826304 -7.456653 -25.300000
v 0.000000 -7.120000 -25.300000
v -2.826304 -7.456653 -25.300000
v -5.460000 -8.443669 -25.300000
v -7.721606 -10.013785 -25.300000
v -9.456997 -12.060000 -25.300000
v -10.547910 -14.442868 -25.300000
v -10.920000 -17.000000 -25.300000
v -10.547910 -19.557132 -25.300000
v -9.456997 -21.940000 -25.300000
v -7.721606 -23.986215 -25.300000
v -5.460000 -25.556331 -25.300000
v -2.826304 -26.543347 -25.300000
v -0.000000 -26.880000 -25.300000
v 2.826304 -26.543347 -25.300000
v 5.460000 -25.556331 -25.300000
v 7.721606 -23.986215 -25.300000
v 9.456997 -21.940000 -25.300000
v 10.547910 -19.557132 -25.300000
v 9.282000 -17.000000 -26.800000
v 8.965724 -14.826438 -26.800000
v 8.038448 -12.801000 -26.800000
v 6.563365 -11.061717 -26.800000
v 4.641000 -9.727119 -26.800000
v 2.402358 -8.888155 -26.800000
v 0.000000 -8.602000 -26.800000
v -2.402358 -8.888155 -26.800000
v -4.641000 -9.727119 -26.800000
v -6.563365 -11.061717 -26.800000
v -8.038448 -12.801000 -26.800000
v -8.965724 -14.826438 -26.800000
v -9.282000 -17.000000 -26.800000
v -8.965724 -19.173562 -26.800000
v -8.038448 -21.199000 -26.800000
v -6.563365 -22.938283 -26.800000
v -4.641000 -24.272881 -26.800000
v -2.402358 -25.111845 -26.800000
v -0.000000 -25.398000 -26.800000
v 2.402358 -25.111845 -26.800000
v 4.641000 -24.272881 -26.800000
v 6.563365 -22.938283 -26.800000
v 8.038448 -21.199000 -26.800000
v 8.965724 -19.173562 -26.800000
v 3.822000 -17.000000 -27.400000
v 3.691769 -16.105004 -27.400000
v 3.309949 -15.271000 -27.400000
v 2.702562 -14.554825 -27.400000
v 1.911000 -14.005284 -27.400000
v 0.989206 -13.659828 -27.400000
v 0.000000 -13.542000 -27.400000
v -0.989206 -13.659828 -27.400000
v -1.911000 -14.005284 -27.400000
v -2.702562 -14.554825 -27.400000
v -3.309949 -15.271000 -27.400000
v -3.691769 -16.105004 -27.400000
v -3.822000 -17.000000 -27.400000
v -3.691769 -17.894996 -27.400000
v -3.309949 -18.729000 -27.400000
v -2.702562 -19.445175 -27.400000
v -1.911000 -19.994716 -27.400000
v -0.989206 -20.340172 -27.400000
v -0.000000 -20.458000 -27.400000
v 0.989206 -20.340172 -27.400000
v 1.911000 -19.994716 -27.400000
v 2.702562 -19.445175 -27.400000
v 3.309949 -18.729000 -27.400000
v 3.691769 -17.894996 -27.400000
v -5.200000 -18.800000 53.000000
v 5.200000 -18.800000 53.000000
v -5.200000 -15.600000 53.000000
v 5.200000 -15.600000 53.000000
v -5.200000 -12.400000 53.000000
v 5.200000 -12.400000 53.000000
v -5.200000 -9.200000 53.000000
v 5.200000 -9.200000 53.000000
g primary_hull
f 1 2 66 65
f 2 3 67 66
f 3 4 68 67
f 4 5 69 68
f 5 6 70 69
f 6 7 71 70
f 7 8 72 71
f 8 9 73 72
f 9 10 74 73
f 10 11 75 74
f 11 12 76 75
f 12 13 77 76
f 13 14 78 77
f 14 15 79 78
f 15 16 80 79
f 16 17 81 80
f 17 18 82 81
f 18 19 83 82
f 19 20 84 83
f 20 21 85 84
f 21 22 86 85
f 22 23 87 86
f 23 24 88 87
f 24 25 89 88
f 25 26 90 89
f 26 27 91 90
f 27 28 92 91
f 28 29 93 92
f 29 30 94 93
f 30 31 95 94
f 31 32 96 95
f 32 33 97 96
f 33 34 98 97
f 34 35 99 98
f 35 36 100 99
f 36 37 101 100
f 37 38 102 101
f 38 39 103 102
f 39 40 104 103
f 40 41 105 104
f 41 42 106 105
f 42 43 107 106
f 43 44 108 107
f 44 45 109 108
f 45 46 110 109
f 46 47 111 110
f 47 48 112 111
f 48 49 113 112
f 49 50 114 113
f 50 51 115 114
f 51 52 116 115
f 52 53 117 116
f 53 54 118 117
f 54 55 119 118
f 55 56 120 119
f 56 57 121 120
f 57 58 122 121
f 58 59 123 122
f 59 60 124 123
f 60 61 125 124
f 61 62 126 125
f 62 63 127 126
f 63 64 128 127
f 64 1 65 128
f 65 66 130 129
f 66 67 131 130
f 67 68 132 131
f 68 69 133 132
f 69 70 134 133
f 70 71 135 134
f 71 72 136 135
f 72 73 137 136
f 73 74 138 137
f 74 75 139 138
f 75 76 140 139
f 76 77 141 140
f 77 78 142 141
f 78 79 143 142
f 79 80 144 143
f 80 81 145 144
f 81 82 146 145
f 82 83 147 146
f 83 84 148 147
f 84 85 149 148
f 85 86 150 149
f 86 87 151 150
f 87 88 152 151
f 88 89 153 152
f 89 90 154 153
f 90 91 155 154
f 91 92 156 155
f 92 93 157 156
f 93 94 158 157
f 94 95 159 158
f 95 96 160 159
f 96 97 161 160
f 97 98 162 161
f 98 99 163 162
f 99 100 164 163
f 100 101 165 164
f 101 102 166 165
f 102 103 167 166
f 103 104 168 167
f 104 105 169 168
f 105 106 170 169
f 106 107 171 170
f 107 108 172 171
f 108 109 173 172
f 109 110 174 173
f 110 111 175 174
f 111 112 176 175
f 112 113 177 176
f 113 114 178 177
f 114 115 179 178
f 115 116 180 179
f 116 117 181 180
f 117 118 182 181
f 118 119 183 182
f 119 120 184 183
f 120 121 185 184
f 121 122 186 185
f 122 123 187 186
f 123 124 188 187
f 124 125 189 188
f 125 126 190 189
f 126 127 191 190
f 127 128 192 191
f 128 65 129 192
f 129 130 194 193
f 130 131 195 194
f 131 132 196 195
f 132 133 197 196
f 133 134 198 197
f 134 135 199 198
f 135 136 200 199
f 136 137 201 200
f 137 138 202 201
f 138 139 203 202
f 139 140 204 203
f 140 141 205 204
f 141 142 206 205
f 142 143 207 206
f 143 144 208 207
f 144 145 209 208
f 145 146 210 209
f 146 147 211 210
f 147 148 212 211
f 148 149 213 212
f 149 150 214 213
f 150 151 215 214
f 151 152 216 215
f 152 153 217 216
f 153 154 218 217
f 154 155 219 218
f 155 156 220 219
f 156 157 221 220
f 157 158 222 221
f 158 159 223 222
f 159 160 224 223
f 160 161 225 224
f 161 162 226 225
f 162 163 227 226
f 163 164 228 227
f 164 165 229 228
f 165 166 230 229
f 166 167 231 230
f 167 168 232 231
f 168 169 233 232
f 169 170 234 233
f 170 171 235 234
f 171 172 236 235
f 172 173 237 236
f 173 174 238 237
f 174 175 239 238
f 175 176 240 239
f 176 177 241 240
f 177 178 242 241
f 178 179 243 242
f 179 180 244 243
f 180 181 245 244
f 181 182 246 245
f 182 183 247 246
f 183 184 248 247
f 184 185 249 248
f 185 186 250 249
f 186 187 251 250
f 187 188 252 251
f 188 189 253 252
f 189 190 254 253
f 190 191 255 254
f 191 192 256 255
f 192 129 193 256
f 193 194 258 257
f 194 195 259 258
f 195 196 260 259
f 196 197 261 260
f 197 198 262 261
f 198 199 263 262
f 199 200 264 263
f 200 201 265 264
f 201 202 266 265
f 202 203 267 266
f 203 204 268 267
f 204 205 269 268
f 205 206 270 269
f 206 207 271 270
f 207 208 272 271
f 208 209 273 272
f 209 210 274 273
f 210 211 275 274
f 211 212 276 275
f 212 213 277 276
f 213 214 278 277
f 214 215 279 278
f 215 216 280 279
f 216 217 281 280
f 217 218 282 281
f 218 219 283 282
f 219 220 284 283
f 220 221 285 284
f 221 222 286 285
f 222 223 287 286
f 223 224 288 287
f 224 225 289 288
f 225 226 290 289
f 226 227 291 290
f 227 228 292 291
f 228 229 293 292
f 229 230 294 293
f 230 231 295 294
f 231 232 296 295
f 232 233 297 296
f 233 234 298 297
f 234 235 299 298
f 235 236 300 299
f 236 237 301 300
f 237 238 302 301
f 238 239 303 302
f 239 240 304 303
f 240 241 305 304
f 241 242 306 305
f 242 243 307 306
f 243 244 308 307
f 244 245 309 308
f 245 246 310 309
f 246 247 311 310
f 247 248 312 311
f 248 249 313 312
f 249 250 314 313
f 250 251 315 314
f 251 252 316 315
f 252 253 317 316
f 253 254 318 317
f 254 255 319 318
f 255 256 320 319
f 256 193 257 320
f 257 258 322 321
f 258 259 323 322
f 259 260 324 323
f 260 261 325 324
f 261 262 326 325
f 262 263 327 326
f 263 264 328 327
f 264 265 329 328
f 265 266 330 329
f 266 267 331 330
f 267 268 332 331
f 268 269 333 332
f 269 270 334 333
f 270 271 335 334
f 271 272 336 335
f 272 273 337 336
f 273 274 338 337
f 274 275 339 338
f 275 276 340 339
f 276 277 341 340
f 277 278 342 341
f 278 279 343 342
f 279 280 344 343
f 280 281 345 344
f 281 282 346 345
f 282 283 347 346
f 283 284 348 347
f 284 285 349 348
f 285 286 350 349
f 286 287 351 350
f 287 288 352 351
f 288 289 353 352
f 289 290 354 353
f 290 291 355 354
f 291 292 356 355
f 292 293 357 356
f 293 294 358 357
f 294 295 359 358
f 295 296 360 359
f 296 297 361 360
f 297 298 362 361
f 298 299 363 362
f 299 300 364 363
f 300 301 365 364
f 301 302 366 365
f 302 303 367 366
f 303 304 368 367
f 304 305 369 368
f 305 306 370 369
f 306 307 371 370
f 307 308 372 371
f 308 309 373 372
f 309 310 374 373
f 310 311 375 374
f 311 312 376 375
f 312 313 377 376
f 313 314 378 377
f 314 315 379 378
f 315 316 380 379
f 316 317 381 380
f 317 318 382 381
f 318 319 383 382
f 319 320 384 383
f 320 257 321 384
f 321 322 386 385
f 322 323 387 386
f 323 324 388 387
f 324 325 389 388
f 325 326 390 389
f 326 327 391 390
f 327 328 392 391
f 328 329 393 392
f 329 330 394 393
f 330 331 395 394
f 331 332 396 395
f 332 333 397 396
f 333 334 398 397
f 334 335 399 398
f 335 336 400 399
f 336 337 401 400
f 337 338 402 401
f 338 339 403 402
f 339 340 404 403
f 340 341 405 404
f 341 342 406 405
f 342 343 407 406
f 343 344 408 407
f 344 345 409 408
f 345 346 410 409
f 346 347 411 410
f 347 348 412 411
f 348 349 413 412
f 349 350 414 413
f 350 351 415 414
f 351 352 416 415
f 352 353 417 416
f 353 354 418 417
f 354 355 419 418
f 355 356 420 419
f 356 357 421 420
f 357 358 422 421
f 358 359 423 422
f 359 360 424 423
f 360 361 425 424
f 361 362 426 425
f 362 363 427 426
f 363 364 428 427
f 364 365 429 428
f 365 366 430 429
f 366 367 431 430
f 367 368 432 431
f 368 369 433 432
f 369 370 434 433
f 370 371 435 434
f 371 372 436 435
f 372 373 437 436
f 373 374 438 437
f 374 375 439 438
f 375 376 440 439
f 376 377 441 440
f 377 378 442 441
f 378 379 443 442
f 379 380 444 443
f 380 381 445 444
f 381 382 446 445
f 382 383 447 446
f 383 384 448 447
f 384 321 385 448
f 385 386 450 449
f 386 387 451 450
f 387 388 452 451
f 388 389 453 452
f 389 390 454 453
f 390 391 455 454
f 391 392 456 455
f 392 393 457 456
f 393 394 458 457
f 394 395 459 458
f 395 396 460 459
f 396 397 461 460
f 397 398 462 461
f 398 399 463 462
f 399 400 464 463
f 400 401 465 464
f 401 402 466 465
f 402 403 467 466
f 403 404 468 467
f 404 405 469 468
f 405 406 470 469
f 406 407 471 470
f 407 408 472 471
f 408 409 473 472
f 409 410 474 473
f 410 411 475 474
f 411 412 476 475
f 412 413 477 476
f 413 414 478 477
f 414 415 479 478
f 415 416 480 479
f 416 417 481 480
f 417 418 482 481
f 418 419 483 482
f 419 420 484 483
f 420 421 485 484
f 421 422 486 485
f 422 423 487 486
f 423 424 488 487
f 424 425 489 488
f 425 426 490 489
f 426 427 491 490
f 427 428 492 491
f 428 429 493 492
f 429 430 494 493
f 430 431 495 494
f 431 432 496 495
f 432 433 497 496
f 433 434 498 497
f 434 435 499 498
f 435 436 500 499
f 436 437 501 500
f 437 438 502 501
f 438 439 503 502
f 439 440 504 503
f 440 441 505 504
f 441 442 506 505
f 442 443 507 506
f 443 444 508 507
f 444 445 509 508
f 445 446 510 509
f 446 447 511 510
f 447 448 512 511
f 448 385 449 512
f 449 450 514 513
f 450 451 515 514
f 451 452 516 515
f 452 453 517 516
f 453 454 518 517
f 454 455 519 518
f 455 456 520 519
f 456 457 521 520
f 457 458 522 521
f 458 459 523 522
f 459 460 524 523
f 460 461 525 524
f 461 462 526 525
f 462 463 527 526
f 463 464 528 527
f 464 465 529 528
f 465 466 530 529
f 466 467 531 530
f 467 468 532 531
f 468 469 533 532
f 469 470 534 533
f 470 471 535 534
f 471 472 536 535
f 472 473 537 536
f 473 474 538 537
f 474 475 539 538
f 475 476 540 539
f 476 477 541 540
f 477 478 542 541
f 478 479 543 542
f 479 480 544 543
f 480 481 545 544
f 481 482 546 545
f 482 483 547 546
f 483 484 548 547
f 484 485 549 548
f 485 486 550 549
f 486 487 551 550
f 487 488 552 551
f 488 489 553 552
f 489 490 554 553
f 490 491 555 554
f 491 492 556 555
f 492 493 557 556
f 493 494 558 557
f 494 495 559 558
f 495 496 560 559
f 496 497 561 560
f 497 498 562 561
f 498 499 563 562
f 499 500 564 563
f 500 501 565 564
f 501 502 566 565
f 502 503 567 566
f 503 504 568 567
f 504 505 569 568
f 505 506 570 569
f 506 507 571 570
f 507 508 572 571
f 508 509 573 572
f 509 510 574 573
f 510 511 575 574
f 511 512 576 575
f 512 449 513 576
f 64 63 62 61 60 59 58 57 56 55 54 53 52 51 50 49 48 47 46 45 44 43 42 41 40 39 38 37 36 35 34 33 32 31 30 29 28 27 26 25 24 23 22 21 20 19 18 17 16 15 14 13 12 11 10 9 8 7 6 5 4 3 2 1
f 513 514 515 516 517 518 519 520 521 522 523 524 525 526 527 528 529 530 531 532 533 534 535 536 537 538 539 540 541 542 543 544 545 546 547 548 549 550 551 552 553 554 555 556 557 558 559 560 561 562 563 564 565 566 567 568 569 570 571 572 573 574 575 576
g bridge_superstructure
f 885 886 910 909
f 886 887 911 910
f 887 888 912 911
f 888 889 913 912
f 889 890 914 913
f 890 891 915 914
f 891 892 916 915
f 892 893 917 916
f 893 894 918 917
f 894 895 919 918
f 895 896 920 919
f 896 897 921 920
f 897 898 922 921
f 898 899 923 922
f 899 900 924 923
f 900 901 925 924
f 901 902 926 925
f 902 903 927 926
f 903 904 928 927
f 904 905 929 928
f 905 906 930 929
f 906 907 931 930
f 907 908 932 931
f 908 885 909 932
f 909 910 934 933
f 910 911 935 934
f 911 912 936 935
f 912 913 937 936
f 913 914 938 937
f 914 915 939 938
f 915 916 940 939
f 916 917 941 940
f 917 918 942 941
f 918 919 943 942
f 919 920 944 943
f 920 921 945 944
f 921 922 946 945
f 922 923 947 946
f 923 924 948 947
f 924 925 949 948
f 925 926 950 949
f 926 927 951 950
f 927 928 952 951
f 928 929 953 952
f 929 930 954 953
f 930 931 955 954
f 931 932 956 955
f 932 909 933 956
f 933 934 958 957
f 934 935 959 958
f 935 936 960 959
f 936 937 961 960
f 937 938 962 961
f 938 939 963 962
f 939 940 964 963
f 940 941 965 964
f 941 942 966 965
f 942 943 967 966
f 943 944 968 967
f 944 945 969 968
f 945 946 970 969
f 946 947 971 970
f 947 948 972 971
f 948 949 973 972
f 949 950 974 973
f 950 951 975 974
f 951 952 976 975
f 952 953 977 976
f 953 954 978 977
f 954 955 979 978
f 955 956 980 979
f 956 933 957 980
f 957 958 982 981
f 958 959 983 982
f 959 960 984 983
f 960 961 985 984
f 961 962 986 985
f 962 963 987 986
f 963 964 988 987
f 964 965 989 988
f 965 966 990 989
f 966 967 991 990
f 967 968 992 991
f 968 969 993 992
f 969 970 994 993
f 970 971 995 994
f 971 972 996 995
f 972 973 997 996
f 973 974 998 997
f 974 975 999 998
f 975 976 1000 999
f 976 977 1001 1000
f 977 978 1002 1001
f 978 979 1003 1002
f 979 980 1004 1003
f 980 957 981 1004
f 981 982 1006 1005
f 982 983 1007 1006
f 983 984 1008 1007
f 984 985 1009 1008
f 985 986 1010 1009
f 986 987 1011 1010
f 987 988 1012 1011
f 988 989 1013 1012
f 989 990 1014 1013
f 990 991 1015 1014
f 991 992 1016 1015
f 992 993 1017 1016
f 993 994 1018 1017
f 994 995 1019 1018
f 995 996 1020 1019
f 996 997 1021 1020
f 997 998 1022 1021
f 998 999 1023 1022
f 999 1000 1024 1023
f 1000 1001 1025 1024
f 1001 1002 1026 1025
f 1002 1003 1027 1026
f 1003 1004 1028 1027
f 1004 981 1005 1028
f 1005 1006 1030 1029
f 1006 1007 1031 1030
f 1007 1008 1032 1031
f 1008 1009 1033 1032
f 1009 1010 1034 1033
f 1010 1011 1035 1034
f 1011 1012 1036 1035
f 1012 1013 1037 1036
f 1013 1014 1038 1037
f 1014 1015 1039 1038
f 1015 1016 1040 1039
f 1016 1017 1041 1040
f 1017 1018 1042 1041
f 1018 1019 1043 1042
f 1019 1020 1044 1043
f 1020 1021 1045 1044
f 1021 1022 1046 1045
f 1022 1023 1047 1046
f 1023 1024 1048 1047
f 1024 1025 1049 1048
f 1025 1026 1050 1049
f 1026 1027 1051 1050
f 1027 1028 1052 1051
f 1028 1005 1029 1052
f 1029 1030 1054 1053
f 1030 1031 1055 1054
f 1031 1032 1056 1055
f 1032 1033 1057 1056
f 1033 1034 1058 1057
f 1034 1035 1059 1058
f 1035 1036 1060 1059
f 1036 1037 1061 1060
f 1037 1038 1062 1061
f 1038 1039 1063 1062
f 1039 1040 1064 1063
f 1040 1041 1065 1064
f 1041 1042 1066 1065
f 1042 1043 1067 1066
f 1043 1044 1068 1067
f 1044 1045 1069 1068
f 1045 1046 1070 1069
f 1046 1047 1071 1070
f 1047 1048 1072 1071
f 1048 1049 1073 1072
f 1049 1050 1074 1073
f 1050 1051 1075 1074
f 1051 1052 1076 1075
f 1052 1029 1053 1076
f 1053 1054 1078 1077
f 1054 1055 1079 1078
f 1055 1056 1080 1079
f 1056 1057 1081 1080
f 1057 1058 1082 1081
f 1058 1059 1083 1082
f 1059 1060 1084 1083
f 1060 1061 1085 1084
f 1061 1062 1086 1085
f 1062 1063 1087 1086
f 1063 1064 1088 1087
f 1064 1065 1089 1088
f 1065 1066 1090 1089
f 1066 1067 1091 1090
f 1067 1068 1092 1091
f 1068 1069 1093 1092
f 1069 1070 1094 1093
f 1070 1071 1095 1094
f 1071 1072 1096 1095
f 1072 1073 1097 1096
f 1073 1074 1098 1097
f 1074 1075 1099 1098
f 1075 1076 1100 1099
f 1076 1053 1077 1100
f 908 907 906 905 904 903 902 901 900 899 898 897 896 895 894 893 892 891 890 889 888 887 886 885
f 1077 1078 1079 1080 1081 1082 1083 1084 1085 1086 1087 1088 1089 1090 1091 1092 1093 1094 1095 1096 1097 1098 1099 1100
f 1101 1102 1126 1125
f 1102 1103 1127 1126
f 1103 1104 1128 1127
f 1104 1105 1129 1128
f 1105 1106 1130 1129
f 1106 1107 1131 1130
f 1107 1108 1132 1131
f 1108 1109 1133 1132
f 1109 1110 1134 1133
f 1110 1111 1135 1134
f 1111 1112 1136 1135
f 1112 1113 1137 1136
f 1113 1114 1138 1137
f 1114 1115 1139 1138
f 1115 1116 1140 1139
f 1116 1117 1141 1140
f 1117 1118 1142 1141
f 1118 1119 1143 1142
f 1119 1120 1144 1143
f 1120 1121 1145 1144
f 1121 1122 1146 1145
f 1122 1123 1147 1146
f 1123 1124 1148 1147
f 1124 1101 1125 1148
f 1125 1126 1150 1149
f 1126 1127 1151 1150
f 1127 1128 1152 1151
f 1128 1129 1153 1152
f 1129 1130 1154 1153
f 1130 1131 1155 1154
f 1131 1132 1156 1155
f 1132 1133 1157 1156
f 1133 1134 1158 1157
f 1134 1135 1159 1158
f 1135 1136 1160 1159
f 1136 1137 1161 1160
f 1137 1138 1162 1161
f 1138 1139 1163 1162
f 1139 1140 1164 1163
f 1140 1141 1165 1164
f 1141 1142 1166 1165
f 1142 1143 1167 1166
f 1143 1144 1168 1167
f 1144 1145 1169 1168
f 1145 1146 1170 1169
f 1146 1147 1171 1170
f 1147 1148 1172 1171
f 1148 1125 1149 1172
f 1149 1150 1174 1173
f 1150 1151 1175 1174
f 1151 1152 1176 1175
f 1152 1153 1177 1176
f 1153 1154 1178 1177
f 1154 1155 1179 1178
f 1155 1156 1180 1179
f 1156 1157 1181 1180
f 1157 1158 1182 1181
f 1158 1159 1183 1182
f 1159 1160 1184 1183
f 1160 1161 1185 1184
f 1161 1162 1186 1185
f 1162 1163 1187 1186
f 1163 1164 1188 1187
f 1164 1165 1189 1188
f 1165 1166 1190 1189
f 1166 1167 1191 1190
f 1167 1168 1192 1191
f 1168 1169 1193 1192
f 1169 1170 1194 1193
f 1170 1171 1195 1194
f 1171 1172 1196 1195
f 1172 1149 1173 1196
f 1173 1174 1198 1197
f 1174 1175 1199 1198
f 1175 1176 1200 1199
f 1176 1177 1201 1200
f 1177 1178 1202 1201
f 1178 1179 1203 1202
f 1179 1180 1204 1203
f 1180 1181 1205 1204
f 1181 1182 1206 1205
f 1182 1183 1207 1206
f 1183 1184 1208 1207
f 1184 1185 1209 1208
f 1185 1186 1210 1209
f 1186 1187 1211 1210
f 1187 1188 1212 1211
f 1188 1189 1213 1212
f 1189 1190 1214 1213
f 1190 1191 1215 1214
f 1191 1192 1216 1215
f 1192 1193 1217 1216
f 1193 1194 1218 1217
f 1194 1195 1219 1218
f 1195 1196 1220 1219
f 1196 1173 1197 1220
f 1197 1198 1222 1221
f 1198 1199 1223 1222
f 1199 1200 1224 1223
f 1200 1201 1225 1224
f 1201 1202 1226 1225
f 1202 1203 1227 1226
f 1203 1204 1228 1227
f 1204 1205 1229 1228
f 1205 1206 1230 1229
f 1206 1207 1231 1230
f 1207 1208 1232 1231
f 1208 1209 1233 1232
f 1209 1210 1234 1233
f 1210 1211 1235 1234
f 1211 1212 1236 1235
f 1212 1213 1237 1236
f 1213 1214 1238 1237
f 1214 1215 1239 1238
f 1215 1216 1240 1239
f 1216 1217 1241 1240
f 1217 1218 1242 1241
f 1218 1219 1243 1242
f 1219 1220 1244 1243
f 1220 1197 1221 1244
f 1221 1222 1246 1245
f 1222 1223 1247 1246
f 1223 1224 1248 1247
f 1224 1225 1249 1248
f 1225 1226 1250 1249
f 1226 1227 1251 1250
f 1227 1228 1252 1251
f 1228 1229 1253 1252
f 1229 1230 1254 1253
f 1230 1231 1255 1254
f 1231 1232 1256 1255
f 1232 1233 1257 1256
f 1233 1234 1258 1257
f 1234 1235 1259 1258
f 1235 1236 1260 1259
f 1236 1237 1261 1260
f 1237 1238 1262 1261
f 1238 1239 1263 1262
f 1239 1240 1264 1263
f 1240 1241 1265 1264
f 1241 1242 1266 1265
f 1242 1243 1267 1266
f 1243 1244 1268 1267
f 1244 1221 1245 1268
f 1245 1246 1270 1269
f 1246 1247 1271 1270
f 1247 1248 1272 1271
f 1248 1249 1273 1272
f 1249 1250 1274 1273
f 1250 1251 1275 1274
f 1251 1252 1276 1275
f 1252 1253 1277 1276
f 1253 1254 1278 1277
f 1254 1255 1279 1278
f 1255 1256 1280 1279
f 1256 1257 1281 1280
f 1257 1258 1282 1281
f 1258 1259 1283 1282
f 1259 1260 1284 1283
f 1260 1261 1285 1284
f 1261 1262 1286 1285
f 1262 1263 1287 1286
f 1263 1264 1288 1287
f 1264 1265 1289 1288
f 1265 1266 1290 1289
f 1266 1267 1291 1290
f 1267 1268 1292 1291
f 1268 1245 1269 1292
f 1269 1270 1294 1293
f 1270 1271 1295 1294
f 1271 1272 1296 1295
f 1272 1273 1297 1296
f 1273 1274 1298 1297
f 1274 1275 1299 1298
f 1275 1276 1300 1299
f 1276 1277 1301 1300
f 1277 1278 1302 1301
f 1278 1279 1303 1302
f 1279 1280 1304 1303
f 1280 1281 1305 1304
f 1281 1282 1306 1305
f 1282 1283 1307 1306
f 1283 1284 1308 1307
f 1284 1285 1309 1308
f 1285 1286 1310 1309
f 1286 1287 1311 1310
f 1287 1288 1312 1311
f 1288 1289 1313 1312
f 1289 1290 1314 1313
f 1290 1291 1315 1314
f 1291 1292 1316 1315
f 1292 1269 1293 1316
f 1124 1123 1122 1121 1120 1119 1118 1117 1116 1115 1114 1113 1112 1111 1110 1109 1108 1107 1106 1105 1104 1103 1102 1101
f 1293 1294 1295 1296 1297 1298 1299 1300 1301 1302 1303 1304 1305 1306 1307 1308 1309 1310 1311 1312 1313 1314 1315 1316
g connecting_neck
f 1321 1322 1318 1317
f 1322 1323 1319 1318
f 1323 1324 1320 1319
f 1324 1321 1317 1320
f 1317 1318 1319 1320
f 1324 1323 1322 1321
g engineering_hull
f 1325 1326 1346
f 1325 1346 1345
f 1326 1327 1347
f 1326 1347 1346
f 1327 1328 1348
f 1327 1348 1347
f 1328 1329 1349
f 1328 1349 1348
f 1329 1330 1350
f 1329 1350 1349
f 1330 1331 1351
f 1330 1351 1350
f 1331 1332 1352
f 1331 1352 1351
f 1332 1333 1353
f 1332 1353 1352
f 1333 1334 1354
f 1333 1354 1353
f 1334 1335 1355
f 1334 1355 1354
f 1335 1336 1356
f 1335 1356 1355
f 1336 1337 1357
f 1336 1357 1356
f 1337 1338 1358
f 1337 1358 1357
f 1338 1339 1359
f 1338 1359 1358
f 1339 1340 1360
f 1339 1360 1359
f 1340 1341 1361
f 1340 1361 1360
f 1341 1342 1362
f 1341 1362 1361
f 1342 1343 1363
f 1342 1363 1362
f 1343 1344 1364
f 1343 1364 1363
f 1344 1325 1345
f 1344 1345 1364
f 1345 1346 1366
f 1345 1366 1365
f 1346 1347 1367
f 1346 1367 1366
f 1347 1348 1368
f 1347 1368 1367
f 1348 1349 1369
f 1348 1369 1368
f 1349 1350 1370
f 1349 1370 1369
f 1350 1351 1371
f 1350 1371 1370
f 1351 1352 1372
f 1351 1372 1371
f 1352 1353 1373
f 1352 1373 1372
f 1353 1354 1374
f 1353 1374 1373
f 1354 1355 1375
f 1354 1375 1374
f 1355 1356 1376
f 1355 1376 1375
f 1356 1357 1377
f 1356 1377 1376
f 1357 1358 1378
f 1357 1378 1377
f 1358 1359 1379
f 1358 1379 1378
f 1359 1360 1380
f 1359 1380 1379
f 1360 1361 1381
f 1360 1381 1380
f 1361 1362 1382
f 1361 1382 1381
f 1362 1363 1383
f 1362 1383 1382
f 1363 1364 1384
f 1363 1384 1383
f 1364 1345 1365
f 1364 1365 1384
f 1365 1366 1386
f 1365 1386 1385
f 1366 1367 1387
f 1366 1387 1386
f 1367 1368 1388
f 1367 1388 1387
f 1368 1369 1389
f 1368 1389 1388
f 1369 1370 1390
f 1369 1390 1389
f 1370 1371 1391
f 1370 1391 1390
f 1371 1372 1392
f 1371 1392 1391
f 1372 1373 1393
f 1372 1393 1392
f 1373 1374 1394
f 1373 1394 1393
f 1374 1375 1395
f 1374 1395 1394
f 1375 1376 1396
f 1375 1396 1395
f 1376 1377 1397
f 1376 1397 1396
f 1377 1378 1398
f 1377 1398 1397
f 1378 1379 1399
f 1378 1399 1398
f 1379 1380 1400
f 1379 1400 1399
f 1380 1381 1401
f 1380 1401 1400
f 1381 1382 1402
f 1381 1402 1401
f 1382 1383 1403
f 1382 1403 1402
f 1383 1384 1404
f 1383 1404 1403
f 1384 1365 1385
f 1384 1385 1404
f 1385 1386 1406 1405
f 1386 1387 1407 1406
f 1387 1388 1408 1407
f 1388 1389 1409 1408
f 1389 1390 1410 1409
f 1390 1391 1411 1410
f 1391 1392 1412 1411
f 1392 1393 1413 1412
f 1393 1394 1414 1413
f 1394 1395 1415 1414
f 1395 1396 1416 1415
f 1396 1397 1417 1416
f 1397 1398 1418 1417
f 1398 1399 1419 1418
f 1399 1400 1420 1419
f 1400 1401 1421 1420
f 1401 1402 1422 1421
f 1402 1403 1423 1422
f 1403 1404 1424 1423
f 1404 1385 1405 1424
f 1344 1343 1342 1341 1340 1339 1338 1337 1336 1335 1334 1333 1332 1331 1330 1329 1328 1327 1326 1325
f 1405 1406 1407 1408 1409 1410 1411 1412 1413 1414 1415 1416 1417 1418 1419 1420 1421 1422 1423 1424
g nacelle_pylon
f 1429 1430 1426 1425
f 1430 1431 1427 1426
f 1431 1432 1428 1427
f 1432 1429 1425 1428
f 1425 1426 1427 1428
f 1432 1431 1430 1429
g warp_nacelle
f 1433 1434 1450 1449
f 1434 1435 1451 1450
f 1435 1436 1452 1451
f 1436 1437 1453 1452
f 1437 1438 1454 1453
f 1438 1439 1455 1454
f 1439 1440 1456 1455
f 1440 1441 1457 1456
f 1441 1442 1458 1457
f 1442 1443 1459 1458
f 1443 1444 1460 1459
f 1444 1445 1461 1460
f 1445 1446 1462 1461
f 1446 1447 1463 1462
f 1447 1448 1464 1463
f 1448 1433 1449 1464
f 1449 1450 1466 1465
f 1450 1451 1467 1466
f 1451 1452 1468 1467
f 1452 1453 1469 1468
f 1453 1454 1470 1469
f 1454 1455 1471 1470
f 1455 1456 1472 1471
f 1456 1457 1473 1472
f 1457 1458 1474 1473
f 1458 1459 1475 1474
f 1459 1460 1476 1475
f 1460 1461 1477 1476
f 1461 1462 1478 1477
f 1462 1463 1479 1478
f 1463 1464 1480 1479
f 1464 1449 1465 1480
f 1465 1466 1482 1481
f 1466 1467 1483 1482
f 1467 1468 1484 1483
f 1468 1469 1485 1484
f 1469 1470 1486 1485
f 1470 1471 1487 1486
f 1471 1472 1488 1487
f 1472 1473 1489 1488
f 1473 1474 1490 1489
f 1474 1475 1491 1490
f 1475 1476 1492 1491
f 1476 1477 1493 1492
f 1477 1478 1494 1493
f 1478 1479 1495 1494
f 1479 1480 1496 1495
f 1480 1465 1481 1496
f 1481 1482 1498 1497
f 1482 1483 1499 1498
f 1483 1484 1500 1499
f 1484 1485 1501 1500
f 1485 1486 1502 1501
f 1486 1487 1503 1502
f 1487 1488 1504 1503
f 1488 1489 1505 1504
f 1489 1490 1506 1505
f 1490 1491 1507 1506
f 1491 1492 1508 1507
f 1492 1493 1509 1508
f 1493 1494 1510 1509
f 1494 1495 1511 1510
f 1495 1496 1512 1511
f 1496 1481 1497 1512
f 1497 1498 1514 1513
f 1498 1499 1515 1514
f 1499 1500 1516 1515
f 1500 1501 1517 1516
f 1501 1502 1518 1517
f 1502 1503 1519 1518
f 1503 1504 1520 1519
f 1504 1505 1521 1520
f 1505 1506 1522 1521
f 1506 1507 1523 1522
f 1507 1508 1524 1523
f 1508 1509 1525 1524
f 1509 1510 1526 1525
f 1510 1511 1527 1526
f 1511 1512 1528 1527
f 1512 1497 1513 1528
f 1513 1514 1530 1529
f 1514 1515 1531 1530
f 1515 1516 1532 1531
f 1516 1517 1533 1532
f 1517 1518 1534 1533
f 1518 1519 1535 1534
f 1519 1520 1536 1535
f 1520 1521 1537 1536
f 1521 1522 1538 1537
f 1522 1523 1539 1538
f 1523 1524 1540 1539
f 1524 1525 1541 1540
f 1525 1526 1542 1541
f 1526 1527 1543 1542
f 1527 1528 1544 1543
f 1528 1513 1529 1544
f 1448 1447 1446 1445 1444 1443 1442 1441 1440 1439 1438 1437 1436 1435 1434 1433
f 1529 1530 1531 1532 1533 1534 1535 1536 1537 1538 1539 1540 1541 1542 1543 1544
g nacelle_pylon
f 1588 1589 1585 1584
f 1589 1590 1586 1585
f 1590 1591 1587 1586
f 1591 1588 1584 1587
f 1584 1585 1586 1587
f 1591 1590 1589 1588
g warp_nacelle
f 1592 1593 1609 1608
f 1593 1594 1610 1609
f 1594 1595 1611 1610
f 1595 1596 1612 1611
f 1596 1597 1613 1612
f 1597 1598 1614 1613
f 1598 1599 1615 1614
f 1599 1600 1616 1615
f 1600 1601 1617 1616
f 1601 1602 1618 1617
f 1602 1603 1619 1618
f 1603 1604 1620 1619
f 1604 1605 1621 1620
f 1605 1606 1622 1621
f 1606 1607 1623 1622
f 1607 1592 1608 1623
f 1608 1609 1625 1624
f 1609 1610 1626 1625
f 1610 1611 1627 1626
f 1611 1612 1628 1627
f 1612 1613 1629 1628
f 1613 1614 1630 1629
f 1614 1615 1631 1630
f 1615 1616 1632 1631
f 1616 1617 1633 1632
f 1617 1618 1634 1633
f 1618 1619 1635 1634
f 1619 1620 1636 1635
f 1620 1621 1637 1636
f 1621 1622 1638 1637
f 1622 1623 1639 1638
f 1623 1608 1624 1639
f 1624 1625 1641 1640
f 1625 1626 1642 1641
f 1626 1627 1643 1642
f 1627 1628 1644 1643
f 1628 1629 1645 1644
f 1629 1630 1646 1645
f 1630 1631 1647 1646
f 1631 1632 1648 1647
f 1632 1633 1649 1648
f 1633 1634 1650 1649
f 1634 1635 1651 1650
f 1635 1636 1652 1651
f 1636 1637 1653 1652
f 1637 1638 1654 1653
f 1638 1639 1655 1654
f 1639 1624 1640 1655
f 1640 1641 1657 1656
f 1641 1642 1658 1657
f 1642 1643 1659 1658
f 1643 1644 1660 1659
f 1644 1645 1661 1660
f 1645 1646 1662 1661
f 1646 1647 1663 1662
f 1647 1648 1664 1663
f 1648 1649 1665 1664
f 1649 1650 1666 1665
f 1650 1651 1667 1666
f 1651 1652 1668 1667
f 1652 1653 1669 1668
f 1653 1654 1670 1669
f 1654 1655 1671 1670
f 1655 1640 1656 1671
f 1656 1657 1673 1672
f 1657 1658 1674 1673
f 1658 1659 1675 1674
f 1659 1660 1676 1675
f 1660 1661 1677 1676
f 1661 1662 1678 1677
f 1662 1663 1679 1678
f 1663 1664 1680 1679
f 1664 1665 1681 1680
f 1665 1666 1682 1681
f 1666 1667 1683 1682
f 1667 1668 1684 1683
f 1668 1669 1685 1684
f 1669 1670 1686 1685
f 1670 1671 1687 1686
f 1671 1656 1672 1687
f 1672 1673 1689 1688
f 1673 1674 1690 1689
f 1674 1675 1691 1690
f 1675 1676 1692 1691
f 1676 1677 1693 1692
f 1677 1678 1694 1693
f 1678 1679 1695 1694
f 1679 1680 1696 1695
f 1680 1681 1697 1696
f 1681 1682 1698 1697
f 1682 1683 1699 1698
f 1683 1684 1700 1699
f 1684 1685 1701 1700
f 1685 1686 1702 1701
f 1686 1687 1703 1702
f 1687 1672 1688 1703
f 1607 1606 1605 1604 1603 1602 1601 1600 1599 1598 1597 1596 1595 1594 1593 1592
f 1688 1689 1690 1691 1692 1693 1694 1695 1696 1697 1698 1699 1700 1701 1702 1703
g navigation_deflector
f 1767 1768 1744 1743
f 1768 1769 1745 1744
f 1769 1770 1746 1745
f 1770 1771 1747 1746
f 1771 1772 1748 1747
f 1772 1773 1749 1748
f 1773 1774 1750 1749
f 1774 1775 1751 1750
f 1775 1776 1752 1751
f 1776 1777 1753 1752
f 1777 1778 1754 1753
f 1778 1779 1755 1754
f 1779 1780 1756 1755
f 1780 1781 1757 1756
f 1781 1782 1758 1757
f 1782 1783 1759 1758
f 1783 1784 1760 1759
f 1784 1785 1761 1760
f 1785 1786 1762 1761
f 1786 1787 1763 1762
f 1787 1788 1764 1763
f 1788 1789 1765 1764
f 1789 1790 1766 1765
f 1790 1767 1743 1766
f 1791 1792 1768 1767
f 1792 1793 1769 1768
f 1793 1794 1770 1769
f 1794 1795 1771 1770
f 1795 1796 1772 1771
f 1796 1797 1773 1772
f 1797 1798 1774 1773
f 1798 1799 1775 1774
f 1799 1800 1776 1775
f 1800 1801 1777 1776
f 1801 1802 1778 1777
f 1802 1803 1779 1778
f 1803 1804 1780 1779
f 1804 1805 1781 1780
f 1805 1806 1782 1781
f 1806 1807 1783 1782
f 1807 1808 1784 1783
f 1808 1809 1785 1784
f 1809 1810 1786 1785
f 1810 1811 1787 1786
f 1811 1812 1788 1787
f 1812 1813 1789 1788
f 1813 1814 1790 1789
f 1814 1791 1767 1790
f 1743 1744 1745 1746 1747 1748 1749 1750 1751 1752 1753 1754 1755 1756 1757 1758 1759 1760 1761 1762 1763 1764 1765 1766
f 1814 1813 1812 1811 1810 1809 1808 1807 1806 1805 1804 1803 1802 1801 1800 1799 1798 1797 1796 1795 1794 1793 1792 1791
g schematic_details
l 65 66 67 68 69 70 71 72 73 74 75 76 77 78 79 80 81 82 83 84 85 86 87 88 89 90 91 92 93 94 95 96 97 98 99 100 101 102 103 104 105 106 107 108 109 110 111 112 113 114 115 116 117 118 119 120 121 122 123 124 125 126 127 128 65
l 129 130 131 132 133 134 135 136 137 138 139 140 141 142 143 144 145 146 147 148 149 150 151 152 153 154 155 156 157 158 159 160 161 162 163 164 165 166 167 168 169 170 171 172 173 174 175 176 177 178 179 180 181 182 183 184 185 186 187 188 189 190 191 192 129
l 193 194 195 196 197 198 199 200 201 202 203 204 205 206 207 208 209 210 211 212 213 214 215 216 217 218 219 220 221 222 223 224 225 226 227 228 229 230 231 232 233 234 235 236 237 238 239 240 241 242 243 244 245 246 247 248 249 250 251 252 253 254 255 256 193
l 257 258 259 260 261 262 263 264 265 266 267 268 269 270 271 272 273 274 275 276 277 278 279 280 281 282 283 284 285 286 287 288 289 290 291 292 293 294 295 296 297 298 299 300 301 302 303 304 305 306 307 308 309 310 311 312 313 314 315 316 317 318 319 320 257
l 321 322 323 324 325 326 327 328 329 330 331 332 333 334 335 336 337 338 339 340 341 342 343 344 345 346 347 348 349 350 351 352 353 354 355 356 357 358 359 360 361 362 363 364 365 366 367 368 369 370 371 372 373 374 375 376 377 378 379 380 381 382 383 384 321
l 385 386 387 388 389 390 391 392 393 394 395 396 397 398 399 400 401 402 403 404 405 406 407 408 409 410 411 412 413 414 415 416 417 418 419 420 421 422 423 424 425 426 427 428 429 430 431 432 433 434 435 436 437 438 439 440 441 442 443 444 445 446 447 448 385
l 449 450 451 452 453 454 455 456 457 458 459 460 461 462 463 464 465 466 467 468 469 470 471 472 473 474 475 476 477 478 479 480 481 482 483 484 485 486 487 488 489 490 491 492 493 494 495 496 497 498 499 500 501 502 503 504 505 506 507 508 509 510 511 512 449
l 65 129 193 257
l 69 133 197 261
l 73 137 201 265
l 77 141 205 269
l 81 145 209 273
l 85 149 213 277
l 89 153 217 281
l 93 157 221 285
l 97 161 225 289
l 101 165 229 293
l 105 169 233 297
l 109 173 237 301
l 113 177 241 305
l 117 181 245 309
l 121 185 249 313
l 125 189 253 317
l 321 385 449
l 329 393 457
l 337 401 465
l 345 409 473
l 353 417 481
l 361 425 489
l 369 433 497
l 377 441 505
l 577 578 579 580 581 582 583 584 585 586 587 588 589 590 591 592 593 594 595 596 597 598 599 600 601 602 603 604 605 606 607 608 609 610 611 612 613 614 615 616 617 618 619 620 621 622 623 624 625 626 627 628 629 630 631 632 633 634 635 636 637 638 639 640 577
l 641 642 643 644 645 646 647 648 649 650 651 652 653 654 655 656 657 658 659 660 661 662 663 664 665 666 667 668 669 670 671 672 673 674 675 676 677 678 679 680 681 682 683 684 685 686 687 688 689 690 691 692 693 694 695 696 697 698 699 700 701 702 703 704 641
l 705 706 707 708 709 710 711 712 713 714 715 716 717 718 719 720 721 722 723 724 725 726 727 728 729 730 731 732 733 734 735 736 737 738 739 740 741 742 743 744 745 746 747 748 749 750 751 752 753 754 755 756 757 758 759 760 761 762 763 764 765 766 767 768 705
l 769 770
l 771 772
l 773 774
l 775 776
l 777 778
l 779 780
l 781 782
l 783 784
l 785 786
l 787 788
l 789 790
l 791 792
l 793 794
l 795 796
l 797 798
l 799 800
l 801 802
l 803 804
l 805 806
l 807 808
l 809 810
l 811 812
l 813 814
l 815 816
l 817 818
l 819 820
l 821 822
l 823 824
l 825 826
l 827 828
l 829 830
l 831 832
l 833 834
l 835 836
l 837 838
l 839 840
l 841 842
l 843 844
l 845 846
l 847 848
l 849 850
l 851 852
l 853 854
l 855 856
l 857 858
l 859 860
l 861 862
l 863 864
l 865 866
l 867 868
l 869 870
l 871 872
l 873 874
l 875 876
l 877 878
l 879 880
l 881 882
l 883 884
l 1325 1326 1327 1328 1329 1330 1331 1332 1333 1334 1335 1336 1337 1338 1339 1340 1341 1342 1343 1344 1325
l 1345 1346 1347 1348 1349 1350 1351 1352 1353 1354 1355 1356 1357 1358 1359 1360 1361 1362 1363 1364 1345
l 1385 1386 1387 1388 1389 1390 1391 1392 1393 1394 1395 1396 1397 1398 1399 1400 1401 1402 1403 1404 1385
l 1405 1406 1407 1408 1409 1410 1411 1412 1413 1414 1415 1416 1417 1418 1419 1420 1421 1422 1423 1424 1405
l 1325 1345 1365 1385 1405
l 1330 1350 1370 1390 1410
l 1335 1355 1375 1395 1415
l 1340 1360 1380 1400 1420
l 1433 1434 1435 1436 1437 1438 1439 1440 1441 1442 1443 1444 1445 1446 1447 1448 1433
l 1449 1450 1451 1452 1453 1454 1455 1456 1457 1458 1459 1460 1461 1462 1463 1464 1449
l 1513 1514 1515 1516 1517 1518 1519 1520 1521 1522 1523 1524 1525 1526 1527 1528 1513
l 1529 1530 1531 1532 1533 1534 1535 1536 1537 1538 1539 1540 1541 1542 1543 1544 1529
l 1433 1449 1465 1481 1497 1513 1529
l 1437 1453 1469 1485 1501 1517 1533
l 1441 1457 1473 1489 1505 1521 1537
l 1445 1461 1477 1493 1509 1525 1541
l 1545 1546 1547 1548
l 1549 1550 1551 1552
l 1553 1554 1555 1556
l 1557 1558 1559 1560
l 1561 1562 1563 1564
l 1565 1566 1567 1568
l 1569 1570 1571
l 1572 1573 1574
l 1575 1576 1577
l 1578 1579 1580
l 1581 1582 1583
l 1592 1593 1594 1595 1596 1597 1598 1599 1600 1601 1602 1603 1604 1605 1606 1607 1592
l 1608 1609 1610 1611 1612 1613 1614 1615 1616 1617 1618 1619 1620 1621 1622 1623 1608
l 1672 1673 1674 1675 1676 1677 1678 1679 1680 1681 1682 1683 1684 1685 1686 1687 1672
l 1688 1689 1690 1691 1692 1693 1694 1695 1696 1697 1698 1699 1700 1701 1702 1703 1688
l 1592 1608 1624 1640 1656 1672 1688
l 1596 1612 1628 1644 1660 1676 1692
l 1600 1616 1632 1648 1664 1680 1696
l 1604 1620 1636 1652 1668 1684 1700
l 1704 1705 1706 1707
l 1708 1709 1710 1711
l 1712 1713 1714 1715
l 1716 1717 1718 1719
l 1720 1721 1722 1723
l 1724 1725 1726 1727
l 1728 1729 1730
l 1731 1732 1733
l 1734 1735 1736
l 1737 1738 1739
l 1740 1741 1742
l 1743 1744 1745 1746 1747 1748 1749 1750 1751 1752 1753 1754 1755 1756 1757 1758 1759 1760 1761 1762 1763 1764 1765 1766 1743
l 1767 1768 1769 1770 1771 1772 1773 1774 1775 1776 1777 1778 1779 1780 1781 1782 1783 1784 1785 1786 1787 1788 1789 1790 1767
l 1767 1768 1769 1770 1771 1772 1773 1774 1775 1776 1777 1778 1779 1780 1781 1782 1783 1784 1785 1786 1787 1788 1789 1790 1767
l 1791 1792 1793 1794 1795 1796 1797 1798 1799 1800 1801 1802 1803 1804 1805 1806 1807 1808 1809 1810 1811 1812 1813 1814 1791
l 1743 1767 1791
l 1749 1773 1797
l 1755 1779 1803
l 1761 1785 1809
l 1815 1816
l 1817 1818
l 1819 1820
l 1821 1822
