# Original procedural schematic geometry; +Y up / bow -Z. Units arbitrary.
# No materials, textures, imported meshes, or hidden dependencies.
o vessel
v 7.320000 30.560000 -62.000000
v 7.284752 30.560000 -61.329563
v 7.179348 30.560000 -60.665582
v 7.004803 30.560000 -60.014453
v 6.762798 30.560000 -59.382445
v 6.455664 30.560000 -58.775646
v 6.086358 30.560000 -58.199900
v 5.658437 30.560000 -57.660750
v 5.176022 30.560000 -57.163390
v 4.643759 30.560000 -56.712608
v 4.066774 30.560000 -56.312748
v 3.450624 30.560000 -55.967659
v 2.801243 30.560000 -55.680664
v 2.124884 30.560000 -55.454528
v 1.428061 30.560000 -55.291429
v 0.717485 30.560000 -55.192936
v 0.000000 30.560000 -55.160000
v -0.717485 30.560000 -55.192936
v -1.428061 30.560000 -55.291429
v -2.124884 30.560000 -55.454528
v -2.801243 30.560000 -55.680664
v -3.450624 30.560000 -55.967659
v -4.066774 30.560000 -56.312748
v -4.643759 30.560000 -56.712608
v -5.176022 30.560000 -57.163390
v -5.658437 30.560000 -57.660750
v -6.086358 30.560000 -58.199900
v -6.455664 30.560000 -58.775646
v -6.762798 30.560000 -59.382445
v -7.004803 30.560000 -60.014453
v -7.179348 30.560000 -60.665582
v -7.284752 30.560000 -61.329563
v -7.320000 30.560000 -62.000000
v -7.284752 30.560000 -62.670437
v -7.179348 30.560000 -63.334418
v -7.004803 30.560000 -63.985547
v -6.762798 30.560000 -64.617555
v -6.455664 30.560000 -65.224354
v -6.086358 30.560000 -65.800100
v -5.658437 30.560000 -66.339250
v -5.176022 30.560000 -66.836610
v -4.643759 30.560000 -67.287392
v -4.066774 30.560000 -67.687252
v -3.450624 30.560000 -68.032341
v -2.801243 30.560000 -68.319336
v -2.124884 30.560000 -68.545472
v -1.428061 30.560000 -68.708571
v -0.717485 30.560000 -68.807064
v -0.000000 30.560000 -68.840000
v 0.717485 30.560000 -68.807064
v 1.428061 30.560000 -68.708571
v 2.124884 30.560000 -68.545472
v 2.801243 30.560000 -68.319336
v 3.450624 30.560000 -68.032341
v 4.066774 30.560000 -67.687252
v 4.643759 30.560000 -67.287392
v 5.176022 30.560000 -66.836610
v 5.658437 30.560000 -66.339250
v 6.086358 30.560000 -65.800100
v 6.455664 30.560000 -65.224354
v 6.762798 30.560000 -64.617555
v 7.004803 30.560000 -63.985547
v 7.179348 30.560000 -63.334418
v 7.284752 30.560000 -62.670437
v 19.520000 29.760000 -62.000000
v 19.426006 29.760000 -60.212167
v 19.144929 29.760000 -58.441553
v 18.679475 29.760000 -56.705207
v 18.034128 29.760000 -55.019854
v 17.215103 29.760000 -53.401724
v 16.230287 29.760000 -51.866399
v 15.089164 29.760000 -50.428666
v 13.802724 29.760000 -49.102372
v 12.383357 29.760000 -47.900289
v 10.844731 29.760000 -46.833994
v 9.201664 29.760000 -45.913756
v 7.469981 29.760000 -45.148437
v 5.666357 29.760000 -44.545408
v 3.808163 29.760000 -44.110476
v 1.913295 29.760000 -43.847831
v 0.000000 29.760000 -43.760000
v -1.913295 29.760000 -43.847831
v -3.808163 29.760000 -44.110476
v -5.666357 29.760000 -44.545408
v -7.469981 29.760000 -45.148437
v -9.201664 29.760000 -45.913756
v -10.844731 29.760000 -46.833994
v -12.383357 29.760000 -47.900289
v -13.802724 29.760000 -49.102372
v -15.089164 29.760000 -50.428666
v -16.230287 29.760000 -51.866399
v -17.215103 29.760000 -53.401724
v -18.034128 29.760000 -55.019854
v -18.679475 29.760000 -56.705207
v -19.144929 29.760000 -58.441553
v -19.426006 29.760000 -60.212167
v -19.520000 29.760000 -62.000000
v -19.426006 29.760000 -63.787833
v -19.144929 29.760000 -65.558447
v -18.679475 29.760000 -67.294793
v -18.034128 29.760000 -68.980146
v -17.215103 29.760000 -70.598276
v -16.230287 29.760000 -72.133601
v -15.089164 29.760000 -73.571334
v -13.802724 29.760000 -74.897628
v -12.383357 29.760000 -76.099711
v -10.844731 29.760000 -77.166006
v -9.201664 29.760000 -78.086244
v -7.469981 29.760000 -78.851563
v -5.666357 29.760000 -79.454592
v -3.808163 29.760000 -79.889524
v -1.913295 29.760000 -80.152169
v -0.000000 29.760000 -80.240000
v 1.913295 29.760000 -80.152169
v 3.808163 29.760000 -79.889524
v 5.666357 29.760000 -79.454592
v 7.469981 29.760000 -78.851563
v 9.201664 29.760000 -78.086244
v 10.844731 29.760000 -77.166006
v 12.383357 29.760000 -76.099711
v 13.802724 29.760000 -74.897628
v 15.089164 29.760000 -73.571334
v 16.230287 29.760000 -72.133601
v 17.215103 29.760000 -70.598276
v 18.034128 29.760000 -68.980146
v 18.679475 29.760000 -67.294793
v 19.144929 29.760000 -65.558447
v 19.426006 29.760000 -63.787833
v 46.360000 26.960000 -62.000000
v 46.136764 26.960000 -57.753897
v 45.469206 26.960000 -53.548687
v 44.363754 26.960000 -49.424868
v 42.831055 26.960000 -45.422154
v 40.885870 26.960000 -41.579093
v 38.546931 26.960000 -37.932698
v 35.836765 26.960000 -34.518083
v 32.781470 26.960000 -31.368134
v 29.410473 26.960000 -28.513187
v 25.756236 26.960000 -25.980736
v 21.853953 26.960000 -23.795171
v 17.741204 26.960000 -21.977539
v 13.457598 26.960000 -20.545345
v 9.044387 26.960000 -19.512382
v 4.544075 26.960000 -18.888598
v 0.000000 26.960000 -18.680000
v -4.544075 26.960000 -18.888598
v -9.044387 26.960000 -19.512382
v -13.457598 26.960000 -20.545345
v -17.741204 26.960000 -21.977539
v -21.853953 26.960000 -23.795171
v -25.756236 26.960000 -25.980736
v -29.410473 26.960000 -28.513187
v -32.781470 26.960000 -31.368134
v -35.836765 26.960000 -34.518083
v -38.546931 26.960000 -37.932698
v -40.885870 26.960000 -41.579093
v -42.831055 26.960000 -45.422154
v -44.363754 26.960000 -49.424868
v -45.469206 26.960000 -53.548687
v -46.136764 26.960000 -57.753897
v -46.360000 26.960000 -62.000000
v -46.136764 26.960000 -66.246103
v -45.469206 26.960000 -70.451313
v -44.363754 26.960000 -74.575132
v -42.831055 26.960000 -78.577846
v -40.885870 26.960000 -82.420907
v -38.546931 26.960000 -86.067302
v -35.836765 26.960000 -89.481917
v -32.781470 26.960000 -92.631866
v -29.410473 26.960000 -95.486813
v -25.756236 26.960000 -98.019264
v -21.853953 26.960000 -100.204829
v -17.741204 26.960000 -102.022461
v -13.457598 26.960000 -103.454655
v -9.044387 26.960000 -104.487618
v -4.544075 26.960000 -105.111402
v -0.000000 26.960000 -105.320000
v 4.544075 26.960000 -105.111402
v 9.044387 26.960000 -104.487618
v 13.457598 26.960000 -103.454655
v 17.741204 26.960000 -102.022461
v 21.853953 26.960000 -100.204829
v 25.756236 26.960000 -98.019264
v 29.410473 26.960000 -95.486813
v 32.781470 26.960000 -92.631866
v 35.836765 26.960000 -89.481917
v 38.546931 26.960000 -86.067302
v 40.885870 26.960000 -82.420907
v 42.831055 26.960000 -78.577846
v 44.363754 26.960000 -74.575132
v 45.469206 26.960000 -70.451313
v 46.136764 26.960000 -66.246103
v 58.560000 25.360000 -62.000000
v 58.278018 25.360000 -56.636502
v 57.434786 25.360000 -51.324658
v 56.038426 25.360000 -46.115622
v 54.102385 25.360000 -41.059563
v 51.645309 25.360000 -36.205171
v 48.690860 25.360000 -31.599197
v 45.267492 25.360000 -27.285999
v 41.408173 25.360000 -23.307117
v 37.150071 25.360000 -19.700868
v 32.534193 25.360000 -16.501983
v 27.604993 25.360000 -13.741268
v 22.409942 25.360000 -11.445312
v 16.999071 25.360000 -9.636225
v 11.424489 25.360000 -8.331429
v 5.739884 25.360000 -7.543492
v 0.000000 25.360000 -7.280000
v -5.739884 25.360000 -7.543492
v -11.424489 25.360000 -8.331429
v -16.999071 25.360000 -9.636225
v -22.409942 25.360000 -11.445312
v -27.604993 25.360000 -13.741268
v -32.534193 25.360000 -16.501983
v -37.150071 25.360000 -19.700868
v -41.408173 25.360000 -23.307117
v -45.267492 25.360000 -27.285999
v -48.690860 25.360000 -31.599197
v -51.645309 25.360000 -36.205171
v -54.102385 25.360000 -41.059563
v -56.038426 25.360000 -46.115622
v -57.434786 25.360000 -51.324658
v -58.278018 25.360000 -56.636502
v -58.560000 25.360000 -62.000000
v -58.278018 25.360000 -67.363498
v -57.434786 25.360000 -72.675342
v -56.038426 25.360000 -77.884378
v -54.102385 25.360000 -82.940437
v -51.645309 25.360000 -87.794829
v -48.690860 25.360000 -92.400803
v -45.267492 25.360000 -96.714001
v -41.408173 25.360000 -100.692883
v -37.150071 25.360000 -104.299132
v -32.534193 25.360000 -107.498017
v -27.604993 25.360000 -110.258732
v -22.409942 25.360000 -112.554688
v -16.999071 25.360000 -114.363775
v -11.424489 25.360000 -115.668571
v -5.739884 25.360000 -116.456508
v -0.000000 25.360000 -116.720000
v 5.739884 25.360000 -116.456508
v 11.424489 25.360000 -115.668571
v 16.999071 25.360000 -114.363775
v 22.409942 25.360000 -112.554688
v 27.604993 25.360000 -110.258732
v 32.534193 25.360000 -107.498017
v 37.150071 25.360000 -104.299132
v 41.408173 25.360000 -100.692883
v 45.267492 25.360000 -96.714001
v 48.690860 25.360000 -92.400803
v 51.645309 25.360000 -87.794829
v 54.102385 25.360000 -82.940437
v 56.038426 25.360000 -77.884378
v 57.434786 25.360000 -72.675342
v 58.278018 25.360000 -67.363498
v 61.000000 24.400000 -62.000000
v 60.706268 24.400000 -56.413023
v 59.827902 24.400000 -50.879852
v 58.373360 24.400000 -45.453773
v 56.356651 24.400000 -40.187044
v 53.797197 24.400000 -35.130386
v 50.719646 24.400000 -30.332497
v 47.153638 24.400000 -25.839583
v 43.133514 24.400000 -21.694913
v 38.697990 24.400000 -17.938404
v 33.889784 24.400000 -14.606232
v 28.755201 24.400000 -11.730488
v 23.343689 24.400000 -9.338867
v 17.707365 24.400000 -7.454401
v 11.900510 24.400000 -6.095239
v 5.979046 24.400000 -5.274471
v 0.000000 24.400000 -5.000000
v -5.979046 24.400000 -5.274471
v -11.900510 24.400000 -6.095239
v -17.707365 24.400000 -7.454401
v -23.343689 24.400000 -9.338867
v -28.755201 24.400000 -11.730488
v -33.889784 24.400000 -14.606232
v -38.697990 24.400000 -17.938404
v -43.133514 24.400000 -21.694913
v -47.153638 24.400000 -25.839583
v -50.719646 24.400000 -30.332497
v -53.797197 24.400000 -35.130386
v -56.356651 24.400000 -40.187044
v -58.373360 24.400000 -45.453773
v -59.827902 24.400000 -50.879852
v -60.706268 24.400000 -56.413023
v -61.000000 24.400000 -62.000000
v -60.706268 24.400000 -67.586977
v -59.827902 24.400000 -73.120148
v -58.373360 24.400000 -78.546227
v -56.356651 24.400000 -83.812956
v -53.797197 24.400000 -88.869614
v -50.719646 24.400000 -93.667503
v -47.153638 24.400000 -98.160417
v -43.133514 24.400000 -102.305087
v -38.697990 24.400000 -106.061596
v -33.889784 24.400000 -109.393768
v -28.755201 24.400000 -112.269512
v -23.343689 24.400000 -114.661133
v -17.707365 24.400000 -116.545599
v -11.900510 24.400000 -117.904761
v -5.979046 24.400000 -118.725529
v -0.000000 24.400000 -119.000000
v 5.979046 24.400000 -118.725529
v 11.900510 24.400000 -117.904761
v 17.707365 24.400000 -116.545599
v 23.343689 24.400000 -114.661133
v 28.755201 24.400000 -112.269512
v 33.889784 24.400000 -109.393768
v 38.697990 24.400000 -106.061596
v 43.133514 24.400000 -102.305087
v 47.153638 24.400000 -98.160417
v 50.719646 24.400000 -93.667503
v 53.797197 24.400000 -88.869614
v 56.356651 24.400000 -83.812956
v 58.373360 24.400000 -78.546227
v 59.827902 24.400000 -73.120148
v 60.706268 24.400000 -67.586977
v 61.000000 22.960000 -62.000000
v 60.706268 22.960000 -56.413023
v 59.827902 22.960000 -50.879852
v 58.373360 22.960000 -45.453773
v 56.356651 22.960000 -40.187044
v 53.797197 22.960000 -35.130386
v 50.719646 22.960000 -30.332497
v 47.153638 22.960000 -25.839583
v 43.133514 22.960000 -21.694913
v 38.697990 22.960000 -17.938404
v 33.889784 22.960000 -14.606232
v 28.755201 22.960000 -11.730488
v 23.343689 22.960000 -9.338867
v 17.707365 22.960000 -7.454401
v 11.900510 22.960000 -6.095239
v 5.979046 22.960000 -5.274471
v 0.000000 22.960000 -5.000000
v -5.979046 22.960000 -5.274471
v -11.900510 22.960000 -6.095239
v -17.707365 22.960000 -7.454401
v -23.343689 22.960000 -9.338867
v -28.755201 22.960000 -11.730488
v -33.889784 22.960000 -14.606232
v -38.697990 22.960000 -17.938404
v -43.133514 22.960000 -21.694913
v -47.153638 22.960000 -25.839583
v -50.719646 22.960000 -30.332497
v -53.797197 22.960000 -35.130386
v -56.356651 22.960000 -40.187044
v -58.373360 22.960000 -45.453773
v -59.827902 22.960000 -50.879852
v -60.706268 22.960000 -56.413023
v -61.000000 22.960000 -62.000000
v -60.706268 22.960000 -67.586977
v -59.827902 22.960000 -73.120148
v -58.373360 22.960000 -78.546227
v -56.356651 22.960000 -83.812956
v -53.797197 22.960000 -88.869614
v -50.719646 22.960000 -93.667503
v -47.153638 22.960000 -98.160417
v -43.133514 22.960000 -102.305087
v -38.697990 22.960000 -106.061596
v -33.889784 22.960000 -109.393768
v -28.755201 22.960000 -112.269512
v -23.343689 22.960000 -114.661133
v -17.707365 22.960000 -116.545599
v -11.900510 22.960000 -117.904761
v -5.979046 22.960000 -118.725529
v -0.000000 22.960000 -119.000000
v 5.979046 22.960000 -118.725529
v 11.900510 22.960000 -117.904761
v 17.707365 22.960000 -116.545599
v 23.343689 22.960000 -114.661133
v 28.755201 22.960000 -112.269512
v 33.889784 22.960000 -109.393768
v 38.697990 22.960000 -106.061596
v 43.133514 22.960000 -102.305087
v 47.153638 22.960000 -98.160417
v 50.719646 22.960000 -93.667503
v 53.797197 22.960000 -88.869614
v 56.356651 22.960000 -83.812956
v 58.373360 22.960000 -78.546227
v 59.827902 22.960000 -73.120148
v 60.706268 22.960000 -67.586977
v 50.630000 20.800000 -62.000000
v 50.386203 20.800000 -57.362809
v 49.657159 20.800000 -52.770277
v 48.449889 20.800000 -48.266632
v 46.776021 20.800000 -43.895247
v 44.651674 20.800000 -39.698220
v 42.097306 20.800000 -35.715972
v 39.137519 20.800000 -31.986854
v 35.800816 20.800000 -28.546778
v 32.119332 20.800000 -25.428875
v 28.128521 20.800000 -22.663173
v 23.866817 20.800000 -20.276305
v 19.375262 20.800000 -18.291259
v 14.697113 20.800000 -16.727153
v 9.877423 20.800000 -15.599048
v 4.962608 20.800000 -14.917811
v 0.000000 20.800000 -14.690000
v -4.962608 20.800000 -14.917811
v -9.877423 20.800000 -15.599048
v -14.697113 20.800000 -16.727153
v -19.375262 20.800000 -18.291259
v -23.866817 20.800000 -20.276305
v -28.128521 20.800000 -22.663173
v -32.119332 20.800000 -25.428875
v -35.800816 20.800000 -28.546778
v -39.137519 20.800000 -31.986854
v -42.097306 20.800000 -35.715972
v -44.651674 20.800000 -39.698220
v -46.776021 20.800000 -43.895247
v -48.449889 20.800000 -48.266632
v -49.657159 20.800000 -52.770277
v -50.386203 20.800000 -57.362809
v -50.630000 20.800000 -62.000000
v -50.386203 20.800000 -66.637191
v -49.657159 20.800000 -71.229723
v -48.449889 20.800000 -75.733368
v -46.776021 20.800000 -80.104753
v -44.651674 20.800000 -84.301780
v -42.097306 20.800000 -88.284028
v -39.137519 20.800000 -92.013146
v -35.800816 20.800000 -95.453222
v -32.119332 20.800000 -98.571125
v -28.128521 20.800000 -101.336827
v -23.866817 20.800000 -103.723695
v -19.375262 20.800000 -105.708741
v -14.697113 20.800000 -107.272847
v -9.877423 20.800000 -108.400952
v -4.962608 20.800000 -109.082189
v -0.000000 20.800000 -109.310000
v 4.962608 20.800000 -109.082189
v 9.877423 20.800000 -108.400952
v 14.697113 20.800000 -107.272847
v 19.375262 20.800000 -105.708741
v 23.866817 20.800000 -103.723695
v 28.128521 20.800000 -101.336827
v 32.119332 20.800000 -98.571125
v 35.800816 20.800000 -95.453222
v 39.137519 20.800000 -92.013146
v 42.097306 20.800000 -88.284028
v 44.651674 20.800000 -84.301780
v 46.776021 20.800000 -80.104753
v 48.449889 20.800000 -75.733368
v 49.657159 20.800000 -71.229723
v 50.386203 20.800000 -66.637191
v 17.080000 18.880000 -62.000000
v 16.997755 18.880000 -60.435646
v 16.751813 18.880000 -58.886358
v 16.344541 18.880000 -57.367057
v 15.779862 18.880000 -55.892372
v 15.063215 18.880000 -54.476508
v 14.201501 18.880000 -53.133099
v 13.203019 18.880000 -51.875083
v 12.077384 18.880000 -50.714576
v 10.835437 18.880000 -49.662753
v 9.489140 18.880000 -48.729745
v 8.051456 18.880000 -47.924537
v 6.536233 18.880000 -47.254883
v 4.958062 18.880000 -46.727232
v 3.332143 18.880000 -46.346667
v 1.674133 18.880000 -46.116852
v 0.000000 18.880000 -46.040000
v -1.674133 18.880000 -46.116852
v -3.332143 18.880000 -46.346667
v -4.958062 18.880000 -46.727232
v -6.536233 18.880000 -47.254883
v -8.051456 18.880000 -47.924537
v -9.489140 18.880000 -48.729745
v -10.835437 18.880000 -49.662753
v -12.077384 18.880000 -50.714576
v -13.203019 18.880000 -51.875083
v -14.201501 18.880000 -53.133099
v -15.063215 18.880000 -54.476508
v -15.779862 18.880000 -55.892372
v -16.344541 18.880000 -57.367057
v -16.751813 18.880000 -58.886358
v -16.997755 18.880000 -60.435646
v -17.080000 18.880000 -62.000000
v -16.997755 18.880000 -63.564354
v -16.751813 18.880000 -65.113642
v -16.344541 18.880000 -66.632943
v -15.779862 18.880000 -68.107628
v -15.063215 18.880000 -69.523492
v -14.201501 18.880000 -70.866901
v -13.203019 18.880000 -72.124917
v -12.077384 18.880000 -73.285424
v -10.835437 18.880000 -74.337247
v -9.489140 18.880000 -75.270255
v -8.051456 18.880000 -76.075463
v -6.536233 18.880000 -76.745117
v -4.958062 18.880000 -77.272768
v -3.332143 18.880000 -77.653333
v -1.674133 18.880000 -77.883148
v -0.000000 18.880000 -77.960000
v 1.674133 18.880000 -77.883148
v 3.332143 18.880000 -77.653333
v 4.958062 18.880000 -77.272768
v 6.536233 18.880000 -76.745117
v 8.051456 18.880000 -76.075463
v 9.489140 18.880000 -75.270255
v 10.835437 18.880000 -74.337247
v 12.077384 18.880000 -73.285424
v 13.203019 18.880000 -72.124917
v 14.201501 18.880000 -70.866901
v 15.063215 18.880000 -69.523492
v 15.779862 18.880000 -68.107628
v 16.344541 18.880000 -66.632943
v 16.751813 18.880000 -65.113642
v 16.997755 18.880000 -63.564354
v 7.320000 18.720000 -62.000000
v 7.284752 18.720000 -61.329563
v 7.179348 18.720000 -60.665582
v 7.004803 18.720000 -60.014453
v 6.762798 18.720000 -59.382445
v 6.455664 18.720000 -58.775646
v 6.086358 18.720000 -58.199900
v 5.658437 18.720000 -57.660750
v 5.176022 18.720000 -57.163390
v 4.643759 18.720000 -56.712608
v 4.066774 18.720000 -56.312748
v 3.450624 18.720000 -55.967659
v 2.801243 18.720000 -55.680664
v 2.124884 18.720000 -55.454528
v 1.428061 18.720000 -55.291429
v 0.717485 18.720000 -55.192936
v 0.000000 18.720000 -55.160000
v -0.717485 18.720000 -55.192936
v -1.428061 18.720000 -55.291429
v -2.124884 18.720000 -55.454528
v -2.801243 18.720000 -55.680664
v -3.450624 18.720000 -55.967659
v -4.066774 18.720000 -56.312748
v -4.643759 18.720000 -56.712608
v -5.176022 18.720000 -57.163390
v -5.658437 18.720000 -57.660750
v -6.086358 18.720000 -58.199900
v -6.455664 18.720000 -58.775646
v -6.762798 18.720000 -59.382445
v -7.004803 18.720000 -60.014453
v -7.179348 18.720000 -60.665582
v -7.284752 18.720000 -61.329563
v -7.320000 18.720000 -62.000000
v -7.284752 18.720000 -62.670437
v -7.179348 18.720000 -63.334418
v -7.004803 18.720000 -63.985547
v -6.762798 18.720000 -64.617555
v -6.455664 18.720000 -65.224354
v -6.086358 18.720000 -65.800100
v -5.658437 18.720000 -66.339250
v -5.176022 18.720000 -66.836610
v -4.643759 18.720000 -67.287392
v -4.066774 18.720000 -67.687252
v -3.450624 18.720000 -68.032341
v -2.801243 18.720000 -68.319336
v -2.124884 18.720000 -68.545472
v -1.428061 18.720000 -68.708571
v -0.717485 18.720000 -68.807064
v -0.000000 18.720000 -68.840000
v 0.717485 18.720000 -68.807064
v 1.428061 18.720000 -68.708571
v 2.124884 18.720000 -68.545472
v 2.801243 18.720000 -68.319336
v 3.450624 18.720000 -68.032341
v 4.066774 18.720000 -67.687252
v 4.643759 18.720000 -67.287392
v 5.176022 18.720000 -66.836610
v 5.658437 18.720000 -66.339250
v 6.086358 18.720000 -65.800100
v 6.455664 18.720000 -65.224354
v 6.762798 18.720000 -64.617555
v 7.004803 18.720000 -63.985547
v 7.179348 18.720000 -63.334418
v 7.284752 18.720000 -62.670437
v 28.670000 28.829455 -62.000000
v 28.531946 28.829455 -59.374121
v 28.119114 28.829455 -56.773530
v 27.435479 28.829455 -54.223273
v 26.487626 28.829455 -51.747911
v 25.284683 28.829455 -49.371281
v 23.838234 28.829455 -47.116273
v 22.162210 28.829455 -45.004604
v 20.272751 28.829455 -43.056609
v 18.188055 28.829455 -41.291050
v 15.928199 28.829455 -39.724929
v 13.514944 28.829455 -38.373329
v 10.971534 28.829455 -37.249267
v 8.322462 28.829455 -36.363568
v 5.593240 28.829455 -35.724762
v 2.810151 28.829455 -35.339001
v 0.000000 28.829455 -35.210000
v -2.810151 28.829455 -35.339001
v -5.593240 28.829455 -35.724762
v -8.322462 28.829455 -36.363568
v -10.971534 28.829455 -37.249267
v -13.514944 28.829455 -38.373329
v -15.928199 28.829455 -39.724929
v -18.188055 28.829455 -41.291050
v -20.272751 28.829455 -43.056609
v -22.162210 28.829455 -45.004604
v -23.838234 28.829455 -47.116273
v -25.284683 28.829455 -49.371281
v -26.487626 28.829455 -51.747911
v -27.435479 28.829455 -54.223273
v -28.119114 28.829455 -56.773530
v -28.531946 28.829455 -59.374121
v -28.670000 28.829455 -62.000000
v -28.531946 28.829455 -64.625879
v -28.119114 28.829455 -67.226470
v -27.435479 28.829455 -69.776727
v -26.487626 28.829455 -72.252089
v -25.284683 28.829455 -74.628719
v -23.838234 28.829455 -76.883727
v -22.162210 28.829455 -78.995396
v -20.272751 28.829455 -80.943391
v -18.188055 28.829455 -82.708950
v -15.928199 28.829455 -84.275071
v -13.514944 28.829455 -85.626671
v -10.971534 28.829455 -86.750733
v -8.322462 28.829455 -87.636432
v -5.593240 28.829455 -88.275238
v -2.810151 28.829455 -88.660999
v -0.000000 28.829455 -88.790000
v 2.810151 28.829455 -88.660999
v 5.593240 28.829455 -88.275238
v 8.322462 28.829455 -87.636432
v 10.971534 28.829455 -86.750733
v 13.514944 28.829455 -85.626671
v 15.928199 28.829455 -84.275071
v 18.188055 28.829455 -82.708950
v 20.272751 28.829455 -80.943391
v 22.162210 28.829455 -78.995396
v 23.838234 28.829455 -76.883727
v 25.284683 28.829455 -74.628719
v 26.487626 28.829455 -72.252089
v 27.435479 28.829455 -69.776727
v 28.119114 28.829455 -67.226470
v 28.531946 28.829455 -64.625879
v 36.600000 28.002182 -62.000000
v 36.423761 28.002182 -58.647814
v 35.896741 28.002182 -55.327911
v 35.024016 28.002182 -52.072264
v 33.813991 28.002182 -48.912227
v 32.278318 28.002182 -45.878232
v 30.431788 28.002182 -42.999498
v 28.292183 28.002182 -40.303750
v 25.880108 28.002182 -37.816948
v 23.218794 28.002182 -35.563042
v 20.333871 28.002182 -33.563739
v 17.253121 28.002182 -31.838293
v 14.006214 28.002182 -30.403320
v 10.624419 28.002182 -29.272641
v 7.140306 28.002182 -28.457143
v 3.587427 28.002182 -27.964682
v 0.000000 28.002182 -27.800000
v -3.587427 28.002182 -27.964682
v -7.140306 28.002182 -28.457143
v -10.624419 28.002182 -29.272641
v -14.006214 28.002182 -30.403320
v -17.253121 28.002182 -31.838293
v -20.333871 28.002182 -33.563739
v -23.218794 28.002182 -35.563042
v -25.880108 28.002182 -37.816948
v -28.292183 28.002182 -40.303750
v -30.431788 28.002182 -42.999498
v -32.278318 28.002182 -45.878232
v -33.813991 28.002182 -48.912227
v -35.024016 28.002182 -52.072264
v -35.896741 28.002182 -55.327911
v -36.423761 28.002182 -58.647814
v -36.600000 28.002182 -62.000000
v -36.423761 28.002182 -65.352186
v -35.896741 28.002182 -68.672089
v -35.024016 28.002182 -71.927736
v -33.813991 28.002182 -75.087773
v -32.278318 28.002182 -78.121768
v -30.431788 28.002182 -81.000502
v -28.292183 28.002182 -83.696250
v -25.880108 28.002182 -86.183052
v -23.218794 28.002182 -88.436958
v -20.333871 28.002182 -90.436261
v -17.253121 28.002182 -92.161707
v -14.006214 28.002182 -93.596680
v -10.624419 28.002182 -94.727359
v -7.140306 28.002182 -95.542857
v -3.587427 28.002182 -96.035318
v -0.000000 28.002182 -96.200000
v 3.587427 28.002182 -96.035318
v 7.140306 28.002182 -95.542857
v 10.624419 28.002182 -94.727359
v 14.006214 28.002182 -93.596680
v 17.253121 28.002182 -92.161707
v 20.333871 28.002182 -90.436261
v 23.218794 28.002182 -88.436958
v 25.880108 28.002182 -86.183052
v 28.292183 28.002182 -83.696250
v 30.431788 28.002182 -81.000502
v 32.278318 28.002182 -78.121768
v 33.813991 28.002182 -75.087773
v 35.024016 28.002182 -71.927736
v 35.896741 28.002182 -68.672089
v 36.423761 28.002182 -65.352186
v 53.680000 26.024000 -62.000000
v 53.421516 26.024000 -57.083460
v 52.648554 26.024000 -52.214269
v 51.368557 26.024000 -47.439321
v 49.593853 26.024000 -42.804599
v 47.341533 26.024000 -38.354740
v 44.633289 26.024000 -34.132597
v 41.495201 26.024000 -30.178833
v 37.957492 26.024000 -26.531524
v 34.054231 26.024000 -23.225796
v 29.823010 26.024000 -20.293484
v 25.304577 26.024000 -17.762829
v 20.542447 26.024000 -15.658203
v 15.582481 26.024000 -13.999873
v 10.472448 26.024000 -12.803810
v 5.261560 26.024000 -12.081534
v 0.000000 26.024000 -11.840000
v -5.261560 26.024000 -12.081534
v -10.472448 26.024000 -12.803810
v -15.582481 26.024000 -13.999873
v -20.542447 26.024000 -15.658203
v -25.304577 26.024000 -17.762829
v -29.823010 26.024000 -20.293484
v -34.054231 26.024000 -23.225796
v -37.957492 26.024000 -26.531524
v -41.495201 26.024000 -30.178833
v -44.633289 26.024000 -34.132597
v -47.341533 26.024000 -38.354740
v -49.593853 26.024000 -42.804599
v -51.368557 26.024000 -47.439321
v -52.648554 26.024000 -52.214269
v -53.421516 26.024000 -57.083460
v -53.680000 26.024000 -62.000000
v -53.421516 26.024000 -66.916540
v -52.648554 26.024000 -71.785731
v -51.368557 26.024000 -76.560679
v -49.593853 26.024000 -81.195401
v -47.341533 26.024000 -85.645260
v -44.633289 26.024000 -89.867403
v -41.495201 26.024000 -93.821167
v -37.957492 26.024000 -97.468476
v -34.054231 26.024000 -100.774204
v -29.823010 26.024000 -103.706516
v -25.304577 26.024000 -106.237171
v -20.542447 26.024000 -108.341797
v -15.582481 26.024000 -110.000127
v -10.472448 26.024000 -111.196190
v -5.261560 26.024000 -111.918466
v -0.000000 26.024000 -112.160000
v 5.261560 26.024000 -111.918466
v 10.472448 26.024000 -111.196190
v 15.582481 26.024000 -110.000127
v 20.542447 26.024000 -108.341797
v 25.304577 26.024000 -106.237171
v 29.823010 26.024000 -103.706516
v 34.054231 26.024000 -100.774204
v 37.957492 26.024000 -97.468476
v 41.495201 26.024000 -93.821167
v 44.633289 26.024000 -89.867403
v 47.341533 26.024000 -85.645260
v 49.593853 26.024000 -81.195401
v 51.368557 26.024000 -76.560679
v 52.648554 26.024000 -71.785731
v 53.421516 26.024000 -66.916540
v 56.542222 25.640000 -62.686888
v 56.542222 25.640000 -61.313112
v 56.342007 25.640000 -57.504890
v 56.197904 25.640000 -56.137730
v 55.599188 25.640000 -52.366183
v 55.312370 25.640000 -51.018804
v 54.320918 25.640000 -47.320255
v 53.894147 25.640000 -46.005634
v 52.519508 25.640000 -42.415700
v 51.956895 25.640000 -41.146497
v 50.212307 25.640000 -37.699753
v 49.519269 25.640000 -36.488192
v 47.421534 25.640000 -33.217831
v 46.604745 25.640000 -32.075579
v 44.174065 25.640000 -29.013097
v 43.241392 25.640000 -27.951154
v 40.501176 25.640000 -25.126045
v 39.461601 25.640000 -24.154639
v 36.438238 25.640000 -21.594109
v 35.301773 25.640000 -20.722595
v 32.024381 25.640000 -18.451304
v 30.801970 25.640000 -17.688075
v 27.302111 25.640000 -15.727897
v 26.005527 25.640000 -15.080303
v 22.316906 25.640000 -13.450115
v 20.958637 25.640000 -12.924394
v 17.116778 25.640000 -11.639895
v 15.709903 25.640000 -11.241109
v 11.751806 25.640000 -10.314671
v 10.309875 25.640000 -10.046660
v -10.309875 25.640000 -10.046660
v -11.751806 25.640000 -10.314671
v -15.709903 25.640000 -11.241109
v -17.116778 25.640000 -11.639895
v -20.958637 25.640000 -12.924394
v -22.316906 25.640000 -13.450115
v -26.005527 25.640000 -15.080303
v -27.302111 25.640000 -15.727897
v -30.801970 25.640000 -17.688075
v -32.024381 25.640000 -18.451304
v -35.301773 25.640000 -20.722595
v -36.438238 25.640000 -21.594109
v -39.461601 25.640000 -24.154639
v -40.501176 25.640000 -25.126045
v -43.241392 25.640000 -27.951154
v -44.174065 25.640000 -29.013097
v -46.604745 25.640000 -32.075579
v -47.421534 25.640000 -33.217831
v -49.519269 25.640000 -36.488192
v -50.212307 25.640000 -37.699753
v -51.956895 25.640000 -41.146497
v -52.519508 25.640000 -42.415700
v -53.894147 25.640000 -46.005634
v -54.320918 25.640000 -47.320255
v -55.312370 25.640000 -51.018804
v -55.599188 25.640000 -52.366183
v -56.197904 25.640000 -56.137730
v -56.342007 25.640000 -57.504890
v -56.542222 25.640000 -61.313112
v -56.542222 25.640000 -62.686888
v -56.342007 25.640000 -66.495110
v -56.197904 25.640000 -67.862270
v -55.599188 25.640000 -71.633817
v -55.312370 25.640000 -72.981196
v -54.320918 25.640000 -76.679745
v -53.894147 25.640000 -77.994366
v -52.519508 25.640000 -81.584300
v -51.956895 25.640000 -82.853503
v -50.212307 25.640000 -86.300247
v -49.519269 25.640000 -87.511808
v -47.421534 25.640000 -90.782169
v -46.604745 25.640000 -91.924421
v -44.174065 25.640000 -94.986903
v -43.241392 25.640000 -96.048846
v -40.501176 25.640000 -98.873955
v -39.461601 25.640000 -99.845361
v -36.438238 25.640000 -102.405891
v -35.301773 25.640000 -103.277405
v -32.024381 25.640000 -105.548696
v -30.801970 25.640000 -106.311925
v -27.302111 25.640000 -108.272103
v -26.005527 25.640000 -108.919697
v -22.316906 25.640000 -110.549885
v -20.958637 25.640000 -111.075606
v -17.116778 25.640000 -112.360105
v -15.709903 25.640000 -112.758891
v -11.751806 25.640000 -113.685329
v -10.309875 25.640000 -113.953340
v 10.309875 25.640000 -113.953340
v 11.751806 25.640000 -113.685329
v 15.709903 25.640000 -112.758891
v 17.116778 25.640000 -112.360105
v 20.958637 25.640000 -111.075606
v 22.316906 25.640000 -110.549885
v 26.005527 25.640000 -108.919697
v 27.302111 25.640000 -108.272103
v 30.801970 25.640000 -106.311925
v 32.024381 25.640000 -105.548696
v 35.301773 25.640000 -103.277405
v 36.438238 25.640000 -102.405891
v 39.461601 25.640000 -99.845361
v 40.501176 25.640000 -98.873955
v 43.241392 25.640000 -96.048846
v 44.174065 25.640000 -94.986903
v 46.604745 25.640000 -91.924421
v 47.421534 25.640000 -90.782169
v 49.519269 25.640000 -87.511808
v 50.212307 25.640000 -86.300247
v 51.956895 25.640000 -82.853503
v 52.519508 25.640000 -81.584300
v 53.894147 25.640000 -77.994366
v 54.320918 25.640000 -76.679745
v 55.312370 25.640000 -72.981196
v 55.599188 25.640000 -71.633817
v 56.197904 25.640000 -67.862270
v 56.342007 25.640000 -66.495110
v 0.693000 32.983000 -58.000000
v 0.669387 32.983000 -57.782592
v 0.600156 32.983000 -57.580000
v 0.490025 32.983000 -57.406030
v 0.346500 32.983000 -57.272539
v 0.179362 32.983000 -57.188622
v 0.000000 32.983000 -57.160000
v -0.179362 32.983000 -57.188622
v -0.346500 32.983000 -57.272539
v -0.490025 32.983000 -57.406030
v -0.600156 32.983000 -57.580000
v -0.669387 32.983000 -57.782592
v -0.693000 32.983000 -58.000000
v -0.669387 32.983000 -58.217408
v -0.600156 32.983000 -58.420000
v -0.490025 32.983000 -58.593970
v -0.346500 32.983000 -58.727461
v -0.179362 32.983000 -58.811378
v -0.000000 32.983000 -58.840000
v 0.179362 32.983000 -58.811378
v 0.346500 32.983000 -58.727461
v 0.490025 32.983000 -58.593970
v 0.600156 32.983000 -58.420000
v 0.669387 32.983000 -58.217408
v 1.848000 32.668000 -58.000000
v 1.785031 32.668000 -57.420245
v 1.600415 32.668000 -56.880000
v 1.306733 32.668000 -56.416081
v 0.924000 32.668000 -56.060103
v 0.478298 32.668000 -55.836326
v 0.000000 32.668000 -55.760000
v -0.478298 32.668000 -55.836326
v -0.924000 32.668000 -56.060103
v -1.306733 32.668000 -56.416081
v -1.600415 32.668000 -56.880000
v -1.785031 32.668000 -57.420245
v -1.848000 32.668000 -58.000000
v -1.785031 32.668000 -58.579755
v -1.600415 32.668000 -59.120000
v -1.306733 32.668000 -59.583919
v -0.924000 32.668000 -59.939897
v -0.478298 32.668000 -60.163674
v -0.000000 32.668000 -60.240000
v 0.478298 32.668000 -60.163674
v 0.924000 32.668000 -59.939897
v 1.306733 32.668000 -59.583919
v 1.600415 32.668000 -59.120000
v 1.785031 32.668000 -58.579755
v 4.389000 31.565500 -58.000000
v 4.239448 31.565500 -56.623083
v 3.800985 31.565500 -55.340000
v 3.103492 31.565500 -54.238192
v 2.194500 31.565500 -53.392745
v 1.135957 31.565500 -52.861275
v 0.000000 31.565500 -52.680000
v -1.135957 31.565500 -52.861275
v -2.194500 31.565500 -53.392745
v -3.103492 31.565500 -54.238192
v -3.800985 31.565500 -55.340000
v -4.239448 31.565500 -56.623083
v -4.389000 31.565500 -58.000000
v -4.239448 31.565500 -59.376917
v -3.800985 31.565500 -60.660000
v -3.103492 31.565500 -61.761808
v -2.194500 31.565500 -62.607255
v -1.135957 31.565500 -63.138725
v -0.000000 31.565500 -63.320000
v 1.135957 31.565500 -63.138725
v 2.194500 31.565500 -62.607255
v 3.103492 31.565500 -61.761808
v 3.800985 31.565500 -60.660000
v 4.239448 31.565500 -59.376917
v 5.544000 30.935500 -58.000000
v 5.355093 30.935500 -56.260736
v 4.801245 30.935500 -54.640000
v 3.920200 30.935500 -53.248242
v 2.772000 30.935500 -52.180309
v 1.434893 30.935500 -51.508978
v 0.000000 30.935500 -51.280000
v -1.434893 30.935500 -51.508978
v -2.772000 30.935500 -52.180309
v -3.920200 30.935500 -53.248242
v -4.801245 30.935500 -54.640000
v -5.355093 30.935500 -56.260736
v -5.544000 30.935500 -58.000000
v -5.355093 30.935500 -59.739264
v -4.801245 30.935500 -61.360000
v -3.920200 30.935500 -62.751758
v -2.772000 30.935500 -63.819691
v -1.434893 30.935500 -64.491022
v -0.000000 30.935500 -64.720000
v 1.434893 30.935500 -64.491022
v 2.772000 30.935500 -63.819691
v 3.920200 30.935500 -62.751758
v 4.801245 30.935500 -61.360000
v 5.355093 30.935500 -59.739264
v 5.775000 30.557500 -58.000000
v 5.578222 30.557500 -56.188267
v 5.001297 30.557500 -54.500000
v 4.083542 30.557500 -53.050253
v 2.887500 30.557500 -51.937822
v 1.494680 30.557500 -51.238519
v 0.000000 30.557500 -51.000000
v -1.494680 30.557500 -51.238519
v -2.887500 30.557500 -51.937822
v -4.083542 30.557500 -53.050253
v -5.001297 30.557500 -54.500000
v -5.578222 30.557500 -56.188267
v -5.775000 30.557500 -58.000000
v -5.578222 30.557500 -59.811733
v -5.001297 30.557500 -61.500000
v -4.083542 30.557500 -62.949747
v -2.887500 30.557500 -64.062178
v -1.494680 30.557500 -64.761481
v -0.000000 30.557500 -65.000000
v 1.494680 30.557500 -64.761481
v 2.887500 30.557500 -64.062178
v 4.083542 30.557500 -62.949747
v 5.001297 30.557500 -61.500000
v 5.578222 30.557500 -59.811733
v 5.775000 29.990500 -58.000000
v 5.578222 29.990500 -56.188267
v 5.001297 29.990500 -54.500000
v 4.083542 29.990500 -53.050253
v 2.887500 29.990500 -51.937822
v 1.494680 29.990500 -51.238519
v 0.000000 29.990500 -51.000000
v -1.494680 29.990500 -51.238519
v -2.887500 29.990500 -51.937822
v -4.083542 29.990500 -53.050253
v -5.001297 29.990500 -54.500000
v -5.578222 29.990500 -56.188267
v -5.775000 29.990500 -58.000000
v -5.578222 29.990500 -59.811733
v -5.001297 29.990500 -61.500000
v -4.083542 29.990500 -62.949747
v -2.887500 29.990500 -64.062178
v -1.494680 29.990500 -64.761481
v -0.000000 29.990500 -65.000000
v 1.494680 29.990500 -64.761481
v 2.887500 29.990500 -64.062178
v 4.083542 29.990500 -62.949747
v 5.001297 29.990500 -61.500000
v 5.578222 29.990500 -59.811733
v 4.793250 29.140000 -58.000000
v 4.629924 29.140000 -56.496261
v 4.151076 29.140000 -55.095000
v 3.389340 29.140000 -53.891710
v 2.396625 29.140000 -52.968392
v 1.240584 29.140000 -52.387971
v 0.000000 29.140000 -52.190000
v -1.240584 29.140000 -52.387971
v -2.396625 29.140000 -52.968392
v -3.389340 29.140000 -53.891710
v -4.151076 29.140000 -55.095000
v -4.629924 29.140000 -56.496261
v -4.793250 29.140000 -58.000000
v -4.629924 29.140000 -59.503739
v -4.151076 29.140000 -60.905000
v -3.389340 29.140000 -62.108290
v -2.396625 29.140000 -63.031608
v -1.240584 29.140000 -63.612029
v -0.000000 29.140000 -63.810000
v 1.240584 29.140000 -63.612029
v 2.396625 29.140000 -63.031608
v 3.389340 29.140000 -62.108290
v 4.151076 29.140000 -60.905000
v 4.629924 29.140000 -59.503739
v 1.617000 28.384000 -58.000000
v 1.561902 28.384000 -57.492715
v 1.400363 28.384000 -57.020000
v 1.143392 28.384000 -56.614071
v 0.808500 28.384000 -56.302590
v 0.418510 28.384000 -56.106785
v 0.000000 28.384000 -56.040000
v -0.418510 28.384000 -56.106785
v -0.808500 28.384000 -56.302590
v -1.143392 28.384000 -56.614071
v -1.400363 28.384000 -57.020000
v -1.561902 28.384000 -57.492715
v -1.617000 28.384000 -58.000000
v -1.561902 28.384000 -58.507285
v -1.400363 28.384000 -58.980000
v -1.143392 28.384000 -59.385929
v -0.808500 28.384000 -59.697410
v -0.418510 28.384000 -59.893215
v -0.000000 28.384000 -59.960000
v 0.418510 28.384000 -59.893215
v 0.808500 28.384000 -59.697410
v 1.143392 28.384000 -59.385929
v 1.400363 28.384000 -58.980000
v 1.561902 28.384000 -58.507285
v 0.693000 28.321000 -58.000000
v 0.669387 28.321000 -57.782592
v 0.600156 28.321000 -57.580000
v 0.490025 28.321000 -57.406030
v 0.346500 28.321000 -57.272539
v 0.179362 28.321000 -57.188622
v 0.000000 28.321000 -57.160000
v -0.179362 28.321000 -57.188622
v -0.346500 28.321000 -57.272539
v -0.490025 28.321000 -57.406030
v -0.600156 28.321000 -57.580000
v -0.669387 28.321000 -57.782592
v -0.693000 28.321000 -58.000000
v -0.669387 28.321000 -58.217408
v -0.600156 28.321000 -58.420000
v -0.490025 28.321000 -58.593970
v -0.346500 28.321000 -58.727461
v -0.179362 28.321000 -58.811378
v -0.000000 28.321000 -58.840000
v 0.179362 28.321000 -58.811378
v 0.346500 28.321000 -58.727461
v 0.490025 28.321000 -58.593970
v 0.600156 28.321000 -58.420000
v 0.669387 28.321000 -58.217408
v 0.420000 34.110000 -58.350000
v 0.405689 34.110000 -58.230426
v 0.363731 34.110000 -58.119000
v 0.296985 34.110000 -58.023317
v 0.210000 34.110000 -57.949896
v 0.108704 34.110000 -57.903742
v 0.000000 34.110000 -57.888000
v -0.108704 34.110000 -57.903742
v -0.210000 34.110000 -57.949896
v -0.296985 34.110000 -58.023317
v -0.363731 34.110000 -58.119000
v -0.405689 34.110000 -58.230426
v -0.420000 34.110000 -58.350000
v -0.405689 34.110000 -58.469574
v -0.363731 34.110000 -58.581000
v -0.296985 34.110000 -58.676683
v -0.210000 34.110000 -58.750104
v -0.108704 34.110000 -58.796258
v -0.000000 34.110000 -58.812000
v 0.108704 34.110000 -58.796258
v 0.210000 34.110000 -58.750104
v 0.296985 34.110000 -58.676683
v 0.363731 34.110000 -58.581000
v 0.405689 34.110000 -58.469574
v 1.120000 33.935000 -58.350000
v 1.081837 33.935000 -58.031135
v 0.969948 33.935000 -57.734000
v 0.791960 33.935000 -57.478844
v 0.560000 33.935000 -57.283057
v 0.289877 33.935000 -57.159979
v 0.000000 33.935000 -57.118000
v -0.289877 33.935000 -57.159979
v -0.560000 33.935000 -57.283057
v -0.791960 33.935000 -57.478844
v -0.969948 33.935000 -57.734000
v -1.081837 33.935000 -58.031135
v -1.120000 33.935000 -58.350000
v -1.081837 33.935000 -58.668865
v -0.969948 33.935000 -58.966000
v -0.791960 33.935000 -59.221156
v -0.560000 33.935000 -59.416943
v -0.289877 33.935000 -59.540021
v -0.000000 33.935000 -59.582000
v 0.289877 33.935000 -59.540021
v 0.560000 33.935000 -59.416943
v 0.791960 33.935000 -59.221156
v 0.969948 33.935000 -58.966000
v 1.081837 33.935000 -58.668865
v 2.660000 33.322500 -58.350000
v 2.569363 33.322500 -57.592695
v 2.303628 33.322500 -56.887000
v 1.880904 33.322500 -56.281006
v 1.330000 33.322500 -55.816010
v 0.688459 33.322500 -55.523701
v 0.000000 33.322500 -55.424000
v -0.688459 33.322500 -55.523701
v -1.330000 33.322500 -55.816010
v -1.880904 33.322500 -56.281006
v -2.303628 33.322500 -56.887000
v -2.569363 33.322500 -57.592695
v -2.660000 33.322500 -58.350000
v -2.569363 33.322500 -59.107305
v -2.303628 33.322500 -59.813000
v -1.880904 33.322500 -60.418994
v -1.330000 33.322500 -60.883990
v -0.688459 33.322500 -61.176299
v -0.000000 33.322500 -61.276000
v 0.688459 33.322500 -61.176299
v 1.330000 33.322500 -60.883990
v 1.880904 33.322500 -60.418994
v 2.303628 33.322500 -59.813000
v 2.569363 33.322500 -59.107305
v 3.360000 32.972500 -58.350000
v 3.245511 32.972500 -57.393405
v 2.909845 32.972500 -56.502000
v 2.375879 32.972500 -55.736533
v 1.680000 32.972500 -55.149170
v 0.869632 32.972500 -54.779938
v 0.000000 32.972500 -54.654000
v -0.869632 32.972500 -54.779938
v -1.680000 32.972500 -55.149170
v -2.375879 32.972500 -55.736533
v -2.909845 32.972500 -56.502000
v -3.245511 32.972500 -57.393405
v -3.360000 32.972500 -58.350000
v -3.245511 32.972500 -59.306595
v -2.909845 32.972500 -60.198000
v -2.375879 32.972500 -60.963467
v -1.680000 32.972500 -61.550830
v -0.869632 32.972500 -61.920062
v -0.000000 32.972500 -62.046000
v 0.869632 32.972500 -61.920062
v 1.680000 32.972500 -61.550830
v 2.375879 32.972500 -60.963467
v 2.909845 32.972500 -60.198000
v 3.245511 32.972500 -59.306595
v 3.500000 32.762500 -58.350000
v 3.380740 32.762500 -57.353547
v 3.031089 32.762500 -56.425000
v 2.474874 32.762500 -55.627639
v 1.750000 32.762500 -55.015802
v 0.905867 32.762500 -54.631186
v 0.000000 32.762500 -54.500000
v -0.905867 32.762500 -54.631186
v -1.750000 32.762500 -55.015802
v -2.474874 32.762500 -55.627639
v -3.031089 32.762500 -56.425000
v -3.380740 32.762500 -57.353547
v -3.500000 32.762500 -58.350000
v -3.380740 32.762500 -59.346453
v -3.031089 32.762500 -60.275000
v -2.474874 32.762500 -61.072361
v -1.750000 32.762500 -61.684198
v -0.905867 32.762500 -62.068814
v -0.000000 32.762500 -62.200000
v 0.905867 32.762500 -62.068814
v 1.750000 32.762500 -61.684198
v 2.474874 32.762500 -61.072361
v 3.031089 32.762500 -60.275000
v 3.380740 32.762500 -59.346453
v 3.500000 32.447500 -58.350000
v 3.380740 32.447500 -57.353547
v 3.031089 32.447500 -56.425000
v 2.474874 32.447500 -55.627639
v 1.750000 32.447500 -55.015802
v 0.905867 32.447500 -54.631186
v 0.000000 32.447500 -54.500000
v -0.905867 32.447500 -54.631186
v -1.750000 32.447500 -55.015802
v -2.474874 32.447500 -55.627639
v -3.031089 32.447500 -56.425000
v -3.380740 32.447500 -57.353547
v -3.500000 32.447500 -58.350000
v -3.380740 32.447500 -59.346453
v -3.031089 32.447500 -60.275000
v -2.474874 32.447500 -61.072361
v -1.750000 32.447500 -61.684198
v -0.905867 32.447500 -62.068814
v -0.000000 32.447500 -62.200000
v 0.905867 32.447500 -62.068814
v 1.750000 32.447500 -61.684198
v 2.474874 32.447500 -61.072361
v 3.031089 32.447500 -60.275000
v 3.380740 32.447500 -59.346453
v 2.905000 31.975000 -58.350000
v 2.806015 31.975000 -57.522944
v 2.515804 31.975000 -56.752250
v 2.054145 31.975000 -56.090440
v 1.452500 31.975000 -55.582616
v 0.751869 31.975000 -55.263384
v 0.000000 31.975000 -55.154500
v -0.751869 31.975000 -55.263384
v -1.452500 31.975000 -55.582616
v -2.054145 31.975000 -56.090440
v -2.515804 31.975000 -56.752250
v -2.806015 31.975000 -57.522944
v -2.905000 31.975000 -58.350000
v -2.806015 31.975000 -59.177056
v -2.515804 31.975000 -59.947750
v -2.054145 31.975000 -60.609560
v -1.452500 31.975000 -61.117384
v -0.751869 31.975000 -61.436616
v -0.000000 31.975000 -61.545500
v 0.751869 31.975000 -61.436616
v 1.452500 31.975000 -61.117384
v 2.054145 31.975000 -60.609560
v 2.515804 31.975000 -59.947750
v 2.806015 31.975000 -59.177056
v 0.980000 31.555000 -58.350000
v 0.946607 31.555000 -58.070993
v 0.848705 31.555000 -57.811000
v 0.692965 31.555000 -57.587739
v 0.490000 31.555000 -57.416425
v 0.253643 31.555000 -57.308732
v 0.000000 31.555000 -57.272000
v -0.253643 31.555000 -57.308732
v -0.490000 31.555000 -57.416425
v -0.692965 31.555000 -57.587739
v -0.848705 31.555000 -57.811000
v -0.946607 31.555000 -58.070993
v -0.980000 31.555000 -58.350000
v -0.946607 31.555000 -58.629007
v -0.848705 31.555000 -58.889000
v -0.692965 31.555000 -59.112261
v -0.490000 31.555000 -59.283575
v -0.253643 31.555000 -59.391268
v -0.000000 31.555000 -59.428000
v 0.253643 31.555000 -59.391268
v 0.490000 31.555000 -59.283575
v 0.692965 31.555000 -59.112261
v 0.848705 31.555000 -58.889000
v 0.946607 31.555000 -58.629007
v 0.420000 31.520000 -58.350000
v 0.405689 31.520000 -58.230426
v 0.363731 31.520000 -58.119000
v 0.296985 31.520000 -58.023317
v 0.210000 31.520000 -57.949896
v 0.108704 31.520000 -57.903742
v 0.000000 31.520000 -57.888000
v -0.108704 31.520000 -57.903742
v -0.210000 31.520000 -57.949896
v -0.296985 31.520000 -58.023317
v -0.363731 31.520000 -58.119000
v -0.405689 31.520000 -58.230426
v -0.420000 31.520000 -58.350000
v -0.405689 31.520000 -58.469574
v -0.363731 31.520000 -58.581000
v -0.296985 31.520000 -58.676683
v -0.210000 31.520000 -58.750104
v -0.108704 31.520000 -58.796258
v -0.000000 31.520000 -58.812000
v 0.108704 31.520000 -58.796258
v 0.210000 31.520000 -58.750104
v 0.296985 31.520000 -58.676683
v 0.363731 31.520000 -58.581000
v 0.405689 31.520000 -58.469574
v 3.500000 20.000000 -46.500000
v -3.500000 20.000000 -46.500000
v -3.500000 20.000000 -15.500000
v 3.500000 20.000000 -15.500000
v 3.500000 -12.000000 -22.500000
v -3.500000 -12.000000 -22.500000
v -3.500000 -12.000000 8.500000
v 3.500000 -12.000000 8.500000
v 12.000000 -16.000000 -29.000000
v 11.412678 -12.291796 -29.000000
v 9.708204 -8.946577 -29.000000
v 7.053423 -6.291796 -29.000000
v 3.708204 -4.587322 -29.000000
v 0.000000 -4.000000 -29.000000
v -3.708204 -4.587322 -29.000000
v -7.053423 -6.291796 -29.000000
v -9.708204 -8.946577 -29.000000
v -11.412678 -12.291796 -29.000000
v -12.000000 -16.000000 -29.000000
v -11.412678 -19.708204 -29.000000
v -9.708204 -23.053423 -29.000000
v -7.053423 -25.708204 -29.000000
v -3.708204 -27.412678 -29.000000
v -0.000000 -28.000000 -29.000000
v 3.708204 -27.412678 -29.000000
v 7.053423 -25.708204 -29.000000
v 9.708204 -23.053423 -29.000000
v 11.412678 -19.708204 -29.000000
v 19.000000 -19.000000 -18.000000
v 18.070074 -13.437694 -18.000000
v 15.371323 -8.419865 -18.000000
v 11.167920 -4.437694 -18.000000
v 5.871323 -1.880983 -18.000000
v 0.000000 -1.000000 -18.000000
v -5.871323 -1.880983 -18.000000
v -11.167920 -4.437694 -18.000000
v -15.371323 -8.419865 -18.000000
v -18.070074 -13.437694 -18.000000
v -19.000000 -19.000000 -18.000000
v -18.070074 -24.562306 -18.000000
v -15.371323 -29.580135 -18.000000
v -11.167920 -33.562306 -18.000000
v -5.871323 -36.119017 -18.000000
v -0.000000 -37.000000 -18.000000
v 5.871323 -36.119017 -18.000000
v 11.167920 -33.562306 -18.000000
v 15.371323 -29.580135 -18.000000
v 18.070074 -24.562306 -18.000000
v 20.000000 -19.000000 12.000000
v 19.021130 -13.437694 12.000000
v 16.180340 -8.419865 12.000000
v 11.755705 -4.437694 12.000000
v 6.180340 -1.880983 12.000000
v 0.000000 -1.000000 12.000000
v -6.180340 -1.880983 12.000000
v -11.755705 -4.437694 12.000000
v -16.180340 -8.419865 12.000000
v -19.021130 -13.437694 12.000000
v -20.000000 -19.000000 12.000000
v -19.021130 -24.562306 12.000000
v -16.180340 -29.580135 12.000000
v -11.755705 -33.562306 12.000000
v -6.180340 -36.119017 12.000000
v -0.000000 -37.000000 12.000000
v 6.180340 -36.119017 12.000000
v 11.755705 -33.562306 12.000000
v 16.180340 -29.580135 12.000000
v 19.021130 -24.562306 12.000000
v 12.000000 -14.000000 41.000000
v 11.412678 -10.909830 41.000000
v 9.708204 -8.122147 41.000000
v 7.053423 -5.909830 41.000000
v 3.708204 -4.489435 41.000000
v 0.000000 -4.000000 41.000000
v -3.708204 -4.489435 41.000000
v -7.053423 -5.909830 41.000000
v -9.708204 -8.122147 41.000000
v -11.412678 -10.909830 41.000000
v -12.000000 -14.000000 41.000000
v -11.412678 -17.090170 41.000000
v -9.708204 -19.877853 41.000000
v -7.053423 -22.090170 41.000000
v -3.708204 -23.510565 41.000000
v -0.000000 -24.000000 41.000000
v 3.708204 -23.510565 41.000000
v 7.053423 -22.090170 41.000000
v 9.708204 -19.877853 41.000000
v 11.412678 -17.090170 41.000000
v 4.000000 -11.000000 65.000000
v 3.804226 -9.763932 65.000000
v 3.236068 -8.648859 65.000000
v 2.351141 -7.763932 65.000000
v 1.236068 -7.195774 65.000000
v 0.000000 -7.000000 65.000000
v -1.236068 -7.195774 65.000000
v -2.351141 -7.763932 65.000000
v -3.236068 -8.648859 65.000000
v -3.804226 -9.763932 65.000000
v -4.000000 -11.000000 65.000000
v -3.804226 -12.236068 65.000000
v -3.236068 -13.351141 65.000000
v -2.351141 -14.236068 65.000000
v -1.236068 -14.804226 65.000000
v -0.000000 -15.000000 65.000000
v 1.236068 -14.804226 65.000000
v 2.351141 -14.236068 65.000000
v 3.236068 -13.351141 65.000000
v 3.804226 -12.236068 65.000000
v -13.529822 -10.288271 13.500000
v -10.470178 -7.711729 13.500000
v -10.470178 -7.711729 30.500000
v -13.529822 -10.288271 30.500000
v -45.529822 27.711729 39.500000
v -42.470178 30.288271 39.500000
v -42.470178 30.288271 56.500000
v -45.529822 27.711729 56.500000
v -39.000000 35.000000 -13.000000
v -39.380602 36.913417 -13.000000
v -40.464466 38.535534 -13.000000
v -42.086583 39.619398 -13.000000
v -44.000000 40.000000 -13.000000
v -45.913417 39.619398 -13.000000
v -47.535534 38.535534 -13.000000
v -48.619398 36.913417 -13.000000
v -49.000000 35.000000 -13.000000
v -48.619398 33.086583 -13.000000
v -47.535534 31.464466 -13.000000
v -45.913417 30.380602 -13.000000
v -44.000000 30.000000 -13.000000
v -42.086583 30.380602 -13.000000
v -40.464466 31.464466 -13.000000
v -39.380602 33.086583 -13.000000
v -35.500000 35.000000 -7.375000
v -36.147024 38.252809 -7.375000
v -37.989592 41.010408 -7.375000
v -40.747191 42.852976 -7.375000
v -44.000000 43.500000 -7.375000
v -47.252809 42.852976 -7.375000
v -50.010408 41.010408 -7.375000
v -51.852976 38.252809 -7.375000
v -52.500000 35.000000 -7.375000
v -51.852976 31.747191 -7.375000
v -50.010408 28.989592 -7.375000
v -47.252809 27.147024 -7.375000
v -44.000000 26.500000 -7.375000
v -40.747191 27.147024 -7.375000
v -37.989592 28.989592 -7.375000
v -36.147024 31.747191 -7.375000
v -33.200000 35.000000 4.500000
v -34.022101 39.132981 4.500000
v -36.363247 42.636753 4.500000
v -39.867019 44.977899 4.500000
v -44.000000 45.800000 4.500000
v -48.132981 44.977899 4.500000
v -51.636753 42.636753 4.500000
v -53.977899 39.132981 4.500000
v -54.800000 35.000000 4.500000
v -53.977899 30.867019 4.500000
v -51.636753 27.363247 4.500000
v -48.132981 25.022101 4.500000
v -44.000000 24.200000 4.500000
v -39.867019 25.022101 4.500000
v -36.363247 27.363247 4.500000
v -34.022101 30.867019 4.500000
v -34.000000 35.000000 28.250000
v -34.761205 38.826834 28.250000
v -36.928932 42.071068 28.250000
v -40.173166 44.238795 28.250000
v -44.000000 45.000000 28.250000
v -47.826834 44.238795 28.250000
v -51.071068 42.071068 28.250000
v -53.238795 38.826834 28.250000
v -54.000000 35.000000 28.250000
v -53.238795 31.173166 28.250000
v -51.071068 27.928932 28.250000
v -47.826834 25.761205 28.250000
v -44.000000 25.000000 28.250000
v -40.173166 25.761205 28.250000
v -36.928932 27.928932 28.250000
v -34.761205 31.173166 28.250000
v -36.400000 35.000000 78.250000
v -36.978516 37.908394 78.250000
v -38.625988 40.374012 78.250000
v -41.091606 42.021484 78.250000
v -44.000000 42.600000 78.250000
v -46.908394 42.021484 78.250000
v -49.374012 40.374012 78.250000
v -51.021484 37.908394 78.250000
v -51.600000 35.000000 78.250000
v -51.021484 32.091606 78.250000
v -49.374012 29.625988 78.250000
v -46.908394 27.978516 78.250000
v -44.000000 27.400000 78.250000
v -41.091606 27.978516 78.250000
v -38.625988 29.625988 78.250000
v -36.978516 32.091606 78.250000
v -39.200000 35.000000 102.000000
v -39.565378 36.836880 102.000000
v -40.605887 38.394113 102.000000
v -42.163120 39.434622 102.000000
v -44.000000 39.800000 102.000000
v -45.836880 39.434622 102.000000
v -47.394113 38.394113 102.000000
v -48.434622 36.836880 102.000000
v -48.800000 35.000000 102.000000
v -48.434622 33.163120 102.000000
v -47.394113 31.605887 102.000000
v -45.836880 30.565378 102.000000
v -44.000000 30.200000 102.000000
v -42.163120 30.565378 102.000000
v -40.605887 31.605887 102.000000
v -39.565378 33.163120 102.000000
v -41.700000 35.000000 112.000000
v -41.875077 35.880172 112.000000
v -42.373654 36.626346 112.000000
v -43.119828 37.124923 112.000000
v -44.000000 37.300000 112.000000
v -44.880172 37.124923 112.000000
v -45.626346 36.626346 112.000000
v -46.124923 35.880172 112.000000
v -46.300000 35.000000 112.000000
v -46.124923 34.119828 112.000000
v -45.626346 33.373654 112.000000
v -44.880172 32.875077 112.000000
v -44.000000 32.700000 112.000000
v -43.119828 32.875077 112.000000
v -42.373654 33.373654 112.000000
v -41.875077 34.119828 112.000000
v -54.368000 31.976000 4.500000
v -53.600000 32.200000 28.250000
v -51.296000 32.872000 78.250000
v -48.608000 33.656000 102.000000
v -54.800000 35.000000 4.500000
v -54.000000 35.000000 28.250000
v -51.600000 35.000000 78.250000
v -48.800000 35.000000 102.000000
v -54.368000 38.024000 4.500000
v -53.600000 37.800000 28.250000
v -51.296000 37.128000 78.250000
v -48.608000 36.344000 102.000000
v -33.632000 31.976000 4.500000
v -34.400000 32.200000 28.250000
v -36.704000 32.872000 78.250000
v -39.392000 33.656000 102.000000
v -33.200000 35.000000 4.500000
v -34.000000 35.000000 28.250000
v -36.400000 35.000000 78.250000
v -39.200000 35.000000 102.000000
v -33.632000 38.024000 4.500000
v -34.400000 37.800000 28.250000
v -36.704000 37.128000 78.250000
v -39.392000 36.344000 102.000000
v -33.873684 35.000000 24.500000
v -34.037288 36.812910 24.500000
v -34.522813 38.567240 24.500000
v -34.420000 35.000000 37.000000
v -34.574777 36.715103 37.000000
v -35.034108 38.374787 37.000000
v -35.020000 35.000000 49.500000
v -35.165084 36.607686 49.500000
v -35.595647 38.163423 49.500000
v -35.620000 35.000000 62.000000
v -35.755390 36.500268 62.000000
v -36.157185 37.952058 62.000000
v -36.220000 35.000000 74.500000
v -36.345696 36.392850 74.500000
v -36.718723 37.740694 74.500000
v 10.470178 -7.711729 13.500000
v 13.529822 -10.288271 13.500000
v 13.529822 -10.288271 30.500000
v 10.470178 -7.711729 30.500000
v 42.470178 30.288271 39.500000
v 45.529822 27.711729 39.500000
v 45.529822 27.711729 56.500000
v 42.470178 30.288271 56.500000
v 49.000000 35.000000 -13.000000
v 48.619398 36.913417 -13.000000
v 47.535534 38.535534 -13.000000
v 45.913417 39.619398 -13.000000
v 44.000000 40.000000 -13.000000
v 42.086583 39.619398 -13.000000
v 40.464466 38.535534 -13.000000
v 39.380602 36.913417 -13.000000
v 39.000000 35.000000 -13.000000
v 39.380602 33.086583 -13.000000
v 40.464466 31.464466 -13.000000
v 42.086583 30.380602 -13.000000
v 44.000000 30.000000 -13.000000
v 45.913417 30.380602 -13.000000
v 47.535534 31.464466 -13.000000
v 48.619398 33.086583 -13.000000
v 52.500000 35.000000 -7.375000
v 51.852976 38.252809 -7.375000
v 50.010408 41.010408 -7.375000
v 47.252809 42.852976 -7.375000
v 44.000000 43.500000 -7.375000
v 40.747191 42.852976 -7.375000
v 37.989592 41.010408 -7.375000
v 36.147024 38.252809 -7.375000
v 35.500000 35.000000 -7.375000
v 36.147024 31.747191 -7.375000
v 37.989592 28.989592 -7.375000
v 40.747191 27.147024 -7.375000
v 44.000000 26.500000 -7.375000
v 47.252809 27.147024 -7.375000
v 50.010408 28.989592 -7.375000
v 51.852976 31.747191 -7.375000
v 54.800000 35.000000 4.500000
v 53.977899 39.132981 4.500000
v 51.636753 42.636753 4.500000
v 48.132981 44.977899 4.500000
v 44.000000 45.800000 4.500000
v 39.867019 44.977899 4.500000
v 36.363247 42.636753 4.500000
v 34.022101 39.132981 4.500000
v 33.200000 35.000000 4.500000
v 34.022101 30.867019 4.500000
v 36.363247 27.363247 4.500000
v 39.867019 25.022101 4.500000
v 44.000000 24.200000 4.500000
v 48.132981 25.022101 4.500000
v 51.636753 27.363247 4.500000
v 53.977899 30.867019 4.500000
v 54.000000 35.000000 28.250000
v 53.238795 38.826834 28.250000
v 51.071068 42.071068 28.250000
v 47.826834 44.238795 28.250000
v 44.000000 45.000000 28.250000
v 40.173166 44.238795 28.250000
v 36.928932 42.071068 28.250000
v 34.761205 38.826834 28.250000
v 34.000000 35.000000 28.250000
v 34.761205 31.173166 28.250000
v 36.928932 27.928932 28.250000
v 40.173166 25.761205 28.250000
v 44.000000 25.000000 28.250000
v 47.826834 25.761205 28.250000
v 51.071068 27.928932 28.250000
v 53.238795 31.173166 28.250000
v 51.600000 35.000000 78.250000
v 51.021484 37.908394 78.250000
v 49.374012 40.374012 78.250000
v 46.908394 42.021484 78.250000
v 44.000000 42.600000 78.250000
v 41.091606 42.021484 78.250000
v 38.625988 40.374012 78.250000
v 36.978516 37.908394 78.250000
v 36.400000 35.000000 78.250000
v 36.978516 32.091606 78.250000
v 38.625988 29.625988 78.250000
v 41.091606 27.978516 78.250000
v 44.000000 27.400000 78.250000
v 46.908394 27.978516 78.250000
v 49.374012 29.625988 78.250000
v 51.021484 32.091606 78.250000
v 48.800000 35.000000 102.000000
v 48.434622 36.836880 102.000000
v 47.394113 38.394113 102.000000
v 45.836880 39.434622 102.000000
v 44.000000 39.800000 102.000000
v 42.163120 39.434622 102.000000
v 40.605887 38.394113 102.000000
v 39.565378 36.836880 102.000000
v 39.200000 35.000000 102.000000
v 39.565378 33.163120 102.000000
v 40.605887 31.605887 102.000000
v 42.163120 30.565378 102.000000
v 44.000000 30.200000 102.000000
v 45.836880 30.565378 102.000000
v 47.394113 31.605887 102.000000
v 48.434622 33.163120 102.000000
v 46.300000 35.000000 112.000000
v 46.124923 35.880172 112.000000
v 45.626346 36.626346 112.000000
v 44.880172 37.124923 112.000000
v 44.000000 37.300000 112.000000
v 43.119828 37.124923 112.000000
v 42.373654 36.626346 112.000000
v 41.875077 35.880172 112.000000
v 41.700000 35.000000 112.000000
v 41.875077 34.119828 112.000000
v 42.373654 33.373654 112.000000
v 43.119828 32.875077 112.000000
v 44.000000 32.700000 112.000000
v 44.880172 32.875077 112.000000
v 45.626346 33.373654 112.000000
v 46.124923 34.119828 112.000000
v 33.632000 31.976000 4.500000
v 34.400000 32.200000 28.250000
v 36.704000 32.872000 78.250000
v 39.392000 33.656000 102.000000
v 33.200000 35.000000 4.500000
v 34.000000 35.000000 28.250000
v 36.400000 35.000000 78.250000
v 39.200000 35.000000 102.000000
v 33.632000 38.024000 4.500000
v 34.400000 37.800000 28.250000
v 36.704000 37.128000 78.250000
v 39.392000 36.344000 102.000000
v 54.368000 31.976000 4.500000
v 53.600000 32.200000 28.250000
v 51.296000 32.872000 78.250000
v 48.608000 33.656000 102.000000
v 54.800000 35.000000 4.500000
v 54.000000 35.000000 28.250000
v 51.600000 35.000000 78.250000
v 48.800000 35.000000 102.000000
v 54.368000 38.024000 4.500000
v 53.600000 37.800000 28.250000
v 51.296000 37.128000 78.250000
v 48.608000 36.344000 102.000000
v 54.126316 35.000000 24.500000
v 53.962712 36.812910 24.500000
v 53.477187 38.567240 24.500000
v 53.580000 35.000000 37.000000
v 53.425223 36.715103 37.000000
v 52.965892 38.374787 37.000000
v 52.980000 35.000000 49.500000
v 52.834916 36.607686 49.500000
v 52.404353 38.163423 49.500000
v 52.380000 35.000000 62.000000
v 52.244610 36.500268 62.000000
v 51.842815 37.952058 62.000000
v 51.780000 35.000000 74.500000
v 51.654304 36.392850 74.500000
v 51.281277 37.740694 74.500000
v 10.080000 -16.000000 -29.300000
v 9.736532 -13.639570 -29.300000
v 8.729536 -11.440000 -29.300000
v 7.127636 -9.551186 -29.300000
v 5.040000 -8.101848 -29.300000
v 2.608896 -7.190756 -29.300000
v 0.000000 -6.880000 -29.300000
v -2.608896 -7.190756 -29.300000
v -5.040000 -8.101848 -29.300000
v -7.127636 -9.551186 -29.300000
v -8.729536 -11.440000 -29.300000
v -9.736532 -13.639570 -29.300000
v -10.080000 -16.000000 -29.300000
v -9.736532 -18.360430 -29.300000
v -8.729536 -20.560000 -29.300000
v -7.127636 -22.448814 -29.300000
v -5.040000 -23.898152 -29.300000
v -2.608896 -24.809244 -29.300000
v -0.000000 -25.120000 -29.300000
v 2.608896 -24.809244 -29.300000
v 5.040000 -23.898152 -29.300000
v 7.127636 -22.448814 -29.300000
v 8.729536 -20.560000 -29.300000
v 9.736532 -18.360430 -29.300000
v 8.568000 -16.000000 -30.800000
v 8.276052 -13.993635 -30.800000
v 7.420106 -12.124000 -30.800000
v 6.058491 -10.518508 -30.800000
v 4.284000 -9.286571 -30.800000
v 2.217562 -8.512143 -30.800000
v 0.000000 -8.248000 -30.800000
v -2.217562 -8.512143 -30.800000
v -4.284000 -9.286571 -30.800000
v -6.058491 -10.518508 -30.800000
v -7.420106 -12.124000 -30.800000
v -8.276052 -13.993635 -30.800000
v -8.568000 -16.000000 -30.800000
v -8.276052 -18.006365 -30.800000
v -7.420106 -19.876000 -30.800000
v -6.058491 -21.481492 -30.800000
v -4.284000 -22.713429 -30.800000
v -2.217562 -23.487857 -30.800000
v -0.000000 -23.752000 -30.800000
v 2.217562 -23.487857 -30.800000
v 4.284000 -22.713429 -30.800000
v 6.058491 -21.481492 -30.800000
v 7.420106 -19.876000 -30.800000
v 8.276052 -18.006365 -30.800000
v 3.528000 -16.000000 -31.400000
v 3.407786 -15.173850 -31.400000
v 3.055338 -14.404000 -31.400000
v 2.494673 -13.742915 -31.400000
v 1.764000 -13.235647 -31.400000
v 0.913114 -12.916765 -31.400000
v 0.000000 -12.808000 -31.400000
v -0.913114 -12.916765 -31.400000
v -1.764000 -13.235647 -31.400000
v -2.494673 -13.742915 -31.400000
v -3.055338 -14.404000 -31.400000
v -3.407786 -15.173850 -31.400000
v -3.528000 -16.000000 -31.400000
v -3.407786 -16.826150 -31.400000
v -3.055338 -17.596000 -31.400000
v -2.494673 -18.257085 -31.400000
v -1.764000 -18.764353 -31.400000
v -0.913114 -19.083235 -31.400000
v -0.000000 -19.192000 -31.400000
v 0.913114 -19.083235 -31.400000
v 1.764000 -18.764353 -31.400000
v 2.494673 -18.257085 -31.400000
v 3.055338 -17.596000 -31.400000
v 3.407786 -16.826150 -31.400000
v -7.800000 -20.000000 43.000000
v 7.800000 -20.000000 43.000000
v -7.800000 -16.000000 43.000000
v 7.800000 -16.000000 43.000000
v -7.800000 -12.000000 43.000000
v 7.800000 -12.000000 43.000000
v -7.800000 -8.000000 43.000000
v 7.800000 -8.000000 43.000000
g primary_hull
f 1 2 66 65
f 2 3 67 66
f 3 4 68 67
f 4 5 69 68
f 5 6 70 69
f 6 7 71 70
f 7 8 72 71
f 8 9 73 72
f 9 10 74 73
f 10 11 75 74
f 11 12 76 75
f 12 13 77 76
f 13 14 78 77
f 14 15 79 78
f 15 16 80 79
f 16 17 81 80
f 17 18 82 81
f 18 19 83 82
f 19 20 84 83
f 20 21 85 84
f 21 22 86 85
f 22 23 87 86
f 23 24 88 87
f 24 25 89 88
f 25 26 90 89
f 26 27 91 90
f 27 28 92 91
f 28 29 93 92
f 29 30 94 93
f 30 31 95 94
f 31 32 96 95
f 32 33 97 96
f 33 34 98 97
f 34 35 99 98
f 35 36 100 99
f 36 37 101 100
f 37 38 102 101
f 38 39 103 102
f 39 40 104 103
f 40 41 105 104
f 41 42 106 105
f 42 43 107 106
f 43 44 108 107
f 44 45 109 108
f 45 46 110 109
f 46 47 111 110
f 47 48 112 111
f 48 49 113 112
f 49 50 114 113
f 50 51 115 114
f 51 52 116 115
f 52 53 117 116
f 53 54 118 117
f 54 55 119 118
f 55 56 120 119
f 56 57 121 120
f 57 58 122 121
f 58 59 123 122
f 59 60 124 123
f 60 61 125 124
f 61 62 126 125
f 62 63 127 126
f 63 64 128 127
f 64 1 65 128
f 65 66 130 129
f 66 67 131 130
f 67 68 132 131
f 68 69 133 132
f 69 70 134 133
f 70 71 135 134
f 71 72 136 135
f 72 73 137 136
f 73 74 138 137
f 74 75 139 138
f 75 76 140 139
f 76 77 141 140
f 77 78 142 141
f 78 79 143 142
f 79 80 144 143
f 80 81 145 144
f 81 82 146 145
f 82 83 147 146
f 83 84 148 147
f 84 85 149 148
f 85 86 150 149
f 86 87 151 150
f 87 88 152 151
f 88 89 153 152
f 89 90 154 153
f 90 91 155 154
f 91 92 156 155
f 92 93 157 156
f 93 94 158 157
f 94 95 159 158
f 95 96 160 159
f 96 97 161 160
f 97 98 162 161
f 98 99 163 162
f 99 100 164 163
f 100 101 165 164
f 101 102 166 165
f 102 103 167 166
f 103 104 168 167
f 104 105 169 168
f 105 106 170 169
f 106 107 171 170
f 107 108 172 171
f 108 109 173 172
f 109 110 174 173
f 110 111 175 174
f 111 112 176 175
f 112 113 177 176
f 113 114 178 177
f 114 115 179 178
f 115 116 180 179
f 116 117 181 180
f 117 118 182 181
f 118 119 183 182
f 119 120 184 183
f 120 121 185 184
f 121 122 186 185
f 122 123 187 186
f 123 124 188 187
f 124 125 189 188
f 125 126 190 189
f 126 127 191 190
f 127 128 192 191
f 128 65 129 192
f 129 130 194 193
f 130 131 195 194
f 131 132 196 195
f 132 133 197 196
f 133 134 198 197
f 134 135 199 198
f 135 136 200 199
f 136 137 201 200
f 137 138 202 201
f 138 139 203 202
f 139 140 204 203
f 140 141 205 204
f 141 142 206 205
f 142 143 207 206
f 143 144 208 207
f 144 145 209 208
f 145 146 210 209
f 146 147 211 210
f 147 148 212 211
f 148 149 213 212
f 149 150 214 213
f 150 151 215 214
f 151 152 216 215
f 152 153 217 216
f 153 154 218 217
f 154 155 219 218
f 155 156 220 219
f 156 157 221 220
f 157 158 222 221
f 158 159 223 222
f 159 160 224 223
f 160 161 225 224
f 161 162 226 225
f 162 163 227 226
f 163 164 228 227
f 164 165 229 228
f 165 166 230 229
f 166 167 231 230
f 167 168 232 231
f 168 169 233 232
f 169 170 234 233
f 170 171 235 234
f 171 172 236 235
f 172 173 237 236
f 173 174 238 237
f 174 175 239 238
f 175 176 240 239
f 176 177 241 240
f 177 178 242 241
f 178 179 243 242
f 179 180 244 243
f 180 181 245 244
f 181 182 246 245
f 182 183 247 246
f 183 184 248 247
f 184 185 249 248
f 185 186 250 249
f 186 187 251 250
f 187 188 252 251
f 188 189 253 252
f 189 190 254 253
f 190 191 255 254
f 191 192 256 255
f 192 129 193 256
f 193 194 258 257
f 194 195 259 258
f 195 196 260 259
f 196 197 261 260
f 197 198 262 261
f 198 199 263 262
f 199 200 264 263
f 200 201 265 264
f 201 202 266 265
f 202 203 267 266
f 203 204 268 267
f 204 205 269 268
f 205 206 270 269
f 206 207 271 270
f 207 208 272 271
f 208 209 273 272
f 209 210 274 273
f 210 211 275 274
f 211 212 276 275
f 212 213 277 276
f 213 214 278 277
f 214 215 279 278
f 215 216 280 279
f 216 217 281 280
f 217 218 282 281
f 218 219 283 282
f 219 220 284 283
f 220 221 285 284
f 221 222 286 285
f 222 223 287 286
f 223 224 288 287
f 224 225 289 288
f 225 226 290 289
f 226 227 291 290
f 227 228 292 291
f 228 229 293 292
f 229 230 294 293
f 230 231 295 294
f 231 232 296 295
f 232 233 297 296
f 233 234 298 297
f 234 235 299 298
f 235 236 300 299
f 236 237 301 300
f 237 238 302 301
f 238 239 303 302
f 239 240 304 303
f 240 241 305 304
f 241 242 306 305
f 242 243 307 306
f 243 244 308 307
f 244 245 309 308
f 245 246 310 309
f 246 247 311 310
f 247 248 312 311
f 248 249 313 312
f 249 250 314 313
f 250 251 315 314
f 251 252 316 315
f 252 253 317 316
f 253 254 318 317
f 254 255 319 318
f 255 256 320 319
f 256 193 257 320
f 257 258 322 321
f 258 259 323 322
f 259 260 324 323
f 260 261 325 324
f 261 262 326 325
f 262 263 327 326
f 263 264 328 327
f 264 265 329 328
f 265 266 330 329
f 266 267 331 330
f 267 268 332 331
f 268 269 333 332
f 269 270 334 333
f 270 271 335 334
f 271 272 336 335
f 272 273 337 336
f 273 274 338 337
f 274 275 339 338
f 275 276 340 339
f 276 277 341 340
f 277 278 342 341
f 278 279 343 342
f 279 280 344 343
f 280 281 345 344
f 281 282 346 345
f 282 283 347 346
f 283 284 348 347
f 284 285 349 348
f 285 286 350 349
f 286 287 351 350
f 287 288 352 351
f 288 289 353 352
f 289 290 354 353
f 290 291 355 354
f 291 292 356 355
f 292 293 357 356
f 293 294 358 357
f 294 295 359 358
f 295 296 360 359
f 296 297 361 360
f 297 298 362 361
f 298 299 363 362
f 299 300 364 363
f 300 301 365 364
f 301 302 366 365
f 302 303 367 366
f 303 304 368 367
f 304 305 369 368
f 305 306 370 369
f 306 307 371 370
f 307 308 372 371
f 308 309 373 372
f 309 310 374 373
f 310 311 375 374
f 311 312 376 375
f 312 313 377 376
f 313 314 378 377
f 314 315 379 378
f 315 316 380 379
f 316 317 381 380
f 317 318 382 381
f 318 319 383 382
f 319 320 384 383
f 320 257 321 384
f 321 322 386 385
f 322 323 387 386
f 323 324 388 387
f 324 325 389 388
f 325 326 390 389
f 326 327 391 390
f 327 328 392 391
f 328 329 393 392
f 329 330 394 393
f 330 331 395 394
f 331 332 396 395
f 332 333 397 396
f 333 334 398 397
f 334 335 399 398
f 335 336 400 399
f 336 337 401 400
f 337 338 402 401
f 338 339 403 402
f 339 340 404 403
f 340 341 405 404
f 341 342 406 405
f 342 343 407 406
f 343 344 408 407
f 344 345 409 408
f 345 346 410 409
f 346 347 411 410
f 347 348 412 411
f 348 349 413 412
f 349 350 414 413
f 350 351 415 414
f 351 352 416 415
f 352 353 417 416
f 353 354 418 417
f 354 355 419 418
f 355 356 420 419
f 356 357 421 420
f 357 358 422 421
f 358 359 423 422
f 359 360 424 423
f 360 361 425 424
f 361 362 426 425
f 362 363 427 426
f 363 364 428 427
f 364 365 429 428
f 365 366 430 429
f 366 367 431 430
f 367 368 432 431
f 368 369 433 432
f 369 370 434 433
f 370 371 435 434
f 371 372 436 435
f 372 373 437 436
f 373 374 438 437
f 374 375 439 438
f 375 376 440 439
f 376 377 441 440
f 377 378 442 441
f 378 379 443 442
f 379 380 444 443
f 380 381 445 444
f 381 382 446 445
f 382 383 447 446
f 383 384 448 447
f 384 321 385 448
f 385 386 450 449
f 386 387 451 450
f 387 388 452 451
f 388 389 453 452
f 389 390 454 453
f 390 391 455 454
f 391 392 456 455
f 392 393 457 456
f 393 394 458 457
f 394 395 459 458
f 395 396 460 459
f 396 397 461 460
f 397 398 462 461
f 398 399 463 462
f 399 400 464 463
f 400 401 465 464
f 401 402 466 465
f 402 403 467 466
f 403 404 468 467
f 404 405 469 468
f 405 406 470 469
f 406 407 471 470
f 407 408 472 471
f 408 409 473 472
f 409 410 474 473
f 410 411 475 474
f 411 412 476 475
f 412 413 477 476
f 413 414 478 477
f 414 415 479 478
f 415 416 480 479
f 416 417 481 480
f 417 418 482 481
f 418 419 483 482
f 419 420 484 483
f 420 421 485 484
f 421 422 486 485
f 422 423 487 486
f 423 424 488 487
f 424 425 489 488
f 425 426 490 489
f 426 427 491 490
f 427 428 492 491
f 428 429 493 492
f 429 430 494 493
f 430 431 495 494
f 431 432 496 495
f 432 433 497 496
f 433 434 498 497
f 434 435 499 498
f 435 436 500 499
f 436 437 501 500
f 437 438 502 501
f 438 439 503 502
f 439 440 504 503
f 440 441 505 504
f 441 442 506 505
f 442 443 507 506
f 443 444 508 507
f 444 445 509 508
f 445 446 510 509
f 446 447 511 510
f 447 448 512 511
f 448 385 449 512
f 449 450 514 513
f 450 451 515 514
f 451 452 516 515
f 452 453 517 516
f 453 454 518 517
f 454 455 519 518
f 455 456 520 519
f 456 457 521 520
f 457 458 522 521
f 458 459 523 522
f 459 460 524 523
f 460 461 525 524
f 461 462 526 525
f 462 463 527 526
f 463 464 528 527
f 464 465 529 528
f 465 466 530 529
f 466 467 531 530
f 467 468 532 531
f 468 469 533 532
f 469 470 534 533
f 470 471 535 534
f 471 472 536 535
f 472 473 537 536
f 473 474 538 537
f 474 475 539 538
f 475 476 540 539
f 476 477 541 540
f 477 478 542 541
f 478 479 543 542
f 479 480 544 543
f 480 481 545 544
f 481 482 546 545
f 482 483 547 546
f 483 484 548 547
f 484 485 549 548
f 485 486 550 549
f 486 487 551 550
f 487 488 552 551
f 488 489 553 552
f 489 490 554 553
f 490 491 555 554
f 491 492 556 555
f 492 493 557 556
f 493 494 558 557
f 494 495 559 558
f 495 496 560 559
f 496 497 561 560
f 497 498 562 561
f 498 499 563 562
f 499 500 564 563
f 500 501 565 564
f 501 502 566 565
f 502 503 567 566
f 503 504 568 567
f 504 505 569 568
f 505 506 570 569
f 506 507 571 570
f 507 508 572 571
f 508 509 573 572
f 509 510 574 573
f 510 511 575 574
f 511 512 576 575
f 512 449 513 576
f 64 63 62 61 60 59 58 57 56 55 54 53 52 51 50 49 48 47 46 45 44 43 42 41 40 39 38 37 36 35 34 33 32 31 30 29 28 27 26 25 24 23 22 21 20 19 18 17 16 15 14 13 12 11 10 9 8 7 6 5 4 3 2 1
f 513 514 515 516 517 518 519 520 521 522 523 524 525 526 527 528 529 530 531 532 533 534 535 536 537 538 539 540 541 542 543 544 545 546 547 548 549 550 551 552 553 554 555 556 557 558 559 560 561 562 563 564 565 566 567 568 569 570 571 572 573 574 575 576
g bridge_superstructure
f 885 886 910 909
f 886 887 911 910
f 887 888 912 911
f 888 889 913 912
f 889 890 914 913
f 890 891 915 914
f 891 892 916 915
f 892 893 917 916
f 893 894 918 917
f 894 895 919 918
f 895 896 920 919
f 896 897 921 920
f 897 898 922 921
f 898 899 923 922
f 899 900 924 923
f 900 901 925 924
f 901 902 926 925
f 902 903 927 926
f 903 904 928 927
f 904 905 929 928
f 905 906 930 929
f 906 907 931 930
f 907 908 932 931
f 908 885 909 932
f 909 910 934 933
f 910 911 935 934
f 911 912 936 935
f 912 913 937 936
f 913 914 938 937
f 914 915 939 938
f 915 916 940 939
f 916 917 941 940
f 917 918 942 941
f 918 919 943 942
f 919 920 944 943
f 920 921 945 944
f 921 922 946 945
f 922 923 947 946
f 923 924 948 947
f 924 925 949 948
f 925 926 950 949
f 926 927 951 950
f 927 928 952 951
f 928 929 953 952
f 929 930 954 953
f 930 931 955 954
f 931 932 956 955
f 932 909 933 956
f 933 934 958 957
f 934 935 959 958
f 935 936 960 959
f 936 937 961 960
f 937 938 962 961
f 938 939 963 962
f 939 940 964 963
f 940 941 965 964
f 941 942 966 965
f 942 943 967 966
f 943 944 968 967
f 944 945 969 968
f 945 946 970 969
f 946 947 971 970
f 947 948 972 971
f 948 949 973 972
f 949 950 974 973
f 950 951 975 974
f 951 952 976 975
f 952 953 977 976
f 953 954 978 977
f 954 955 979 978
f 955 956 980 979
f 956 933 957 980
f 957 958 982 981
f 958 959 983 982
f 959 960 984 983
f 960 961 985 984
f 961 962 986 985
f 962 963 987 986
f 963 964 988 987
f 964 965 989 988
f 965 966 990 989
f 966 967 991 990
f 967 968 992 991
f 968 969 993 992
f 969 970 994 993
f 970 971 995 994
f 971 972 996 995
f 972 973 997 996
f 973 974 998 997
f 974 975 999 998
f 975 976 1000 999
f 976 977 1001 1000
f 977 978 1002 1001
f 978 979 1003 1002
f 979 980 1004 1003
f 980 957 981 1004
f 981 982 1006 1005
f 982 983 1007 1006
f 983 984 1008 1007
f 984 985 1009 1008
f 985 986 1010 1009
f 986 987 1011 1010
f 987 988 1012 1011
f 988 989 1013 1012
f 989 990 1014 1013
f 990 991 1015 1014
f 991 992 1016 1015
f 992 993 1017 1016
f 993 994 1018 1017
f 994 995 1019 1018
f 995 996 1020 1019
f 996 997 1021 1020
f 997 998 1022 1021
f 998 999 1023 1022
f 999 1000 1024 1023
f 1000 1001 1025 1024
f 1001 1002 1026 1025
f 1002 1003 1027 1026
f 1003 1004 1028 1027
f 1004 981 1005 1028
f 1005 1006 1030 1029
f 1006 1007 1031 1030
f 1007 1008 1032 1031
f 1008 1009 1033 1032
f 1009 1010 1034 1033
f 1010 1011 1035 1034
f 1011 1012 1036 1035
f 1012 1013 1037 1036
f 1013 1014 1038 1037
f 1014 1015 1039 1038
f 1015 1016 1040 1039
f 1016 1017 1041 1040
f 1017 1018 1042 1041
f 1018 1019 1043 1042
f 1019 1020 1044 1043
f 1020 1021 1045 1044
f 1021 1022 1046 1045
f 1022 1023 1047 1046
f 1023 1024 1048 1047
f 1024 1025 1049 1048
f 1025 1026 1050 1049
f 1026 1027 1051 1050
f 1027 1028 1052 1051
f 1028 1005 1029 1052
f 1029 1030 1054 1053
f 1030 1031 1055 1054
f 1031 1032 1056 1055
f 1032 1033 1057 1056
f 1033 1034 1058 1057
f 1034 1035 1059 1058
f 1035 1036 1060 1059
f 1036 1037 1061 1060
f 1037 1038 1062 1061
f 1038 1039 1063 1062
f 1039 1040 1064 1063
f 1040 1041 1065 1064
f 1041 1042 1066 1065
f 1042 1043 1067 1066
f 1043 1044 1068 1067
f 1044 1045 1069 1068
f 1045 1046 1070 1069
f 1046 1047 1071 1070
f 1047 1048 1072 1071
f 1048 1049 1073 1072
f 1049 1050 1074 1073
f 1050 1051 1075 1074
f 1051 1052 1076 1075
f 1052 1029 1053 1076
f 1053 1054 1078 1077
f 1054 1055 1079 1078
f 1055 1056 1080 1079
f 1056 1057 1081 1080
f 1057 1058 1082 1081
f 1058 1059 1083 1082
f 1059 1060 1084 1083
f 1060 1061 1085 1084
f 1061 1062 1086 1085
f 1062 1063 1087 1086
f 1063 1064 1088 1087
f 1064 1065 1089 1088
f 1065 1066 1090 1089
f 1066 1067 1091 1090
f 1067 1068 1092 1091
f 1068 1069 1093 1092
f 1069 1070 1094 1093
f 1070 1071 1095 1094
f 1071 1072 1096 1095
f 1072 1073 1097 1096
f 1073 1074 1098 1097
f 1074 1075 1099 1098
f 1075 1076 1100 1099
f 1076 1053 1077 1100
f 908 907 906 905 904 903 902 901 900 899 898 897 896 895 894 893 892 891 890 889 888 887 886 885
f 1077 1078 1079 1080 1081 1082 1083 1084 1085 1086 1087 1088 1089 1090 1091 1092 1093 1094 1095 1096 1097 1098 1099 1100
f 1101 1102 1126 1125
f 1102 1103 1127 1126
f 1103 1104 1128 1127
f 1104 1105 1129 1128
f 1105 1106 1130 1129
f 1106 1107 1131 1130
f 1107 1108 1132 1131
f 1108 1109 1133 1132
f 1109 1110 1134 1133
f 1110 1111 1135 1134
f 1111 1112 1136 1135
f 1112 1113 1137 1136
f 1113 1114 1138 1137
f 1114 1115 1139 1138
f 1115 1116 1140 1139
f 1116 1117 1141 1140
f 1117 1118 1142 1141
f 1118 1119 1143 1142
f 1119 1120 1144 1143
f 1120 1121 1145 1144
f 1121 1122 1146 1145
f 1122 1123 1147 1146
f 1123 1124 1148 1147
f 1124 1101 1125 1148
f 1125 1126 1150 1149
f 1126 1127 1151 1150
f 1127 1128 1152 1151
f 1128 1129 1153 1152
f 1129 1130 1154 1153
f 1130 1131 1155 1154
f 1131 1132 1156 1155
f 1132 1133 1157 1156
f 1133 1134 1158 1157
f 1134 1135 1159 1158
f 1135 1136 1160 1159
f 1136 1137 1161 1160
f 1137 1138 1162 1161
f 1138 1139 1163 1162
f 1139 1140 1164 1163
f 1140 1141 1165 1164
f 1141 1142 1166 1165
f 1142 1143 1167 1166
f 1143 1144 1168 1167
f 1144 1145 1169 1168
f 1145 1146 1170 1169
f 1146 1147 1171 1170
f 1147 1148 1172 1171
f 1148 1125 1149 1172
f 1149 1150 1174 1173
f 1150 1151 1175 1174
f 1151 1152 1176 1175
f 1152 1153 1177 1176
f 1153 1154 1178 1177
f 1154 1155 1179 1178
f 1155 1156 1180 1179
f 1156 1157 1181 1180
f 1157 1158 1182 1181
f 1158 1159 1183 1182
f 1159 1160 1184 1183
f 1160 1161 1185 1184
f 1161 1162 1186 1185
f 1162 1163 1187 1186
f 1163 1164 1188 1187
f 1164 1165 1189 1188
f 1165 1166 1190 1189
f 1166 1167 1191 1190
f 1167 1168 1192 1191
f 1168 1169 1193 1192
f 1169 1170 1194 1193
f 1170 1171 1195 1194
f 1171 1172 1196 1195
f 1172 1149 1173 1196
f 1173 1174 1198 1197
f 1174 1175 1199 1198
f 1175 1176 1200 1199
f 1176 1177 1201 1200
f 1177 1178 1202 1201
f 1178 1179 1203 1202
f 1179 1180 1204 1203
f 1180 1181 1205 1204
f 1181 1182 1206 1205
f 1182 1183 1207 1206
f 1183 1184 1208 1207
f 1184 1185 1209 1208
f 1185 1186 1210 1209
f 1186 1187 1211 1210
f 1187 1188 1212 1211
f 1188 1189 1213 1212
f 1189 1190 1214 1213
f 1190 1191 1215 1214
f 1191 1192 1216 1215
f 1192 1193 1217 1216
f 1193 1194 1218 1217
f 1194 1195 1219 1218
f 1195 1196 1220 1219
f 1196 1173 1197 1220
f 1197 1198 1222 1221
f 1198 1199 1223 1222
f 1199 1200 1224 1223
f 1200 1201 1225 1224
f 1201 1202 1226 1225
f 1202 1203 1227 1226
f 1203 1204 1228 1227
f 1204 1205 1229 1228
f 1205 1206 1230 1229
f 1206 1207 1231 1230
f 1207 1208 1232 1231
f 1208 1209 1233 1232
f 1209 1210 1234 1233
f 1210 1211 1235 1234
f 1211 1212 1236 1235
f 1212 1213 1237 1236
f 1213 1214 1238 1237
f 1214 1215 1239 1238
f 1215 1216 1240 1239
f 1216 1217 1241 1240
f 1217 1218 1242 1241
f 1218 1219 1243 1242
f 1219 1220 1244 1243
f 1220 1197 1221 1244
f 1221 1222 1246 1245
f 1222 1223 1247 1246
f 1223 1224 1248 1247
f 1224 1225 1249 1248
f 1225 1226 1250 1249
f 1226 1227 1251 1250
f 1227 1228 1252 1251
f 1228 1229 1253 1252
f 1229 1230 1254 1253
f 1230 1231 1255 1254
f 1231 1232 1256 1255
f 1232 1233 1257 1256
f 1233 1234 1258 1257
f 1234 1235 1259 1258
f 1235 1236 1260 1259
f 1236 1237 1261 1260
f 1237 1238 1262 1261
f 1238 1239 1263 1262
f 1239 1240 1264 1263
f 1240 1241 1265 1264
f 1241 1242 1266 1265
f 1242 1243 1267 1266
f 1243 1244 1268 1267
f 1244 1221 1245 1268
f 1245 1246 1270 1269
f 1246 1247 1271 1270
f 1247 1248 1272 1271
f 1248 1249 1273 1272
f 1249 1250 1274 1273
f 1250 1251 1275 1274
f 1251 1252 1276 1275
f 1252 1253 1277 1276
f 1253 1254 1278 1277
f 1254 1255 1279 1278
f 1255 1256 1280 1279
f 1256 1257 1281 1280
f 1257 1258 1282 1281
f 1258 1259 1283 1282
f 1259 1260 1284 1283
f 1260 1261 1285 1284
f 1261 1262 1286 1285
f 1262 1263 1287 1286
f 1263 1264 1288 1287
f 1264 1265 1289 1288
f 1265 1266 1290 1289
f 1266 1267 1291 1290
f 1267 1268 1292 1291
f 1268 1245 1269 1292
f 1269 1270 1294 1293
f 1270 1271 1295 1294
f 1271 1272 1296 1295
f 1272 1273 1297 1296
f 1273 1274 1298 1297
f 1274 1275 1299 1298
f 1275 1276 1300 1299
f 1276 1277 1301 1300
f 1277 1278 1302 1301
f 1278 1279 1303 1302
f 1279 1280 1304 1303
f 1280 1281 1305 1304
f 1281 1282 1306 1305
f 1282 1283 1307 1306
f 1283 1284 1308 1307
f 1284 1285 1309 1308
f 1285 1286 1310 1309
f 1286 1287 1311 1310
f 1287 1288 1312 1311
f 1288 1289 1313 1312
f 1289 1290 1314 1313
f 1290 1291 1315 1314
f 1291 1292 1316 1315
f 1292 1269 1293 1316
f 1124 1123 1122 1121 1120 1119 1118 1117 1116 1115 1114 1113 1112 1111 1110 1109 1108 1107 1106 1105 1104 1103 1102 1101
f 1293 1294 1295 1296 1297 1298 1299 1300 1301 1302 1303 1304 1305 1306 1307 1308 1309 1310 1311 1312 1313 1314 1315 1316
g connecting_neck
f 1321 1322 1318 1317
f 1322 1323 1319 1318
f 1323 1324 1320 1319
f 1324 1321 1317 1320
f 1317 1318 1319 1320
f 1324 1323 1322 1321
g engineering_hull
f 1325 1326 1346
f 1325 1346 1345
f 1326 1327 1347
f 1326 1347 1346
f 1327 1328 1348
f 1327 1348 1347
f 1328 1329 1349
f 1328 1349 1348
f 1329 1330 1350
f 1329 1350 1349
f 1330 1331 1351
f 1330 1351 1350
f 1331 1332 1352
f 1331 1352 1351
f 1332 1333 1353
f 1332 1353 1352
f 1333 1334 1354
f 1333 1354 1353
f 1334 1335 1355
f 1334 1355 1354
f 1335 1336 1356
f 1335 1356 1355
f 1336 1337 1357
f 1336 1357 1356
f 1337 1338 1358
f 1337 1358 1357
f 1338 1339 1359
f 1338 1359 1358
f 1339 1340 1360
f 1339 1360 1359
f 1340 1341 1361
f 1340 1361 1360
f 1341 1342 1362
f 1341 1362 1361
f 1342 1343 1363
f 1342 1363 1362
f 1343 1344 1364
f 1343 1364 1363
f 1344 1325 1345
f 1344 1345 1364
f 1345 1346 1366
f 1345 1366 1365
f 1346 1347 1367
f 1346 1367 1366
f 1347 1348 1368
f 1347 1368 1367
f 1348 1349 1369
f 1348 1369 1368
f 1349 1350 1370
f 1349 1370 1369
f 1350 1351 1371
f 1350 1371 1370
f 1351 1352 1372
f 1351 1372 1371
f 1352 1353 1373
f 1352 1373 1372
f 1353 1354 1374
f 1353 1374 1373
f 1354 1355 1375
f 1354 1375 1374
f 1355 1356 1376
f 1355 1376 1375
f 1356 1357 1377
f 1356 1377 1376
f 1357 1358 1378
f 1357 1378 1377
f 1358 1359 1379
f 1358 1379 1378
f 1359 1360 1380
f 1359 1380 1379
f 1360 1361 1381
f 1360 1381 1380
f 1361 1362 1382
f 1361 1382 1381
f 1362 1363 1383
f 1362 1383 1382
f 1363 1364 1384
f 1363 1384 1383
f 1364 1345 1365
f 1364 1365 1384
f 1365 1366 1386
f 1365 1386 1385
f 1366 1367 1387
f 1366 1387 1386
f 1367 1368 1388
f 1367 1388 1387
f 1368 1369 1389
f 1368 1389 1388
f 1369 1370 1390
f 1369 1390 1389
f 1370 1371 1391
f 1370 1391 1390
f 1371 1372 1392
f 1371 1392 1391
f 1372 1373 1393
f 1372 1393 1392
f 1373 1374 1394
f 1373 1394 1393
f 1374 1375 1395
f 1374 1395 1394
f 1375 1376 1396
f 1375 1396 1395
f 1376 1377 1397
f 1376 1397 1396
f 1377 1378 1398
f 1377 1398 1397
f 1378 1379 1399
f 1378 1399 1398
f 1379 1380 1400
f 1379 1400 1399
f 1380 1381 1401
f 1380 1401 1400
f 1381 1382 1402
f 1381 1402 1401
f 1382 1383 1403
f 1382 1403 1402
f 1383 1384 1404
f 1383 1404 1403
f 1384 1365 1385
f 1384 1385 1404
f 1385 1386 1406
f 1385 1406 1405
f 1386 1387 1407
f 1386 1407 1406
f 1387 1388 1408
f 1387 1408 1407
f 1388 1389 1409
f 1388 1409 1408
f 1389 1390 1410
f 1389 1410 1409
f 1390 1391 1411
f 1390 1411 1410
f 1391 1392 1412
f 1391 1412 1411
f 1392 1393 1413
f 1392 1413 1412
f 1393 1394 1414
f 1393 1414 1413
f 1394 1395 1415
f 1394 1415 1414
f 1395 1396 1416
f 1395 1416 1415
f 1396 1397 1417
f 1396 1417 1416
f 1397 1398 1418
f 1397 1418 1417
f 1398 1399 1419
f 1398 1419 1418
f 1399 1400 1420
f 1399 1420 1419
f 1400 1401 1421
f 1400 1421 1420
f 1401 1402 1422
f 1401 1422 1421
f 1402 1403 1423
f 1402 1423 1422
f 1403 1404 1424
f 1403 1424 1423
f 1404 1385 1405
f 1404 1405 1424
f 1344 1343 1342 1341 1340 1339 1338 1337 1336 1335 1334 1333 1332 1331 1330 1329 1328 1327 1326 1325
f 1405 1406 1407 1408 1409 1410 1411 1412 1413 1414 1415 1416 1417 1418 1419 1420 1421 1422 1423 1424
g nacelle_pylon
f 1429 1430 1426 1425
f 1430 1431 1427 1426
f 1431 1432 1428 1427
f 1432 1429 1425 1428
f 1425 1426 1427 1428
f 1432 1431 1430 1429
g warp_nacelle
f 1433 1434 1450 1449
f 1434 1435 1451 1450
f 1435 1436 1452 1451
f 1436 1437 1453 1452
f 1437 1438 1454 1453
f 1438 1439 1455 1454
f 1439 1440 1456 1455
f 1440 1441 1457 1456
f 1441 1442 1458 1457
f 1442 1443 1459 1458
f 1443 1444 1460 1459
f 1444 1445 1461 1460
f 1445 1446 1462 1461
f 1446 1447 1463 1462
f 1447 1448 1464 1463
f 1448 1433 1449 1464
f 1449 1450 1466 1465
f 1450 1451 1467 1466
f 1451 1452 1468 1467
f 1452 1453 1469 1468
f 1453 1454 1470 1469
f 1454 1455 1471 1470
f 1455 1456 1472 1471
f 1456 1457 1473 1472
f 1457 1458 1474 1473
f 1458 1459 1475 1474
f 1459 1460 1476 1475
f 1460 1461 1477 1476
f 1461 1462 1478 1477
f 1462 1463 1479 1478
f 1463 1464 1480 1479
f 1464 1449 1465 1480
f 1465 1466 1482 1481
f 1466 1467 1483 1482
f 1467 1468 1484 1483
f 1468 1469 1485 1484
f 1469 1470 1486 1485
f 1470 1471 1487 1486
f 1471 1472 1488 1487
f 1472 1473 1489 1488
f 1473 1474 1490 1489
f 1474 1475 1491 1490
f 1475 1476 1492 1491
f 1476 1477 1493 1492
f 1477 1478 1494 1493
f 1478 1479 1495 1494
f 1479 1480 1496 1495
f 1480 1465 1481 1496
f 1481 1482 1498 1497
f 1482 1483 1499 1498
f 1483 1484 1500 1499
f 1484 1485 1501 1500
f 1485 1486 1502 1501
f 1486 1487 1503 1502
f 1487 1488 1504 1503
f 1488 1489 1505 1504
f 1489 1490 1506 1505
f 1490 1491 1507 1506
f 1491 1492 1508 1507
f 1492 1493 1509 1508
f 1493 1494 1510 1509
f 1494 1495 1511 1510
f 1495 1496 1512 1511
f 1496 1481 1497 1512
f 1497 1498 1514 1513
f 1498 1499 1515 1514
f 1499 1500 1516 1515
f 1500 1501 1517 1516
f 1501 1502 1518 1517
f 1502 1503 1519 1518
f 1503 1504 1520 1519
f 1504 1505 1521 1520
f 1505 1506 1522 1521
f 1506 1507 1523 1522
f 1507 1508 1524 1523
f 1508 1509 1525 1524
f 1509 1510 1526 1525
f 1510 1511 1527 1526
f 1511 1512 1528 1527
f 1512 1497 1513 1528
f 1513 1514 1530 1529
f 1514 1515 1531 1530
f 1515 1516 1532 1531
f 1516 1517 1533 1532
f 1517 1518 1534 1533
f 1518 1519 1535 1534
f 1519 1520 1536 1535
f 1520 1521 1537 1536
f 1521 1522 1538 1537
f 1522 1523 1539 1538
f 1523 1524 1540 1539
f 1524 1525 1541 1540
f 1525 1526 1542 1541
f 1526 1527 1543 1542
f 1527 1528 1544 1543
f 1528 1513 1529 1544
f 1448 1447 1446 1445 1444 1443 1442 1441 1440 1439 1438 1437 1436 1435 1434 1433
f 1529 1530 1531 1532 1533 1534 1535 1536 1537 1538 1539 1540 1541 1542 1543 1544
g nacelle_pylon
f 1588 1589 1585 1584
f 1589 1590 1586 1585
f 1590 1591 1587 1586
f 1591 1588 1584 1587
f 1584 1585 1586 1587
f 1591 1590 1589 1588
g warp_nacelle
f 1592 1593 1609 1608
f 1593 1594 1610 1609
f 1594 1595 1611 1610
f 1595 1596 1612 1611
f 1596 1597 1613 1612
f 1597 1598 1614 1613
f 1598 1599 1615 1614
f 1599 1600 1616 1615
f 1600 1601 1617 1616
f 1601 1602 1618 1617
f 1602 1603 1619 1618
f 1603 1604 1620 1619
f 1604 1605 1621 1620
f 1605 1606 1622 1621
f 1606 1607 1623 1622
f 1607 1592 1608 1623
f 1608 1609 1625 1624
f 1609 1610 1626 1625
f 1610 1611 1627 1626
f 1611 1612 1628 1627
f 1612 1613 1629 1628
f 1613 1614 1630 1629
f 1614 1615 1631 1630
f 1615 1616 1632 1631
f 1616 1617 1633 1632
f 1617 1618 1634 1633
f 1618 1619 1635 1634
f 1619 1620 1636 1635
f 1620 1621 1637 1636
f 1621 1622 1638 1637
f 1622 1623 1639 1638
f 1623 1608 1624 1639
f 1624 1625 1641 1640
f 1625 1626 1642 1641
f 1626 1627 1643 1642
f 1627 1628 1644 1643
f 1628 1629 1645 1644
f 1629 1630 1646 1645
f 1630 1631 1647 1646
f 1631 1632 1648 1647
f 1632 1633 1649 1648
f 1633 1634 1650 1649
f 1634 1635 1651 1650
f 1635 1636 1652 1651
f 1636 1637 1653 1652
f 1637 1638 1654 1653
f 1638 1639 1655 1654
f 1639 1624 1640 1655
f 1640 1641 1657 1656
f 1641 1642 1658 1657
f 1642 1643 1659 1658
f 1643 1644 1660 1659
f 1644 1645 1661 1660
f 1645 1646 1662 1661
f 1646 1647 1663 1662
f 1647 1648 1664 1663
f 1648 1649 1665 1664
f 1649 1650 1666 1665
f 1650 1651 1667 1666
f 1651 1652 1668 1667
f 1652 1653 1669 1668
f 1653 1654 1670 1669
f 1654 1655 1671 1670
f 1655 1640 1656 1671
f 1656 1657 1673 1672
f 1657 1658 1674 1673
f 1658 1659 1675 1674
f 1659 1660 1676 1675
f 1660 1661 1677 1676
f 1661 1662 1678 1677
f 1662 1663 1679 1678
f 1663 1664 1680 1679
f 1664 1665 1681 1680
f 1665 1666 1682 1681
f 1666 1667 1683 1682
f 1667 1668 1684 1683
f 1668 1669 1685 1684
f 1669 1670 1686 1685
f 1670 1671 1687 1686
f 1671 1656 1672 1687
f 1672 1673 1689 1688
f 1673 1674 1690 1689
f 1674 1675 1691 1690
f 1675 1676 1692 1691
f 1676 1677 1693 1692
f 1677 1678 1694 1693
f 1678 1679 1695 1694
f 1679 1680 1696 1695
f 1680 1681 1697 1696
f 1681 1682 1698 1697
f 1682 1683 1699 1698
f 1683 1684 1700 1699
f 1684 1685 1701 1700
f 1685 1686 1702 1701
f 1686 1687 1703 1702
f 1687 1672 1688 1703
f 1607 1606 1605 1604 1603 1602 1601 1600 1599 1598 1597 1596 1595 1594 1593 1592
f 1688 1689 1690 1691 1692 1693 1694 1695 1696 1697 1698 1699 1700 1701 1702 1703
g navigation_deflector
f 1767 1768 1744 1743
f 1768 1769 1745 1744
f 1769 1770 1746 1745
f 1770 1771 1747 1746
f 1771 1772 1748 1747
f 1772 1773 1749 1748
f 1773 1774 1750 1749
f 1774 1775 1751 1750
f 1775 1776 1752 1751
f 1776 1777 1753 1752
f 1777 1778 1754 1753
f 1778 1779 1755 1754
f 1779 1780 1756 1755
f 1780 1781 1757 1756
f 1781 1782 1758 1757
f 1782 1783 1759 1758
f 1783 1784 1760 1759
f 1784 1785 1761 1760
f 1785 1786 1762 1761
f 1786 1787 1763 1762
f 1787 1788 1764 1763
f 1788 1789 1765 1764
f 1789 1790 1766 1765
f 1790 1767 1743 1766
f 1791 1792 1768 1767
f 1792 1793 1769 1768
f 1793 1794 1770 1769
f 1794 1795 1771 1770
f 1795 1796 1772 1771
f 1796 1797 1773 1772
f 1797 1798 1774 1773
f 1798 1799 1775 1774
f 1799 1800 1776 1775
f 1800 1801 1777 1776
f 1801 1802 1778 1777
f 1802 1803 1779 1778
f 1803 1804 1780 1779
f 1804 1805 1781 1780
f 1805 1806 1782 1781
f 1806 1807 1783 1782
f 1807 1808 1784 1783
f 1808 1809 1785 1784
f 1809 1810 1786 1785
f 1810 1811 1787 1786
f 1811 1812 1788 1787
f 1812 1813 1789 1788
f 1813 1814 1790 1789
f 1814 1791 1767 1790
f 1743 1744 1745 1746 1747 1748 1749 1750 1751 1752 1753 1754 1755 1756 1757 1758 1759 1760 1761 1762 1763 1764 1765 1766
f 1814 1813 1812 1811 1810 1809 1808 1807 1806 1805 1804 1803 1802 1801 1800 1799 1798 1797 1796 1795 1794 1793 1792 1791
g schematic_details
l 65 66 67 68 69 70 71 72 73 74 75 76 77 78 79 80 81 82 83 84 85 86 87 88 89 90 91 92 93 94 95 96 97 98 99 100 101 102 103 104 105 106 107 108 109 110 111 112 113 114 115 116 117 118 119 120 121 122 123 124 125 126 127 128 65
l 129 130 131 132 133 134 135 136 137 138 139 140 141 142 143 144 145 146 147 148 149 150 151 152 153 154 155 156 157 158 159 160 161 162 163 164 165 166 167 168 169 170 171 172 173 174 175 176 177 178 179 180 181 182 183 184 185 186 187 188 189 190 191 192 129
l 193 194 195 196 197 198 199 200 201 202 203 204 205 206 207 208 209 210 211 212 213 214 215 216 217 218 219 220 221 222 223 224 225 226 227 228 229 230 231 232 233 234 235 236 237 238 239 240 241 242 243 244 245 246 247 248 249 250 251 252 253 254 255 256 193
l 257 258 259 260 261 262 263 264 265 266 267 268 269 270 271 272 273 274 275 276 277 278 279 280 281 282 283 284 285 286 287 288 289 290 291 292 293 294 295 296 297 298 299 300 301 302 303 304 305 306 307 308 309 310 311 312 313 314 315 316 317 318 319 320 257
l 321 322 323 324 325 326 327 328 329 330 331 332 333 334 335 336 337 338 339 340 341 342 343 344 345 346 347 348 349 350 351 352 353 354 355 356 357 358 359 360 361 362 363 364 365 366 367 368 369 370 371 372 373 374 375 376 377 378 379 380 381 382 383 384 321
l 385 386 387 388 389 390 391 392 393 394 395 396 397 398 399 400 401 402 403 404 405 406 407 408 409 410 411 412 413 414 415 416 417 418 419 420 421 422 423 424 425 426 427 428 429 430 431 432 433 434 435 436 437 438 439 440 441 442 443 444 445 446 447 448 385
l 449 450 451 452 453 454 455 456 457 458 459 460 461 462 463 464 465 466 467 468 469 470 471 472 473 474 475 476 477 478 479 480 481 482 483 484 485 486 487 488 489 490 491 492 493 494 495 496 497 498 499 500 501 502 503 504 505 506 507 508 509 510 511 512 449
l 65 129 193 257
l 69 133 197 261
l 73 137 201 265
l 77 141 205 269
l 81 145 209 273
l 85 149 213 277
l 89 153 217 281
l 93 157 221 285
l 97 161 225 289
l 101 165 229 293
l 105 169 233 297
l 109 173 237 301
l 113 177 241 305
l 117 181 245 309
l 121 185 249 313
l 125 189 253 317
l 321 385 449
l 329 393 457
l 337 401 465
l 345 409 473
l 353 417 481
l 361 425 489
l 369 433 497
l 377 441 505
l 577 578 579 580 581 582 583 584 585 586 587 588 589 590 591 592 593 594 595 596 597 598 599 600 601 602 603 604 605 606 607 608 609 610 611 612 613 614 615 616 617 618 619 620 621 622 623 624 625 626 627 628 629 630 631 632 633 634 635 636 637 638 639 640 577
l 641 642 643 644 645 646 647 648 649 650 651 652 653 654 655 656 657 658 659 660 661 662 663 664 665 666 667 668 669 670 671 672 673 674 675 676 677 678 679 680 681 682 683 684 685 686 687 688 689 690 691 692 693 694 695 696 697 698 699 700 701 702 703 704 641
l 705 706 707 708 709 710 711 712 713 714 715 716 717 718 719 720 721 722 723 724 725 726 727 728 729 730 731 732 733 734 735 736 737 738 739 740 741 742 743 744 745 746 747 748 749 750 751 752 753 754 755 756 757 758 759 760 761 762 763 764 765 766 767 768 705
l 769 770
l 771 772
l 773 774
l 775 776
l 777 778
l 779 780
l 781 782
l 783 784
l 785 786
l 787 788
l 789 790
l 791 792
l 793 794
l 795 796
l 797 798
l 799 800
l 801 802
l 803 804
l 805 806
l 807 808
l 809 810
l 811 812
l 813 814
l 815 816
l 817 818
l 819 820
l 821 822
l 823 824
l 825 826
l 827 828
l 829 830
l 831 832
l 833 834
l 835 836
l 837 838
l 839 840
l 841 842
l 843 844
l 845 846
l 847 848
l 849 850
l 851 852
l 853 854
l 855 856
l 857 858
l 859 860
l 861 862
l 863 864
l 865 866
l 867 868
l 869 870
l 871 872
l 873 874
l 875 876
l 877 878
l 879 880
l 881 882
l 883 884
l 1325 1326 1327 1328 1329 1330 1331 1332 1333 1334 1335 1336 1337 1338 1339 1340 1341 1342 1343 1344 1325
l 1345 1346 1347 1348 1349 1350 1351 1352 1353 1354 1355 1356 1357 1358 1359 1360 1361 1362 1363 1364 1345
l 1385 1386 1387 1388 1389 1390 1391 1392 1393 1394 1395 1396 1397 1398 1399 1400 1401 1402 1403 1404 1385
l 1405 1406 1407 1408 1409 1410 1411 1412 1413 1414 1415 1416 1417 1418 1419 1420 1421 1422 1423 1424 1405
l 1325 1345 1365 1385 1405
l 1330 1350 1370 1390 1410
l 1335 1355 1375 1395 1415
l 1340 1360 1380 1400 1420
l 1433 1434 1435 1436 1437 1438 1439 1440 1441 1442 1443 1444 1445 1446 1447 1448 1433
l 1449 1450 1451 1452 1453 1454 1455 1456 1457 1458 1459 1460 1461 1462 1463 1464 1449
l 1513 1514 1515 1516 1517 1518 1519 1520 1521 1522 1523 1524 1525 1526 1527 1528 1513
l 1529 1530 1531 1532 1533 1534 1535 1536 1537 1538 1539 1540 1541 1542 1543 1544 1529
l 1433 1449 1465 1481 1497 1513 1529
l 1437 1453 1469 1485 1501 1517 1533
l 1441 1457 1473 1489 1505 1521 1537
l 1445 1461 1477 1493 1509 1525 1541
l 1545 1546 1547 1548
l 1549 1550 1551 1552
l 1553 1554 1555 1556
l 1557 1558 1559 1560
l 1561 1562 1563 1564
l 1565 1566 1567 1568
l 1569 1570 1571
l 1572 1573 1574
l 1575 1576 1577
l 1578 1579 1580
l 1581 1582 1583
l 1592 1593 1594 1595 1596 1597 1598 1599 1600 1601 1602 1603 1604 1605 1606 1607 1592
l 1608 1609 1610 1611 1612 1613 1614 1615 1616 1617 1618 1619 1620 1621 1622 1623 1608
l 1672 1673 1674 1675 1676 1677 1678 1679 1680 1681 1682 1683 1684 1685 1686 1687 1672
l 1688 1689 1690 1691 1692 1693 1694 1695 1696 1697 1698 1699 1700 1701 1702 1703 1688
l 1592 1608 1624 1640 1656 1672 1688
l 1596 1612 1628 1644 1660 1676 1692
l 1600 1616 1632 1648 1664 1680 1696
l 1604 1620 1636 1652 1668 1684 1700
l 1704 1705 1706 1707
l 1708 1709 1710 1711
l 1712 1713 1714 1715
l 1716 1717 1718 1719
l 1720 1721 1722 1723
l 1724 1725 1726 1727
l 1728 1729 1730
l 1731 1732 1733
l 1734 1735 1736
l 1737 1738 1739
l 1740 1741 1742
l 1743 1744 1745 1746 1747 1748 1749 1750 1751 1752 1753 1754 1755 1756 1757 1758 1759 1760 1761 1762 1763 1764 1765 1766 1743
l 1767 1768 1769 1770 1771 1772 1773 1774 1775 1776 1777 1778 1779 1780 1781 1782 1783 1784 1785 1786 1787 1788 1789 1790 1767
l 1767 1768 1769 1770 1771 1772 1773 1774 1775 1776 1777 1778 1779 1780 1781 1782 1783 1784 1785 1786 1787 1788 1789 1790 1767
l 1791 1792 1793 1794 1795 1796 1797 1798 1799 1800 1801 1802 1803 1804 1805 1806 1807 1808 1809 1810 1811 1812 1813 1814 1791
l 1743 1767 1791
l 1749 1773 1797
l 1755 1779 1803
l 1761 1785 1809
l 1815 1816
l 1817 1818
l 1819 1820
l 1821 1822
