# Original procedural schematic geometry; +Y up / bow -Z. Units arbitrary.
# No materials, textures, imported meshes, or hidden dependencies.
o vessel
v 10.560000 24.660000 -49.000000
v 10.509151 24.660000 -48.188418
v 10.357093 24.660000 -47.384652
v 10.105290 24.660000 -46.596443
v 9.756168 24.660000 -45.831381
v 9.313089 24.660000 -45.096835
v 8.780319 24.660000 -44.399878
v 8.162990 24.660000 -43.747224
v 7.467048 24.660000 -43.145156
v 6.699193 24.660000 -42.599473
v 5.866822 24.660000 -42.115432
v 4.977950 24.660000 -41.697692
v 4.041137 24.660000 -41.350277
v 3.065406 24.660000 -41.076534
v 2.060154 24.660000 -40.879098
v 1.035061 24.660000 -40.759870
v 0.000000 24.660000 -40.720000
v -1.035061 24.660000 -40.759870
v -2.060154 24.660000 -40.879098
v -3.065406 24.660000 -41.076534
v -4.041137 24.660000 -41.350277
v -4.977950 24.660000 -41.697692
v -5.866822 24.660000 -42.115432
v -6.699193 24.660000 -42.599473
v -7.467048 24.660000 -43.145156
v -8.162990 24.660000 -43.747224
v -8.780319 24.660000 -44.399878
v -9.313089 24.660000 -45.096835
v -9.756168 24.660000 -45.831381
v -10.105290 24.660000 -46.596443
v -10.357093 24.660000 -47.384652
v -10.509151 24.660000 -48.188418
v -10.560000 24.660000 -49.000000
v -10.509151 24.660000 -49.811582
v -10.357093 24.660000 -50.615348
v -10.105290 24.660000 -51.403557
v -9.756168 24.660000 -52.168619
v -9.313089 24.660000 -52.903165
v -8.780319 24.660000 -53.600122
v -8.162990 24.660000 -54.252776
v -7.467048 24.660000 -54.854844
v -6.699193 24.660000 -55.400527
v -5.866822 24.660000 -55.884568
v -4.977950 24.660000 -56.302308
v -4.041137 24.660000 -56.649723
v -3.065406 24.660000 -56.923466
v -2.060154 24.660000 -57.120902
v -1.035061 24.660000 -57.240130
v -0.000000 24.660000 -57.280000
v 1.035061 24.660000 -57.240130
v 2.060154 24.660000 -57.120902
v 3.065406 24.660000 -56.923466
v 4.041137 24.660000 -56.649723
v 4.977950 24.660000 -56.302308
v 5.866822 24.660000 -55.884568
v 6.699193 24.660000 -55.400527
v 7.467048 24.660000 -54.854844
v 8.162990 24.660000 -54.252776
v 8.780319 24.660000 -53.600122
v 9.313089 24.660000 -52.903165
v 9.756168 24.660000 -52.168619
v 10.105290 24.660000 -51.403557
v 10.357093 24.660000 -50.615348
v 10.509151 24.660000 -49.811582
v 28.160000 23.360000 -49.000000
v 28.024402 23.360000 -46.835782
v 27.618913 23.360000 -44.692406
v 26.947440 23.360000 -42.590514
v 26.016448 23.360000 -40.550350
v 24.834903 23.360000 -38.591560
v 23.414184 23.360000 -36.733009
v 21.767974 23.360000 -34.992596
v 19.912127 23.360000 -33.387082
v 17.864515 23.360000 -31.931929
v 15.644858 23.360000 -30.641151
v 13.274532 23.360000 -29.527178
v 10.776365 23.360000 -28.600740
v 8.174417 23.360000 -27.870757
v 5.493743 23.360000 -27.344261
v 2.760163 23.360000 -27.026321
v 0.000000 23.360000 -26.920000
v -2.760163 23.360000 -27.026321
v -5.493743 23.360000 -27.344261
v -8.174417 23.360000 -27.870757
v -10.776365 23.360000 -28.600740
v -13.274532 23.360000 -29.527178
v -15.644858 23.360000 -30.641151
v -17.864515 23.360000 -31.931929
v -19.912127 23.360000 -33.387082
v -21.767974 23.360000 -34.992596
v -23.414184 23.360000 -36.733009
v -24.834903 23.360000 -38.591560
v -26.016448 23.360000 -40.550350
v -26.947440 23.360000 -42.590514
v -27.618913 23.360000 -44.692406
v -28.024402 23.360000 -46.835782
v -28.160000 23.360000 -49.000000
v -28.024402 23.360000 -51.164218
v -27.618913 23.360000 -53.307594
v -26.947440 23.360000 -55.409486
v -26.016448 23.360000 -57.449650
v -24.834903 23.360000 -59.408440
v -23.414184 23.360000 -61.266991
v -21.767974 23.360000 -63.007404
v -19.912127 23.360000 -64.612918
v -17.864515 23.360000 -66.068071
v -15.644858 23.360000 -67.358849
v -13.274532 23.360000 -68.472822
v -10.776365 23.360000 -69.399260
v -8.174417 23.360000 -70.129243
v -5.493743 23.360000 -70.655739
v -2.760163 23.360000 -70.973679
v -0.000000 23.360000 -71.080000
v 2.760163 23.360000 -70.973679
v 5.493743 23.360000 -70.655739
v 8.174417 23.360000 -70.129243
v 10.776365 23.360000 -69.399260
v 13.274532 23.360000 -68.472822
v 15.644858 23.360000 -67.358849
v 17.864515 23.360000 -66.068071
v 19.912127 23.360000 -64.612918
v 21.767974 23.360000 -63.007404
v 23.414184 23.360000 -61.266991
v 24.834903 23.360000 -59.408440
v 26.016448 23.360000 -57.449650
v 26.947440 23.360000 -55.409486
v 27.618913 23.360000 -53.307594
v 28.024402 23.360000 -51.164218
v 66.880000 18.810000 -49.000000
v 66.557955 18.810000 -43.859981
v 65.594920 18.810000 -38.769464
v 64.000170 18.810000 -33.777472
v 61.789063 18.810000 -28.932081
v 58.982894 18.810000 -24.279955
v 55.608688 18.810000 -19.865897
v 51.698939 18.810000 -15.732416
v 47.291302 18.810000 -11.919320
v 42.428223 18.810000 -8.463332
v 37.156537 18.810000 -5.397734
v 31.527014 18.810000 -2.752049
v 25.593868 18.810000 -0.551757
v 19.414239 18.810000 1.181951
v 13.047641 18.810000 2.432380
v 6.555386 18.810000 3.187487
v 0.000000 18.810000 3.440000
v -6.555386 18.810000 3.187487
v -13.047641 18.810000 2.432380
v -19.414239 18.810000 1.181951
v -25.593868 18.810000 -0.551757
v -31.527014 18.810000 -2.752049
v -37.156537 18.810000 -5.397734
v -42.428223 18.810000 -8.463332
v -47.291302 18.810000 -11.919320
v -51.698939 18.810000 -15.732416
v -55.608688 18.810000 -19.865897
v -58.982894 18.810000 -24.279955
v -61.789063 18.810000 -28.932081
v -64.000170 18.810000 -33.777472
v -65.594920 18.810000 -38.769464
v -66.557955 18.810000 -43.859981
v -66.880000 18.810000 -49.000000
v -66.557955 18.810000 -54.140019
v -65.594920 18.810000 -59.230536
v -64.000170 18.810000 -64.222528
v -61.789063 18.810000 -69.067919
v -58.982894 18.810000 -73.720045
v -55.608688 18.810000 -78.134103
v -51.698939 18.810000 -82.267584
v -47.291302 18.810000 -86.080680
v -42.428223 18.810000 -89.536668
v -37.156537 18.810000 -92.602266
v -31.527014 18.810000 -95.247951
v -25.593868 18.810000 -97.448243
v -19.414239 18.810000 -99.181951
v -13.047641 18.810000 -100.432380
v -6.555386 18.810000 -101.187487
v -0.000000 18.810000 -101.440000
v 6.555386 18.810000 -101.187487
v 13.047641 18.810000 -100.432380
v 19.414239 18.810000 -99.181951
v 25.593868 18.810000 -97.448243
v 31.527014 18.810000 -95.247951
v 37.156537 18.810000 -92.602266
v 42.428223 18.810000 -89.536668
v 47.291302 18.810000 -86.080680
v 51.698939 18.810000 -82.267584
v 55.608688 18.810000 -78.134103
v 58.982894 18.810000 -73.720045
v 61.789063 18.810000 -69.067919
v 64.000170 18.810000 -64.222528
v 65.594920 18.810000 -59.230536
v 66.557955 18.810000 -54.140019
v 84.480000 16.210000 -49.000000
v 84.073206 16.210000 -42.507345
v 82.856740 16.210000 -36.077217
v 80.842320 16.210000 -29.771543
v 78.049343 16.210000 -23.651049
v 74.504708 16.210000 -17.774680
v 70.242553 16.210000 -12.199028
v 65.303923 16.210000 -6.977789
v 59.736381 16.210000 -2.161247
v 53.593545 16.210000 2.204212
v 46.934573 16.210000 6.076547
v 39.823596 16.210000 9.418465
v 32.329096 16.210000 12.197780
v 24.523250 16.210000 14.387728
v 16.481230 16.210000 15.967217
v 8.280488 16.210000 16.921036
v 0.000000 16.210000 17.240000
v -8.280488 16.210000 16.921036
v -16.481230 16.210000 15.967217
v -24.523250 16.210000 14.387728
v -32.329096 16.210000 12.197780
v -39.823596 16.210000 9.418465
v -46.934573 16.210000 6.076547
v -53.593545 16.210000 2.204212
v -59.736381 16.210000 -2.161247
v -65.303923 16.210000 -6.977789
v -70.242553 16.210000 -12.199028
v -74.504708 16.210000 -17.774680
v -78.049343 16.210000 -23.651049
v -80.842320 16.210000 -29.771543
v -82.856740 16.210000 -36.077217
v -84.073206 16.210000 -42.507345
v -84.480000 16.210000 -49.000000
v -84.073206 16.210000 -55.492655
v -82.856740 16.210000 -61.922783
v -80.842320 16.210000 -68.228457
v -78.049343 16.210000 -74.348951
v -74.504708 16.210000 -80.225320
v -70.242553 16.210000 -85.800972
v -65.303923 16.210000 -91.022211
v -59.736381 16.210000 -95.838753
v -53.593545 16.210000 -100.204212
v -46.934573 16.210000 -104.076547
v -39.823596 16.210000 -107.418465
v -32.329096 16.210000 -110.197780
v -24.523250 16.210000 -112.387728
v -16.481230 16.210000 -113.967217
v -8.280488 16.210000 -114.921036
v -0.000000 16.210000 -115.240000
v 8.280488 16.210000 -114.921036
v 16.481230 16.210000 -113.967217
v 24.523250 16.210000 -112.387728
v 32.329096 16.210000 -110.197780
v 39.823596 16.210000 -107.418465
v 46.934573 16.210000 -104.076547
v 53.593545 16.210000 -100.204212
v 59.736381 16.210000 -95.838753
v 65.303923 16.210000 -91.022211
v 70.242553 16.210000 -85.800972
v 74.504708 16.210000 -80.225320
v 78.049343 16.210000 -74.348951
v 80.842320 16.210000 -68.228457
v 82.856740 16.210000 -61.922783
v 84.073206 16.210000 -55.492655
v 88.000000 14.650000 -49.000000
v 87.576256 14.650000 -42.236817
v 86.309105 14.650000 -35.538768
v 84.210750 14.650000 -28.970357
v 81.301399 14.650000 -22.594843
v 77.609071 14.650000 -16.473625
v 73.169326 14.650000 -10.665654
v 68.024920 14.650000 -5.226863
v 62.225397 14.650000 -0.209632
v 55.826609 14.650000 4.337721
v 48.890181 14.650000 8.371403
v 41.482913 14.650000 11.852567
v 33.676142 14.650000 14.747688
v 25.545052 14.650000 17.028883
v 17.167948 14.650000 18.674184
v 8.625508 14.650000 19.667746
v 0.000000 14.650000 20.000000
v -8.625508 14.650000 19.667746
v -17.167948 14.650000 18.674184
v -25.545052 14.650000 17.028883
v -33.676142 14.650000 14.747688
v -41.482913 14.650000 11.852567
v -48.890181 14.650000 8.371403
v -55.826609 14.650000 4.337721
v -62.225397 14.650000 -0.209632
v -68.024920 14.650000 -5.226863
v -73.169326 14.650000 -10.665654
v -77.609071 14.650000 -16.473625
v -81.301399 14.650000 -22.594843
v -84.210750 14.650000 -28.970357
v -86.309105 14.650000 -35.538768
v -87.576256 14.650000 -42.236817
v -88.000000 14.650000 -49.000000
v -87.576256 14.650000 -55.763183
v -86.309105 14.650000 -62.461232
v -84.210750 14.650000 -69.029643
v -81.301399 14.650000 -75.405157
v -77.609071 14.650000 -81.526375
v -73.169326 14.650000 -87.334346
v -68.024920 14.650000 -92.773137
v -62.225397 14.650000 -97.790368
v -55.826609 14.650000 -102.337721
v -48.890181 14.650000 -106.371403
v -41.482913 14.650000 -109.852567
v -33.676142 14.650000 -112.747688
v -25.545052 14.650000 -115.028883
v -17.167948 14.650000 -116.674184
v -8.625508 14.650000 -117.667746
v -0.000000 14.650000 -118.000000
v 8.625508 14.650000 -117.667746
v 17.167948 14.650000 -116.674184
v 25.545052 14.650000 -115.028883
v 33.676142 14.650000 -112.747688
v 41.482913 14.650000 -109.852567
v 48.890181 14.650000 -106.371403
v 55.826609 14.650000 -102.337721
v 62.225397 14.650000 -97.790368
v 68.024920 14.650000 -92.773137
v 73.169326 14.650000 -87.334346
v 77.609071 14.650000 -81.526375
v 81.301399 14.650000 -75.405157
v 84.210750 14.650000 -69.029643
v 86.309105 14.650000 -62.461232
v 87.576256 14.650000 -55.763183
v 88.000000 12.310000 -49.000000
v 87.576256 12.310000 -42.236817
v 86.309105 12.310000 -35.538768
v 84.210750 12.310000 -28.970357
v 81.301399 12.310000 -22.594843
v 77.609071 12.310000 -16.473625
v 73.169326 12.310000 -10.665654
v 68.024920 12.310000 -5.226863
v 62.225397 12.310000 -0.209632
v 55.826609 12.310000 4.337721
v 48.890181 12.310000 8.371403
v 41.482913 12.310000 11.852567
v 33.676142 12.310000 14.747688
v 25.545052 12.310000 17.028883
v 17.167948 12.310000 18.674184
v 8.625508 12.310000 19.667746
v 0.000000 12.310000 20.000000
v -8.625508 12.310000 19.667746
v -17.167948 12.310000 18.674184
v -25.545052 12.310000 17.028883
v -33.676142 12.310000 14.747688
v -41.482913 12.310000 11.852567
v -48.890181 12.310000 8.371403
v -55.826609 12.310000 4.337721
v -62.225397 12.310000 -0.209632
v -68.024920 12.310000 -5.226863
v -73.169326 12.310000 -10.665654
v -77.609071 12.310000 -16.473625
v -81.301399 12.310000 -22.594843
v -84.210750 12.310000 -28.970357
v -86.309105 12.310000 -35.538768
v -87.576256 12.310000 -42.236817
v -88.000000 12.310000 -49.000000
v -87.576256 12.310000 -55.763183
v -86.309105 12.310000 -62.461232
v -84.210750 12.310000 -69.029643
v -81.301399 12.310000 -75.405157
v -77.609071 12.310000 -81.526375
v -73.169326 12.310000 -87.334346
v -68.024920 12.310000 -92.773137
v -62.225397 12.310000 -97.790368
v -55.826609 12.310000 -102.337721
v -48.890181 12.310000 -106.371403
v -41.482913 12.310000 -109.852567
v -33.676142 12.310000 -112.747688
v -25.545052 12.310000 -115.028883
v -17.167948 12.310000 -116.674184
v -8.625508 12.310000 -117.667746
v -0.000000 12.310000 -118.000000
v 8.625508 12.310000 -117.667746
v 17.167948 12.310000 -116.674184
v 25.545052 12.310000 -115.028883
v 33.676142 12.310000 -112.747688
v 41.482913 12.310000 -109.852567
v 48.890181 12.310000 -106.371403
v 55.826609 12.310000 -102.337721
v 62.225397 12.310000 -97.790368
v 68.024920 12.310000 -92.773137
v 73.169326 12.310000 -87.334346
v 77.609071 12.310000 -81.526375
v 81.301399 12.310000 -75.405157
v 84.210750 12.310000 -69.029643
v 86.309105 12.310000 -62.461232
v 87.576256 12.310000 -55.763183
v 73.040000 8.800000 -49.000000
v 72.688292 8.800000 -43.386558
v 71.636557 8.800000 -37.827177
v 69.894922 8.800000 -32.375397
v 67.480161 8.800000 -27.083720
v 64.415529 8.800000 -22.003109
v 60.730540 8.800000 -17.182493
v 56.460684 8.800000 -12.668297
v 51.647079 8.800000 -8.503995
v 46.336085 8.800000 -4.729691
v 40.578850 8.800000 -1.381735
v 34.430818 8.800000 1.507631
v 27.951198 8.800000 3.910581
v 21.202393 8.800000 5.803973
v 14.249397 8.800000 7.169573
v 7.159172 8.800000 7.994229
v 0.000000 8.800000 8.270000
v -7.159172 8.800000 7.994229
v -14.249397 8.800000 7.169573
v -21.202393 8.800000 5.803973
v -27.951198 8.800000 3.910581
v -34.430818 8.800000 1.507631
v -40.578850 8.800000 -1.381735
v -46.336085 8.800000 -4.729691
v -51.647079 8.800000 -8.503995
v -56.460684 8.800000 -12.668297
v -60.730540 8.800000 -17.182493
v -64.415529 8.800000 -22.003109
v -67.480161 8.800000 -27.083720
v -69.894922 8.800000 -32.375397
v -71.636557 8.800000 -37.827177
v -72.688292 8.800000 -43.386558
v -73.040000 8.800000 -49.000000
v -72.688292 8.800000 -54.613442
v -71.636557 8.800000 -60.172823
v -69.894922 8.800000 -65.624603
v -67.480161 8.800000 -70.916280
v -64.415529 8.800000 -75.996891
v -60.730540 8.800000 -80.817507
v -56.460684 8.800000 -85.331703
v -51.647079 8.800000 -89.496005
v -46.336085 8.800000 -93.270309
v -40.578850 8.800000 -96.618265
v -34.430818 8.800000 -99.507631
v -27.951198 8.800000 -101.910581
v -21.202393 8.800000 -103.803973
v -14.249397 8.800000 -105.169573
v -7.159172 8.800000 -105.994229
v -0.000000 8.800000 -106.270000
v 7.159172 8.800000 -105.994229
v 14.249397 8.800000 -105.169573
v 21.202393 8.800000 -103.803973
v 27.951198 8.800000 -101.910581
v 34.430818 8.800000 -99.507631
v 40.578850 8.800000 -96.618265
v 46.336085 8.800000 -93.270309
v 51.647079 8.800000 -89.496005
v 56.460684 8.800000 -85.331703
v 60.730540 8.800000 -80.817507
v 64.415529 8.800000 -75.996891
v 67.480161 8.800000 -70.916280
v 69.894922 8.800000 -65.624603
v 71.636557 8.800000 -60.172823
v 72.688292 8.800000 -54.613442
v 24.640000 5.680000 -49.000000
v 24.521352 5.680000 -47.106309
v 24.166549 5.680000 -45.230855
v 23.579010 5.680000 -43.391700
v 22.764392 5.680000 -41.606556
v 21.730540 5.680000 -39.892615
v 20.487411 5.680000 -38.266383
v 19.046978 5.680000 -36.743522
v 17.423111 5.680000 -35.338697
v 15.631451 5.680000 -34.065438
v 13.689251 5.680000 -32.936007
v 11.615216 5.680000 -31.961281
v 9.429320 5.680000 -31.150647
v 7.152614 5.680000 -30.511913
v 4.807026 5.680000 -30.051228
v 2.415142 5.680000 -29.773031
v 0.000000 5.680000 -29.680000
v -2.415142 5.680000 -29.773031
v -4.807026 5.680000 -30.051228
v -7.152614 5.680000 -30.511913
v -9.429320 5.680000 -31.150647
v -11.615216 5.680000 -31.961281
v -13.689251 5.680000 -32.936007
v -15.631451 5.680000 -34.065438
v -17.423111 5.680000 -35.338697
v -19.046978 5.680000 -36.743522
v -20.487411 5.680000 -38.266383
v -21.730540 5.680000 -39.892615
v -22.764392 5.680000 -41.606556
v -23.579010 5.680000 -43.391700
v -24.166549 5.680000 -45.230855
v -24.521352 5.680000 -47.106309
v -24.640000 5.680000 -49.000000
v -24.521352 5.680000 -50.893691
v -24.166549 5.680000 -52.769145
v -23.579010 5.680000 -54.608300
v -22.764392 5.680000 -56.393444
v -21.730540 5.680000 -58.107385
v -20.487411 5.680000 -59.733617
v -19.046978 5.680000 -61.256478
v -17.423111 5.680000 -62.661303
v -15.631451 5.680000 -63.934562
v -13.689251 5.680000 -65.063993
v -11.615216 5.680000 -66.038719
v -9.429320 5.680000 -66.849353
v -7.152614 5.680000 -67.488087
v -4.807026 5.680000 -67.948772
v -2.415142 5.680000 -68.226969
v -0.000000 5.680000 -68.320000
v 2.415142 5.680000 -68.226969
v 4.807026 5.680000 -67.948772
v 7.152614 5.680000 -67.488087
v 9.429320 5.680000 -66.849353
v 11.615216 5.680000 -66.038719
v 13.689251 5.680000 -65.063993
v 15.631451 5.680000 -63.934562
v 17.423111 5.680000 -62.661303
v 19.046978 5.680000 -61.256478
v 20.487411 5.680000 -59.733617
v 21.730540 5.680000 -58.107385
v 22.764392 5.680000 -56.393444
v 23.579010 5.680000 -54.608300
v 24.166549 5.680000 -52.769145
v 24.521352 5.680000 -50.893691
v 10.560000 5.420000 -49.000000
v 10.509151 5.420000 -48.188418
v 10.357093 5.420000 -47.384652
v 10.105290 5.420000 -46.596443
v 9.756168 5.420000 -45.831381
v 9.313089 5.420000 -45.096835
v 8.780319 5.420000 -44.399878
v 8.162990 5.420000 -43.747224
v 7.467048 5.420000 -43.145156
v 6.699193 5.420000 -42.599473
v 5.866822 5.420000 -42.115432
v 4.977950 5.420000 -41.697692
v 4.041137 5.420000 -41.350277
v 3.065406 5.420000 -41.076534
v 2.060154 5.420000 -40.879098
v 1.035061 5.420000 -40.759870
v 0.000000 5.420000 -40.720000
v -1.035061 5.420000 -40.759870
v -2.060154 5.420000 -40.879098
v -3.065406 5.420000 -41.076534
v -4.041137 5.420000 -41.350277
v -4.977950 5.420000 -41.697692
v -5.866822 5.420000 -42.115432
v -6.699193 5.420000 -42.599473
v -7.467048 5.420000 -43.145156
v -8.162990 5.420000 -43.747224
v -8.780319 5.420000 -44.399878
v -9.313089 5.420000 -45.096835
v -9.756168 5.420000 -45.831381
v -10.105290 5.420000 -46.596443
v -10.357093 5.420000 -47.384652
v -10.509151 5.420000 -48.188418
v -10.560000 5.420000 -49.000000
v -10.509151 5.420000 -49.811582
v -10.357093 5.420000 -50.615348
v -10.105290 5.420000 -51.403557
v -9.756168 5.420000 -52.168619
v -9.313089 5.420000 -52.903165
v -8.780319 5.420000 -53.600122
v -8.162990 5.420000 -54.252776
v -7.467048 5.420000 -54.854844
v -6.699193 5.420000 -55.400527
v -5.866822 5.420000 -55.884568
v -4.977950 5.420000 -56.302308
v -4.041137 5.420000 -56.649723
v -3.065406 5.420000 -56.923466
v -2.060154 5.420000 -57.120902
v -1.035061 5.420000 -57.240130
v -0.000000 5.420000 -57.280000
v 1.035061 5.420000 -57.240130
v 2.060154 5.420000 -57.120902
v 3.065406 5.420000 -56.923466
v 4.041137 5.420000 -56.649723
v 4.977950 5.420000 -56.302308
v 5.866822 5.420000 -55.884568
v 6.699193 5.420000 -55.400527
v 7.467048 5.420000 -54.854844
v 8.162990 5.420000 -54.252776
v 8.780319 5.420000 -53.600122
v 9.313089 5.420000 -52.903165
v 9.756168 5.420000 -52.168619
v 10.105290 5.420000 -51.403557
v 10.357093 5.420000 -50.615348
v 10.509151 5.420000 -49.811582
v 41.360000 21.847864 -49.000000
v 41.160840 21.847864 -45.821304
v 40.565279 21.847864 -42.673221
v 39.579052 21.847864 -39.586068
v 38.211657 21.847864 -36.589576
v 36.476263 21.847864 -33.712604
v 34.389583 21.847864 -30.982857
v 31.971712 21.847864 -28.426626
v 29.245936 21.847864 -26.068527
v 26.238506 21.847864 -23.931271
v 22.978385 21.847864 -22.035440
v 19.496969 21.847864 -20.399293
v 15.827787 21.847864 -19.038587
v 12.006174 21.847864 -17.966425
v 8.068936 21.847864 -17.193133
v 4.053989 21.847864 -16.726159
v 0.000000 21.847864 -16.570000
v -4.053989 21.847864 -16.726159
v -8.068936 21.847864 -17.193133
v -12.006174 21.847864 -17.966425
v -15.827787 21.847864 -19.038587
v -19.496969 21.847864 -20.399293
v -22.978385 21.847864 -22.035440
v -26.238506 21.847864 -23.931271
v -29.245936 21.847864 -26.068527
v -31.971712 21.847864 -28.426626
v -34.389583 21.847864 -30.982857
v -36.476263 21.847864 -33.712604
v -38.211657 21.847864 -36.589576
v -39.579052 21.847864 -39.586068
v -40.565279 21.847864 -42.673221
v -41.160840 21.847864 -45.821304
v -41.360000 21.847864 -49.000000
v -41.160840 21.847864 -52.178696
v -40.565279 21.847864 -55.326779
v -39.579052 21.847864 -58.413932
v -38.211657 21.847864 -61.410424
v -36.476263 21.847864 -64.287396
v -34.389583 21.847864 -67.017143
v -31.971712 21.847864 -69.573374
v -29.245936 21.847864 -71.931473
v -26.238506 21.847864 -74.068729
v -22.978385 21.847864 -75.964560
v -19.496969 21.847864 -77.600707
v -15.827787 21.847864 -78.961413
v -12.006174 21.847864 -80.033575
v -8.068936 21.847864 -80.806867
v -4.053989 21.847864 -81.273841
v -0.000000 21.847864 -81.430000
v 4.053989 21.847864 -81.273841
v 8.068936 21.847864 -80.806867
v 12.006174 21.847864 -80.033575
v 15.827787 21.847864 -78.961413
v 19.496969 21.847864 -77.600707
v 22.978385 21.847864 -75.964560
v 26.238506 21.847864 -74.068729
v 29.245936 21.847864 -71.931473
v 31.971712 21.847864 -69.573374
v 34.389583 21.847864 -67.017143
v 36.476263 21.847864 -64.287396
v 38.211657 21.847864 -61.410424
v 39.579052 21.847864 -58.413932
v 40.565279 21.847864 -55.326779
v 41.160840 21.847864 -52.178696
v 52.800000 20.503545 -49.000000
v 52.545754 20.503545 -44.942090
v 51.785463 20.503545 -40.923261
v 50.526450 20.503545 -36.982214
v 48.780839 20.503545 -33.156906
v 46.565443 20.503545 -29.484175
v 43.901596 20.503545 -25.999392
v 40.814952 20.503545 -22.736118
v 37.335238 20.503545 -19.725779
v 33.495965 20.503545 -16.997367
v 29.334108 20.503545 -14.577158
v 24.889748 20.503545 -12.488460
v 20.205685 20.503545 -10.751387
v 15.327031 20.503545 -9.382670
v 10.300769 20.503545 -8.395489
v 5.175305 20.503545 -7.799352
v 0.000000 20.503545 -7.600000
v -5.175305 20.503545 -7.799352
v -10.300769 20.503545 -8.395489
v -15.327031 20.503545 -9.382670
v -20.205685 20.503545 -10.751387
v -24.889748 20.503545 -12.488460
v -29.334108 20.503545 -14.577158
v -33.495965 20.503545 -16.997367
v -37.335238 20.503545 -19.725779
v -40.814952 20.503545 -22.736118
v -43.901596 20.503545 -25.999392
v -46.565443 20.503545 -29.484175
v -48.780839 20.503545 -33.156906
v -50.526450 20.503545 -36.982214
v -51.785463 20.503545 -40.923261
v -52.545754 20.503545 -44.942090
v -52.800000 20.503545 -49.000000
v -52.545754 20.503545 -53.057910
v -51.785463 20.503545 -57.076739
v -50.526450 20.503545 -61.017786
v -48.780839 20.503545 -64.843094
v -46.565443 20.503545 -68.515825
v -43.901596 20.503545 -72.000608
v -40.814952 20.503545 -75.263882
v -37.335238 20.503545 -78.274221
v -33.495965 20.503545 -81.002633
v -29.334108 20.503545 -83.422842
v -24.889748 20.503545 -85.511540
v -20.205685 20.503545 -87.248613
v -15.327031 20.503545 -88.617330
v -10.300769 20.503545 -89.604511
v -5.175305 20.503545 -90.200648
v -0.000000 20.503545 -90.400000
v 5.175305 20.503545 -90.200648
v 10.300769 20.503545 -89.604511
v 15.327031 20.503545 -88.617330
v 20.205685 20.503545 -87.248613
v 24.889748 20.503545 -85.511540
v 29.334108 20.503545 -83.422842
v 33.495965 20.503545 -81.002633
v 37.335238 20.503545 -78.274221
v 40.814952 20.503545 -75.263882
v 43.901596 20.503545 -72.000608
v 46.565443 20.503545 -68.515825
v 48.780839 20.503545 -64.843094
v 50.526450 20.503545 -61.017786
v 51.785463 20.503545 -57.076739
v 52.545754 20.503545 -53.057910
v 77.440000 17.289000 -49.000000
v 77.067105 17.289000 -43.048399
v 75.952012 17.289000 -37.154116
v 74.105460 17.289000 -31.373914
v 71.545231 17.289000 -25.763462
v 68.295983 17.289000 -20.376790
v 64.389007 17.289000 -15.265775
v 59.861930 17.289000 -10.479640
v 54.758349 17.289000 -6.064476
v 49.127416 17.289000 -2.062805
v 43.023359 17.289000 1.486835
v 36.504963 17.289000 4.550259
v 29.635005 17.289000 7.097965
v 22.479645 17.289000 9.105417
v 15.107795 17.289000 10.553282
v 7.590447 17.289000 11.427617
v 0.000000 17.289000 11.720000
v -7.590447 17.289000 11.427617
v -15.107795 17.289000 10.553282
v -22.479645 17.289000 9.105417
v -29.635005 17.289000 7.097965
v -36.504963 17.289000 4.550259
v -43.023359 17.289000 1.486835
v -49.127416 17.289000 -2.062805
v -54.758349 17.289000 -6.064476
v -59.861930 17.289000 -10.479640
v -64.389007 17.289000 -15.265775
v -68.295983 17.289000 -20.376790
v -71.545231 17.289000 -25.763462
v -74.105460 17.289000 -31.373914
v -75.952012 17.289000 -37.154116
v -77.067105 17.289000 -43.048399
v -77.440000 17.289000 -49.000000
v -77.067105 17.289000 -54.951601
v -75.952012 17.289000 -60.845884
v -74.105460 17.289000 -66.626086
v -71.545231 17.289000 -72.236538
v -68.295983 17.289000 -77.623210
v -64.389007 17.289000 -82.734225
v -59.861930 17.289000 -87.520360
v -54.758349 17.289000 -91.935524
v -49.127416 17.289000 -95.937195
v -43.023359 17.289000 -99.486835
v -36.504963 17.289000 -102.550259
v -29.635005 17.289000 -105.097965
v -22.479645 17.289000 -107.105417
v -15.107795 17.289000 -108.553282
v -7.590447 17.289000 -109.427617
v -0.000000 17.289000 -109.720000
v 7.590447 17.289000 -109.427617
v 15.107795 17.289000 -108.553282
v 22.479645 17.289000 -107.105417
v 29.635005 17.289000 -105.097965
v 36.504963 17.289000 -102.550259
v 43.023359 17.289000 -99.486835
v 49.127416 17.289000 -95.937195
v 54.758349 17.289000 -91.935524
v 59.861930 17.289000 -87.520360
v 64.389007 17.289000 -82.734225
v 68.295983 17.289000 -77.623210
v 71.545231 17.289000 -72.236538
v 74.105460 17.289000 -66.626086
v 75.952012 17.289000 -60.845884
v 77.067105 17.289000 -54.951601
v 81.569107 16.665000 -49.831496
v 81.569107 16.665000 -48.168504
v 81.280272 16.665000 -43.558551
v 81.072386 16.665000 -41.903568
v 80.208665 16.665000 -37.338011
v 79.794894 16.665000 -35.706974
v 78.364603 16.665000 -31.229782
v 77.748934 16.665000 -29.638398
v 75.765848 16.665000 -25.292690
v 74.954209 16.665000 -23.756286
v 72.437426 16.665000 -19.583912
v 71.437633 16.665000 -18.117285
v 68.411393 16.665000 -14.158427
v 67.233075 16.665000 -12.775701
v 63.726520 16.665000 -9.068486
v 62.381025 16.665000 -7.782976
v 58.427926 16.665000 -4.363107
v 56.928212 16.665000 -3.187195
v 52.566639 16.665000 -0.087606
v 50.927148 16.665000 0.967385
v 46.199106 16.665000 3.716843
v 44.435629 16.665000 4.640751
v 39.386651 16.665000 7.013599
v 37.516170 16.665000 7.797528
v 32.194881 16.665000 9.770914
v 30.235410 16.665000 10.407313
v 24.693057 16.665000 11.962232
v 22.663467 16.665000 12.444973
v 16.953425 16.665000 13.566451
v 14.873262 16.665000 13.890885
v -14.873262 16.665000 13.890885
v -16.953425 16.665000 13.566451
v -22.663467 16.665000 12.444973
v -24.693057 16.665000 11.962232
v -30.235410 16.665000 10.407313
v -32.194881 16.665000 9.770914
v -37.516170 16.665000 7.797528
v -39.386651 16.665000 7.013599
v -44.435629 16.665000 4.640751
v -46.199106 16.665000 3.716843
v -50.927148 16.665000 0.967385
v -52.566639 16.665000 -0.087606
v -56.928212 16.665000 -3.187195
v -58.427926 16.665000 -4.363107
v -62.381025 16.665000 -7.782976
v -63.726520 16.665000 -9.068486
v -67.233075 16.665000 -12.775701
v -68.411393 16.665000 -14.158427
v -71.437633 16.665000 -18.117285
v -72.437426 16.665000 -19.583912
v -74.954209 16.665000 -23.756286
v -75.765848 16.665000 -25.292690
v -77.748934 16.665000 -29.638398
v -78.364603 16.665000 -31.229782
v -79.794894 16.665000 -35.706974
v -80.208665 16.665000 -37.338011
v -81.072386 16.665000 -41.903568
v -81.280272 16.665000 -43.558551
v -81.569107 16.665000 -48.168504
v -81.569107 16.665000 -49.831496
v -81.280272 16.665000 -54.441449
v -81.072386 16.665000 -56.096432
v -80.208665 16.665000 -60.661989
v -79.794894 16.665000 -62.293026
v -78.364603 16.665000 -66.770218
v -77.748934 16.665000 -68.361602
v -75.765848 16.665000 -72.707310
v -74.954209 16.665000 -74.243714
v -72.437426 16.665000 -78.416088
v -71.437633 16.665000 -79.882715
v -68.411393 16.665000 -83.841573
v -67.233075 16.665000 -85.224299
v -63.726520 16.665000 -88.931514
v -62.381025 16.665000 -90.217024
v -58.427926 16.665000 -93.636893
v -56.928212 16.665000 -94.812805
v -52.566639 16.665000 -97.912394
v -50.927148 16.665000 -98.967385
v -46.199106 16.665000 -101.716843
v -44.435629 16.665000 -102.640751
v -39.386651 16.665000 -105.013599
v -37.516170 16.665000 -105.797528
v -32.194881 16.665000 -107.770914
v -30.235410 16.665000 -108.407313
v -24.693057 16.665000 -109.962232
v -22.663467 16.665000 -110.444973
v -16.953425 16.665000 -111.566451
v -14.873262 16.665000 -111.890885
v 14.873262 16.665000 -111.890885
v 16.953425 16.665000 -111.566451
v 22.663467 16.665000 -110.444973
v 24.693057 16.665000 -109.962232
v 30.235410 16.665000 -108.407313
v 32.194881 16.665000 -107.770914
v 37.516170 16.665000 -105.797528
v 39.386651 16.665000 -105.013599
v 44.435629 16.665000 -102.640751
v 46.199106 16.665000 -101.716843
v 50.927148 16.665000 -98.967385
v 52.566639 16.665000 -97.912394
v 56.928212 16.665000 -94.812805
v 58.427926 16.665000 -93.636893
v 62.381025 16.665000 -90.217024
v 63.726520 16.665000 -88.931514
v 67.233075 16.665000 -85.224299
v 68.411393 16.665000 -83.841573
v 71.437633 16.665000 -79.882715
v 72.437426 16.665000 -78.416088
v 74.954209 16.665000 -74.243714
v 75.765848 16.665000 -72.707310
v 77.748934 16.665000 -68.361602
v 78.364603 16.665000 -66.770218
v 79.794894 16.665000 -62.293026
v 80.208665 16.665000 -60.661989
v 81.072386 16.665000 -56.096432
v 81.280272 16.665000 -54.441449
v 0.990000 28.090000 -45.000000
v 0.956267 28.090000 -44.689417
v 0.857365 28.090000 -44.400000
v 0.700036 28.090000 -44.151472
v 0.495000 28.090000 -43.960770
v 0.256231 28.090000 -43.840889
v 0.000000 28.090000 -43.800000
v -0.256231 28.090000 -43.840889
v -0.495000 28.090000 -43.960770
v -0.700036 28.090000 -44.151472
v -0.857365 28.090000 -44.400000
v -0.956267 28.090000 -44.689417
v -0.990000 28.090000 -45.000000
v -0.956267 28.090000 -45.310583
v -0.857365 28.090000 -45.600000
v -0.700036 28.090000 -45.848528
v -0.495000 28.090000 -46.039230
v -0.256231 28.090000 -46.159111
v -0.000000 28.090000 -46.200000
v 0.256231 28.090000 -46.159111
v 0.495000 28.090000 -46.039230
v 0.700036 28.090000 -45.848528
v 0.857365 28.090000 -45.600000
v 0.956267 28.090000 -45.310583
v 2.640000 27.640000 -45.000000
v 2.550044 27.640000 -44.171779
v 2.286307 27.640000 -43.400000
v 1.866762 27.640000 -42.737258
v 1.320000 27.640000 -42.228719
v 0.683282 27.640000 -41.909037
v 0.000000 27.640000 -41.800000
v -0.683282 27.640000 -41.909037
v -1.320000 27.640000 -42.228719
v -1.866762 27.640000 -42.737258
v -2.286307 27.640000 -43.400000
v -2.550044 27.640000 -44.171779
v -2.640000 27.640000 -45.000000
v -2.550044 27.640000 -45.828221
v -2.286307 27.640000 -46.600000
v -1.866762 27.640000 -47.262742
v -1.320000 27.640000 -47.771281
v -0.683282 27.640000 -48.090963
v -0.000000 27.640000 -48.200000
v 0.683282 27.640000 -48.090963
v 1.320000 27.640000 -47.771281
v 1.866762 27.640000 -47.262742
v 2.286307 27.640000 -46.600000
v 2.550044 27.640000 -45.828221
v 6.270000 26.065000 -45.000000
v 6.056355 26.065000 -43.032975
v 5.429979 26.065000 -41.200000
v 4.433560 26.065000 -39.625988
v 3.135000 26.065000 -38.418207
v 1.622795 26.065000 -37.658964
v 0.000000 26.065000 -37.400000
v -1.622795 26.065000 -37.658964
v -3.135000 26.065000 -38.418207
v -4.433560 26.065000 -39.625988
v -5.429979 26.065000 -41.200000
v -6.056355 26.065000 -43.032975
v -6.270000 26.065000 -45.000000
v -6.056355 26.065000 -46.967025
v -5.429979 26.065000 -48.800000
v -4.433560 26.065000 -50.374012
v -3.135000 26.065000 -51.581793
v -1.622795 26.065000 -52.341036
v -0.000000 26.065000 -52.600000
v 1.622795 26.065000 -52.341036
v 3.135000 26.065000 -51.581793
v 4.433560 26.065000 -50.374012
v 5.429979 26.065000 -48.800000
v 6.056355 26.065000 -46.967025
v 7.920000 25.165000 -45.000000
v 7.650133 25.165000 -42.515337
v 6.858921 25.165000 -40.200000
v 5.600286 25.165000 -38.211775
v 3.960000 25.165000 -36.686156
v 2.049847 25.165000 -35.727112
v 0.000000 25.165000 -35.400000
v -2.049847 25.165000 -35.727112
v -3.960000 25.165000 -36.686156
v -5.600286 25.165000 -38.211775
v -6.858921 25.165000 -40.200000
v -7.650133 25.165000 -42.515337
v -7.920000 25.165000 -45.000000
v -7.650133 25.165000 -47.484663
v -6.858921 25.165000 -49.800000
v -5.600286 25.165000 -51.788225
v -3.960000 25.165000 -53.313844
v -2.049847 25.165000 -54.272888
v -0.000000 25.165000 -54.600000
v 2.049847 25.165000 -54.272888
v 3.960000 25.165000 -53.313844
v 5.600286 25.165000 -51.788225
v 6.858921 25.165000 -49.800000
v 7.650133 25.165000 -47.484663
v 8.250000 24.625000 -45.000000
v 7.968888 24.625000 -42.411810
v 7.144710 24.625000 -40.000000
v 5.833631 24.625000 -37.928932
v 4.125000 24.625000 -36.339746
v 2.135257 24.625000 -35.340742
v 0.000000 24.625000 -35.000000
v -2.135257 24.625000 -35.340742
v -4.125000 24.625000 -36.339746
v -5.833631 24.625000 -37.928932
v -7.144710 24.625000 -40.000000
v -7.968888 24.625000 -42.411810
v -8.250000 24.625000 -45.000000
v -7.968888 24.625000 -47.588190
v -7.144710 24.625000 -50.000000
v -5.833631 24.625000 -52.071068
v -4.125000 24.625000 -53.660254
v -2.135257 24.625000 -54.659258
v -0.000000 24.625000 -55.000000
v 2.135257 24.625000 -54.659258
v 4.125000 24.625000 -53.660254
v 5.833631 24.625000 -52.071068
v 7.144710 24.625000 -50.000000
v 7.968888 24.625000 -47.588190
v 8.250000 23.815000 -45.000000
v 7.968888 23.815000 -42.411810
v 7.144710 23.815000 -40.000000
v 5.833631 23.815000 -37.928932
v 4.125000 23.815000 -36.339746
v 2.135257 23.815000 -35.340742
v 0.000000 23.815000 -35.000000
v -2.135257 23.815000 -35.340742
v -4.125000 23.815000 -36.339746
v -5.833631 23.815000 -37.928932
v -7.144710 23.815000 -40.000000
v -7.968888 23.815000 -42.411810
v -8.250000 23.815000 -45.000000
v -7.968888 23.815000 -47.588190
v -7.144710 23.815000 -50.000000
v -5.833631 23.815000 -52.071068
v -4.125000 23.815000 -53.660254
v -2.135257 23.815000 -54.659258
v -0.000000 23.815000 -55.000000
v 2.135257 23.815000 -54.659258
v 4.125000 23.815000 -53.660254
v 5.833631 23.815000 -52.071068
v 7.144710 23.815000 -50.000000
v 7.968888 23.815000 -47.588190
v 6.847500 22.600000 -45.000000
v 6.614177 22.600000 -42.851802
v 5.930109 22.600000 -40.850000
v 4.841914 22.600000 -39.131014
v 3.423750 22.600000 -37.811989
v 1.772263 22.600000 -36.982816
v 0.000000 22.600000 -36.700000
v -1.772263 22.600000 -36.982816
v -3.423750 22.600000 -37.811989
v -4.841914 22.600000 -39.131014
v -5.930109 22.600000 -40.850000
v -6.614177 22.600000 -42.851802
v -6.847500 22.600000 -45.000000
v -6.614177 22.600000 -47.148198
v -5.930109 22.600000 -49.150000
v -4.841914 22.600000 -50.868986
v -3.423750 22.600000 -52.188011
v -1.772263 22.600000 -53.017184
v -0.000000 22.600000 -53.300000
v 1.772263 22.600000 -53.017184
v 3.423750 22.600000 -52.188011
v 4.841914 22.600000 -50.868986
v 5.930109 22.600000 -49.150000
v 6.614177 22.600000 -47.148198
v 2.310000 21.520000 -45.000000
v 2.231289 21.520000 -44.275307
v 2.000519 21.520000 -43.600000
v 1.633417 21.520000 -43.020101
v 1.155000 21.520000 -42.575129
v 0.597872 21.520000 -42.295408
v 0.000000 21.520000 -42.200000
v -0.597872 21.520000 -42.295408
v -1.155000 21.520000 -42.575129
v -1.633417 21.520000 -43.020101
v -2.000519 21.520000 -43.600000
v -2.231289 21.520000 -44.275307
v -2.310000 21.520000 -45.000000
v -2.231289 21.520000 -45.724693
v -2.000519 21.520000 -46.400000
v -1.633417 21.520000 -46.979899
v -1.155000 21.520000 -47.424871
v -0.597872 21.520000 -47.704592
v -0.000000 21.520000 -47.800000
v 0.597872 21.520000 -47.704592
v 1.155000 21.520000 -47.424871
v 1.633417 21.520000 -46.979899
v 2.000519 21.520000 -46.400000
v 2.231289 21.520000 -45.724693
v 0.990000 21.430000 -45.000000
v 0.956267 21.430000 -44.689417
v 0.857365 21.430000 -44.400000
v 0.700036 21.430000 -44.151472
v 0.495000 21.430000 -43.960770
v 0.256231 21.430000 -43.840889
v 0.000000 21.430000 -43.800000
v -0.256231 21.430000 -43.840889
v -0.495000 21.430000 -43.960770
v -0.700036 21.430000 -44.151472
v -0.857365 21.430000 -44.400000
v -0.956267 21.430000 -44.689417
v -0.990000 21.430000 -45.000000
v -0.956267 21.430000 -45.310583
v -0.857365 21.430000 -45.600000
v -0.700036 21.430000 -45.848528
v -0.495000 21.430000 -46.039230
v -0.256231 21.430000 -46.159111
v -0.000000 21.430000 -46.200000
v 0.256231 21.430000 -46.159111
v 0.495000 21.430000 -46.039230
v 0.700036 21.430000 -45.848528
v 0.857365 21.430000 -45.600000
v 0.956267 21.430000 -45.310583
v 0.600000 29.700000 -45.500000
v 0.579555 29.700000 -45.329179
v 0.519615 29.700000 -45.170000
v 0.424264 29.700000 -45.033310
v 0.300000 29.700000 -44.928423
v 0.155291 29.700000 -44.862489
v 0.000000 29.700000 -44.840000
v -0.155291 29.700000 -44.862489
v -0.300000 29.700000 -44.928423
v -0.424264 29.700000 -45.033310
v -0.519615 29.700000 -45.170000
v -0.579555 29.700000 -45.329179
v -0.600000 29.700000 -45.500000
v -0.579555 29.700000 -45.670821
v -0.519615 29.700000 -45.830000
v -0.424264 29.700000 -45.966690
v -0.300000 29.700000 -46.071577
v -0.155291 29.700000 -46.137511
v -0.000000 29.700000 -46.160000
v 0.155291 29.700000 -46.137511
v 0.300000 29.700000 -46.071577
v 0.424264 29.700000 -45.966690
v 0.519615 29.700000 -45.830000
v 0.579555 29.700000 -45.670821
v 1.600000 29.450000 -45.500000
v 1.545481 29.450000 -45.044478
v 1.385641 29.450000 -44.620000
v 1.131371 29.450000 -44.255492
v 0.800000 29.450000 -43.975795
v 0.414110 29.450000 -43.799971
v 0.000000 29.450000 -43.740000
v -0.414110 29.450000 -43.799971
v -0.800000 29.450000 -43.975795
v -1.131371 29.450000 -44.255492
v -1.385641 29.450000 -44.620000
v -1.545481 29.450000 -45.044478
v -1.600000 29.450000 -45.500000
v -1.545481 29.450000 -45.955522
v -1.385641 29.450000 -46.380000
v -1.131371 29.450000 -46.744508
v -0.800000 29.450000 -47.024205
v -0.414110 29.450000 -47.200029
v -0.000000 29.450000 -47.260000
v 0.414110 29.450000 -47.200029
v 0.800000 29.450000 -47.024205
v 1.131371 29.450000 -46.744508
v 1.385641 29.450000 -46.380000
v 1.545481 29.450000 -45.955522
v 3.800000 28.575000 -45.500000
v 3.670518 28.575000 -44.418136
v 3.290897 28.575000 -43.410000
v 2.687006 28.575000 -42.544294
v 1.900000 28.575000 -41.880014
v 0.983512 28.575000 -41.462430
v 0.000000 28.575000 -41.320000
v -0.983512 28.575000 -41.462430
v -1.900000 28.575000 -41.880014
v -2.687006 28.575000 -42.544294
v -3.290897 28.575000 -43.410000
v -3.670518 28.575000 -44.418136
v -3.800000 28.575000 -45.500000
v -3.670518 28.575000 -46.581864
v -3.290897 28.575000 -47.590000
v -2.687006 28.575000 -48.455706
v -1.900000 28.575000 -49.119986
v -0.983512 28.575000 -49.537570
v -0.000000 28.575000 -49.680000
v 0.983512 28.575000 -49.537570
v 1.900000 28.575000 -49.119986
v 2.687006 28.575000 -48.455706
v 3.290897 28.575000 -47.590000
v 3.670518 28.575000 -46.581864
v 4.800000 28.075000 -45.500000
v 4.636444 28.075000 -44.133435
v 4.156922 28.075000 -42.860000
v 3.394113 28.075000 -41.766476
v 2.400000 28.075000 -40.927386
v 1.242331 28.075000 -40.399912
v 0.000000 28.075000 -40.220000
v -1.242331 28.075000 -40.399912
v -2.400000 28.075000 -40.927386
v -3.394113 28.075000 -41.766476
v -4.156922 28.075000 -42.860000
v -4.636444 28.075000 -44.133435
v -4.800000 28.075000 -45.500000
v -4.636444 28.075000 -46.866565
v -4.156922 28.075000 -48.140000
v -3.394113 28.075000 -49.233524
v -2.400000 28.075000 -50.072614
v -1.242331 28.075000 -50.600088
v -0.000000 28.075000 -50.780000
v 1.242331 28.075000 -50.600088
v 2.400000 28.075000 -50.072614
v 3.394113 28.075000 -49.233524
v 4.156922 28.075000 -48.140000
v 4.636444 28.075000 -46.866565
v 5.000000 27.775000 -45.500000
v 4.829629 27.775000 -44.076495
v 4.330127 27.775000 -42.750000
v 3.535534 27.775000 -41.610913
v 2.500000 27.775000 -40.736860
v 1.294095 27.775000 -40.187408
v 0.000000 27.775000 -40.000000
v -1.294095 27.775000 -40.187408
v -2.500000 27.775000 -40.736860
v -3.535534 27.775000 -41.610913
v -4.330127 27.775000 -42.750000
v -4.829629 27.775000 -44.076495
v -5.000000 27.775000 -45.500000
v -4.829629 27.775000 -46.923505
v -4.330127 27.775000 -48.250000
v -3.535534 27.775000 -49.389087
v -2.500000 27.775000 -50.263140
v -1.294095 27.775000 -50.812592
v -0.000000 27.775000 -51.000000
v 1.294095 27.775000 -50.812592
v 2.500000 27.775000 -50.263140
v 3.535534 27.775000 -49.389087
v 4.330127 27.775000 -48.250000
v 4.829629 27.775000 -46.923505
v 5.000000 27.325000 -45.500000
v 4.829629 27.325000 -44.076495
v 4.330127 27.325000 -42.750000
v 3.535534 27.325000 -41.610913
v 2.500000 27.325000 -40.736860
v 1.294095 27.325000 -40.187408
v 0.000000 27.325000 -40.000000
v -1.294095 27.325000 -40.187408
v -2.500000 27.325000 -40.736860
v -3.535534 27.325000 -41.610913
v -4.330127 27.325000 -42.750000
v -4.829629 27.325000 -44.076495
v -5.000000 27.325000 -45.500000
v -4.829629 27.325000 -46.923505
v -4.330127 27.325000 -48.250000
v -3.535534 27.325000 -49.389087
v -2.500000 27.325000 -50.263140
v -1.294095 27.325000 -50.812592
v -0.000000 27.325000 -51.000000
v 1.294095 27.325000 -50.812592
v 2.500000 27.325000 -50.263140
v 3.535534 27.325000 -49.389087
v 4.330127 27.325000 -48.250000
v 4.829629 27.325000 -46.923505
v 4.150000 26.650000 -45.500000
v 4.008592 26.650000 -44.318491
v 3.594005 26.650000 -43.217500
v 2.934493 26.650000 -42.272058
v 2.075000 26.650000 -41.546594
v 1.074099 26.650000 -41.090549
v 0.000000 26.650000 -40.935000
v -1.074099 26.650000 -41.090549
v -2.075000 26.650000 -41.546594
v -2.934493 26.650000 -42.272058
v -3.594005 26.650000 -43.217500
v -4.008592 26.650000 -44.318491
v -4.150000 26.650000 -45.500000
v -4.008592 26.650000 -46.681509
v -3.594005 26.650000 -47.782500
v -2.934493 26.650000 -48.727942
v -2.075000 26.650000 -49.453406
v -1.074099 26.650000 -49.909451
v -0.000000 26.650000 -50.065000
v 1.074099 26.650000 -49.909451
v 2.075000 26.650000 -49.453406
v 2.934493 26.650000 -48.727942
v 3.594005 26.650000 -47.782500
v 4.008592 26.650000 -46.681509
v 1.400000 26.050000 -45.500000
v 1.352296 26.050000 -45.101419
v 1.212436 26.050000 -44.730000
v 0.989949 26.050000 -44.411056
v 0.700000 26.050000 -44.166321
v 0.362347 26.050000 -44.012474
v 0.000000 26.050000 -43.960000
v -0.362347 26.050000 -44.012474
v -0.700000 26.050000 -44.166321
v -0.989949 26.050000 -44.411056
v -1.212436 26.050000 -44.730000
v -1.352296 26.050000 -45.101419
v -1.400000 26.050000 -45.500000
v -1.352296 26.050000 -45.898581
v -1.212436 26.050000 -46.270000
v -0.989949 26.050000 -46.588944
v -0.700000 26.050000 -46.833679
v -0.362347 26.050000 -46.987526
v -0.000000 26.050000 -47.040000
v 0.362347 26.050000 -46.987526
v 0.700000 26.050000 -46.833679
v 0.989949 26.050000 -46.588944
v 1.212436 26.050000 -46.270000
v 1.352296 26.050000 -45.898581
v 0.600000 26.000000 -45.500000
v 0.579555 26.000000 -45.329179
v 0.519615 26.000000 -45.170000
v 0.424264 26.000000 -45.033310
v 0.300000 26.000000 -44.928423
v 0.155291 26.000000 -44.862489
v 0.000000 26.000000 -44.840000
v -0.155291 26.000000 -44.862489
v -0.300000 26.000000 -44.928423
v -0.424264 26.000000 -45.033310
v -0.519615 26.000000 -45.170000
v -0.579555 26.000000 -45.329179
v -0.600000 26.000000 -45.500000
v -0.579555 26.000000 -45.670821
v -0.519615 26.000000 -45.830000
v -0.424264 26.000000 -45.966690
v -0.300000 26.000000 -46.071577
v -0.155291 26.000000 -46.137511
v -0.000000 26.000000 -46.160000
v 0.155291 26.000000 -46.137511
v 0.300000 26.000000 -46.071577
v 0.424264 26.000000 -45.966690
v 0.519615 26.000000 -45.830000
v 0.579555 26.000000 -45.670821
v 7.000000 7.000000 -30.000000
v -7.000000 7.000000 -30.000000
v -7.000000 7.000000 4.000000
v 7.000000 7.000000 4.000000
v 7.000000 -12.000000 13.000000
v -7.000000 -12.000000 13.000000
v -7.000000 -12.000000 47.000000
v 7.000000 -12.000000 47.000000
v 10.000000 -12.000000 -30.000000
v 9.510565 -9.218847 -30.000000
v 8.090170 -6.709933 -30.000000
v 5.877853 -4.718847 -30.000000
v 3.090170 -3.440491 -30.000000
v 0.000000 -3.000000 -30.000000
v -3.090170 -3.440491 -30.000000
v -5.877853 -4.718847 -30.000000
v -8.090170 -6.709933 -30.000000
v -9.510565 -9.218847 -30.000000
v -10.000000 -12.000000 -30.000000
v -9.510565 -14.781153 -30.000000
v -8.090170 -17.290067 -30.000000
v -5.877853 -19.281153 -30.000000
v -3.090170 -20.559509 -30.000000
v -0.000000 -21.000000 -30.000000
v 3.090170 -20.559509 -30.000000
v 5.877853 -19.281153 -30.000000
v 8.090170 -17.290067 -30.000000
v 9.510565 -14.781153 -30.000000
v 22.000000 -16.000000 -19.000000
v 20.923243 -11.673762 -19.000000
v 17.798374 -7.771006 -19.000000
v 12.931276 -4.673762 -19.000000
v 6.798374 -2.685209 -19.000000
v 0.000000 -2.000000 -19.000000
v -6.798374 -2.685209 -19.000000
v -12.931276 -4.673762 -19.000000
v -17.798374 -7.771006 -19.000000
v -20.923243 -11.673762 -19.000000
v -22.000000 -16.000000 -19.000000
v -20.923243 -20.326238 -19.000000
v -17.798374 -24.228994 -19.000000
v -12.931276 -27.326238 -19.000000
v -6.798374 -29.314791 -19.000000
v -0.000000 -30.000000 -19.000000
v 6.798374 -29.314791 -19.000000
v 12.931276 -27.326238 -19.000000
v 17.798374 -24.228994 -19.000000
v 20.923243 -20.326238 -19.000000
v 27.000000 -18.000000 6.000000
v 25.678526 -13.055728 6.000000
v 21.843459 -8.595436 6.000000
v 15.870202 -5.055728 6.000000
v 8.343459 -2.783096 6.000000
v 0.000000 -2.000000 6.000000
v -8.343459 -2.783096 6.000000
v -15.870202 -5.055728 6.000000
v -21.843459 -8.595436 6.000000
v -25.678526 -13.055728 6.000000
v -27.000000 -18.000000 6.000000
v -25.678526 -22.944272 6.000000
v -21.843459 -27.404564 6.000000
v -15.870202 -30.944272 6.000000
v -8.343459 -33.216904 6.000000
v -0.000000 -34.000000 6.000000
v 8.343459 -33.216904 6.000000
v 15.870202 -30.944272 6.000000
v 21.843459 -27.404564 6.000000
v 25.678526 -22.944272 6.000000
v 21.000000 -18.000000 41.000000
v 19.972187 -13.982779 41.000000
v 16.989357 -10.358792 41.000000
v 12.343490 -7.482779 41.000000
v 6.489357 -5.636265 41.000000
v 0.000000 -5.000000 41.000000
v -6.489357 -5.636265 41.000000
v -12.343490 -7.482779 41.000000
v -16.989357 -10.358792 41.000000
v -19.972187 -13.982779 41.000000
v -21.000000 -18.000000 41.000000
v -19.972187 -22.017221 41.000000
v -16.989357 -25.641208 41.000000
v -12.343490 -28.517221 41.000000
v -6.489357 -30.363735 41.000000
v -0.000000 -31.000000 41.000000
v 6.489357 -30.363735 41.000000
v 12.343490 -28.517221 41.000000
v 16.989357 -25.641208 41.000000
v 19.972187 -22.017221 41.000000
v 10.000000 -13.000000 76.000000
v 9.510565 -10.836881 76.000000
v 8.090170 -8.885503 76.000000
v 5.877853 -7.336881 76.000000
v 3.090170 -6.342604 76.000000
v 0.000000 -6.000000 76.000000
v -3.090170 -6.342604 76.000000
v -5.877853 -7.336881 76.000000
v -8.090170 -8.885503 76.000000
v -9.510565 -10.836881 76.000000
v -10.000000 -13.000000 76.000000
v -9.510565 -15.163119 76.000000
v -8.090170 -17.114497 76.000000
v -5.877853 -18.663119 76.000000
v -3.090170 -19.657396 76.000000
v -0.000000 -20.000000 76.000000
v 3.090170 -19.657396 76.000000
v 5.877853 -18.663119 76.000000
v 8.090170 -17.114497 76.000000
v 9.510565 -15.163119 76.000000
v 2.000000 -10.000000 91.000000
v 1.902113 -9.381966 91.000000
v 1.618034 -8.824429 91.000000
v 1.175571 -8.381966 91.000000
v 0.618034 -8.097887 91.000000
v 0.000000 -8.000000 91.000000
v -0.618034 -8.097887 91.000000
v -1.175571 -8.381966 91.000000
v -1.618034 -8.824429 91.000000
v -1.902113 -9.381966 91.000000
v -2.000000 -10.000000 91.000000
v -1.902113 -10.618034 91.000000
v -1.618034 -11.175571 91.000000
v -1.175571 -11.618034 91.000000
v -0.618034 -11.902113 91.000000
v -0.000000 -12.000000 91.000000
v 0.618034 -11.902113 91.000000
v 1.175571 -11.618034 91.000000
v 1.618034 -11.175571 91.000000
v 1.902113 -10.618034 91.000000
v -14.223820 -13.739026 40.500000
v -11.776180 -8.260974 40.500000
v -11.776180 -8.260974 57.500000
v -14.223820 -13.739026 57.500000
v -61.223820 7.260974 43.500000
v -58.776180 12.739026 43.500000
v -58.776180 12.739026 60.500000
v -61.223820 7.260974 60.500000
v -57.200000 14.000000 -2.000000
v -57.413137 14.750060 -2.000000
v -58.020101 15.385929 -2.000000
v -58.928486 15.810804 -2.000000
v -60.000000 15.960000 -2.000000
v -61.071514 15.810804 -2.000000
v -61.979899 15.385929 -2.000000
v -62.586863 14.750060 -2.000000
v -62.800000 14.000000 -2.000000
v -62.586863 13.249940 -2.000000
v -61.979899 12.614071 -2.000000
v -61.071514 12.189196 -2.000000
v -60.000000 12.040000 -2.000000
v -58.928486 12.189196 -2.000000
v -58.020101 12.614071 -2.000000
v -57.413137 13.249940 -2.000000
v -54.000000 14.000000 1.640000
v -54.456723 15.607270 1.640000
v -55.757359 16.969848 1.640000
v -57.703899 17.880294 1.640000
v -60.000000 18.200000 1.640000
v -62.296101 17.880294 1.640000
v -64.242641 16.969848 1.640000
v -65.543277 15.607270 1.640000
v -66.000000 14.000000 1.640000
v -65.543277 12.392730 1.640000
v -64.242641 11.030152 1.640000
v -62.296101 10.119706 1.640000
v -60.000000 9.800000 1.640000
v -57.703899 10.119706 1.640000
v -55.757359 11.030152 1.640000
v -54.456723 12.392730 1.640000
v -52.000000 14.000000 7.360000
v -52.608964 16.143027 7.360000
v -54.343146 17.959798 7.360000
v -56.938533 19.173725 7.360000
v -60.000000 19.600000 7.360000
v -63.061467 19.173725 7.360000
v -65.656854 17.959798 7.360000
v -67.391036 16.143027 7.360000
v -68.000000 14.000000 7.360000
v -67.391036 11.856973 7.360000
v -65.656854 10.040202 7.360000
v -63.061467 8.826275 7.360000
v -60.000000 8.400000 7.360000
v -56.938533 8.826275 7.360000
v -54.343146 10.040202 7.360000
v -52.608964 11.856973 7.360000
v -52.000000 14.000000 22.960000
v -52.608964 16.143027 22.960000
v -54.343146 17.959798 22.960000
v -56.938533 19.173725 22.960000
v -60.000000 19.600000 22.960000
v -63.061467 19.173725 22.960000
v -65.656854 17.959798 22.960000
v -67.391036 16.143027 22.960000
v -68.000000 14.000000 22.960000
v -67.391036 11.856973 22.960000
v -65.656854 10.040202 22.960000
v -63.061467 8.826275 22.960000
v -60.000000 8.400000 22.960000
v -56.938533 8.826275 22.960000
v -54.343146 10.040202 22.960000
v -52.608964 11.856973 22.960000
v -52.800000 14.000000 81.200000
v -53.348067 15.928724 81.200000
v -54.908831 17.563818 81.200000
v -57.244679 18.656353 81.200000
v -60.000000 19.040000 81.200000
v -62.755321 18.656353 81.200000
v -65.091169 17.563818 81.200000
v -66.651933 15.928724 81.200000
v -67.200000 14.000000 81.200000
v -66.651933 12.071276 81.200000
v -65.091169 10.436182 81.200000
v -62.755321 9.343647 81.200000
v -60.000000 8.960000 81.200000
v -57.244679 9.343647 81.200000
v -54.908831 10.436182 81.200000
v -53.348067 12.071276 81.200000
v -54.560000 14.000000 96.800000
v -54.974095 15.457259 96.800000
v -56.153339 16.692663 96.800000
v -57.918202 17.518133 96.800000
v -60.000000 17.808000 96.800000
v -62.081798 17.518133 96.800000
v -63.846661 16.692663 96.800000
v -65.025905 15.457259 96.800000
v -65.440000 14.000000 96.800000
v -65.025905 12.542741 96.800000
v -63.846661 11.307337 96.800000
v -62.081798 10.481867 96.800000
v -60.000000 10.192000 96.800000
v -57.918202 10.481867 96.800000
v -56.153339 11.307337 96.800000
v -54.974095 12.542741 96.800000
v -58.000000 14.000000 102.000000
v -58.152241 14.535757 102.000000
v -58.585786 14.989949 102.000000
v -59.234633 15.293431 102.000000
v -60.000000 15.400000 102.000000
v -60.765367 15.293431 102.000000
v -61.414214 14.989949 102.000000
v -61.847759 14.535757 102.000000
v -62.000000 14.000000 102.000000
v -61.847759 13.464243 102.000000
v -61.414214 13.010051 102.000000
v -60.765367 12.706569 102.000000
v -60.000000 12.600000 102.000000
v -59.234633 12.706569 102.000000
v -58.585786 13.010051 102.000000
v -58.152241 13.464243 102.000000
v -67.680000 12.432000 7.360000
v -67.680000 12.432000 22.960000
v -66.912000 12.588800 81.200000
v -65.222400 12.933760 96.800000
v -68.000000 14.000000 7.360000
v -68.000000 14.000000 22.960000
v -67.200000 14.000000 81.200000
v -65.440000 14.000000 96.800000
v -67.680000 15.568000 7.360000
v -67.680000 15.568000 22.960000
v -66.912000 15.411200 81.200000
v -65.222400 15.066240 96.800000
v -52.320000 12.432000 7.360000
v -52.320000 12.432000 22.960000
v -53.088000 12.588800 81.200000
v -54.777600 12.933760 96.800000
v -52.000000 14.000000 7.360000
v -52.000000 14.000000 22.960000
v -52.800000 14.000000 81.200000
v -54.560000 14.000000 96.800000
v -52.320000 15.568000 7.360000
v -52.320000 15.568000 22.960000
v -53.088000 15.411200 81.200000
v -54.777600 15.066240 96.800000
v -52.085714 14.000000 29.200000
v -52.213580 14.991824 29.200000
v -52.593045 15.951599 29.200000
v -52.228571 14.000000 39.600000
v -52.354129 14.973921 39.600000
v -52.726745 15.916372 39.600000
v -52.371429 14.000000 50.000000
v -52.494678 14.956018 50.000000
v -52.860444 15.881144 50.000000
v -52.514286 14.000000 60.400000
v -52.635227 14.938115 60.400000
v -52.994144 15.845917 60.400000
v -52.657143 14.000000 70.800000
v -52.775776 14.920212 70.800000
v -53.127843 15.810690 70.800000
v 11.776180 -8.260974 40.500000
v 14.223820 -13.739026 40.500000
v 14.223820 -13.739026 57.500000
v 11.776180 -8.260974 57.500000
v 58.776180 12.739026 43.500000
v 61.223820 7.260974 43.500000
v 61.223820 7.260974 60.500000
v 58.776180 12.739026 60.500000
v 62.800000 14.000000 -2.000000
v 62.586863 14.750060 -2.000000
v 61.979899 15.385929 -2.000000
v 61.071514 15.810804 -2.000000
v 60.000000 15.960000 -2.000000
v 58.928486 15.810804 -2.000000
v 58.020101 15.385929 -2.000000
v 57.413137 14.750060 -2.000000
v 57.200000 14.000000 -2.000000
v 57.413137 13.249940 -2.000000
v 58.020101 12.614071 -2.000000
v 58.928486 12.189196 -2.000000
v 60.000000 12.040000 -2.000000
v 61.071514 12.189196 -2.000000
v 61.979899 12.614071 -2.000000
v 62.586863 13.249940 -2.000000
v 66.000000 14.000000 1.640000
v 65.543277 15.607270 1.640000
v 64.242641 16.969848 1.640000
v 62.296101 17.880294 1.640000
v 60.000000 18.200000 1.640000
v 57.703899 17.880294 1.640000
v 55.757359 16.969848 1.640000
v 54.456723 15.607270 1.640000
v 54.000000 14.000000 1.640000
v 54.456723 12.392730 1.640000
v 55.757359 11.030152 1.640000
v 57.703899 10.119706 1.640000
v 60.000000 9.800000 1.640000
v 62.296101 10.119706 1.640000
v 64.242641 11.030152 1.640000
v 65.543277 12.392730 1.640000
v 68.000000 14.000000 7.360000
v 67.391036 16.143027 7.360000
v 65.656854 17.959798 7.360000
v 63.061467 19.173725 7.360000
v 60.000000 19.600000 7.360000
v 56.938533 19.173725 7.360000
v 54.343146 17.959798 7.360000
v 52.608964 16.143027 7.360000
v 52.000000 14.000000 7.360000
v 52.608964 11.856973 7.360000
v 54.343146 10.040202 7.360000
v 56.938533 8.826275 7.360000
v 60.000000 8.400000 7.360000
v 63.061467 8.826275 7.360000
v 65.656854 10.040202 7.360000
v 67.391036 11.856973 7.360000
v 68.000000 14.000000 22.960000
v 67.391036 16.143027 22.960000
v 65.656854 17.959798 22.960000
v 63.061467 19.173725 22.960000
v 60.000000 19.600000 22.960000
v 56.938533 19.173725 22.960000
v 54.343146 17.959798 22.960000
v 52.608964 16.143027 22.960000
v 52.000000 14.000000 22.960000
v 52.608964 11.856973 22.960000
v 54.343146 10.040202 22.960000
v 56.938533 8.826275 22.960000
v 60.000000 8.400000 22.960000
v 63.061467 8.826275 22.960000
v 65.656854 10.040202 22.960000
v 67.391036 11.856973 22.960000
v 67.200000 14.000000 81.200000
v 66.651933 15.928724 81.200000
v 65.091169 17.563818 81.200000
v 62.755321 18.656353 81.200000
v 60.000000 19.040000 81.200000
v 57.244679 18.656353 81.200000
v 54.908831 17.563818 81.200000
v 53.348067 15.928724 81.200000
v 52.800000 14.000000 81.200000
v 53.348067 12.071276 81.200000
v 54.908831 10.436182 81.200000
v 57.244679 9.343647 81.200000
v 60.000000 8.960000 81.200000
v 62.755321 9.343647 81.200000
v 65.091169 10.436182 81.200000
v 66.651933 12.071276 81.200000
v 65.440000 14.000000 96.800000
v 65.025905 15.457259 96.800000
v 63.846661 16.692663 96.800000
v 62.081798 17.518133 96.800000
v 60.000000 17.808000 96.800000
v 57.918202 17.518133 96.800000
v 56.153339 16.692663 96.800000
v 54.974095 15.457259 96.800000
v 54.560000 14.000000 96.800000
v 54.974095 12.542741 96.800000
v 56.153339 11.307337 96.800000
v 57.918202 10.481867 96.800000
v 60.000000 10.192000 96.800000
v 62.081798 10.481867 96.800000
v 63.846661 11.307337 96.800000
v 65.025905 12.542741 96.800000
v 62.000000 14.000000 102.000000
v 61.847759 14.535757 102.000000
v 61.414214 14.989949 102.000000
v 60.765367 15.293431 102.000000
v 60.000000 15.400000 102.000000
v 59.234633 15.293431 102.000000
v 58.585786 14.989949 102.000000
v 58.152241 14.535757 102.000000
v 58.000000 14.000000 102.000000
v 58.152241 13.464243 102.000000
v 58.585786 13.010051 102.000000
v 59.234633 12.706569 102.000000
v 60.000000 12.600000 102.000000
v 60.765367 12.706569 102.000000
v 61.414214 13.010051 102.000000
v 61.847759 13.464243 102.000000
v 52.320000 12.432000 7.360000
v 52.320000 12.432000 22.960000
v 53.088000 12.588800 81.200000
v 54.777600 12.933760 96.800000
v 52.000000 14.000000 7.360000
v 52.000000 14.000000 22.960000
v 52.800000 14.000000 81.200000
v 54.560000 14.000000 96.800000
v 52.320000 15.568000 7.360000
v 52.320000 15.568000 22.960000
v 53.088000 15.411200 81.200000
v 54.777600 15.066240 96.800000
v 67.680000 12.432000 7.360000
v 67.680000 12.432000 22.960000
v 66.912000 12.588800 81.200000
v 65.222400 12.933760 96.800000
v 68.000000 14.000000 7.360000
v 68.000000 14.000000 22.960000
v 67.200000 14.000000 81.200000
v 65.440000 14.000000 96.800000
v 67.680000 15.568000 7.360000
v 67.680000 15.568000 22.960000
v 66.912000 15.411200 81.200000
v 65.222400 15.066240 96.800000
v 67.914286 14.000000 29.200000
v 67.786420 14.991824 29.200000
v 67.406955 15.951599 29.200000
v 67.771429 14.000000 39.600000
v 67.645871 14.973921 39.600000
v 67.273255 15.916372 39.600000
v 67.628571 14.000000 50.000000
v 67.505322 14.956018 50.000000
v 67.139556 15.881144 50.000000
v 67.485714 14.000000 60.400000
v 67.364773 14.938115 60.400000
v 67.005856 15.845917 60.400000
v 67.342857 14.000000 70.800000
v 67.224224 14.920212 70.800000
v 66.872157 15.810690 70.800000
v 8.400000 -12.000000 -30.300000
v 8.113777 -10.229678 -30.300000
v 7.274613 -8.580000 -30.300000
v 5.939697 -7.163390 -30.300000
v 4.200000 -6.076386 -30.300000
v 2.174080 -5.393067 -30.300000
v 0.000000 -5.160000 -30.300000
v -2.174080 -5.393067 -30.300000
v -4.200000 -6.076386 -30.300000
v -5.939697 -7.163390 -30.300000
v -7.274613 -8.580000 -30.300000
v -8.113777 -10.229678 -30.300000
v -8.400000 -12.000000 -30.300000
v -8.113777 -13.770322 -30.300000
v -7.274613 -15.420000 -30.300000
v -5.939697 -16.836610 -30.300000
v -4.200000 -17.923614 -30.300000
v -2.174080 -18.606933 -30.300000
v -0.000000 -18.840000 -30.300000
v 2.174080 -18.606933 -30.300000
v 4.200000 -17.923614 -30.300000
v 5.939697 -16.836610 -30.300000
v 7.274613 -15.420000 -30.300000
v 8.113777 -13.770322 -30.300000
v 7.140000 -12.000000 -31.800000
v 6.896710 -10.495226 -31.800000
v 6.183421 -9.093000 -31.800000
v 5.048742 -7.888881 -31.800000
v 3.570000 -6.964928 -31.800000
v 1.847968 -6.384107 -31.800000
v 0.000000 -6.186000 -31.800000
v -1.847968 -6.384107 -31.800000
v -3.570000 -6.964928 -31.800000
v -5.048742 -7.888881 -31.800000
v -6.183421 -9.093000 -31.800000
v -6.896710 -10.495226 -31.800000
v -7.140000 -12.000000 -31.800000
v -6.896710 -13.504774 -31.800000
v -6.183421 -14.907000 -31.800000
v -5.048742 -16.111119 -31.800000
v -3.570000 -17.035072 -31.800000
v -1.847968 -17.615893 -31.800000
v -0.000000 -17.814000 -31.800000
v 1.847968 -17.615893 -31.800000
v 3.570000 -17.035072 -31.800000
v 5.048742 -16.111119 -31.800000
v 6.183421 -14.907000 -31.800000
v 6.896710 -13.504774 -31.800000
v 2.940000 -12.000000 -32.400000
v 2.839822 -11.380387 -32.400000
v 2.546115 -10.803000 -32.400000
v 2.078894 -10.307186 -32.400000
v 1.470000 -9.926735 -32.400000
v 0.760928 -9.687574 -32.400000
v 0.000000 -9.606000 -32.400000
v -0.760928 -9.687574 -32.400000
v -1.470000 -9.926735 -32.400000
v -2.078894 -10.307186 -32.400000
v -2.546115 -10.803000 -32.400000
v -2.839822 -11.380387 -32.400000
v -2.940000 -12.000000 -32.400000
v -2.839822 -12.619613 -32.400000
v -2.546115 -13.197000 -32.400000
v -2.078894 -13.692814 -32.400000
v -1.470000 -14.073265 -32.400000
v -0.760928 -14.312426 -32.400000
v -0.000000 -14.394000 -32.400000
v 0.760928 -14.312426 -32.400000
v 1.470000 -14.073265 -32.400000
v 2.078894 -13.692814 -32.400000
v 2.546115 -13.197000 -32.400000
v 2.839822 -12.619613 -32.400000
v -6.500000 -17.200000 78.000000
v 6.500000 -17.200000 78.000000
v -6.500000 -14.400000 78.000000
v 6.500000 -14.400000 78.000000
v -6.500000 -11.600000 78.000000
v 6.500000 -11.600000 78.000000
v -6.500000 -8.800000 78.000000
v 6.500000 -8.800000 78.000000
g primary_hull
f 1 2 66 65
f 2 3 67 66
f 3 4 68 67
f 4 5 69 68
f 5 6 70 69
f 6 7 71 70
f 7 8 72 71
f 8 9 73 72
f 9 10 74 73
f 10 11 75 74
f 11 12 76 75
f 12 13 77 76
f 13 14 78 77
f 14 15 79 78
f 15 16 80 79
f 16 17 81 80
f 17 18 82 81
f 18 19 83 82
f 19 20 84 83
f 20 21 85 84
f 21 22 86 85
f 22 23 87 86
f 23 24 88 87
f 24 25 89 88
f 25 26 90 89
f 26 27 91 90
f 27 28 92 91
f 28 29 93 92
f 29 30 94 93
f 30 31 95 94
f 31 32 96 95
f 32 33 97 96
f 33 34 98 97
f 34 35 99 98
f 35 36 100 99
f 36 37 101 100
f 37 38 102 101
f 38 39 103 102
f 39 40 104 103
f 40 41 105 104
f 41 42 106 105
f 42 43 107 106
f 43 44 108 107
f 44 45 109 108
f 45 46 110 109
f 46 47 111 110
f 47 48 112 111
f 48 49 113 112
f 49 50 114 113
f 50 51 115 114
f 51 52 116 115
f 52 53 117 116
f 53 54 118 117
f 54 55 119 118
f 55 56 120 119
f 56 57 121 120
f 57 58 122 121
f 58 59 123 122
f 59 60 124 123
f 60 61 125 124
f 61 62 126 125
f 62 63 127 126
f 63 64 128 127
f 64 1 65 128
f 65 66 130 129
f 66 67 131 130
f 67 68 132 131
f 68 69 133 132
f 69 70 134 133
f 70 71 135 134
f 71 72 136 135
f 72 73 137 136
f 73 74 138 137
f 74 75 139 138
f 75 76 140 139
f 76 77 141 140
f 77 78 142 141
f 78 79 143 142
f 79 80 144 143
f 80 81 145 144
f 81 82 146 145
f 82 83 147 146
f 83 84 148 147
f 84 85 149 148
f 85 86 150 149
f 86 87 151 150
f 87 88 152 151
f 88 89 153 152
f 89 90 154 153
f 90 91 155 154
f 91 92 156 155
f 92 93 157 156
f 93 94 158 157
f 94 95 159 158
f 95 96 160 159
f 96 97 161 160
f 97 98 162 161
f 98 99 163 162
f 99 100 164 163
f 100 101 165 164
f 101 102 166 165
f 102 103 167 166
f 103 104 168 167
f 104 105 169 168
f 105 106 170 169
f 106 107 171 170
f 107 108 172 171
f 108 109 173 172
f 109 110 174 173
f 110 111 175 174
f 111 112 176 175
f 112 113 177 176
f 113 114 178 177
f 114 115 179 178
f 115 116 180 179
f 116 117 181 180
f 117 118 182 181
f 118 119 183 182
f 119 120 184 183
f 120 121 185 184
f 121 122 186 185
f 122 123 187 186
f 123 124 188 187
f 124 125 189 188
f 125 126 190 189
f 126 127 191 190
f 127 128 192 191
f 128 65 129 192
f 129 130 194 193
f 130 131 195 194
f 131 132 196 195
f 132 133 197 196
f 133 134 198 197
f 134 135 199 198
f 135 136 200 199
f 136 137 201 200
f 137 138 202 201
f 138 139 203 202
f 139 140 204 203
f 140 141 205 204
f 141 142 206 205
f 142 143 207 206
f 143 144 208 207
f 144 145 209 208
f 145 146 210 209
f 146 147 211 210
f 147 148 212 211
f 148 149 213 212
f 149 150 214 213
f 150 151 215 214
f 151 152 216 215
f 152 153 217 216
f 153 154 218 217
f 154 155 219 218
f 155 156 220 219
f 156 157 221 220
f 157 158 222 221
f 158 159 223 222
f 159 160 224 223
f 160 161 225 224
f 161 162 226 225
f 162 163 227 226
f 163 164 228 227
f 164 165 229 228
f 165 166 230 229
f 166 167 231 230
f 167 168 232 231
f 168 169 233 232
f 169 170 234 233
f 170 171 235 234
f 171 172 236 235
f 172 173 237 236
f 173 174 238 237
f 174 175 239 238
f 175 176 240 239
f 176 177 241 240
f 177 178 242 241
f 178 179 243 242
f 179 180 244 243
f 180 181 245 244
f 181 182 246 245
f 182 183 247 246
f 183 184 248 247
f 184 185 249 248
f 185 186 250 249
f 186 187 251 250
f 187 188 252 251
f 188 189 253 252
f 189 190 254 253
f 190 191 255 254
f 191 192 256 255
f 192 129 193 256
f 193 194 258 257
f 194 195 259 258
f 195 196 260 259
f 196 197 261 260
f 197 198 262 261
f 198 199 263 262
f 199 200 264 263
f 200 201 265 264
f 201 202 266 265
f 202 203 267 266
f 203 204 268 267
f 204 205 269 268
f 205 206 270 269
f 206 207 271 270
f 207 208 272 271
f 208 209 273 272
f 209 210 274 273
f 210 211 275 274
f 211 212 276 275
f 212 213 277 276
f 213 214 278 277
f 214 215 279 278
f 215 216 280 279
f 216 217 281 280
f 217 218 282 281
f 218 219 283 282
f 219 220 284 283
f 220 221 285 284
f 221 222 286 285
f 222 223 287 286
f 223 224 288 287
f 224 225 289 288
f 225 226 290 289
f 226 227 291 290
f 227 228 292 291
f 228 229 293 292
f 229 230 294 293
f 230 231 295 294
f 231 232 296 295
f 232 233 297 296
f 233 234 298 297
f 234 235 299 298
f 235 236 300 299
f 236 237 301 300
f 237 238 302 301
f 238 239 303 302
f 239 240 304 303
f 240 241 305 304
f 241 242 306 305
f 242 243 307 306
f 243 244 308 307
f 244 245 309 308
f 245 246 310 309
f 246 247 311 310
f 247 248 312 311
f 248 249 313 312
f 249 250 314 313
f 250 251 315 314
f 251 252 316 315
f 252 253 317 316
f 253 254 318 317
f 254 255 319 318
f 255 256 320 319
f 256 193 257 320
f 257 258 322 321
f 258 259 323 322
f 259 260 324 323
f 260 261 325 324
f 261 262 326 325
f 262 263 327 326
f 263 264 328 327
f 264 265 329 328
f 265 266 330 329
f 266 267 331 330
f 267 268 332 331
f 268 269 333 332
f 269 270 334 333
f 270 271 335 334
f 271 272 336 335
f 272 273 337 336
f 273 274 338 337
f 274 275 339 338
f 275 276 340 339
f 276 277 341 340
f 277 278 342 341
f 278 279 343 342
f 279 280 344 343
f 280 281 345 344
f 281 282 346 345
f 282 283 347 346
f 283 284 348 347
f 284 285 349 348
f 285 286 350 349
f 286 287 351 350
f 287 288 352 351
f 288 289 353 352
f 289 290 354 353
f 290 291 355 354
f 291 292 356 355
f 292 293 357 356
f 293 294 358 357
f 294 295 359 358
f 295 296 360 359
f 296 297 361 360
f 297 298 362 361
f 298 299 363 362
f 299 300 364 363
f 300 301 365 364
f 301 302 366 365
f 302 303 367 366
f 303 304 368 367
f 304 305 369 368
f 305 306 370 369
f 306 307 371 370
f 307 308 372 371
f 308 309 373 372
f 309 310 374 373
f 310 311 375 374
f 311 312 376 375
f 312 313 377 376
f 313 314 378 377
f 314 315 379 378
f 315 316 380 379
f 316 317 381 380
f 317 318 382 381
f 318 319 383 382
f 319 320 384 383
f 320 257 321 384
f 321 322 386 385
f 322 323 387 386
f 323 324 388 387
f 324 325 389 388
f 325 326 390 389
f 326 327 391 390
f 327 328 392 391
f 328 329 393 392
f 329 330 394 393
f 330 331 395 394
f 331 332 396 395
f 332 333 397 396
f 333 334 398 397
f 334 335 399 398
f 335 336 400 399
f 336 337 401 400
f 337 338 402 401
f 338 339 403 402
f 339 340 404 403
f 340 341 405 404
f 341 342 406 405
f 342 343 407 406
f 343 344 408 407
f 344 345 409 408
f 345 346 410 409
f 346 347 411 410
f 347 348 412 411
f 348 349 413 412
f 349 350 414 413
f 350 351 415 414
f 351 352 416 415
f 352 353 417 416
f 353 354 418 417
f 354 355 419 418
f 355 356 420 419
f 356 357 421 420
f 357 358 422 421
f 358 359 423 422
f 359 360 424 423
f 360 361 425 424
f 361 362 426 425
f 362 363 427 426
f 363 364 428 427
f 364 365 429 428
f 365 366 430 429
f 366 367 431 430
f 367 368 432 431
f 368 369 433 432
f 369 370 434 433
f 370 371 435 434
f 371 372 436 435
f 372 373 437 436
f 373 374 438 437
f 374 375 439 438
f 375 376 440 439
f 376 377 441 440
f 377 378 442 441
f 378 379 443 442
f 379 380 444 443
f 380 381 445 444
f 381 382 446 445
f 382 383 447 446
f 383 384 448 447
f 384 321 385 448
f 385 386 450 449
f 386 387 451 450
f 387 388 452 451
f 388 389 453 452
f 389 390 454 453
f 390 391 455 454
f 391 392 456 455
f 392 393 457 456
f 393 394 458 457
f 394 395 459 458
f 395 396 460 459
f 396 397 461 460
f 397 398 462 461
f 398 399 463 462
f 399 400 464 463
f 400 401 465 464
f 401 402 466 465
f 402 403 467 466
f 403 404 468 467
f 404 405 469 468
f 405 406 470 469
f 406 407 471 470
f 407 408 472 471
f 408 409 473 472
f 409 410 474 473
f 410 411 475 474
f 411 412 476 475
f 412 413 477 476
f 413 414 478 477
f 414 415 479 478
f 415 416 480 479
f 416 417 481 480
f 417 418 482 481
f 418 419 483 482
f 419 420 484 483
f 420 421 485 484
f 421 422 486 485
f 422 423 487 486
f 423 424 488 487
f 424 425 489 488
f 425 426 490 489
f 426 427 491 490
f 427 428 492 491
f 428 429 493 492
f 429 430 494 493
f 430 431 495 494
f 431 432 496 495
f 432 433 497 496
f 433 434 498 497
f 434 435 499 498
f 435 436 500 499
f 436 437 501 500
f 437 438 502 501
f 438 439 503 502
f 439 440 504 503
f 440 441 505 504
f 441 442 506 505
f 442 443 507 506
f 443 444 508 507
f 444 445 509 508
f 445 446 510 509
f 446 447 511 510
f 447 448 512 511
f 448 385 449 512
f 449 450 514 513
f 450 451 515 514
f 451 452 516 515
f 452 453 517 516
f 453 454 518 517
f 454 455 519 518
f 455 456 520 519
f 456 457 521 520
f 457 458 522 521
f 458 459 523 522
f 459 460 524 523
f 460 461 525 524
f 461 462 526 525
f 462 463 527 526
f 463 464 528 527
f 464 465 529 528
f 465 466 530 529
f 466 467 531 530
f 467 468 532 531
f 468 469 533 532
f 469 470 534 533
f 470 471 535 534
f 471 472 536 535
f 472 473 537 536
f 473 474 538 537
f 474 475 539 538
f 475 476 540 539
f 476 477 541 540
f 477 478 542 541
f 478 479 543 542
f 479 480 544 543
f 480 481 545 544
f 481 482 546 545
f 482 483 547 546
f 483 484 548 547
f 484 485 549 548
f 485 486 550 549
f 486 487 551 550
f 487 488 552 551
f 488 489 553 552
f 489 490 554 553
f 490 491 555 554
f 491 492 556 555
f 492 493 557 556
f 493 494 558 557
f 494 495 559 558
f 495 496 560 559
f 496 497 561 560
f 497 498 562 561
f 498 499 563 562
f 499 500 564 563
f 500 501 565 564
f 501 502 566 565
f 502 503 567 566
f 503 504 568 567
f 504 505 569 568
f 505 506 570 569
f 506 507 571 570
f 507 508 572 571
f 508 509 573 572
f 509 510 574 573
f 510 511 575 574
f 511 512 576 575
f 512 449 513 576
f 64 63 62 61 60 59 58 57 56 55 54 53 52 51 50 49 48 47 46 45 44 43 42 41 40 39 38 37 36 35 34 33 32 31 30 29 28 27 26 25 24 23 22 21 20 19 18 17 16 15 14 13 12 11 10 9 8 7 6 5 4 3 2 1
f 513 514 515 516 517 518 519 520 521 522 523 524 525 526 527 528 529 530 531 532 533 534 535 536 537 538 539 540 541 542 543 544 545 546 547 548 549 550 551 552 553 554 555 556 557 558 559 560 561 562 563 564 565 566 567 568 569 570 571 572 573 574 575 576
g bridge_superstructure
f 885 886 910 909
f 886 887 911 910
f 887 888 912 911
f 888 889 913 912
f 889 890 914 913
f 890 891 915 914
f 891 892 916 915
f 892 893 917 916
f 893 894 918 917
f 894 895 919 918
f 895 896 920 919
f 896 897 921 920
f 897 898 922 921
f 898 899 923 922
f 899 900 924 923
f 900 901 925 924
f 901 902 926 925
f 902 903 927 926
f 903 904 928 927
f 904 905 929 928
f 905 906 930 929
f 906 907 931 930
f 907 908 932 931
f 908 885 909 932
f 909 910 934 933
f 910 911 935 934
f 911 912 936 935
f 912 913 937 936
f 913 914 938 937
f 914 915 939 938
f 915 916 940 939
f 916 917 941 940
f 917 918 942 941
f 918 919 943 942
f 919 920 944 943
f 920 921 945 944
f 921 922 946 945
f 922 923 947 946
f 923 924 948 947
f 924 925 949 948
f 925 926 950 949
f 926 927 951 950
f 927 928 952 951
f 928 929 953 952
f 929 930 954 953
f 930 931 955 954
f 931 932 956 955
f 932 909 933 956
f 933 934 958 957
f 934 935 959 958
f 935 936 960 959
f 936 937 961 960
f 937 938 962 961
f 938 939 963 962
f 939 940 964 963
f 940 941 965 964
f 941 942 966 965
f 942 943 967 966
f 943 944 968 967
f 944 945 969 968
f 945 946 970 969
f 946 947 971 970
f 947 948 972 971
f 948 949 973 972
f 949 950 974 973
f 950 951 975 974
f 951 952 976 975
f 952 953 977 976
f 953 954 978 977
f 954 955 979 978
f 955 956 980 979
f 956 933 957 980
f 957 958 982 981
f 958 959 983 982
f 959 960 984 983
f 960 961 985 984
f 961 962 986 985
f 962 963 987 986
f 963 964 988 987
f 964 965 989 988
f 965 966 990 989
f 966 967 991 990
f 967 968 992 991
f 968 969 993 992
f 969 970 994 993
f 970 971 995 994
f 971 972 996 995
f 972 973 997 996
f 973 974 998 997
f 974 975 999 998
f 975 976 1000 999
f 976 977 1001 1000
f 977 978 1002 1001
f 978 979 1003 1002
f 979 980 1004 1003
f 980 957 981 1004
f 981 982 1006 1005
f 982 983 1007 1006
f 983 984 1008 1007
f 984 985 1009 1008
f 985 986 1010 1009
f 986 987 1011 1010
f 987 988 1012 1011
f 988 989 1013 1012
f 989 990 1014 1013
f 990 991 1015 1014
f 991 992 1016 1015
f 992 993 1017 1016
f 993 994 1018 1017
f 994 995 1019 1018
f 995 996 1020 1019
f 996 997 1021 1020
f 997 998 1022 1021
f 998 999 1023 1022
f 999 1000 1024 1023
f 1000 1001 1025 1024
f 1001 1002 1026 1025
f 1002 1003 1027 1026
f 1003 1004 1028 1027
f 1004 981 1005 1028
f 1005 1006 1030 1029
f 1006 1007 1031 1030
f 1007 1008 1032 1031
f 1008 1009 1033 1032
f 1009 1010 1034 1033
f 1010 1011 1035 1034
f 1011 1012 1036 1035
f 1012 1013 1037 1036
f 1013 1014 1038 1037
f 1014 1015 1039 1038
f 1015 1016 1040 1039
f 1016 1017 1041 1040
f 1017 1018 1042 1041
f 1018 1019 1043 1042
f 1019 1020 1044 1043
f 1020 1021 1045 1044
f 1021 1022 1046 1045
f 1022 1023 1047 1046
f 1023 1024 1048 1047
f 1024 1025 1049 1048
f 1025 1026 1050 1049
f 1026 1027 1051 1050
f 1027 1028 1052 1051
f 1028 1005 1029 1052
f 1029 1030 1054 1053
f 1030 1031 1055 1054
f 1031 1032 1056 1055
f 1032 1033 1057 1056
f 1033 1034 1058 1057
f 1034 1035 1059 1058
f 1035 1036 1060 1059
f 1036 1037 1061 1060
f 1037 1038 1062 1061
f 1038 1039 1063 1062
f 1039 1040 1064 1063
f 1040 1041 1065 1064
f 1041 1042 1066 1065
f 1042 1043 1067 1066
f 1043 1044 1068 1067
f 1044 1045 1069 1068
f 1045 1046 1070 1069
f 1046 1047 1071 1070
f 1047 1048 1072 1071
f 1048 1049 1073 1072
f 1049 1050 1074 1073
f 1050 1051 1075 1074
f 1051 1052 1076 1075
f 1052 1029 1053 1076
f 1053 1054 1078 1077
f 1054 1055 1079 1078
f 1055 1056 1080 1079
f 1056 1057 1081 1080
f 1057 1058 1082 1081
f 1058 1059 1083 1082
f 1059 1060 1084 1083
f 1060 1061 1085 1084
f 1061 1062 1086 1085
f 1062 1063 1087 1086
f 1063 1064 1088 1087
f 1064 1065 1089 1088
f 1065 1066 1090 1089
f 1066 1067 1091 1090
f 1067 1068 1092 1091
f 1068 1069 1093 1092
f 1069 1070 1094 1093
f 1070 1071 1095 1094
f 1071 1072 1096 1095
f 1072 1073 1097 1096
f 1073 1074 1098 1097
f 1074 1075 1099 1098
f 1075 1076 1100 1099
f 1076 1053 1077 1100
f 908 907 906 905 904 903 902 901 900 899 898 897 896 895 894 893 892 891 890 889 888 887 886 885
f 1077 1078 1079 1080 1081 1082 1083 1084 1085 1086 1087 1088 1089 1090 1091 1092 1093 1094 1095 1096 1097 1098 1099 1100
f 1101 1102 1126 1125
f 1102 1103 1127 1126
f 1103 1104 1128 1127
f 1104 1105 1129 1128
f 1105 1106 1130 1129
f 1106 1107 1131 1130
f 1107 1108 1132 1131
f 1108 1109 1133 1132
f 1109 1110 1134 1133
f 1110 1111 1135 1134
f 1111 1112 1136 1135
f 1112 1113 1137 1136
f 1113 1114 1138 1137
f 1114 1115 1139 1138
f 1115 1116 1140 1139
f 1116 1117 1141 1140
f 1117 1118 1142 1141
f 1118 1119 1143 1142
f 1119 1120 1144 1143
f 1120 1121 1145 1144
f 1121 1122 1146 1145
f 1122 1123 1147 1146
f 1123 1124 1148 1147
f 1124 1101 1125 1148
f 1125 1126 1150 1149
f 1126 1127 1151 1150
f 1127 1128 1152 1151
f 1128 1129 1153 1152
f 1129 1130 1154 1153
f 1130 1131 1155 1154
f 1131 1132 1156 1155
f 1132 1133 1157 1156
f 1133 1134 1158 1157
f 1134 1135 1159 1158
f 1135 1136 1160 1159
f 1136 1137 1161 1160
f 1137 1138 1162 1161
f 1138 1139 1163 1162
f 1139 1140 1164 1163
f 1140 1141 1165 1164
f 1141 1142 1166 1165
f 1142 1143 1167 1166
f 1143 1144 1168 1167
f 1144 1145 1169 1168
f 1145 1146 1170 1169
f 1146 1147 1171 1170
f 1147 1148 1172 1171
f 1148 1125 1149 1172
f 1149 1150 1174 1173
f 1150 1151 1175 1174
f 1151 1152 1176 1175
f 1152 1153 1177 1176
f 1153 1154 1178 1177
f 1154 1155 1179 1178
f 1155 1156 1180 1179
f 1156 1157 1181 1180
f 1157 1158 1182 1181
f 1158 1159 1183 1182
f 1159 1160 1184 1183
f 1160 1161 1185 1184
f 1161 1162 1186 1185
f 1162 1163 1187 1186
f 1163 1164 1188 1187
f 1164 1165 1189 1188
f 1165 1166 1190 1189
f 1166 1167 1191 1190
f 1167 1168 1192 1191
f 1168 1169 1193 1192
f 1169 1170 1194 1193
f 1170 1171 1195 1194
f 1171 1172 1196 1195
f 1172 1149 1173 1196
f 1173 1174 1198 1197
f 1174 1175 1199 1198
f 1175 1176 1200 1199
f 1176 1177 1201 1200
f 1177 1178 1202 1201
f 1178 1179 1203 1202
f 1179 1180 1204 1203
f 1180 1181 1205 1204
f 1181 1182 1206 1205
f 1182 1183 1207 1206
f 1183 1184 1208 1207
f 1184 1185 1209 1208
f 1185 1186 1210 1209
f 1186 1187 1211 1210
f 1187 1188 1212 1211
f 1188 1189 1213 1212
f 1189 1190 1214 1213
f 1190 1191 1215 1214
f 1191 1192 1216 1215
f 1192 1193 1217 1216
f 1193 1194 1218 1217
f 1194 1195 1219 1218
f 1195 1196 1220 1219
f 1196 1173 1197 1220
f 1197 1198 1222 1221
f 1198 1199 1223 1222
f 1199 1200 1224 1223
f 1200 1201 1225 1224
f 1201 1202 1226 1225
f 1202 1203 1227 1226
f 1203 1204 1228 1227
f 1204 1205 1229 1228
f 1205 1206 1230 1229
f 1206 1207 1231 1230
f 1207 1208 1232 1231
f 1208 1209 1233 1232
f 1209 1210 1234 1233
f 1210 1211 1235 1234
f 1211 1212 1236 1235
f 1212 1213 1237 1236
f 1213 1214 1238 1237
f 1214 1215 1239 1238
f 1215 1216 1240 1239
f 1216 1217 1241 1240
f 1217 1218 1242 1241
f 1218 1219 1243 1242
f 1219 1220 1244 1243
f 1220 1197 1221 1244
f 1221 1222 1246 1245
f 1222 1223 1247 1246
f 1223 1224 1248 1247
f 1224 1225 1249 1248
f 1225 1226 1250 1249
f 1226 1227 1251 1250
f 1227 1228 1252 1251
f 1228 1229 1253 1252
f 1229 1230 1254 1253
f 1230 1231 1255 1254
f 1231 1232 1256 1255
f 1232 1233 1257 1256
f 1233 1234 1258 1257
f 1234 1235 1259 1258
f 1235 1236 1260 1259
f 1236 1237 1261 1260
f 1237 1238 1262 1261
f 1238 1239 1263 1262
f 1239 1240 1264 1263
f 1240 1241 1265 1264
f 1241 1242 1266 1265
f 1242 1243 1267 1266
f 1243 1244 1268 1267
f 1244 1221 1245 1268
f 1245 1246 1270 1269
f 1246 1247 1271 1270
f 1247 1248 1272 1271
f 1248 1249 1273 1272
f 1249 1250 1274 1273
f 1250 1251 1275 1274
f 1251 1252 1276 1275
f 1252 1253 1277 1276
f 1253 1254 1278 1277
f 1254 1255 1279 1278
f 1255 1256 1280 1279
f 1256 1257 1281 1280
f 1257 1258 1282 1281
f 1258 1259 1283 1282
f 1259 1260 1284 1283
f 1260 1261 1285 1284
f 1261 1262 1286 1285
f 1262 1263 1287 1286
f 1263 1264 1288 1287
f 1264 1265 1289 1288
f 1265 1266 1290 1289
f 1266 1267 1291 1290
f 1267 1268 1292 1291
f 1268 1245 1269 1292
f 1269 1270 1294 1293
f 1270 1271 1295 1294
f 1271 1272 1296 1295
f 1272 1273 1297 1296
f 1273 1274 1298 1297
f 1274 1275 1299 1298
f 1275 1276 1300 1299
f 1276 1277 1301 1300
f 1277 1278 1302 1301
f 1278 1279 1303 1302
f 1279 1280 1304 1303
f 1280 1281 1305 1304
f 1281 1282 1306 1305
f 1282 1283 1307 1306
f 1283 1284 1308 1307
f 1284 1285 1309 1308
f 1285 1286 1310 1309
f 1286 1287 1311 1310
f 1287 1288 1312 1311
f 1288 1289 1313 1312
f 1289 1290 1314 1313
f 1290 1291 1315 1314
f 1291 1292 1316 1315
f 1292 1269 1293 1316
f 1124 1123 1122 1121 1120 1119 1118 1117 1116 1115 1114 1113 1112 1111 1110 1109 1108 1107 1106 1105 1104 1103 1102 1101
f 1293 1294 1295 1296 1297 1298 1299 1300 1301 1302 1303 1304 1305 1306 1307 1308 1309 1310 1311 1312 1313 1314 1315 1316
g connecting_neck
f 1321 1322 1318 1317
f 1322 1323 1319 1318
f 1323 1324 1320 1319
f 1324 1321 1317 1320
f 1317 1318 1319 1320
f 1324 1323 1322 1321
g engineering_hull
f 1325 1326 1346
f 1325 1346 1345
f 1326 1327 1347
f 1326 1347 1346
f 1327 1328 1348
f 1327 1348 1347
f 1328 1329 1349
f 1328 1349 1348
f 1329 1330 1350
f 1329 1350 1349
f 1330 1331 1351
f 1330 1351 1350
f 1331 1332 1352
f 1331 1352 1351
f 1332 1333 1353
f 1332 1353 1352
f 1333 1334 1354
f 1333 1354 1353
f 1334 1335 1355
f 1334 1355 1354
f 1335 1336 1356
f 1335 1356 1355
f 1336 1337 1357
f 1336 1357 1356
f 1337 1338 1358
f 1337 1358 1357
f 1338 1339 1359
f 1338 1359 1358
f 1339 1340 1360
f 1339 1360 1359
f 1340 1341 1361
f 1340 1361 1360
f 1341 1342 1362
f 1341 1362 1361
f 1342 1343 1363
f 1342 1363 1362
f 1343 1344 1364
f 1343 1364 1363
f 1344 1325 1345
f 1344 1345 1364
f 1345 1346 1366
f 1345 1366 1365
f 1346 1347 1367
f 1346 1367 1366
f 1347 1348 1368
f 1347 1368 1367
f 1348 1349 1369
f 1348 1369 1368
f 1349 1350 1370
f 1349 1370 1369
f 1350 1351 1371
f 1350 1371 1370
f 1351 1352 1372
f 1351 1372 1371
f 1352 1353 1373
f 1352 1373 1372
f 1353 1354 1374
f 1353 1374 1373
f 1354 1355 1375
f 1354 1375 1374
f 1355 1356 1376
f 1355 1376 1375
f 1356 1357 1377
f 1356 1377 1376
f 1357 1358 1378
f 1357 1378 1377
f 1358 1359 1379
f 1358 1379 1378
f 1359 1360 1380
f 1359 1380 1379
f 1360 1361 1381
f 1360 1381 1380
f 1361 1362 1382
f 1361 1382 1381
f 1362 1363 1383
f 1362 1383 1382
f 1363 1364 1384
f 1363 1384 1383
f 1364 1345 1365
f 1364 1365 1384
f 1365 1366 1386
f 1365 1386 1385
f 1366 1367 1387
f 1366 1387 1386
f 1367 1368 1388
f 1367 1388 1387
f 1368 1369 1389
f 1368 1389 1388
f 1369 1370 1390
f 1369 1390 1389
f 1370 1371 1391
f 1370 1391 1390
f 1371 1372 1392
f 1371 1392 1391
f 1372 1373 1393
f 1372 1393 1392
f 1373 1374 1394
f 1373 1394 1393
f 1374 1375 1395
f 1374 1395 1394
f 1375 1376 1396
f 1375 1396 1395
f 1376 1377 1397
f 1376 1397 1396
f 1377 1378 1398
f 1377 1398 1397
f 1378 1379 1399
f 1378 1399 1398
f 1379 1380 1400
f 1379 1400 1399
f 1380 1381 1401
f 1380 1401 1400
f 1381 1382 1402
f 1381 1402 1401
f 1382 1383 1403
f 1382 1403 1402
f 1383 1384 1404
f 1383 1404 1403
f 1384 1365 1385
f 1384 1385 1404
f 1385 1386 1406
f 1385 1406 1405
f 1386 1387 1407
f 1386 1407 1406
f 1387 1388 1408
f 1387 1408 1407
f 1388 1389 1409
f 1388 1409 1408
f 1389 1390 1410
f 1389 1410 1409
f 1390 1391 1411
f 1390 1411 1410
f 1391 1392 1412
f 1391 1412 1411
f 1392 1393 1413
f 1392 1413 1412
f 1393 1394 1414
f 1393 1414 1413
f 1394 1395 1415
f 1394 1415 1414
f 1395 1396 1416
f 1395 1416 1415
f 1396 1397 1417
f 1396 1417 1416
f 1397 1398 1418
f 1397 1418 1417
f 1398 1399 1419
f 1398 1419 1418
f 1399 1400 1420
f 1399 1420 1419
f 1400 1401 1421
f 1400 1421 1420
f 1401 1402 1422
f 1401 1422 1421
f 1402 1403 1423
f 1402 1423 1422
f 1403 1404 1424
f 1403 1424 1423
f 1404 1385 1405
f 1404 1405 1424
f 1405 1406 1426
f 1405 1426 1425
f 1406 1407 1427
f 1406 1427 1426
f 1407 1408 1428
f 1407 1428 1427
f 1408 1409 1429
f 1408 1429 1428
f 1409 1410 1430
f 1409 1430 1429
f 1410 1411 1431
f 1410 1431 1430
f 1411 1412 1432
f 1411 1432 1431
f 1412 1413 1433
f 1412 1433 1432
f 1413 1414 1434
f 1413 1434 1433
f 1414 1415 1435
f 1414 1435 1434
f 1415 1416 1436
f 1415 1436 1435
f 1416 1417 1437
f 1416 1437 1436
f 1417 1418 1438
f 1417 1438 1437
f 1418 1419 1439
f 1418 1439 1438
f 1419 1420 1440
f 1419 1440 1439
f 1420 1421 1441
f 1420 1441 1440
f 1421 1422 1442
f 1421 1442 1441
f 1422 1423 1443
f 1422 1443 1442
f 1423 1424 1444
f 1423 1444 1443
f 1424 1405 1425
f 1424 1425 1444
f 1344 1343 1342 1341 1340 1339 1338 1337 1336 1335 1334 1333 1332 1331 1330 1329 1328 1327 1326 1325
f 1425 1426 1427 1428 1429 1430 1431 1432 1433 1434 1435 1436 1437 1438 1439 1440 1441 1442 1443 1444
g nacelle_pylon
f 1449 1450 1446 1445
f 1450 1451 1447 1446
f 1451 1452 1448 1447
f 1452 1449 1445 1448
f 1445 1446 1447 1448
f 1452 1451 1450 1449
g warp_nacelle
f 1453 1454 1470 1469
f 1454 1455 1471 1470
f 1455 1456 1472 1471
f 1456 1457 1473 1472
f 1457 1458 1474 1473
f 1458 1459 1475 1474
f 1459 1460 1476 1475
f 1460 1461 1477 1476
f 1461 1462 1478 1477
f 1462 1463 1479 1478
f 1463 1464 1480 1479
f 1464 1465 1481 1480
f 1465 1466 1482 1481
f 1466 1467 1483 1482
f 1467 1468 1484 1483
f 1468 1453 1469 1484
f 1469 1470 1486 1485
f 1470 1471 1487 1486
f 1471 1472 1488 1487
f 1472 1473 1489 1488
f 1473 1474 1490 1489
f 1474 1475 1491 1490
f 1475 1476 1492 1491
f 1476 1477 1493 1492
f 1477 1478 1494 1493
f 1478 1479 1495 1494
f 1479 1480 1496 1495
f 1480 1481 1497 1496
f 1481 1482 1498 1497
f 1482 1483 1499 1498
f 1483 1484 1500 1499
f 1484 1469 1485 1500
f 1485 1486 1502 1501
f 1486 1487 1503 1502
f 1487 1488 1504 1503
f 1488 1489 1505 1504
f 1489 1490 1506 1505
f 1490 1491 1507 1506
f 1491 1492 1508 1507
f 1492 1493 1509 1508
f 1493 1494 1510 1509
f 1494 1495 1511 1510
f 1495 1496 1512 1511
f 1496 1497 1513 1512
f 1497 1498 1514 1513
f 1498 1499 1515 1514
f 1499 1500 1516 1515
f 1500 1485 1501 1516
f 1501 1502 1518 1517
f 1502 1503 1519 1518
f 1503 1504 1520 1519
f 1504 1505 1521 1520
f 1505 1506 1522 1521
f 1506 1507 1523 1522
f 1507 1508 1524 1523
f 1508 1509 1525 1524
f 1509 1510 1526 1525
f 1510 1511 1527 1526
f 1511 1512 1528 1527
f 1512 1513 1529 1528
f 1513 1514 1530 1529
f 1514 1515 1531 1530
f 1515 1516 1532 1531
f 1516 1501 1517 1532
f 1517 1518 1534 1533
f 1518 1519 1535 1534
f 1519 1520 1536 1535
f 1520 1521 1537 1536
f 1521 1522 1538 1537
f 1522 1523 1539 1538
f 1523 1524 1540 1539
f 1524 1525 1541 1540
f 1525 1526 1542 1541
f 1526 1527 1543 1542
f 1527 1528 1544 1543
f 1528 1529 1545 1544
f 1529 1530 1546 1545
f 1530 1531 1547 1546
f 1531 1532 1548 1547
f 1532 1517 1533 1548
f 1533 1534 1550 1549
f 1534 1535 1551 1550
f 1535 1536 1552 1551
f 1536 1537 1553 1552
f 1537 1538 1554 1553
f 1538 1539 1555 1554
f 1539 1540 1556 1555
f 1540 1541 1557 1556
f 1541 1542 1558 1557
f 1542 1543 1559 1558
f 1543 1544 1560 1559
f 1544 1545 1561 1560
f 1545 1546 1562 1561
f 1546 1547 1563 1562
f 1547 1548 1564 1563
f 1548 1533 1549 1564
f 1468 1467 1466 1465 1464 1463 1462 1461 1460 1459 1458 1457 1456 1455 1454 1453
f 1549 1550 1551 1552 1553 1554 1555 1556 1557 1558 1559 1560 1561 1562 1563 1564
g nacelle_pylon
f 1608 1609 1605 1604
f 1609 1610 1606 1605
f 1610 1611 1607 1606
f 1611 1608 1604 1607
f 1604 1605 1606 1607
f 1611 1610 1609 1608
g warp_nacelle
f 1612 1613 1629 1628
f 1613 1614 1630 1629
f 1614 1615 1631 1630
f 1615 1616 1632 1631
f 1616 1617 1633 1632
f 1617 1618 1634 1633
f 1618 1619 1635 1634
f 1619 1620 1636 1635
f 1620 1621 1637 1636
f 1621 1622 1638 1637
f 1622 1623 1639 1638
f 1623 1624 1640 1639
f 1624 1625 1641 1640
f 1625 1626 1642 1641
f 1626 1627 1643 1642
f 1627 1612 1628 1643
f 1628 1629 1645 1644
f 1629 1630 1646 1645
f 1630 1631 1647 1646
f 1631 1632 1648 1647
f 1632 1633 1649 1648
f 1633 1634 1650 1649
f 1634 1635 1651 1650
f 1635 1636 1652 1651
f 1636 1637 1653 1652
f 1637 1638 1654 1653
f 1638 1639 1655 1654
f 1639 1640 1656 1655
f 1640 1641 1657 1656
f 1641 1642 1658 1657
f 1642 1643 1659 1658
f 1643 1628 1644 1659
f 1644 1645 1661 1660
f 1645 1646 1662 1661
f 1646 1647 1663 1662
f 1647 1648 1664 1663
f 1648 1649 1665 1664
f 1649 1650 1666 1665
f 1650 1651 1667 1666
f 1651 1652 1668 1667
f 1652 1653 1669 1668
f 1653 1654 1670 1669
f 1654 1655 1671 1670
f 1655 1656 1672 1671
f 1656 1657 1673 1672
f 1657 1658 1674 1673
f 1658 1659 1675 1674
f 1659 1644 1660 1675
f 1660 1661 1677 1676
f 1661 1662 1678 1677
f 1662 1663 1679 1678
f 1663 1664 1680 1679
f 1664 1665 1681 1680
f 1665 1666 1682 1681
f 1666 1667 1683 1682
f 1667 1668 1684 1683
f 1668 1669 1685 1684
f 1669 1670 1686 1685
f 1670 1671 1687 1686
f 1671 1672 1688 1687
f 1672 1673 1689 1688
f 1673 1674 1690 1689
f 1674 1675 1691 1690
f 1675 1660 1676 1691
f 1676 1677 1693 1692
f 1677 1678 1694 1693
f 1678 1679 1695 1694
f 1679 1680 1696 1695
f 1680 1681 1697 1696
f 1681 1682 1698 1697
f 1682 1683 1699 1698
f 1683 1684 1700 1699
f 1684 1685 1701 1700
f 1685 1686 1702 1701
f 1686 1687 1703 1702
f 1687 1688 1704 1703
f 1688 1689 1705 1704
f 1689 1690 1706 1705
f 1690 1691 1707 1706
f 1691 1676 1692 1707
f 1692 1693 1709 1708
f 1693 1694 1710 1709
f 1694 1695 1711 1710
f 1695 1696 1712 1711
f 1696 1697 1713 1712
f 1697 1698 1714 1713
f 1698 1699 1715 1714
f 1699 1700 1716 1715
f 1700 1701 1717 1716
f 1701 1702 1718 1717
f 1702 1703 1719 1718
f 1703 1704 1720 1719
f 1704 1705 1721 1720
f 1705 1706 1722 1721
f 1706 1707 1723 1722
f 1707 1692 1708 1723
f 1627 1626 1625 1624 1623 1622 1621 1620 1619 1618 1617 1616 1615 1614 1613 1612
f 1708 1709 1710 1711 1712 1713 1714 1715 1716 1717 1718 1719 1720 1721 1722 1723
g navigation_deflector
f 1787 1788 1764 1763
f 1788 1789 1765 1764
f 1789 1790 1766 1765
f 1790 1791 1767 1766
f 1791 1792 1768 1767
f 1792 1793 1769 1768
f 1793 1794 1770 1769
f 1794 1795 1771 1770
f 1795 1796 1772 1771
f 1796 1797 1773 1772
f 1797 1798 1774 1773
f 1798 1799 1775 1774
f 1799 1800 1776 1775
f 1800 1801 1777 1776
f 1801 1802 1778 1777
f 1802 1803 1779 1778
f 1803 1804 1780 1779
f 1804 1805 1781 1780
f 1805 1806 1782 1781
f 1806 1807 1783 1782
f 1807 1808 1784 1783
f 1808 1809 1785 1784
f 1809 1810 1786 1785
f 1810 1787 1763 1786
f 1811 1812 1788 1787
f 1812 1813 1789 1788
f 1813 1814 1790 1789
f 1814 1815 1791 1790
f 1815 1816 1792 1791
f 1816 1817 1793 1792
f 1817 1818 1794 1793
f 1818 1819 1795 1794
f 1819 1820 1796 1795
f 1820 1821 1797 1796
f 1821 1822 1798 1797
f 1822 1823 1799 1798
f 1823 1824 1800 1799
f 1824 1825 1801 1800
f 1825 1826 1802 1801
f 1826 1827 1803 1802
f 1827 1828 1804 1803
f 1828 1829 1805 1804
f 1829 1830 1806 1805
f 1830 1831 1807 1806
f 1831 1832 1808 1807
f 1832 1833 1809 1808
f 1833 1834 1810 1809
f 1834 1811 1787 1810
f 1763 1764 1765 1766 1767 1768 1769 1770 1771 1772 1773 1774 1775 1776 1777 1778 1779 1780 1781 1782 1783 1784 1785 1786
f 1834 1833 1832 1831 1830 1829 1828 1827 1826 1825 1824 1823 1822 1821 1820 1819 1818 1817 1816 1815 1814 1813 1812 1811
g schematic_details
l 65 66 67 68 69 70 71 72 73 74 75 76 77 78 79 80 81 82 83 84 85 86 87 88 89 90 91 92 93 94 95 96 97 98 99 100 101 102 103 104 105 106 107 108 109 110 111 112 113 114 115 116 117 118 119 120 121 122 123 124 125 126 127 128 65
l 129 130 131 132 133 134 135 136 137 138 139 140 141 142 143 144 145 146 147 148 149 150 151 152 153 154 155 156 157 158 159 160 161 162 163 164 165 166 167 168 169 170 171 172 173 174 175 176 177 178 179 180 181 182 183 184 185 186 187 188 189 190 191 192 129
l 193 194 195 196 197 198 199 200 201 202 203 204 205 206 207 208 209 210 211 212 213 214 215 216 217 218 219 220 221 222 223 224 225 226 227 228 229 230 231 232 233 234 235 236 237 238 239 240 241 242 243 244 245 246 247 248 249 250 251 252 253 254 255 256 193
l 257 258 259 260 261 262 263 264 265 266 267 268 269 270 271 272 273 274 275 276 277 278 279 280 281 282 283 284 285 286 287 288 289 290 291 292 293 294 295 296 297 298 299 300 301 302 303 304 305 306 307 308 309 310 311 312 313 314 315 316 317 318 319 320 257
l 321 322 323 324 325 326 327 328 329 330 331 332 333 334 335 336 337 338 339 340 341 342 343 344 345 346 347 348 349 350 351 352 353 354 355 356 357 358 359 360 361 362 363 364 365 366 367 368 369 370 371 372 373 374 375 376 377 378 379 380 381 382 383 384 321
l 385 386 387 388 389 390 391 392 393 394 395 396 397 398 399 400 401 402 403 404 405 406 407 408 409 410 411 412 413 414 415 416 417 418 419 420 421 422 423 424 425 426 427 428 429 430 431 432 433 434 435 436 437 438 439 440 441 442 443 444 445 446 447 448 385
l 449 450 451 452 453 454 455 456 457 458 459 460 461 462 463 464 465 466 467 468 469 470 471 472 473 474 475 476 477 478 479 480 481 482 483 484 485 486 487 488 489 490 491 492 493 494 495 496 497 498 499 500 501 502 503 504 505 506 507 508 509 510 511 512 449
l 65 129 193 257
l 69 133 197 261
l 73 137 201 265
l 77 141 205 269
l 81 145 209 273
l 85 149 213 277
l 89 153 217 281
l 93 157 221 285
l 97 161 225 289
l 101 165 229 293
l 105 169 233 297
l 109 173 237 301
l 113 177 241 305
l 117 181 245 309
l 121 185 249 313
l 125 189 253 317
l 321 385 449
l 329 393 457
l 337 401 465
l 345 409 473
l 353 417 481
l 361 425 489
l 369 433 497
l 377 441 505
l 577 578 579 580 581 582 583 584 585 586 587 588 589 590 591 592 593 594 595 596 597 598 599 600 601 602 603 604 605 606 607 608 609 610 611 612 613 614 615 616 617 618 619 620 621 622 623 624 625 626 627 628 629 630 631 632 633 634 635 636 637 638 639 640 577
l 641 642 643 644 645 646 647 648 649 650 651 652 653 654 655 656 657 658 659 660 661 662 663 664 665 666 667 668 669 670 671 672 673 674 675 676 677 678 679 680 681 682 683 684 685 686 687 688 689 690 691 692 693 694 695 696 697 698 699 700 701 702 703 704 641
l 705 706 707 708 709 710 711 712 713 714 715 716 717 718 719 720 721 722 723 724 725 726 727 728 729 730 731 732 733 734 735 736 737 738 739 740 741 742 743 744 745 746 747 748 749 750 751 752 753 754 755 756 757 758 759 760 761 762 763 764 765 766 767 768 705
l 769 770
l 771 772
l 773 774
l 775 776
l 777 778
l 779 780
l 781 782
l 783 784
l 785 786
l 787 788
l 789 790
l 791 792
l 793 794
l 795 796
l 797 798
l 799 800
l 801 802
l 803 804
l 805 806
l 807 808
l 809 810
l 811 812
l 813 814
l 815 816
l 817 818
l 819 820
l 821 822
l 823 824
l 825 826
l 827 828
l 829 830
l 831 832
l 833 834
l 835 836
l 837 838
l 839 840
l 841 842
l 843 844
l 845 846
l 847 848
l 849 850
l 851 852
l 853 854
l 855 856
l 857 858
l 859 860
l 861 862
l 863 864
l 865 866
l 867 868
l 869 870
l 871 872
l 873 874
l 875 876
l 877 878
l 879 880
l 881 882
l 883 884
l 1325 1326 1327 1328 1329 1330 1331 1332 1333 1334 1335 1336 1337 1338 1339 1340 1341 1342 1343 1344 1325
l 1345 1346 1347 1348 1349 1350 1351 1352 1353 1354 1355 1356 1357 1358 1359 1360 1361 1362 1363 1364 1345
l 1405 1406 1407 1408 1409 1410 1411 1412 1413 1414 1415 1416 1417 1418 1419 1420 1421 1422 1423 1424 1405
l 1425 1426 1427 1428 1429 1430 1431 1432 1433 1434 1435 1436 1437 1438 1439 1440 1441 1442 1443 1444 1425
l 1325 1345 1365 1385 1405 1425
l 1330 1350 1370 1390 1410 1430
l 1335 1355 1375 1395 1415 1435
l 1340 1360 1380 1400 1420 1440
l 1453 1454 1455 1456 1457 1458 1459 1460 1461 1462 1463 1464 1465 1466 1467 1468 1453
l 1469 1470 1471 1472 1473 1474 1475 1476 1477 1478 1479 1480 1481 1482 1483 1484 1469
l 1533 1534 1535 1536 1537 1538 1539 1540 1541 1542 1543 1544 1545 1546 1547 1548 1533
l 1549 1550 1551 1552 1553 1554 1555 1556 1557 1558 1559 1560 1561 1562 1563 1564 1549
l 1453 1469 1485 1501 1517 1533 1549
l 1457 1473 1489 1505 1521 1537 1553
l 1461 1477 1493 1509 1525 1541 1557
l 1465 1481 1497 1513 1529 1545 1561
l 1565 1566 1567 1568
l 1569 1570 1571 1572
l 1573 1574 1575 1576
l 1577 1578 1579 1580
l 1581 1582 1583 1584
l 1585 1586 1587 1588
l 1589 1590 1591
l 1592 1593 1594
l 1595 1596 1597
l 1598 1599 1600
l 1601 1602 1603
l 1612 1613 1614 1615 1616 1617 1618 1619 1620 1621 1622 1623 1624 1625 1626 1627 1612
l 1628 1629 1630 1631 1632 1633 1634 1635 1636 1637 1638 1639 1640 1641 1642 1643 1628
l 1692 1693 1694 1695 1696 1697 1698 1699 1700 1701 1702 1703 1704 1705 1706 1707 1692
l 1708 1709 1710 1711 1712 1713 1714 1715 1716 1717 1718 1719 1720 1721 1722 1723 1708
l 1612 1628 1644 1660 1676 1692 1708
l 1616 1632 1648 1664 1680 1696 1712
l 1620 1636 1652 1668 1684 1700 1716
l 1624 1640 1656 1672 1688 1704 1720
l 1724 1725 1726 1727
l 1728 1729 1730 1731
l 1732 1733 1734 1735
l 1736 1737 1738 1739
l 1740 1741 1742 1743
l 1744 1745 1746 1747
l 1748 1749 1750
l 1751 1752 1753
l 1754 1755 1756
l 1757 1758 1759
l 1760 1761 1762
l 1763 1764 1765 1766 1767 1768 1769 1770 1771 1772 1773 1774 1775 1776 1777 1778 1779 1780 1781 1782 1783 1784 1785 1786 1763
l 1787 1788 1789 1790 1791 1792 1793 1794 1795 1796 1797 1798 1799 1800 1801 1802 1803 1804 1805 1806 1807 1808 1809 1810 1787
l 1787 1788 1789 1790 1791 1792 1793 1794 1795 1796 1797 1798 1799 1800 1801 1802 1803 1804 1805 1806 1807 1808 1809 1810 1787
l 1811 1812 1813 1814 1815 1816 1817 1818 1819 1820 1821 1822 1823 1824 1825 1826 1827 1828 1829 1830 1831 1832 1833 1834 1811
l 1763 1787 1811
l 1769 1793 1817
l 1775 1799 1823
l 1781 1805 1829
l 1835 1836
l 1837 1838
l 1839 1840
l 1841 1842
